<?xml version="1.0" encoding="UTF-8" standalone="no"?>
<!DOCTYPE svg PUBLIC "-//W3C//DTD SVG 1.1//EN"
 "http://www.w3.org/Graphics/SVG/1.1/DTD/svg11.dtd">
<!-- Generated by graphviz version 12.2.1 (20241206.2353)
 -->
<!-- Title: util/misc/arraysize.h Pages: 1 -->
<svg width="160pt" height="89pt"
 viewBox="0.00 0.00 159.62 88.50" xmlns="http://www.w3.org/2000/svg" xmlns:xlink="http://www.w3.org/1999/xlink">
<g id="graph0" class="graph" transform="scale(1 1) rotate(0) translate(4 84.5)">
<title>util/misc/arraysize.h</title>
<!-- Node1 -->
<g id="Node000001" class="node">
<title>Node1</title>
<g id="a_Node000001"><a xlink:title=" ">
<polygon fill="#999999" stroke="#666666" points="130.38,-80.5 22.12,-80.5 22.12,-58.25 130.38,-58.25 130.38,-80.5"/>
<text text-anchor="middle" x="76.25" y="-67" font-family="Noto Sans, Lucida Grande, Lucida Sans Unicode, Helvetica, Arial, sans-serif" font-size="10.00">util/misc/arraysize.h</text>
</a>
</g>
</g>
<!-- Node2 -->
<g id="Node000002" class="node">
<title>Node2</title>
<g id="a_Node000002"><a xlink:title=" ">
<polygon fill="#e0e0e0" stroke="#999999" points="68.5,-22.25 0,-22.25 0,0 68.5,0 68.5,-22.25"/>
<text text-anchor="middle" x="34.25" y="-8.75" font-family="Noto Sans, Lucida Grande, Lucida Sans Unicode, Helvetica, Arial, sans-serif" font-size="10.00">sys/types.h</text>
</a>
</g>
</g>
<!-- Node1&#45;&gt;Node2 -->
<g id="edge1_Node000001_Node000002" class="edge">
<title>Node1&#45;&gt;Node2</title>
<g id="a_edge1_Node000001_Node000002"><a xlink:title=" ">
<path fill="none" stroke="#63b8ff" d="M68.35,-57.79C62.89,-50.49 55.47,-40.55 48.95,-31.81"/>
<polygon fill="#63b8ff" stroke="#63b8ff" points="51.81,-29.79 43.02,-23.87 46.2,-33.98 51.81,-29.79"/>
</a>
</g>
</g>
<!-- Node3 -->
<g id="Node000003" class="node">
<title>Node3</title>
<g id="a_Node000003"><a xlink:title=" ">
<polygon fill="#e0e0e0" stroke="#999999" points="151.62,-22.25 86.88,-22.25 86.88,0 151.62,0 151.62,-22.25"/>
<text text-anchor="middle" x="119.25" y="-8.75" font-family="Noto Sans, Lucida Grande, Lucida Sans Unicode, Helvetica, Arial, sans-serif" font-size="10.00">type_traits</text>
</a>
</g>
</g>
<!-- Node1&#45;&gt;Node3 -->
<g id="edge2_Node000001_Node000003" class="edge">
<title>Node1&#45;&gt;Node3</title>
<g id="a_edge2_Node000001_Node000003"><a xlink:title=" ">
<path fill="none" stroke="#63b8ff" d="M84.34,-57.79C89.98,-50.41 97.68,-40.34 104.42,-31.53"/>
<polygon fill="#63b8ff" stroke="#63b8ff" points="106.99,-33.93 110.28,-23.86 101.43,-29.68 106.99,-33.93"/>
</a>
</g>
</g>
</g>
</svg>
