<?xml version="1.0" encoding="UTF-8" standalone="no"?>
<!DOCTYPE svg PUBLIC "-//W3C//DTD SVG 1.1//EN"
 "http://www.w3.org/Graphics/SVG/1.1/DTD/svg11.dtd">
<!-- Generated by graphviz version 12.2.1 (20241206.2353)
 -->
<!-- Title: crashpad::FileSeekerInterface Pages: 1 -->
<svg width="529pt" height="218pt"
 viewBox="0.00 0.00 529.25 218.38" xmlns="http://www.w3.org/2000/svg" xmlns:xlink="http://www.w3.org/1999/xlink">
<g id="graph0" class="graph" transform="scale(1 1) rotate(0) translate(4 214.38)">
<title>crashpad::FileSeekerInterface</title>
<!-- Node1 -->
<g id="Node000001" class="node">
<title>Node1</title>
<g id="a_Node000001"><a xlink:title="An interface to seek in files and other file&#45;like objects with semantics matching the underlying plat...">
<polygon fill="#999999" stroke="#666666" points="155.5,-116.38 0,-116.38 0,-94.12 155.5,-94.12 155.5,-116.38"/>
<text text-anchor="middle" x="77.75" y="-102.88" font-family="Noto Sans, Lucida Grande, Lucida Sans Unicode, Helvetica, Arial, sans-serif" font-size="10.00">crashpad::FileSeekerInterface</text>
</a>
</g>
</g>
<!-- Node2 -->
<g id="Node000002" class="node">
<title>Node2</title>
<g id="a_Node000002"><a xlink:href="classcrashpad_1_1FileReaderInterface.html" target="_top" xlink:title="An interface to read to files and other file&#45;like objects with semantics matching the underlying plat...">
<polygon fill="white" stroke="#666666" points="347.75,-149.38 191.5,-149.38 191.5,-127.12 347.75,-127.12 347.75,-149.38"/>
<text text-anchor="middle" x="269.62" y="-135.88" font-family="Noto Sans, Lucida Grande, Lucida Sans Unicode, Helvetica, Arial, sans-serif" font-size="10.00">crashpad::FileReaderInterface</text>
</a>
</g>
</g>
<!-- Node1&#45;&gt;Node2 -->
<g id="edge1_Node000001_Node000002" class="edge">
<title>Node1&#45;&gt;Node2</title>
<g id="a_edge1_Node000001_Node000002"><a xlink:title=" ">
<path fill="none" stroke="#63b8ff" d="M156.73,-118.8C171.68,-121.4 187.22,-124.1 201.79,-126.63"/>
<polygon fill="#63b8ff" stroke="#63b8ff" points="157.37,-115.36 146.92,-117.1 156.17,-122.26 157.37,-115.36"/>
</a>
</g>
</g>
<!-- Node6 -->
<g id="Node000006" class="node">
<title>Node6</title>
<g id="a_Node000006"><a xlink:href="classcrashpad_1_1FileWriterInterface.html" target="_top" xlink:title="An interface to write to files and other file&#45;like objects with semantics matching the underlying pla...">
<polygon fill="white" stroke="#666666" points="345.88,-96.38 193.38,-96.38 193.38,-74.12 345.88,-74.12 345.88,-96.38"/>
<text text-anchor="middle" x="269.62" y="-82.88" font-family="Noto Sans, Lucida Grande, Lucida Sans Unicode, Helvetica, Arial, sans-serif" font-size="10.00">crashpad::FileWriterInterface</text>
</a>
</g>
</g>
<!-- Node1&#45;&gt;Node6 -->
<g id="edge5_Node000001_Node000006" class="edge">
<title>Node1&#45;&gt;Node6</title>
<g id="a_edge5_Node000001_Node000006"><a xlink:title=" ">
<path fill="none" stroke="#63b8ff" d="M167.24,-95.93C175.85,-95.02 184.53,-94.11 193,-93.22"/>
<polygon fill="#63b8ff" stroke="#63b8ff" points="167.06,-92.43 157.48,-96.96 167.8,-99.39 167.06,-92.43"/>
</a>
</g>
</g>
<!-- Node3 -->
<g id="Node000003" class="node">
<title>Node3</title>
<g id="a_Node000003"><a xlink:href="classcrashpad_1_1FileReader.html" target="_top" xlink:title="A file reader implementation that wraps traditional system file operations on files accessed through ...">
<polygon fill="white" stroke="#666666" points="508.88,-210.38 396.12,-210.38 396.12,-188.12 508.88,-188.12 508.88,-210.38"/>
<text text-anchor="middle" x="452.5" y="-196.88" font-family="Noto Sans, Lucida Grande, Lucida Sans Unicode, Helvetica, Arial, sans-serif" font-size="10.00">crashpad::FileReader</text>
</a>
</g>
</g>
<!-- Node2&#45;&gt;Node3 -->
<g id="edge2_Node000002_Node000003" class="edge">
<title>Node2&#45;&gt;Node3</title>
<g id="a_edge2_Node000002_Node000003"><a xlink:title=" ">
<path fill="none" stroke="#63b8ff" d="M311.38,-153.7C332.81,-161.65 359.58,-171.31 383.75,-179.25 392.49,-182.12 401.92,-185.03 410.89,-187.7"/>
<polygon fill="#63b8ff" stroke="#63b8ff" points="312.71,-150.46 302.12,-150.24 310.27,-157.02 312.71,-150.46"/>
</a>
</g>
</g>
<!-- Node4 -->
<g id="Node000004" class="node">
<title>Node4</title>
<g id="a_Node000004"><a xlink:href="classcrashpad_1_1StringFile.html" target="_top" xlink:title="A file reader and writer backed by a virtual file, as opposed to a file on disk or other operating sy...">
<polygon fill="white" stroke="#666666" points="505.88,-116.38 399.12,-116.38 399.12,-94.12 505.88,-94.12 505.88,-116.38"/>
<text text-anchor="middle" x="452.5" y="-102.88" font-family="Noto Sans, Lucida Grande, Lucida Sans Unicode, Helvetica, Arial, sans-serif" font-size="10.00">crashpad::StringFile</text>
</a>
</g>
</g>
<!-- Node2&#45;&gt;Node4 -->
<g id="edge3_Node000002_Node000004" class="edge">
<title>Node2&#45;&gt;Node4</title>
<g id="a_edge3_Node000002_Node000004"><a xlink:title=" ">
<path fill="none" stroke="#63b8ff" d="M345.22,-124.64C363.24,-121.35 382.13,-117.91 398.9,-114.85"/>
<polygon fill="#63b8ff" stroke="#63b8ff" points="344.84,-121.15 335.63,-126.39 346.1,-128.04 344.84,-121.15"/>
</a>
</g>
</g>
<!-- Node5 -->
<g id="Node000005" class="node">
<title>Node5</title>
<g id="a_Node000005"><a xlink:href="classcrashpad_1_1WeakFileHandleFileReader.html" target="_top" xlink:title="A file reader backed by a FileHandle.">
<polygon fill="white" stroke="#666666" points="521.25,-170.5 383.75,-170.5 383.75,-134 521.25,-134 521.25,-170.5"/>
<text text-anchor="start" x="391.75" y="-157" font-family="Noto Sans, Lucida Grande, Lucida Sans Unicode, Helvetica, Arial, sans-serif" font-size="10.00">crashpad::WeakFileHandle</text>
<text text-anchor="middle" x="452.5" y="-142.75" font-family="Noto Sans, Lucida Grande, Lucida Sans Unicode, Helvetica, Arial, sans-serif" font-size="10.00">FileReader</text>
</a>
</g>
</g>
<!-- Node2&#45;&gt;Node5 -->
<g id="edge4_Node000002_Node000005" class="edge">
<title>Node2&#45;&gt;Node5</title>
<g id="a_edge4_Node000002_Node000005"><a xlink:title=" ">
<path fill="none" stroke="#63b8ff" d="M359.42,-145.12C367.45,-145.74 375.49,-146.37 383.29,-146.97"/>
<polygon fill="#63b8ff" stroke="#63b8ff" points="359.87,-141.65 349.63,-144.36 359.33,-148.63 359.87,-141.65"/>
</a>
</g>
</g>
<!-- Node6&#45;&gt;Node4 -->
<g id="edge7_Node000006_Node000004" class="edge">
<title>Node6&#45;&gt;Node4</title>
<g id="a_edge7_Node000006_Node000004"><a xlink:title=" ">
<path fill="none" stroke="#63b8ff" d="M357.51,-94.86C371.57,-96.41 385.75,-97.98 398.67,-99.41"/>
<polygon fill="#63b8ff" stroke="#63b8ff" points="358.11,-91.4 347.79,-93.78 357.34,-98.36 358.11,-91.4"/>
</a>
</g>
</g>
<!-- Node7 -->
<g id="Node000007" class="node">
<title>Node7</title>
<g id="a_Node000007"><a xlink:href="classcrashpad_1_1FileWriter.html" target="_top" xlink:title="A file writer implementation that wraps traditional system file operations on files accessed through ...">
<polygon fill="white" stroke="#666666" points="507,-76.38 398,-76.38 398,-54.12 507,-54.12 507,-76.38"/>
<text text-anchor="middle" x="452.5" y="-62.88" font-family="Noto Sans, Lucida Grande, Lucida Sans Unicode, Helvetica, Arial, sans-serif" font-size="10.00">crashpad::FileWriter</text>
</a>
</g>
</g>
<!-- Node6&#45;&gt;Node7 -->
<g id="edge6_Node000006_Node000007" class="edge">
<title>Node6&#45;&gt;Node7</title>
<g id="a_edge6_Node000006_Node000007"><a xlink:title=" ">
<path fill="none" stroke="#63b8ff" d="M357.67,-75.63C371.29,-74.12 385.01,-72.6 397.59,-71.21"/>
<polygon fill="#63b8ff" stroke="#63b8ff" points="357.34,-72.14 347.79,-76.72 358.11,-79.1 357.34,-72.14"/>
</a>
</g>
</g>
<!-- Node8 -->
<g id="Node000008" class="node">
<title>Node8</title>
<g id="a_Node000008"><a xlink:href="classcrashpad_1_1WeakFileHandleFileWriter.html" target="_top" xlink:title="A file writer backed by a FileHandle.">
<polygon fill="white" stroke="#666666" points="521.25,-36.5 383.75,-36.5 383.75,0 521.25,0 521.25,-36.5"/>
<text text-anchor="start" x="391.75" y="-23" font-family="Noto Sans, Lucida Grande, Lucida Sans Unicode, Helvetica, Arial, sans-serif" font-size="10.00">crashpad::WeakFileHandle</text>
<text text-anchor="middle" x="452.5" y="-8.75" font-family="Noto Sans, Lucida Grande, Lucida Sans Unicode, Helvetica, Arial, sans-serif" font-size="10.00">FileWriter</text>
</a>
</g>
</g>
<!-- Node6&#45;&gt;Node8 -->
<g id="edge8_Node000006_Node000008" class="edge">
<title>Node6&#45;&gt;Node8</title>
<g id="a_edge8_Node000006_Node000008"><a xlink:title=" ">
<path fill="none" stroke="#63b8ff" d="M312.51,-69.74C338.9,-59.96 373.14,-47.28 401.02,-36.95"/>
<polygon fill="#63b8ff" stroke="#63b8ff" points="311.3,-66.45 303.14,-73.21 313.73,-73.01 311.3,-66.45"/>
</a>
</g>
</g>
</g>
</svg>
