<?xml version="1.0" encoding="UTF-8" standalone="no"?>
<!DOCTYPE svg PUBLIC "-//W3C//DTD SVG 1.1//EN"
 "http://www.w3.org/Graphics/SVG/1.1/DTD/svg11.dtd">
<!-- Generated by graphviz version 12.2.1 (20241206.2353)
 -->
<!-- Title: crashpad::CrashReportExceptionHandler Pages: 1 -->
<svg width="357pt" height="100pt"
 viewBox="0.00 0.00 356.50 99.50" xmlns="http://www.w3.org/2000/svg" xmlns:xlink="http://www.w3.org/1999/xlink">
<g id="graph0" class="graph" transform="scale(1 1) rotate(0) translate(4 95.5)">
<title>crashpad::CrashReportExceptionHandler</title>
<!-- Node1 -->
<g id="Node000001" class="node">
<title>Node1</title>
<g id="a_Node000001"><a xlink:title="An exception handler that writes crash reports for exceptions to a CrashReportDatabase.">
<polygon fill="#999999" stroke="#666666" points="348.5,-91.5 182.5,-91.5 182.5,-55 348.5,-55 348.5,-91.5"/>
<text text-anchor="start" x="190.5" y="-78" font-family="Noto Sans, Lucida Grande, Lucida Sans Unicode, Helvetica, Arial, sans-serif" font-size="10.00">crashpad::CrashReportException</text>
<text text-anchor="middle" x="265.5" y="-63.75" font-family="Noto Sans, Lucida Grande, Lucida Sans Unicode, Helvetica, Arial, sans-serif" font-size="10.00">Handler</text>
</a>
</g>
</g>
<!-- Node2 -->
<g id="Node000002" class="node">
<title>Node2</title>
<g id="a_Node000002"><a xlink:href="classcrashpad_1_1ExceptionHandlerServer_1_1Delegate.html" target="_top" xlink:title=" ">
<polygon fill="white" stroke="#bfbfbf" points="146.12,-91.5 0.38,-91.5 0.38,-55 146.12,-55 146.12,-91.5"/>
<text text-anchor="start" x="8.38" y="-78" font-family="Noto Sans, Lucida Grande, Lucida Sans Unicode, Helvetica, Arial, sans-serif" font-size="10.00">crashpad::ExceptionHandler</text>
<text text-anchor="middle" x="73.25" y="-63.75" font-family="Noto Sans, Lucida Grande, Lucida Sans Unicode, Helvetica, Arial, sans-serif" font-size="10.00">Server::Delegate</text>
</a>
</g>
</g>
<!-- Node2&#45;&gt;Node1 -->
<g id="edge1_Node000001_Node000002" class="edge">
<title>Node2&#45;&gt;Node1</title>
<g id="a_edge1_Node000001_Node000002"><a xlink:title=" ">
<path fill="none" stroke="#63b8ff" d="M157.78,-66.54C165.88,-66.48 174.08,-66.49 182.16,-66.55"/>
<polygon fill="#63b8ff" stroke="#63b8ff" points="157.92,-63.04 147.96,-66.66 158,-70.04 157.92,-63.04"/>
</a>
</g>
</g>
<!-- Node2&#45;&gt;Node1 -->
<g id="edge3_Node000001_Node000002" class="edge">
<title>Node2&#45;&gt;Node1</title>
<g id="a_edge3_Node000001_Node000002"><a xlink:title=" ">
<path fill="none" stroke="#63b8ff" d="M157.78,-79.96C165.88,-80.02 174.08,-80.01 182.16,-79.95"/>
<polygon fill="#63b8ff" stroke="#63b8ff" points="158,-76.46 147.96,-79.84 157.92,-83.46 158,-76.46"/>
</a>
</g>
</g>
<!-- Node3 -->
<g id="Node000003" class="node">
<title>Node3</title>
<g id="a_Node000003"><a xlink:href="classcrashpad_1_1UniversalMachExcServer_1_1Interface.html" target="_top" xlink:title="An interface that the different request messages that are a part of the exc and mach_exc Mach subsyst...">
<polygon fill="white" stroke="#666666" points="146.5,-36.5 0,-36.5 0,0 146.5,0 146.5,-36.5"/>
<text text-anchor="start" x="8" y="-23" font-family="Noto Sans, Lucida Grande, Lucida Sans Unicode, Helvetica, Arial, sans-serif" font-size="10.00">crashpad::UniversalMachExc</text>
<text text-anchor="middle" x="73.25" y="-8.75" font-family="Noto Sans, Lucida Grande, Lucida Sans Unicode, Helvetica, Arial, sans-serif" font-size="10.00">Server::Interface</text>
</a>
</g>
</g>
<!-- Node3&#45;&gt;Node1 -->
<g id="edge2_Node000001_Node000003" class="edge">
<title>Node3&#45;&gt;Node1</title>
<g id="a_edge2_Node000001_Node000003"><a xlink:title=" ">
<path fill="none" stroke="#63b8ff" d="M149.66,-40.05C166.21,-44.83 183.59,-49.86 199.68,-54.51"/>
<polygon fill="#63b8ff" stroke="#63b8ff" points="150.96,-36.78 140.38,-37.37 149.01,-43.51 150.96,-36.78"/>
</a>
</g>
</g>
</g>
</svg>
