<?xml version="1.0" encoding="UTF-8" standalone="no"?>
<!DOCTYPE svg PUBLIC "-//W3C//DTD SVG 1.1//EN"
 "http://www.w3.org/Graphics/SVG/1.1/DTD/svg11.dtd">
<!-- Generated by graphviz version 12.2.1 (20241206.2353)
 -->
<!-- Title: crashpad::MinidumpContextWriter Pages: 1 -->
<svg width="479pt" height="375pt"
 viewBox="0.00 0.00 479.00 374.50" xmlns="http://www.w3.org/2000/svg" xmlns:xlink="http://www.w3.org/1999/xlink">
<g id="graph0" class="graph" transform="scale(1 1) rotate(0) translate(4 370.5)">
<title>crashpad::MinidumpContextWriter</title>
<!-- Node1 -->
<g id="Node000001" class="node">
<title>Node1</title>
<g id="a_Node000001"><a xlink:title="The base class for writers of CPU context structures in minidump files.">
<polygon fill="#999999" stroke="#666666" points="289.25,-201.5 143.5,-201.5 143.5,-165 289.25,-165 289.25,-201.5"/>
<text text-anchor="start" x="151.5" y="-188" font-family="Noto Sans, Lucida Grande, Lucida Sans Unicode, Helvetica, Arial, sans-serif" font-size="10.00">crashpad::MinidumpContext</text>
<text text-anchor="middle" x="216.38" y="-173.75" font-family="Noto Sans, Lucida Grande, Lucida Sans Unicode, Helvetica, Arial, sans-serif" font-size="10.00">Writer</text>
</a>
</g>
</g>
<!-- Node3 -->
<g id="Node000003" class="node">
<title>Node3</title>
<g id="a_Node000003"><a xlink:href="classcrashpad_1_1MinidumpContextAMD64Writer.html" target="_top" xlink:title="The writer for a MinidumpContextAMD64 structure in a minidump file.">
<polygon fill="white" stroke="#666666" points="471,-366.5 325.25,-366.5 325.25,-330 471,-330 471,-366.5"/>
<text text-anchor="start" x="333.25" y="-353" font-family="Noto Sans, Lucida Grande, Lucida Sans Unicode, Helvetica, Arial, sans-serif" font-size="10.00">crashpad::MinidumpContext</text>
<text text-anchor="middle" x="398.12" y="-338.75" font-family="Noto Sans, Lucida Grande, Lucida Sans Unicode, Helvetica, Arial, sans-serif" font-size="10.00">AMD64Writer</text>
</a>
</g>
</g>
<!-- Node1&#45;&gt;Node3 -->
<g id="edge2_Node000001_Node000003" class="edge">
<title>Node1&#45;&gt;Node3</title>
<g id="a_edge2_Node000001_Node000003"><a xlink:title=" ">
<path fill="none" stroke="#63b8ff" d="M233.26,-211.43C251.78,-242.01 285.04,-290.46 325.25,-320.25 329.98,-323.76 335.21,-326.89 340.63,-329.66"/>
<polygon fill="#63b8ff" stroke="#63b8ff" points="236.43,-209.92 228.32,-203.1 230.41,-213.49 236.43,-209.92"/>
</a>
</g>
</g>
<!-- Node4 -->
<g id="Node000004" class="node">
<title>Node4</title>
<g id="a_Node000004"><a xlink:href="classcrashpad_1_1MinidumpContextARM64Writer.html" target="_top" xlink:title="The writer for a MinidumpContextARM64 structure in a minidump file.">
<polygon fill="white" stroke="#666666" points="471,-311.5 325.25,-311.5 325.25,-275 471,-275 471,-311.5"/>
<text text-anchor="start" x="333.25" y="-298" font-family="Noto Sans, Lucida Grande, Lucida Sans Unicode, Helvetica, Arial, sans-serif" font-size="10.00">crashpad::MinidumpContext</text>
<text text-anchor="middle" x="398.12" y="-283.75" font-family="Noto Sans, Lucida Grande, Lucida Sans Unicode, Helvetica, Arial, sans-serif" font-size="10.00">ARM64Writer</text>
</a>
</g>
</g>
<!-- Node1&#45;&gt;Node4 -->
<g id="edge3_Node000001_Node000004" class="edge">
<title>Node1&#45;&gt;Node4</title>
<g id="a_edge3_Node000001_Node000004"><a xlink:title=" ">
<path fill="none" stroke="#63b8ff" d="M246.72,-209.15C267.58,-226.63 296.83,-249.32 325.25,-265.25 331.21,-268.59 337.65,-271.71 344.13,-274.56"/>
<polygon fill="#63b8ff" stroke="#63b8ff" points="249.09,-206.56 239.2,-202.75 244.55,-211.9 249.09,-206.56"/>
</a>
</g>
</g>
<!-- Node5 -->
<g id="Node000005" class="node">
<title>Node5</title>
<g id="a_Node000005"><a xlink:href="classcrashpad_1_1MinidumpContextARMWriter.html" target="_top" xlink:title="The writer for a MinidumpContextARM structure in a minidump file.">
<polygon fill="white" stroke="#666666" points="471,-256.5 325.25,-256.5 325.25,-220 471,-220 471,-256.5"/>
<text text-anchor="start" x="333.25" y="-243" font-family="Noto Sans, Lucida Grande, Lucida Sans Unicode, Helvetica, Arial, sans-serif" font-size="10.00">crashpad::MinidumpContext</text>
<text text-anchor="middle" x="398.12" y="-228.75" font-family="Noto Sans, Lucida Grande, Lucida Sans Unicode, Helvetica, Arial, sans-serif" font-size="10.00">ARMWriter</text>
</a>
</g>
</g>
<!-- Node1&#45;&gt;Node5 -->
<g id="edge4_Node000001_Node000005" class="edge">
<title>Node1&#45;&gt;Node5</title>
<g id="a_edge4_Node000001_Node000005"><a xlink:title=" ">
<path fill="none" stroke="#63b8ff" d="M289.07,-205.19C304.57,-209.93 320.83,-214.9 335.88,-219.51"/>
<polygon fill="#63b8ff" stroke="#63b8ff" points="290.51,-201.97 279.93,-202.39 288.47,-208.66 290.51,-201.97"/>
</a>
</g>
</g>
<!-- Node6 -->
<g id="Node000006" class="node">
<title>Node6</title>
<g id="a_Node000006"><a xlink:href="classcrashpad_1_1MinidumpContextMIPS64Writer.html" target="_top" xlink:title="The writer for a MinidumpContextMIPS64 structure in a minidump file.">
<polygon fill="white" stroke="#666666" points="471,-201.5 325.25,-201.5 325.25,-165 471,-165 471,-201.5"/>
<text text-anchor="start" x="333.25" y="-188" font-family="Noto Sans, Lucida Grande, Lucida Sans Unicode, Helvetica, Arial, sans-serif" font-size="10.00">crashpad::MinidumpContext</text>
<text text-anchor="middle" x="398.12" y="-173.75" font-family="Noto Sans, Lucida Grande, Lucida Sans Unicode, Helvetica, Arial, sans-serif" font-size="10.00">MIPS64Writer</text>
</a>
</g>
</g>
<!-- Node1&#45;&gt;Node6 -->
<g id="edge5_Node000001_Node000006" class="edge">
<title>Node1&#45;&gt;Node6</title>
<g id="a_edge5_Node000001_Node000006"><a xlink:title=" ">
<path fill="none" stroke="#63b8ff" d="M300.96,-183.25C308.97,-183.25 317.05,-183.25 324.94,-183.25"/>
<polygon fill="#63b8ff" stroke="#63b8ff" points="301.22,-179.75 291.22,-183.25 301.22,-186.75 301.22,-179.75"/>
</a>
</g>
</g>
<!-- Node7 -->
<g id="Node000007" class="node">
<title>Node7</title>
<g id="a_Node000007"><a xlink:href="classcrashpad_1_1MinidumpContextMIPSWriter.html" target="_top" xlink:title="The writer for a MinidumpContextMIPS structure in a minidump file.">
<polygon fill="white" stroke="#666666" points="471,-146.5 325.25,-146.5 325.25,-110 471,-110 471,-146.5"/>
<text text-anchor="start" x="333.25" y="-133" font-family="Noto Sans, Lucida Grande, Lucida Sans Unicode, Helvetica, Arial, sans-serif" font-size="10.00">crashpad::MinidumpContext</text>
<text text-anchor="middle" x="398.12" y="-118.75" font-family="Noto Sans, Lucida Grande, Lucida Sans Unicode, Helvetica, Arial, sans-serif" font-size="10.00">MIPSWriter</text>
</a>
</g>
</g>
<!-- Node1&#45;&gt;Node7 -->
<g id="edge6_Node000001_Node000007" class="edge">
<title>Node1&#45;&gt;Node7</title>
<g id="a_edge6_Node000001_Node000007"><a xlink:title=" ">
<path fill="none" stroke="#63b8ff" d="M289.07,-161.31C304.57,-156.57 320.83,-151.6 335.88,-146.99"/>
<polygon fill="#63b8ff" stroke="#63b8ff" points="288.47,-157.84 279.93,-164.11 290.51,-164.53 288.47,-157.84"/>
</a>
</g>
</g>
<!-- Node8 -->
<g id="Node000008" class="node">
<title>Node8</title>
<g id="a_Node000008"><a xlink:href="classcrashpad_1_1MinidumpContextRISCV64Writer.html" target="_top" xlink:title="The writer for a MinidumpContextRISCV64 structure in a minidump file.">
<polygon fill="white" stroke="#666666" points="471,-91.5 325.25,-91.5 325.25,-55 471,-55 471,-91.5"/>
<text text-anchor="start" x="333.25" y="-78" font-family="Noto Sans, Lucida Grande, Lucida Sans Unicode, Helvetica, Arial, sans-serif" font-size="10.00">crashpad::MinidumpContext</text>
<text text-anchor="middle" x="398.12" y="-63.75" font-family="Noto Sans, Lucida Grande, Lucida Sans Unicode, Helvetica, Arial, sans-serif" font-size="10.00">RISCV64Writer</text>
</a>
</g>
</g>
<!-- Node1&#45;&gt;Node8 -->
<g id="edge7_Node000001_Node000008" class="edge">
<title>Node1&#45;&gt;Node8</title>
<g id="a_edge7_Node000001_Node000008"><a xlink:title=" ">
<path fill="none" stroke="#63b8ff" d="M246.72,-157.35C267.58,-139.87 296.83,-117.18 325.25,-101.25 331.21,-97.91 337.65,-94.79 344.13,-91.94"/>
<polygon fill="#63b8ff" stroke="#63b8ff" points="244.55,-154.6 239.2,-163.75 249.09,-159.94 244.55,-154.6"/>
</a>
</g>
</g>
<!-- Node9 -->
<g id="Node000009" class="node">
<title>Node9</title>
<g id="a_Node000009"><a xlink:href="classcrashpad_1_1MinidumpContextX86Writer.html" target="_top" xlink:title="The writer for a MinidumpContextX86 structure in a minidump file.">
<polygon fill="white" stroke="#666666" points="471,-36.5 325.25,-36.5 325.25,0 471,0 471,-36.5"/>
<text text-anchor="start" x="333.25" y="-23" font-family="Noto Sans, Lucida Grande, Lucida Sans Unicode, Helvetica, Arial, sans-serif" font-size="10.00">crashpad::MinidumpContext</text>
<text text-anchor="middle" x="398.12" y="-8.75" font-family="Noto Sans, Lucida Grande, Lucida Sans Unicode, Helvetica, Arial, sans-serif" font-size="10.00">X86Writer</text>
</a>
</g>
</g>
<!-- Node1&#45;&gt;Node9 -->
<g id="edge8_Node000001_Node000009" class="edge">
<title>Node1&#45;&gt;Node9</title>
<g id="a_edge8_Node000001_Node000009"><a xlink:title=" ">
<path fill="none" stroke="#63b8ff" d="M233.26,-155.07C251.78,-124.49 285.04,-76.04 325.25,-46.25 329.98,-42.74 335.21,-39.61 340.63,-36.84"/>
<polygon fill="#63b8ff" stroke="#63b8ff" points="230.41,-153.01 228.32,-163.4 236.43,-156.58 230.41,-153.01"/>
</a>
</g>
</g>
<!-- Node2 -->
<g id="Node000002" class="node">
<title>Node2</title>
<g id="a_Node000002"><a xlink:href="classcrashpad_1_1internal_1_1MinidumpWritable.html" target="_top" xlink:title="The base class for all content that might be written to a minidump file.">
<polygon fill="white" stroke="#666666" points="107.5,-201.5 0,-201.5 0,-165 107.5,-165 107.5,-201.5"/>
<text text-anchor="start" x="8" y="-188" font-family="Noto Sans, Lucida Grande, Lucida Sans Unicode, Helvetica, Arial, sans-serif" font-size="10.00">crashpad::internal</text>
<text text-anchor="middle" x="53.75" y="-173.75" font-family="Noto Sans, Lucida Grande, Lucida Sans Unicode, Helvetica, Arial, sans-serif" font-size="10.00">::MinidumpWritable</text>
</a>
</g>
</g>
<!-- Node2&#45;&gt;Node1 -->
<g id="edge1_Node000001_Node000002" class="edge">
<title>Node2&#45;&gt;Node1</title>
<g id="a_edge1_Node000001_Node000002"><a xlink:title=" ">
<path fill="none" stroke="#63b8ff" d="M119.17,-183.25C127.07,-183.25 135.18,-183.25 143.19,-183.25"/>
<polygon fill="#63b8ff" stroke="#63b8ff" points="119.3,-179.75 109.3,-183.25 119.3,-186.75 119.3,-179.75"/>
</a>
</g>
</g>
</g>
</svg>
