<?xml version="1.0" encoding="UTF-8" standalone="no"?>
<!DOCTYPE svg PUBLIC "-//W3C//DTD SVG 1.1//EN"
 "http://www.w3.org/Graphics/SVG/1.1/DTD/svg11.dtd">
<!-- Generated by graphviz version 12.2.1 (20241206.2353)
 -->
<!-- Title: crashpad::ExceptionHandlerServer::Delegate Pages: 1 -->
<svg width="334pt" height="117pt"
 viewBox="0.00 0.00 333.62 117.00" xmlns="http://www.w3.org/2000/svg" xmlns:xlink="http://www.w3.org/1999/xlink">
<g id="graph0" class="graph" transform="scale(1 1) rotate(0) translate(4 113)">
<title>crashpad::ExceptionHandlerServer::Delegate</title>
<!-- Node1 -->
<g id="Node000001" class="node">
<title>Node1</title>
<g id="a_Node000001"><a xlink:title=" ">
<polygon fill="#999999" stroke="#666666" points="155.88,-109 10.12,-109 10.12,-72.5 155.88,-72.5 155.88,-109"/>
<text text-anchor="start" x="18.12" y="-95.5" font-family="Noto Sans, Lucida Grande, Lucida Sans Unicode, Helvetica, Arial, sans-serif" font-size="10.00">crashpad::ExceptionHandler</text>
<text text-anchor="middle" x="83" y="-81.25" font-family="Noto Sans, Lucida Grande, Lucida Sans Unicode, Helvetica, Arial, sans-serif" font-size="10.00">Server::Delegate</text>
</a>
</g>
</g>
<!-- Node2 -->
<g id="Node000002" class="node">
<title>Node2</title>
<g id="a_Node000002"><a xlink:href="classcrashpad_1_1CrashReportExceptionHandler.html" target="_top" xlink:title="An exception handler that writes crash reports for exceptions to a CrashReportDatabase.">
<polygon fill="white" stroke="#666666" points="166,-36.5 0,-36.5 0,0 166,0 166,-36.5"/>
<text text-anchor="start" x="8" y="-23" font-family="Noto Sans, Lucida Grande, Lucida Sans Unicode, Helvetica, Arial, sans-serif" font-size="10.00">crashpad::CrashReportException</text>
<text text-anchor="middle" x="83" y="-8.75" font-family="Noto Sans, Lucida Grande, Lucida Sans Unicode, Helvetica, Arial, sans-serif" font-size="10.00">Handler</text>
</a>
</g>
</g>
<!-- Node1&#45;&gt;Node2 -->
<g id="edge1_Node000001_Node000002" class="edge">
<title>Node1&#45;&gt;Node2</title>
<g id="a_edge1_Node000001_Node000002"><a xlink:title=" ">
<path fill="none" stroke="#63b8ff" d="M76.35,-60.97C76.09,-52.84 76.33,-44.23 77.05,-36.97"/>
<polygon fill="#63b8ff" stroke="#63b8ff" points="72.85,-61.06 76.99,-70.81 79.84,-60.61 72.85,-61.06"/>
</a>
</g>
</g>
<!-- Node1&#45;&gt;Node2 -->
<g id="edge2_Node000001_Node000002" class="edge">
<title>Node1&#45;&gt;Node2</title>
<g id="a_edge2_Node000001_Node000002"><a xlink:title=" ">
<path fill="none" stroke="#63b8ff" d="M89.65,-60.97C89.91,-52.84 89.67,-44.23 88.95,-36.97"/>
<polygon fill="#63b8ff" stroke="#63b8ff" points="86.16,-60.61 89.01,-70.81 93.15,-61.06 86.16,-60.61"/>
</a>
</g>
</g>
<!-- Node3 -->
<g id="Node000003" class="node">
<title>Node3</title>
<g id="a_Node000003"><a xlink:href="classcrashpad_1_1CrosCrashReportExceptionHandler.html" target="_top" xlink:title="An exception handler that writes crash reports to the ChromeOS crash_reporter.">
<polygon fill="white" stroke="#666666" points="325.62,-36.5 184.38,-36.5 184.38,0 325.62,0 325.62,-36.5"/>
<text text-anchor="start" x="192.38" y="-23" font-family="Noto Sans, Lucida Grande, Lucida Sans Unicode, Helvetica, Arial, sans-serif" font-size="10.00">crashpad::CrosCrashReport</text>
<text text-anchor="middle" x="255" y="-8.75" font-family="Noto Sans, Lucida Grande, Lucida Sans Unicode, Helvetica, Arial, sans-serif" font-size="10.00">ExceptionHandler</text>
</a>
</g>
</g>
<!-- Node1&#45;&gt;Node3 -->
<g id="edge3_Node000001_Node000003" class="edge">
<title>Node1&#45;&gt;Node3</title>
<g id="a_edge3_Node000001_Node000003"><a xlink:title=" ">
<path fill="none" stroke="#63b8ff" d="M136.45,-67.84C160.74,-57.89 189.1,-46.26 211.99,-36.88"/>
<polygon fill="#63b8ff" stroke="#63b8ff" points="135.29,-64.54 127.36,-71.57 137.94,-71.01 135.29,-64.54"/>
</a>
</g>
</g>
</g>
</svg>
