<?xml version="1.0" encoding="UTF-8" standalone="no"?>
<!DOCTYPE svg PUBLIC "-//W3C//DTD SVG 1.1//EN"
 "http://www.w3.org/Graphics/SVG/1.1/DTD/svg11.dtd">
<!-- Generated by graphviz version 12.2.1 (20241206.2353)
 -->
<!-- Title: logging::NtstatusLogMessage Pages: 1 -->
<svg width="162pt" height="161pt"
 viewBox="0.00 0.00 162.00 161.00" xmlns="http://www.w3.org/2000/svg" xmlns:xlink="http://www.w3.org/1999/xlink">
<g id="graph0" class="graph" transform="scale(1 1) rotate(0) translate(4 157)">
<title>logging::NtstatusLogMessage</title>
<!-- Node1 -->
<g id="Node000001" class="node">
<title>Node1</title>
<g id="a_Node000001"><a xlink:title=" ">
<polygon fill="#999999" stroke="#666666" points="154,-94.75 0,-94.75 0,-72.5 154,-72.5 154,-94.75"/>
<text text-anchor="middle" x="77" y="-81.25" font-family="Noto Sans, Lucida Grande, Lucida Sans Unicode, Helvetica, Arial, sans-serif" font-size="10.00">logging::NtstatusLogMessage</text>
</a>
</g>
</g>
<!-- Node3 -->
<g id="Node000003" class="node">
<title>Node3</title>
<g id="a_Node000003"><a xlink:href="classlogging_1_1NtstatusLogMessageFatal.html" target="_top" xlink:title=" ">
<polygon fill="white" stroke="#bfbfbf" points="154,-36.5 0,-36.5 0,0 154,0 154,-36.5"/>
<text text-anchor="start" x="8" y="-23" font-family="Noto Sans, Lucida Grande, Lucida Sans Unicode, Helvetica, Arial, sans-serif" font-size="10.00">logging::NtstatusLogMessage</text>
<text text-anchor="middle" x="77" y="-8.75" font-family="Noto Sans, Lucida Grande, Lucida Sans Unicode, Helvetica, Arial, sans-serif" font-size="10.00">Fatal</text>
</a>
</g>
</g>
<!-- Node1&#45;&gt;Node3 -->
<g id="edge2_Node000001_Node000003" class="edge">
<title>Node1&#45;&gt;Node3</title>
<g id="a_edge2_Node000001_Node000003"><a xlink:title=" ">
<path fill="none" stroke="#63b8ff" d="M77,-60.92C77,-53.1 77,-44.36 77,-36.92"/>
<polygon fill="#63b8ff" stroke="#63b8ff" points="73.5,-60.65 77,-70.65 80.5,-60.65 73.5,-60.65"/>
</a>
</g>
</g>
<!-- Node2 -->
<g id="Node000002" class="node">
<title>Node2</title>
<g id="a_Node000002"><a xlink:title=" ">
<polygon fill="white" stroke="#bfbfbf" points="134.5,-153 19.5,-153 19.5,-130.75 134.5,-130.75 134.5,-153"/>
<text text-anchor="middle" x="77" y="-139.5" font-family="Noto Sans, Lucida Grande, Lucida Sans Unicode, Helvetica, Arial, sans-serif" font-size="10.00">logging::LogMessage</text>
</a>
</g>
</g>
<!-- Node2&#45;&gt;Node1 -->
<g id="edge1_Node000001_Node000002" class="edge">
<title>Node2&#45;&gt;Node1</title>
<g id="a_edge1_Node000001_Node000002"><a xlink:title=" ">
<path fill="none" stroke="#63b8ff" d="M77,-118.85C77,-110.7 77,-101.83 77,-95.16"/>
<polygon fill="#63b8ff" stroke="#63b8ff" points="73.5,-118.78 77,-128.78 80.5,-118.78 73.5,-118.78"/>
</a>
</g>
</g>
</g>
</svg>
