<?xml version="1.0" encoding="UTF-8" standalone="no"?>
<!DOCTYPE svg PUBLIC "-//W3C//DTD SVG 1.1//EN"
 "http://www.w3.org/Graphics/SVG/1.1/DTD/svg11.dtd">
<!-- Generated by graphviz version 12.2.1 (20241206.2353)
 -->
<!-- Title: crashpad::internal::UniversalMachExcServerImpl Pages: 1 -->
<svg width="320pt" height="190pt"
 viewBox="0.00 0.00 320.25 189.50" xmlns="http://www.w3.org/2000/svg" xmlns:xlink="http://www.w3.org/1999/xlink">
<g id="graph0" class="graph" transform="scale(1 1) rotate(0) translate(4 185.5)">
<title>crashpad::internal::UniversalMachExcServerImpl</title>
<!-- Node1 -->
<g id="Node000001" class="node">
<title>Node1</title>
<g id="a_Node000001"><a xlink:title=" ">
<polygon fill="#999999" stroke="#666666" points="312.25,-36.5 154.5,-36.5 154.5,0 312.25,0 312.25,-36.5"/>
<text text-anchor="start" x="162.5" y="-23" font-family="Noto Sans, Lucida Grande, Lucida Sans Unicode, Helvetica, Arial, sans-serif" font-size="10.00">crashpad::internal</text>
<text text-anchor="middle" x="233.38" y="-8.75" font-family="Noto Sans, Lucida Grande, Lucida Sans Unicode, Helvetica, Arial, sans-serif" font-size="10.00">::UniversalMachExcServerImpl</text>
</a>
</g>
</g>
<!-- Node2 -->
<g id="Node000002" class="node">
<title>Node2</title>
<g id="a_Node000002"><a xlink:href="classcrashpad_1_1CompositeMachMessageServer.html" target="_top" xlink:title="Adapts multiple MachMessageServer::Interface implementations for simultaneous use in a single MachMes...">
<polygon fill="white" stroke="#666666" points="178.75,-109 0,-109 0,-72.5 178.75,-72.5 178.75,-109"/>
<text text-anchor="start" x="8" y="-95.5" font-family="Noto Sans, Lucida Grande, Lucida Sans Unicode, Helvetica, Arial, sans-serif" font-size="10.00">crashpad::CompositeMachMessage</text>
<text text-anchor="middle" x="89.38" y="-81.25" font-family="Noto Sans, Lucida Grande, Lucida Sans Unicode, Helvetica, Arial, sans-serif" font-size="10.00">Server</text>
</a>
</g>
</g>
<!-- Node2&#45;&gt;Node1 -->
<g id="edge1_Node000001_Node000002" class="edge">
<title>Node2&#45;&gt;Node1</title>
<g id="a_edge1_Node000001_Node000002"><a xlink:title=" ">
<path fill="none" stroke="#63b8ff" d="M135.49,-67.17C155.52,-57.36 178.63,-46.05 197.37,-36.88"/>
<polygon fill="#63b8ff" stroke="#63b8ff" points="134.14,-63.94 126.7,-71.48 137.22,-70.22 134.14,-63.94"/>
</a>
</g>
</g>
<!-- Node3 -->
<g id="Node000003" class="node">
<title>Node3</title>
<g id="a_Node000003"><a xlink:href="classcrashpad_1_1MachMessageServer_1_1Interface.html" target="_top" xlink:title="A Mach RPC callback interface, called by Run().">
<polygon fill="white" stroke="#666666" points="169.75,-181.5 9,-181.5 9,-145 169.75,-145 169.75,-181.5"/>
<text text-anchor="start" x="17" y="-168" font-family="Noto Sans, Lucida Grande, Lucida Sans Unicode, Helvetica, Arial, sans-serif" font-size="10.00">crashpad::MachMessageServer</text>
<text text-anchor="middle" x="89.38" y="-153.75" font-family="Noto Sans, Lucida Grande, Lucida Sans Unicode, Helvetica, Arial, sans-serif" font-size="10.00">::Interface</text>
</a>
</g>
</g>
<!-- Node3&#45;&gt;Node2 -->
<g id="edge2_Node000002_Node000003" class="edge">
<title>Node3&#45;&gt;Node2</title>
<g id="a_edge2_Node000002_Node000003"><a xlink:title=" ">
<path fill="none" stroke="#63b8ff" d="M89.38,-133.47C89.38,-125.34 89.38,-116.73 89.38,-109.47"/>
<polygon fill="#63b8ff" stroke="#63b8ff" points="85.88,-133.31 89.38,-143.31 92.88,-133.31 85.88,-133.31"/>
</a>
</g>
</g>
<!-- Node4 -->
<g id="Node000004" class="node">
<title>Node4</title>
<g id="a_Node000004"><a xlink:title=" ">
<polygon fill="white" stroke="#666666" points="269.88,-101.88 196.88,-101.88 196.88,-79.62 269.88,-79.62 269.88,-101.88"/>
<text text-anchor="middle" x="233.38" y="-88.38" font-family="Noto Sans, Lucida Grande, Lucida Sans Unicode, Helvetica, Arial, sans-serif" font-size="10.00">anonymous:</text>
</a>
</g>
</g>
<!-- Node4&#45;&gt;Node1 -->
<g id="edge3_Node000001_Node000004" class="edge">
<title>Node4&#45;&gt;Node1</title>
<g id="a_edge3_Node000001_Node000004"><a xlink:title=" ">
<path fill="none" stroke="#63b8ff" d="M227.1,-68.22C226.37,-58.16 226.48,-46.32 227.45,-36.81"/>
<polygon fill="#63b8ff" stroke="#63b8ff" points="223.59,-68.33 228.24,-77.84 230.54,-67.5 223.59,-68.33"/>
</a>
</g>
</g>
<!-- Node4&#45;&gt;Node1 -->
<g id="edge4_Node000001_Node000004" class="edge">
<title>Node4&#45;&gt;Node1</title>
<g id="a_edge4_Node000001_Node000004"><a xlink:title=" ">
<path fill="none" stroke="#63b8ff" d="M239.65,-68.22C240.38,-58.16 240.27,-46.32 239.3,-36.81"/>
<polygon fill="#63b8ff" stroke="#63b8ff" points="236.21,-67.5 238.51,-77.84 243.16,-68.33 236.21,-67.5"/>
</a>
</g>
</g>
</g>
</svg>
