<?xml version="1.0" encoding="UTF-8" standalone="no"?>
<!DOCTYPE svg PUBLIC "-//W3C//DTD SVG 1.1//EN"
 "http://www.w3.org/Graphics/SVG/1.1/DTD/svg11.dtd">
<!-- Generated by graphviz version 12.2.1 (20241206.2353)
 -->
<!-- Title: crashpad::FileReaderInterface Pages: 1 -->
<svg width="401pt" height="161pt"
 viewBox="0.00 0.00 401.12 161.00" xmlns="http://www.w3.org/2000/svg" xmlns:xlink="http://www.w3.org/1999/xlink">
<g id="graph0" class="graph" transform="scale(1 1) rotate(0) translate(4 157)">
<title>crashpad::FileReaderInterface</title>
<!-- Node1 -->
<g id="Node000001" class="node">
<title>Node1</title>
<g id="a_Node000001"><a xlink:title="An interface to read to files and other file&#45;like objects with semantics matching the underlying plat...">
<polygon fill="#999999" stroke="#666666" points="262.5,-94.75 106.25,-94.75 106.25,-72.5 262.5,-72.5 262.5,-94.75"/>
<text text-anchor="middle" x="184.38" y="-81.25" font-family="Noto Sans, Lucida Grande, Lucida Sans Unicode, Helvetica, Arial, sans-serif" font-size="10.00">crashpad::FileReaderInterface</text>
</a>
</g>
</g>
<!-- Node3 -->
<g id="Node000003" class="node">
<title>Node3</title>
<g id="a_Node000003"><a xlink:href="classcrashpad_1_1FileReader.html" target="_top" xlink:title="A file reader implementation that wraps traditional system file operations on files accessed through ...">
<polygon fill="white" stroke="#666666" points="112.75,-29.38 0,-29.38 0,-7.12 112.75,-7.12 112.75,-29.38"/>
<text text-anchor="middle" x="56.38" y="-15.88" font-family="Noto Sans, Lucida Grande, Lucida Sans Unicode, Helvetica, Arial, sans-serif" font-size="10.00">crashpad::FileReader</text>
</a>
</g>
</g>
<!-- Node1&#45;&gt;Node3 -->
<g id="edge2_Node000001_Node000003" class="edge">
<title>Node1&#45;&gt;Node3</title>
<g id="a_edge2_Node000001_Node000003"><a xlink:title=" ">
<path fill="none" stroke="#63b8ff" d="M152.79,-66.99C129.31,-55.36 97.93,-39.83 77.44,-29.68"/>
<polygon fill="#63b8ff" stroke="#63b8ff" points="151.08,-70.05 161.59,-71.35 154.19,-63.77 151.08,-70.05"/>
</a>
</g>
</g>
<!-- Node4 -->
<g id="Node000004" class="node">
<title>Node4</title>
<g id="a_Node000004"><a xlink:href="classcrashpad_1_1StringFile.html" target="_top" xlink:title="A file reader and writer backed by a virtual file, as opposed to a file on disk or other operating sy...">
<polygon fill="white" stroke="#666666" points="237.75,-29.38 131,-29.38 131,-7.12 237.75,-7.12 237.75,-29.38"/>
<text text-anchor="middle" x="184.38" y="-15.88" font-family="Noto Sans, Lucida Grande, Lucida Sans Unicode, Helvetica, Arial, sans-serif" font-size="10.00">crashpad::StringFile</text>
</a>
</g>
</g>
<!-- Node1&#45;&gt;Node4 -->
<g id="edge3_Node000001_Node000004" class="edge">
<title>Node1&#45;&gt;Node4</title>
<g id="a_edge3_Node000001_Node000004"><a xlink:title=" ">
<path fill="none" stroke="#63b8ff" d="M184.38,-60.79C184.38,-50.19 184.38,-37.95 184.38,-29.52"/>
<polygon fill="#63b8ff" stroke="#63b8ff" points="180.88,-60.65 184.38,-70.65 187.88,-60.65 180.88,-60.65"/>
</a>
</g>
</g>
<!-- Node5 -->
<g id="Node000005" class="node">
<title>Node5</title>
<g id="a_Node000005"><a xlink:href="classcrashpad_1_1WeakFileHandleFileReader.html" target="_top" xlink:title="A file reader backed by a FileHandle.">
<polygon fill="white" stroke="#666666" points="393.12,-36.5 255.62,-36.5 255.62,0 393.12,0 393.12,-36.5"/>
<text text-anchor="start" x="263.62" y="-23" font-family="Noto Sans, Lucida Grande, Lucida Sans Unicode, Helvetica, Arial, sans-serif" font-size="10.00">crashpad::WeakFileHandle</text>
<text text-anchor="middle" x="324.38" y="-8.75" font-family="Noto Sans, Lucida Grande, Lucida Sans Unicode, Helvetica, Arial, sans-serif" font-size="10.00">FileReader</text>
</a>
</g>
</g>
<!-- Node1&#45;&gt;Node5 -->
<g id="edge4_Node000001_Node000005" class="edge">
<title>Node1&#45;&gt;Node5</title>
<g id="a_edge4_Node000001_Node000005"><a xlink:title=" ">
<path fill="none" stroke="#63b8ff" d="M218.11,-67.35C238.33,-58.2 264.12,-46.53 285.23,-36.97"/>
<polygon fill="#63b8ff" stroke="#63b8ff" points="216.85,-64.08 209.19,-71.39 219.74,-70.46 216.85,-64.08"/>
</a>
</g>
</g>
<!-- Node2 -->
<g id="Node000002" class="node">
<title>Node2</title>
<g id="a_Node000002"><a xlink:href="classcrashpad_1_1FileSeekerInterface.html" target="_top" xlink:title="An interface to seek in files and other file&#45;like objects with semantics matching the underlying plat...">
<polygon fill="white" stroke="#666666" points="262.12,-153 106.62,-153 106.62,-130.75 262.12,-130.75 262.12,-153"/>
<text text-anchor="middle" x="184.38" y="-139.5" font-family="Noto Sans, Lucida Grande, Lucida Sans Unicode, Helvetica, Arial, sans-serif" font-size="10.00">crashpad::FileSeekerInterface</text>
</a>
</g>
</g>
<!-- Node2&#45;&gt;Node1 -->
<g id="edge1_Node000001_Node000002" class="edge">
<title>Node2&#45;&gt;Node1</title>
<g id="a_edge1_Node000001_Node000002"><a xlink:title=" ">
<path fill="none" stroke="#63b8ff" d="M184.38,-118.85C184.38,-110.7 184.38,-101.83 184.38,-95.16"/>
<polygon fill="#63b8ff" stroke="#63b8ff" points="180.88,-118.78 184.38,-128.78 187.88,-118.78 180.88,-118.78"/>
</a>
</g>
</g>
</g>
</svg>
