<?xml version="1.0" encoding="UTF-8" standalone="no"?>
<!DOCTYPE svg PUBLIC "-//W3C//DTD SVG 1.1//EN"
 "http://www.w3.org/Graphics/SVG/1.1/DTD/svg11.dtd">
<!-- Generated by graphviz version 12.2.1 (20241206.2353)
 -->
<!-- Title: crashpad::MemoryMapRegionSnapshot Pages: 1 -->
<svg width="403pt" height="210pt"
 viewBox="0.00 0.00 403.00 209.50" xmlns="http://www.w3.org/2000/svg" xmlns:xlink="http://www.w3.org/1999/xlink">
<g id="graph0" class="graph" transform="scale(1 1) rotate(0) translate(4 205.5)">
<title>crashpad::MemoryMapRegionSnapshot</title>
<!-- Node1 -->
<g id="Node000001" class="node">
<title>Node1</title>
<g id="a_Node000001"><a xlink:title="An abstract interface to a snapshot representing a region of the memory map present in the snapshot p...">
<polygon fill="#999999" stroke="#666666" points="155.5,-118.5 0,-118.5 0,-82 155.5,-82 155.5,-118.5"/>
<text text-anchor="start" x="8" y="-105" font-family="Noto Sans, Lucida Grande, Lucida Sans Unicode, Helvetica, Arial, sans-serif" font-size="10.00">crashpad::MemoryMapRegion</text>
<text text-anchor="middle" x="77.75" y="-90.75" font-family="Noto Sans, Lucida Grande, Lucida Sans Unicode, Helvetica, Arial, sans-serif" font-size="10.00">Snapshot</text>
</a>
</g>
</g>
<!-- Node2 -->
<g id="Node000002" class="node">
<title>Node2</title>
<g id="a_Node000002"><a xlink:href="classcrashpad_1_1internal_1_1MemoryMapRegionSnapshotFuchsia.html" target="_top" xlink:title=" ">
<polygon fill="white" stroke="#bfbfbf" points="388.62,-201.5 197.88,-201.5 197.88,-165 388.62,-165 388.62,-201.5"/>
<text text-anchor="start" x="205.88" y="-188" font-family="Noto Sans, Lucida Grande, Lucida Sans Unicode, Helvetica, Arial, sans-serif" font-size="10.00">crashpad::internal</text>
<text text-anchor="middle" x="293.25" y="-173.75" font-family="Noto Sans, Lucida Grande, Lucida Sans Unicode, Helvetica, Arial, sans-serif" font-size="10.00">::MemoryMapRegionSnapshotFuchsia</text>
</a>
</g>
</g>
<!-- Node1&#45;&gt;Node2 -->
<g id="edge1_Node000001_Node000002" class="edge">
<title>Node1&#45;&gt;Node2</title>
<g id="a_edge1_Node000001_Node000002"><a xlink:title=" ">
<path fill="none" stroke="#63b8ff" d="M122.57,-123.94C143.11,-134.44 168.16,-146.4 191.5,-155.25 200.24,-158.57 209.54,-161.68 218.83,-164.54"/>
<polygon fill="#63b8ff" stroke="#63b8ff" points="124.41,-120.95 113.92,-119.46 121.19,-127.17 124.41,-120.95"/>
</a>
</g>
</g>
<!-- Node3 -->
<g id="Node000003" class="node">
<title>Node3</title>
<g id="a_Node000003"><a xlink:href="classcrashpad_1_1internal_1_1MemoryMapRegionSnapshotMinidump.html" target="_top" xlink:title=" ">
<polygon fill="white" stroke="#bfbfbf" points="395,-146.5 191.5,-146.5 191.5,-110 395,-110 395,-146.5"/>
<text text-anchor="start" x="199.5" y="-133" font-family="Noto Sans, Lucida Grande, Lucida Sans Unicode, Helvetica, Arial, sans-serif" font-size="10.00">crashpad::internal</text>
<text text-anchor="middle" x="293.25" y="-118.75" font-family="Noto Sans, Lucida Grande, Lucida Sans Unicode, Helvetica, Arial, sans-serif" font-size="10.00">::MemoryMapRegionSnapshotMinidump</text>
</a>
</g>
</g>
<!-- Node1&#45;&gt;Node3 -->
<g id="edge2_Node000001_Node000003" class="edge">
<title>Node1&#45;&gt;Node3</title>
<g id="a_edge2_Node000001_Node000003"><a xlink:title=" ">
<path fill="none" stroke="#63b8ff" d="M166.98,-111.82C174.95,-112.87 183.06,-113.93 191.13,-114.99"/>
<polygon fill="#63b8ff" stroke="#63b8ff" points="167.7,-108.39 157.33,-110.56 166.79,-115.33 167.7,-108.39"/>
</a>
</g>
</g>
<!-- Node4 -->
<g id="Node000004" class="node">
<title>Node4</title>
<g id="a_Node000004"><a xlink:href="classcrashpad_1_1internal_1_1MemoryMapRegionSnapshotWin.html" target="_top" xlink:title=" ">
<polygon fill="white" stroke="#bfbfbf" points="380.38,-91.5 206.12,-91.5 206.12,-55 380.38,-55 380.38,-91.5"/>
<text text-anchor="start" x="214.12" y="-78" font-family="Noto Sans, Lucida Grande, Lucida Sans Unicode, Helvetica, Arial, sans-serif" font-size="10.00">crashpad::internal</text>
<text text-anchor="middle" x="293.25" y="-63.75" font-family="Noto Sans, Lucida Grande, Lucida Sans Unicode, Helvetica, Arial, sans-serif" font-size="10.00">::MemoryMapRegionSnapshotWin</text>
</a>
</g>
</g>
<!-- Node1&#45;&gt;Node4 -->
<g id="edge3_Node000001_Node000004" class="edge">
<title>Node1&#45;&gt;Node4</title>
<g id="a_edge3_Node000001_Node000004"><a xlink:title=" ">
<path fill="none" stroke="#63b8ff" d="M167,-89.09C179.85,-87.46 193.06,-85.79 205.87,-84.17"/>
<polygon fill="#63b8ff" stroke="#63b8ff" points="166.81,-85.59 157.33,-90.31 167.69,-92.53 166.81,-85.59"/>
</a>
</g>
</g>
<!-- Node5 -->
<g id="Node000005" class="node">
<title>Node5</title>
<g id="a_Node000005"><a xlink:href="classcrashpad_1_1test_1_1TestMemoryMapRegionSnapshot.html" target="_top" xlink:title="A test MemoryMapRegionSnapshot that can carry arbitrary data for testing purposes.">
<polygon fill="white" stroke="#666666" points="366.12,-36.5 220.38,-36.5 220.38,0 366.12,0 366.12,-36.5"/>
<text text-anchor="start" x="228.38" y="-23" font-family="Noto Sans, Lucida Grande, Lucida Sans Unicode, Helvetica, Arial, sans-serif" font-size="10.00">crashpad::test::TestMemory</text>
<text text-anchor="middle" x="293.25" y="-8.75" font-family="Noto Sans, Lucida Grande, Lucida Sans Unicode, Helvetica, Arial, sans-serif" font-size="10.00">MapRegionSnapshot</text>
</a>
</g>
</g>
<!-- Node1&#45;&gt;Node5 -->
<g id="edge4_Node000001_Node000005" class="edge">
<title>Node1&#45;&gt;Node5</title>
<g id="a_edge4_Node000001_Node000005"><a xlink:title=" ">
<path fill="none" stroke="#63b8ff" d="M123.82,-76.43C144.14,-66.27 168.66,-54.82 191.5,-46.25 200.59,-42.84 210.29,-39.63 219.93,-36.69"/>
<polygon fill="#63b8ff" stroke="#63b8ff" points="122.29,-73.27 114.95,-80.91 125.46,-79.52 122.29,-73.27"/>
</a>
</g>
</g>
</g>
</svg>
