<?xml version="1.0" encoding="UTF-8" standalone="no"?>
<!DOCTYPE svg PUBLIC "-//W3C//DTD SVG 1.1//EN"
 "http://www.w3.org/Graphics/SVG/1.1/DTD/svg11.dtd">
<!-- Generated by graphviz version 12.2.1 (20241206.2353)
 -->
<!-- Title: crashpad::SystemSnapshot Pages: 1 -->
<svg width="390pt" height="375pt"
 viewBox="0.00 0.00 389.50 374.50" xmlns="http://www.w3.org/2000/svg" xmlns:xlink="http://www.w3.org/1999/xlink">
<g id="graph0" class="graph" transform="scale(1 1) rotate(0) translate(4 370.5)">
<title>crashpad::SystemSnapshot</title>
<!-- Node1 -->
<g id="Node000001" class="node">
<title>Node1</title>
<g id="a_Node000001"><a xlink:title="An abstract interface to a snapshot representing the state of a system, comprising an operating syste...">
<polygon fill="#999999" stroke="#666666" points="139.75,-194.38 0,-194.38 0,-172.12 139.75,-172.12 139.75,-194.38"/>
<text text-anchor="middle" x="69.88" y="-180.88" font-family="Noto Sans, Lucida Grande, Lucida Sans Unicode, Helvetica, Arial, sans-serif" font-size="10.00">crashpad::SystemSnapshot</text>
</a>
</g>
</g>
<!-- Node2 -->
<g id="Node000002" class="node">
<title>Node2</title>
<g id="a_Node000002"><a xlink:href="classcrashpad_1_1internal_1_1SystemSnapshotFuchsia.html" target="_top" xlink:title="A SystemSnapshot of the running system, when the system runs Fuchsia.">
<polygon fill="white" stroke="#666666" points="344.75,-366.5 212.5,-366.5 212.5,-330 344.75,-330 344.75,-366.5"/>
<text text-anchor="start" x="220.5" y="-353" font-family="Noto Sans, Lucida Grande, Lucida Sans Unicode, Helvetica, Arial, sans-serif" font-size="10.00">crashpad::internal</text>
<text text-anchor="middle" x="278.62" y="-338.75" font-family="Noto Sans, Lucida Grande, Lucida Sans Unicode, Helvetica, Arial, sans-serif" font-size="10.00">::SystemSnapshotFuchsia</text>
</a>
</g>
</g>
<!-- Node1&#45;&gt;Node2 -->
<g id="edge1_Node000001_Node000002" class="edge">
<title>Node1&#45;&gt;Node2</title>
<g id="a_edge1_Node000001_Node000002"><a xlink:title=" ">
<path fill="none" stroke="#63b8ff" d="M81.56,-204.84C97.72,-235.24 131.28,-290.29 175.75,-320.25 186.63,-327.58 199.38,-333 212.1,-337"/>
<polygon fill="#63b8ff" stroke="#63b8ff" points="84.79,-203.47 77.1,-196.19 78.57,-206.68 84.79,-203.47"/>
</a>
</g>
</g>
<!-- Node3 -->
<g id="Node000003" class="node">
<title>Node3</title>
<g id="a_Node000003"><a xlink:href="classcrashpad_1_1internal_1_1SystemSnapshotIOSIntermediateDump.html" target="_top" xlink:title="A SystemSnapshot of the running system, when the system runs iOS.">
<polygon fill="white" stroke="#666666" points="381.5,-311.5 175.75,-311.5 175.75,-275 381.5,-275 381.5,-311.5"/>
<text text-anchor="start" x="183.75" y="-298" font-family="Noto Sans, Lucida Grande, Lucida Sans Unicode, Helvetica, Arial, sans-serif" font-size="10.00">crashpad::internal</text>
<text text-anchor="middle" x="278.62" y="-283.75" font-family="Noto Sans, Lucida Grande, Lucida Sans Unicode, Helvetica, Arial, sans-serif" font-size="10.00">::SystemSnapshotIOSIntermediateDump</text>
</a>
</g>
</g>
<!-- Node1&#45;&gt;Node3 -->
<g id="edge2_Node000001_Node000003" class="edge">
<title>Node1&#45;&gt;Node3</title>
<g id="a_edge2_Node000001_Node000003"><a xlink:title=" ">
<path fill="none" stroke="#63b8ff" d="M90.61,-202.64C110.54,-221.21 142.98,-248.77 175.75,-265.25 182.63,-268.71 190,-271.79 197.51,-274.52"/>
<polygon fill="#63b8ff" stroke="#63b8ff" points="93.13,-200.21 83.47,-195.86 88.31,-205.29 93.13,-200.21"/>
</a>
</g>
</g>
<!-- Node4 -->
<g id="Node000004" class="node">
<title>Node4</title>
<g id="a_Node000004"><a xlink:href="classcrashpad_1_1internal_1_1SystemSnapshotLinux.html" target="_top" xlink:title="A SystemSnapshot of the running system, when the system runs Linux.">
<polygon fill="white" stroke="#666666" points="340.25,-256.5 217,-256.5 217,-220 340.25,-220 340.25,-256.5"/>
<text text-anchor="start" x="225" y="-243" font-family="Noto Sans, Lucida Grande, Lucida Sans Unicode, Helvetica, Arial, sans-serif" font-size="10.00">crashpad::internal</text>
<text text-anchor="middle" x="278.62" y="-228.75" font-family="Noto Sans, Lucida Grande, Lucida Sans Unicode, Helvetica, Arial, sans-serif" font-size="10.00">::SystemSnapshotLinux</text>
</a>
</g>
</g>
<!-- Node1&#45;&gt;Node4 -->
<g id="edge3_Node000001_Node000004" class="edge">
<title>Node1&#45;&gt;Node4</title>
<g id="a_edge3_Node000001_Node000004"><a xlink:title=" ">
<path fill="none" stroke="#63b8ff" d="M125.31,-197.73C153.44,-205.21 187.85,-214.37 216.84,-222.08"/>
<polygon fill="#63b8ff" stroke="#63b8ff" points="126.5,-194.42 115.93,-195.24 124.7,-201.19 126.5,-194.42"/>
</a>
</g>
</g>
<!-- Node5 -->
<g id="Node000005" class="node">
<title>Node5</title>
<g id="a_Node000005"><a xlink:href="classcrashpad_1_1internal_1_1SystemSnapshotMac.html" target="_top" xlink:title="A SystemSnapshot of the running system, when the system runs macOS.">
<polygon fill="white" stroke="#666666" points="337.25,-201.5 220,-201.5 220,-165 337.25,-165 337.25,-201.5"/>
<text text-anchor="start" x="228" y="-188" font-family="Noto Sans, Lucida Grande, Lucida Sans Unicode, Helvetica, Arial, sans-serif" font-size="10.00">crashpad::internal</text>
<text text-anchor="middle" x="278.62" y="-173.75" font-family="Noto Sans, Lucida Grande, Lucida Sans Unicode, Helvetica, Arial, sans-serif" font-size="10.00">::SystemSnapshotMac</text>
</a>
</g>
</g>
<!-- Node1&#45;&gt;Node5 -->
<g id="edge4_Node000001_Node000005" class="edge">
<title>Node1&#45;&gt;Node5</title>
<g id="a_edge4_Node000001_Node000005"><a xlink:title=" ">
<path fill="none" stroke="#63b8ff" d="M151.38,-183.25C174.14,-183.25 198.45,-183.25 219.6,-183.25"/>
<polygon fill="#63b8ff" stroke="#63b8ff" points="151.52,-179.75 141.52,-183.25 151.52,-186.75 151.52,-179.75"/>
</a>
</g>
</g>
<!-- Node6 -->
<g id="Node000006" class="node">
<title>Node6</title>
<g id="a_Node000006"><a xlink:href="classcrashpad_1_1internal_1_1SystemSnapshotMinidump.html" target="_top" xlink:title="A SystemSnapshot based on a minidump file.">
<polygon fill="white" stroke="#666666" points="351.12,-146.5 206.12,-146.5 206.12,-110 351.12,-110 351.12,-146.5"/>
<text text-anchor="start" x="214.12" y="-133" font-family="Noto Sans, Lucida Grande, Lucida Sans Unicode, Helvetica, Arial, sans-serif" font-size="10.00">crashpad::internal</text>
<text text-anchor="middle" x="278.62" y="-118.75" font-family="Noto Sans, Lucida Grande, Lucida Sans Unicode, Helvetica, Arial, sans-serif" font-size="10.00">::SystemSnapshotMinidump</text>
</a>
</g>
</g>
<!-- Node1&#45;&gt;Node6 -->
<g id="edge5_Node000001_Node000006" class="edge">
<title>Node1&#45;&gt;Node6</title>
<g id="a_edge5_Node000001_Node000006"><a xlink:title=" ">
<path fill="none" stroke="#63b8ff" d="M125.59,-168.69C150.61,-162.04 180.57,-154.07 207.24,-146.97"/>
<polygon fill="#63b8ff" stroke="#63b8ff" points="124.7,-165.31 115.93,-171.26 126.5,-172.08 124.7,-165.31"/>
</a>
</g>
</g>
<!-- Node7 -->
<g id="Node000007" class="node">
<title>Node7</title>
<g id="a_Node000007"><a xlink:href="classcrashpad_1_1internal_1_1SystemSnapshotWin.html" target="_top" xlink:title="A SystemSnapshot of the running system, when the system runs Windows.">
<polygon fill="white" stroke="#666666" points="336.5,-91.5 220.75,-91.5 220.75,-55 336.5,-55 336.5,-91.5"/>
<text text-anchor="start" x="228.75" y="-78" font-family="Noto Sans, Lucida Grande, Lucida Sans Unicode, Helvetica, Arial, sans-serif" font-size="10.00">crashpad::internal</text>
<text text-anchor="middle" x="278.62" y="-63.75" font-family="Noto Sans, Lucida Grande, Lucida Sans Unicode, Helvetica, Arial, sans-serif" font-size="10.00">::SystemSnapshotWin</text>
</a>
</g>
</g>
<!-- Node1&#45;&gt;Node7 -->
<g id="edge6_Node000001_Node000007" class="edge">
<title>Node1&#45;&gt;Node7</title>
<g id="a_edge6_Node000001_Node000007"><a xlink:title=" ">
<path fill="none" stroke="#63b8ff" d="M90.61,-163.86C110.54,-145.29 142.98,-117.73 175.75,-101.25 189.6,-94.29 205.4,-88.87 220.36,-84.74"/>
<polygon fill="#63b8ff" stroke="#63b8ff" points="88.31,-161.21 83.47,-170.64 93.13,-166.29 88.31,-161.21"/>
</a>
</g>
</g>
<!-- Node8 -->
<g id="Node000008" class="node">
<title>Node8</title>
<g id="a_Node000008"><a xlink:href="classcrashpad_1_1test_1_1TestSystemSnapshot.html" target="_top" xlink:title="A test SystemSnapshot that can carry arbitrary data for testing purposes.">
<polygon fill="white" stroke="#666666" points="348.5,-36.5 208.75,-36.5 208.75,0 348.5,0 348.5,-36.5"/>
<text text-anchor="start" x="216.75" y="-23" font-family="Noto Sans, Lucida Grande, Lucida Sans Unicode, Helvetica, Arial, sans-serif" font-size="10.00">crashpad::test::TestSystem</text>
<text text-anchor="middle" x="278.62" y="-8.75" font-family="Noto Sans, Lucida Grande, Lucida Sans Unicode, Helvetica, Arial, sans-serif" font-size="10.00">Snapshot</text>
</a>
</g>
</g>
<!-- Node1&#45;&gt;Node8 -->
<g id="edge7_Node000001_Node000008" class="edge">
<title>Node1&#45;&gt;Node8</title>
<g id="a_edge7_Node000001_Node000008"><a xlink:title=" ">
<path fill="none" stroke="#63b8ff" d="M81.56,-161.66C97.72,-131.26 131.28,-76.21 175.75,-46.25 185.56,-39.64 196.9,-34.58 208.36,-30.72"/>
<polygon fill="#63b8ff" stroke="#63b8ff" points="78.57,-159.82 77.1,-170.31 84.79,-163.03 78.57,-159.82"/>
</a>
</g>
</g>
</g>
</svg>
