<?xml version="1.0" encoding="UTF-8" standalone="no"?>
<!DOCTYPE svg PUBLIC "-//W3C//DTD SVG 1.1//EN"
 "http://www.w3.org/Graphics/SVG/1.1/DTD/svg11.dtd">
<!-- Generated by graphviz version 12.2.1 (20241206.2353)
 -->
<!-- Title: crashpad::internal::MinidumpStreamWriter Pages: 1 -->
<svg width="484pt" height="650pt"
 viewBox="0.00 0.00 484.25 649.50" xmlns="http://www.w3.org/2000/svg" xmlns:xlink="http://www.w3.org/1999/xlink">
<g id="graph0" class="graph" transform="scale(1 1) rotate(0) translate(4 645.5)">
<title>crashpad::internal::MinidumpStreamWriter</title>
<!-- Node1 -->
<g id="Node000001" class="node">
<title>Node1</title>
<g id="a_Node000001"><a xlink:title="The base class for all second&#45;level objects (“streams”) in a minidump file.">
<polygon fill="#999999" stroke="#666666" points="275,-338.5 143.5,-338.5 143.5,-302 275,-302 275,-338.5"/>
<text text-anchor="start" x="151.5" y="-325" font-family="Noto Sans, Lucida Grande, Lucida Sans Unicode, Helvetica, Arial, sans-serif" font-size="10.00">crashpad::internal</text>
<text text-anchor="middle" x="209.25" y="-310.75" font-family="Noto Sans, Lucida Grande, Lucida Sans Unicode, Helvetica, Arial, sans-serif" font-size="10.00">::MinidumpStreamWriter</text>
</a>
</g>
</g>
<!-- Node3 -->
<g id="Node000003" class="node">
<title>Node3</title>
<g id="a_Node000003"><a xlink:href="classcrashpad_1_1MinidumpCrashpadInfoWriter.html" target="_top" xlink:title="The writer for a MinidumpCrashpadInfo stream in a minidump file.">
<polygon fill="white" stroke="#666666" points="469.88,-641.5 317.38,-641.5 317.38,-605 469.88,-605 469.88,-641.5"/>
<text text-anchor="start" x="325.38" y="-628" font-family="Noto Sans, Lucida Grande, Lucida Sans Unicode, Helvetica, Arial, sans-serif" font-size="10.00">crashpad::MinidumpCrashpad</text>
<text text-anchor="middle" x="393.62" y="-613.75" font-family="Noto Sans, Lucida Grande, Lucida Sans Unicode, Helvetica, Arial, sans-serif" font-size="10.00">InfoWriter</text>
</a>
</g>
</g>
<!-- Node1&#45;&gt;Node3 -->
<g id="edge2_Node000001_Node000003" class="edge">
<title>Node1&#45;&gt;Node3</title>
<g id="a_edge2_Node000001_Node000003"><a xlink:title=" ">
<path fill="none" stroke="#63b8ff" d="M212.88,-350.08C219.37,-405.92 241.12,-526.8 311,-595.25 314.64,-598.81 318.75,-601.93 323.15,-604.64"/>
<polygon fill="#63b8ff" stroke="#63b8ff" points="216.38,-349.95 211.84,-340.38 209.42,-350.7 216.38,-349.95"/>
</a>
</g>
</g>
<!-- Node4 -->
<g id="Node000004" class="node">
<title>Node4</title>
<g id="a_Node000004"><a xlink:href="classcrashpad_1_1MinidumpExceptionWriter.html" target="_top" xlink:title="The writer for a MINIDUMP_EXCEPTION_STREAM stream in a minidump file.">
<polygon fill="white" stroke="#666666" points="471,-586.5 316.25,-586.5 316.25,-550 471,-550 471,-586.5"/>
<text text-anchor="start" x="324.25" y="-573" font-family="Noto Sans, Lucida Grande, Lucida Sans Unicode, Helvetica, Arial, sans-serif" font-size="10.00">crashpad::MinidumpException</text>
<text text-anchor="middle" x="393.62" y="-558.75" font-family="Noto Sans, Lucida Grande, Lucida Sans Unicode, Helvetica, Arial, sans-serif" font-size="10.00">Writer</text>
</a>
</g>
</g>
<!-- Node1&#45;&gt;Node4 -->
<g id="edge3_Node000001_Node000004" class="edge">
<title>Node1&#45;&gt;Node4</title>
<g id="a_edge3_Node000001_Node000004"><a xlink:title=" ">
<path fill="none" stroke="#63b8ff" d="M216,-350.02C226.59,-396.97 253.57,-488.24 311,-540.25 314.89,-543.77 319.24,-546.85 323.85,-549.55"/>
<polygon fill="#63b8ff" stroke="#63b8ff" points="219.44,-349.34 213.92,-340.29 212.59,-350.81 219.44,-349.34"/>
</a>
</g>
</g>
<!-- Node5 -->
<g id="Node000005" class="node">
<title>Node5</title>
<g id="a_Node000005"><a xlink:href="classcrashpad_1_1MinidumpHandleDataWriter.html" target="_top" xlink:title="The writer for a MINIDUMP_HANDLE_DATA_STREAM stream in a minidump and its contained MINIDUMP_HANDLE_D...">
<polygon fill="white" stroke="#666666" points="465,-531.5 322.25,-531.5 322.25,-495 465,-495 465,-531.5"/>
<text text-anchor="start" x="330.25" y="-518" font-family="Noto Sans, Lucida Grande, Lucida Sans Unicode, Helvetica, Arial, sans-serif" font-size="10.00">crashpad::MinidumpHandle</text>
<text text-anchor="middle" x="393.62" y="-503.75" font-family="Noto Sans, Lucida Grande, Lucida Sans Unicode, Helvetica, Arial, sans-serif" font-size="10.00">DataWriter</text>
</a>
</g>
</g>
<!-- Node1&#45;&gt;Node5 -->
<g id="edge4_Node000001_Node000005" class="edge">
<title>Node1&#45;&gt;Node5</title>
<g id="a_edge4_Node000001_Node000005"><a xlink:title=" ">
<path fill="none" stroke="#63b8ff" d="M220.85,-349.51C235.6,-386.26 265.7,-448.88 311,-485.25 315.44,-488.81 320.36,-491.94 325.52,-494.67"/>
<polygon fill="#63b8ff" stroke="#63b8ff" points="224.2,-348.46 217.32,-340.41 217.67,-351 224.2,-348.46"/>
</a>
</g>
</g>
<!-- Node6 -->
<g id="Node000006" class="node">
<title>Node6</title>
<g id="a_Node000006"><a xlink:href="classcrashpad_1_1MinidumpMemoryInfoListWriter.html" target="_top" xlink:title="The writer for a MINIDUMP_MEMORY_INFO_LIST stream in a minidump file, containing a list of MINIDUMP_M...">
<polygon fill="white" stroke="#666666" points="468.38,-476.5 318.88,-476.5 318.88,-440 468.38,-440 468.38,-476.5"/>
<text text-anchor="start" x="326.88" y="-463" font-family="Noto Sans, Lucida Grande, Lucida Sans Unicode, Helvetica, Arial, sans-serif" font-size="10.00">crashpad::MinidumpMemory</text>
<text text-anchor="middle" x="393.62" y="-448.75" font-family="Noto Sans, Lucida Grande, Lucida Sans Unicode, Helvetica, Arial, sans-serif" font-size="10.00">InfoListWriter</text>
</a>
</g>
</g>
<!-- Node1&#45;&gt;Node6 -->
<g id="edge5_Node000001_Node000006" class="edge">
<title>Node1&#45;&gt;Node6</title>
<g id="a_edge5_Node000001_Node000006"><a xlink:title=" ">
<path fill="none" stroke="#63b8ff" d="M229.42,-348.08C247.77,-372.8 277.53,-408.33 311,-430.25 316.39,-433.78 322.27,-436.91 328.33,-439.69"/>
<polygon fill="#63b8ff" stroke="#63b8ff" points="232.33,-346.13 223.63,-340.09 226.66,-350.24 232.33,-346.13"/>
</a>
</g>
</g>
<!-- Node7 -->
<g id="Node000007" class="node">
<title>Node7</title>
<g id="a_Node000007"><a xlink:href="classcrashpad_1_1MinidumpMemoryListWriter.html" target="_top" xlink:title="The writer for a MINIDUMP_MEMORY_LIST stream in a minidump file, containing a list of MINIDUMP_MEMORY...">
<polygon fill="white" stroke="#666666" points="468.38,-421.5 318.88,-421.5 318.88,-385 468.38,-385 468.38,-421.5"/>
<text text-anchor="start" x="326.88" y="-408" font-family="Noto Sans, Lucida Grande, Lucida Sans Unicode, Helvetica, Arial, sans-serif" font-size="10.00">crashpad::MinidumpMemory</text>
<text text-anchor="middle" x="393.62" y="-393.75" font-family="Noto Sans, Lucida Grande, Lucida Sans Unicode, Helvetica, Arial, sans-serif" font-size="10.00">ListWriter</text>
</a>
</g>
</g>
<!-- Node1&#45;&gt;Node7 -->
<g id="edge6_Node000001_Node000007" class="edge">
<title>Node1&#45;&gt;Node7</title>
<g id="a_edge6_Node000001_Node000007"><a xlink:title=" ">
<path fill="none" stroke="#63b8ff" d="M251.19,-344.65C269.18,-354.83 290.78,-366.34 311,-375.25 318.4,-378.51 326.31,-381.64 334.19,-384.56"/>
<polygon fill="#63b8ff" stroke="#63b8ff" points="253.05,-341.68 242.63,-339.75 249.57,-347.76 253.05,-341.68"/>
</a>
</g>
</g>
<!-- Node8 -->
<g id="Node000008" class="node">
<title>Node8</title>
<g id="a_Node000008"><a xlink:href="classcrashpad_1_1MinidumpMiscInfoWriter.html" target="_top" xlink:title="The writer for a stream in the MINIDUMP_MISC_INFO family in a minidump file.">
<polygon fill="white" stroke="#666666" points="468.38,-366.5 318.88,-366.5 318.88,-330 468.38,-330 468.38,-366.5"/>
<text text-anchor="start" x="326.88" y="-353" font-family="Noto Sans, Lucida Grande, Lucida Sans Unicode, Helvetica, Arial, sans-serif" font-size="10.00">crashpad::MinidumpMiscInfo</text>
<text text-anchor="middle" x="393.62" y="-338.75" font-family="Noto Sans, Lucida Grande, Lucida Sans Unicode, Helvetica, Arial, sans-serif" font-size="10.00">Writer</text>
</a>
</g>
</g>
<!-- Node1&#45;&gt;Node8 -->
<g id="edge7_Node000001_Node000008" class="edge">
<title>Node1&#45;&gt;Node8</title>
<g id="a_edge7_Node000001_Node000008"><a xlink:title=" ">
<path fill="none" stroke="#63b8ff" d="M286.65,-331.98C297.22,-333.6 308.05,-335.27 318.58,-336.88"/>
<polygon fill="#63b8ff" stroke="#63b8ff" points="287.23,-328.53 276.82,-330.47 286.17,-335.45 287.23,-328.53"/>
</a>
</g>
</g>
<!-- Node9 -->
<g id="Node000009" class="node">
<title>Node9</title>
<g id="a_Node000009"><a xlink:href="classcrashpad_1_1MinidumpModuleListWriter.html" target="_top" xlink:title="The writer for a MINIDUMP_MODULE_LIST stream in a minidump file, containing a list of MINIDUMP_MODULE...">
<polygon fill="white" stroke="#666666" points="466.12,-311.5 321.12,-311.5 321.12,-275 466.12,-275 466.12,-311.5"/>
<text text-anchor="start" x="329.12" y="-298" font-family="Noto Sans, Lucida Grande, Lucida Sans Unicode, Helvetica, Arial, sans-serif" font-size="10.00">crashpad::MinidumpModule</text>
<text text-anchor="middle" x="393.62" y="-283.75" font-family="Noto Sans, Lucida Grande, Lucida Sans Unicode, Helvetica, Arial, sans-serif" font-size="10.00">ListWriter</text>
</a>
</g>
</g>
<!-- Node1&#45;&gt;Node9 -->
<g id="edge8_Node000001_Node000009" class="edge">
<title>Node1&#45;&gt;Node9</title>
<g id="a_edge8_Node000001_Node000009"><a xlink:title=" ">
<path fill="none" stroke="#63b8ff" d="M286.53,-308.96C297.87,-307.28 309.52,-305.55 320.77,-303.89"/>
<polygon fill="#63b8ff" stroke="#63b8ff" points="286.2,-305.47 276.82,-310.4 287.22,-312.39 286.2,-305.47"/>
</a>
</g>
</g>
<!-- Node10 -->
<g id="Node000010" class="node">
<title>Node10</title>
<g id="a_Node000010"><a xlink:href="classcrashpad_1_1MinidumpSystemInfoWriter.html" target="_top" xlink:title="The writer for a MINIDUMP_SYSTEM_INFO stream in a minidump file.">
<polygon fill="white" stroke="#666666" points="465.38,-256.5 321.88,-256.5 321.88,-220 465.38,-220 465.38,-256.5"/>
<text text-anchor="start" x="329.88" y="-243" font-family="Noto Sans, Lucida Grande, Lucida Sans Unicode, Helvetica, Arial, sans-serif" font-size="10.00">crashpad::MinidumpSystem</text>
<text text-anchor="middle" x="393.62" y="-228.75" font-family="Noto Sans, Lucida Grande, Lucida Sans Unicode, Helvetica, Arial, sans-serif" font-size="10.00">InfoWriter</text>
</a>
</g>
</g>
<!-- Node1&#45;&gt;Node10 -->
<g id="edge9_Node000001_Node000010" class="edge">
<title>Node1&#45;&gt;Node10</title>
<g id="a_edge9_Node000001_Node000010"><a xlink:title=" ">
<path fill="none" stroke="#63b8ff" d="M251.65,-296.11C269.57,-286.18 290.99,-274.98 311,-266.25 318.42,-263.02 326.33,-259.9 334.21,-257"/>
<polygon fill="#63b8ff" stroke="#63b8ff" points="250.14,-292.95 243.13,-300.89 253.56,-299.05 250.14,-292.95"/>
</a>
</g>
</g>
<!-- Node11 -->
<g id="Node000011" class="node">
<title>Node11</title>
<g id="a_Node000011"><a xlink:href="classcrashpad_1_1MinidumpThreadListWriter.html" target="_top" xlink:title="The writer for a MINIDUMP_THREAD_LIST stream in a minidump file, containing a list of MINIDUMP_THREAD...">
<polygon fill="white" stroke="#666666" points="464.62,-201.5 322.62,-201.5 322.62,-165 464.62,-165 464.62,-201.5"/>
<text text-anchor="start" x="330.62" y="-188" font-family="Noto Sans, Lucida Grande, Lucida Sans Unicode, Helvetica, Arial, sans-serif" font-size="10.00">crashpad::MinidumpThread</text>
<text text-anchor="middle" x="393.62" y="-173.75" font-family="Noto Sans, Lucida Grande, Lucida Sans Unicode, Helvetica, Arial, sans-serif" font-size="10.00">ListWriter</text>
</a>
</g>
</g>
<!-- Node1&#45;&gt;Node11 -->
<g id="edge10_Node000001_Node000011" class="edge">
<title>Node1&#45;&gt;Node11</title>
<g id="a_edge10_Node000001_Node000011"><a xlink:title=" ">
<path fill="none" stroke="#63b8ff" d="M229.48,-292.68C247.86,-268.19 277.65,-232.99 311,-211.25 316.4,-207.73 322.28,-204.61 328.34,-201.84"/>
<polygon fill="#63b8ff" stroke="#63b8ff" points="226.77,-290.46 223.67,-300.59 232.41,-294.6 226.77,-290.46"/>
</a>
</g>
</g>
<!-- Node12 -->
<g id="Node000012" class="node">
<title>Node12</title>
<g id="a_Node000012"><a xlink:href="classcrashpad_1_1MinidumpThreadNameListWriter.html" target="_top" xlink:title="The writer for a MINIDUMP_THREAD_NAME_LIST stream in a minidump file, containing a list of MINIDUMP_T...">
<polygon fill="white" stroke="#666666" points="464.62,-146.5 322.62,-146.5 322.62,-110 464.62,-110 464.62,-146.5"/>
<text text-anchor="start" x="330.62" y="-133" font-family="Noto Sans, Lucida Grande, Lucida Sans Unicode, Helvetica, Arial, sans-serif" font-size="10.00">crashpad::MinidumpThread</text>
<text text-anchor="middle" x="393.62" y="-118.75" font-family="Noto Sans, Lucida Grande, Lucida Sans Unicode, Helvetica, Arial, sans-serif" font-size="10.00">NameListWriter</text>
</a>
</g>
</g>
<!-- Node1&#45;&gt;Node12 -->
<g id="edge11_Node000001_Node000012" class="edge">
<title>Node1&#45;&gt;Node12</title>
<g id="a_edge11_Node000001_Node000012"><a xlink:title=" ">
<path fill="none" stroke="#63b8ff" d="M220.9,-291.16C235.7,-254.64 265.85,-192.4 311,-156.25 315.44,-152.69 320.37,-149.57 325.53,-146.84"/>
<polygon fill="#63b8ff" stroke="#63b8ff" points="217.75,-289.62 217.35,-300.21 224.26,-292.17 217.75,-289.62"/>
</a>
</g>
</g>
<!-- Node13 -->
<g id="Node000013" class="node">
<title>Node13</title>
<g id="a_Node000013"><a xlink:href="classcrashpad_1_1MinidumpUnloadedModuleListWriter.html" target="_top" xlink:title="The writer for a MINIDUMP_UNLOADED_MODULE_LIST stream in a minidump file, containing a list of MINIDU...">
<polygon fill="white" stroke="#666666" points="471,-91.5 316.25,-91.5 316.25,-55 471,-55 471,-91.5"/>
<text text-anchor="start" x="324.25" y="-78" font-family="Noto Sans, Lucida Grande, Lucida Sans Unicode, Helvetica, Arial, sans-serif" font-size="10.00">crashpad::MinidumpUnloaded</text>
<text text-anchor="middle" x="393.62" y="-63.75" font-family="Noto Sans, Lucida Grande, Lucida Sans Unicode, Helvetica, Arial, sans-serif" font-size="10.00">ModuleListWriter</text>
</a>
</g>
</g>
<!-- Node1&#45;&gt;Node13 -->
<g id="edge12_Node000001_Node000013" class="edge">
<title>Node1&#45;&gt;Node13</title>
<g id="a_edge12_Node000001_Node000013"><a xlink:title=" ">
<path fill="none" stroke="#63b8ff" d="M216.04,-290.62C226.69,-243.87 253.74,-153.02 311,-101.25 314.89,-97.73 319.24,-94.66 323.86,-91.96"/>
<polygon fill="#63b8ff" stroke="#63b8ff" points="212.64,-289.77 213.95,-300.29 219.49,-291.26 212.64,-289.77"/>
</a>
</g>
</g>
<!-- Node14 -->
<g id="Node000014" class="node">
<title>Node14</title>
<g id="a_Node000014"><a xlink:href="classcrashpad_1_1MinidumpUserStreamWriter.html" target="_top" xlink:title="The writer for a MINIDUMP_USER_STREAM in a minidump file.">
<polygon fill="white" stroke="#666666" points="476.25,-36.5 311,-36.5 311,0 476.25,0 476.25,-36.5"/>
<text text-anchor="start" x="319" y="-23" font-family="Noto Sans, Lucida Grande, Lucida Sans Unicode, Helvetica, Arial, sans-serif" font-size="10.00">crashpad::MinidumpUserStream</text>
<text text-anchor="middle" x="393.62" y="-8.75" font-family="Noto Sans, Lucida Grande, Lucida Sans Unicode, Helvetica, Arial, sans-serif" font-size="10.00">Writer</text>
</a>
</g>
</g>
<!-- Node1&#45;&gt;Node14 -->
<g id="edge13_Node000001_Node000014" class="edge">
<title>Node1&#45;&gt;Node14</title>
<g id="a_edge13_Node000001_Node000014"><a xlink:title=" ">
<path fill="none" stroke="#63b8ff" d="M212.91,-290.53C219.46,-234.88 241.3,-114.44 311,-46.25 314.64,-42.69 318.75,-39.58 323.15,-36.86"/>
<polygon fill="#63b8ff" stroke="#63b8ff" points="209.46,-289.86 211.87,-300.18 216.42,-290.62 209.46,-289.86"/>
</a>
</g>
</g>
<!-- Node2 -->
<g id="Node000002" class="node">
<title>Node2</title>
<g id="a_Node000002"><a xlink:href="classcrashpad_1_1internal_1_1MinidumpWritable.html" target="_top" xlink:title="The base class for all content that might be written to a minidump file.">
<polygon fill="white" stroke="#666666" points="107.5,-338.5 0,-338.5 0,-302 107.5,-302 107.5,-338.5"/>
<text text-anchor="start" x="8" y="-325" font-family="Noto Sans, Lucida Grande, Lucida Sans Unicode, Helvetica, Arial, sans-serif" font-size="10.00">crashpad::internal</text>
<text text-anchor="middle" x="53.75" y="-310.75" font-family="Noto Sans, Lucida Grande, Lucida Sans Unicode, Helvetica, Arial, sans-serif" font-size="10.00">::MinidumpWritable</text>
</a>
</g>
</g>
<!-- Node2&#45;&gt;Node1 -->
<g id="edge1_Node000001_Node000002" class="edge">
<title>Node2&#45;&gt;Node1</title>
<g id="a_edge1_Node000001_Node000002"><a xlink:title=" ">
<path fill="none" stroke="#63b8ff" d="M119.06,-320.25C127.01,-320.25 135.15,-320.25 143.12,-320.25"/>
<polygon fill="#63b8ff" stroke="#63b8ff" points="119.09,-316.75 109.09,-320.25 119.09,-323.75 119.09,-316.75"/>
</a>
</g>
</g>
</g>
</svg>
