<?xml version="1.0" encoding="UTF-8" standalone="no"?>
<!DOCTYPE svg PUBLIC "-//W3C//DTD SVG 1.1//EN"
 "http://www.w3.org/Graphics/SVG/1.1/DTD/svg11.dtd">
<!-- Generated by graphviz version 12.2.1 (20241206.2353)
 -->
<!-- Title: crashpad::Thread Pages: 1 -->
<svg width="332pt" height="139pt"
 viewBox="0.00 0.00 331.75 139.38" xmlns="http://www.w3.org/2000/svg" xmlns:xlink="http://www.w3.org/1999/xlink">
<g id="graph0" class="graph" transform="scale(1 1) rotate(0) translate(4 135.38)">
<title>crashpad::Thread</title>
<!-- Node1 -->
<g id="Node000001" class="node">
<title>Node1</title>
<g id="a_Node000001"><a xlink:title="Basic thread abstraction. Users should derive from this class and implement ThreadMain().">
<polygon fill="#999999" stroke="#666666" points="95.5,-84.38 0,-84.38 0,-62.12 95.5,-62.12 95.5,-84.38"/>
<text text-anchor="middle" x="47.75" y="-70.88" font-family="Noto Sans, Lucida Grande, Lucida Sans Unicode, Helvetica, Arial, sans-serif" font-size="10.00">crashpad::Thread</text>
</a>
</g>
</g>
<!-- Node2 -->
<g id="Node000002" class="node">
<title>Node2</title>
<g id="a_Node000002"><a xlink:href="classcrashpad_1_1SessionEndWatcher.html" target="_top" xlink:title="Creates a hidden window and waits for a WM_ENDSESSION message, indicating that the session is ending ...">
<polygon fill="white" stroke="#666666" points="304.62,-131.38 150.62,-131.38 150.62,-109.12 304.62,-109.12 304.62,-131.38"/>
<text text-anchor="middle" x="227.62" y="-117.88" font-family="Noto Sans, Lucida Grande, Lucida Sans Unicode, Helvetica, Arial, sans-serif" font-size="10.00">crashpad::SessionEndWatcher</text>
</a>
</g>
</g>
<!-- Node1&#45;&gt;Node2 -->
<g id="edge1_Node000001_Node000002" class="edge">
<title>Node1&#45;&gt;Node2</title>
<g id="a_edge1_Node000001_Node000002"><a xlink:title=" ">
<path fill="none" stroke="#63b8ff" d="M92.22,-88.41C104.81,-92.53 118.63,-96.81 131.5,-100.25 142.75,-103.26 154.84,-106.1 166.51,-108.64"/>
<polygon fill="#63b8ff" stroke="#63b8ff" points="93.55,-85.17 82.96,-85.33 91.34,-91.81 93.55,-85.17"/>
</a>
</g>
</g>
<!-- Node3 -->
<g id="Node000003" class="node">
<title>Node3</title>
<g id="a_Node000003"><a xlink:href="classcrashpad_1_1internal_1_1WorkerThreadImpl.html" target="_top" xlink:title=" ">
<polygon fill="white" stroke="#bfbfbf" points="282.88,-91.5 172.38,-91.5 172.38,-55 282.88,-55 282.88,-91.5"/>
<text text-anchor="start" x="180.38" y="-78" font-family="Noto Sans, Lucida Grande, Lucida Sans Unicode, Helvetica, Arial, sans-serif" font-size="10.00">crashpad::internal</text>
<text text-anchor="middle" x="227.62" y="-63.75" font-family="Noto Sans, Lucida Grande, Lucida Sans Unicode, Helvetica, Arial, sans-serif" font-size="10.00">::WorkerThreadImpl</text>
</a>
</g>
</g>
<!-- Node1&#45;&gt;Node3 -->
<g id="edge2_Node000001_Node000003" class="edge">
<title>Node1&#45;&gt;Node3</title>
<g id="a_edge2_Node000001_Node000003"><a xlink:title=" ">
<path fill="none" stroke="#63b8ff" d="M107.23,-73.25C128.07,-73.25 151.44,-73.25 171.95,-73.25"/>
<polygon fill="#63b8ff" stroke="#63b8ff" points="107.46,-69.75 97.46,-73.25 107.46,-76.75 107.46,-69.75"/>
</a>
</g>
</g>
<!-- Node4 -->
<g id="Node000004" class="node">
<title>Node4</title>
<g id="a_Node000004"><a xlink:href="classcrashpad_1_1test_1_1ExceptionSwallower_1_1ExceptionSwallowerThread.html" target="_top" xlink:title=" ">
<polygon fill="white" stroke="#bfbfbf" points="323.75,-36.5 131.5,-36.5 131.5,0 323.75,0 323.75,-36.5"/>
<text text-anchor="start" x="139.5" y="-23" font-family="Noto Sans, Lucida Grande, Lucida Sans Unicode, Helvetica, Arial, sans-serif" font-size="10.00">crashpad::test::Exception</text>
<text text-anchor="middle" x="227.62" y="-8.75" font-family="Noto Sans, Lucida Grande, Lucida Sans Unicode, Helvetica, Arial, sans-serif" font-size="10.00">Swallower::ExceptionSwallowerThread</text>
</a>
</g>
</g>
<!-- Node1&#45;&gt;Node4 -->
<g id="edge3_Node000001_Node000004" class="edge">
<title>Node1&#45;&gt;Node4</title>
<g id="a_edge3_Node000001_Node000004"><a xlink:title=" ">
<path fill="none" stroke="#63b8ff" d="M94.11,-58.19C106.23,-54.23 119.34,-50.02 131.5,-46.25 141.37,-43.19 151.83,-40.03 162.08,-36.97"/>
<polygon fill="#63b8ff" stroke="#63b8ff" points="93.15,-54.82 84.74,-61.26 95.33,-61.47 93.15,-54.82"/>
</a>
</g>
</g>
</g>
</svg>
