<?xml version="1.0" encoding="UTF-8" standalone="no"?>
<!DOCTYPE svg PUBLIC "-//W3C//DTD SVG 1.1//EN"
 "http://www.w3.org/Graphics/SVG/1.1/DTD/svg11.dtd">
<!-- Generated by graphviz version 12.2.1 (20241206.2353)
 -->
<!-- Title: crashpad::FileWriterInterface Pages: 1 -->
<svg width="397pt" height="161pt"
 viewBox="0.00 0.00 397.25 161.00" xmlns="http://www.w3.org/2000/svg" xmlns:xlink="http://www.w3.org/1999/xlink">
<g id="graph0" class="graph" transform="scale(1 1) rotate(0) translate(4 157)">
<title>crashpad::FileWriterInterface</title>
<!-- Node1 -->
<g id="Node000001" class="node">
<title>Node1</title>
<g id="a_Node000001"><a xlink:title="An interface to write to files and other file&#45;like objects with semantics matching the underlying pla...">
<polygon fill="#999999" stroke="#666666" points="256.75,-94.75 104.25,-94.75 104.25,-72.5 256.75,-72.5 256.75,-94.75"/>
<text text-anchor="middle" x="180.5" y="-81.25" font-family="Noto Sans, Lucida Grande, Lucida Sans Unicode, Helvetica, Arial, sans-serif" font-size="10.00">crashpad::FileWriterInterface</text>
</a>
</g>
</g>
<!-- Node3 -->
<g id="Node000003" class="node">
<title>Node3</title>
<g id="a_Node000003"><a xlink:href="classcrashpad_1_1FileWriter.html" target="_top" xlink:title="A file writer implementation that wraps traditional system file operations on files accessed through ...">
<polygon fill="white" stroke="#666666" points="109,-29.38 0,-29.38 0,-7.12 109,-7.12 109,-29.38"/>
<text text-anchor="middle" x="54.5" y="-15.88" font-family="Noto Sans, Lucida Grande, Lucida Sans Unicode, Helvetica, Arial, sans-serif" font-size="10.00">crashpad::FileWriter</text>
</a>
</g>
</g>
<!-- Node1&#45;&gt;Node3 -->
<g id="edge2_Node000001_Node000003" class="edge">
<title>Node1&#45;&gt;Node3</title>
<g id="a_edge2_Node000001_Node000003"><a xlink:title=" ">
<path fill="none" stroke="#63b8ff" d="M149.41,-66.99C126.3,-55.36 95.41,-39.83 75.24,-29.68"/>
<polygon fill="#63b8ff" stroke="#63b8ff" points="147.55,-69.97 158.06,-71.34 150.7,-63.72 147.55,-69.97"/>
</a>
</g>
</g>
<!-- Node4 -->
<g id="Node000004" class="node">
<title>Node4</title>
<g id="a_Node000004"><a xlink:href="classcrashpad_1_1StringFile.html" target="_top" xlink:title="A file reader and writer backed by a virtual file, as opposed to a file on disk or other operating sy...">
<polygon fill="white" stroke="#666666" points="233.88,-29.38 127.12,-29.38 127.12,-7.12 233.88,-7.12 233.88,-29.38"/>
<text text-anchor="middle" x="180.5" y="-15.88" font-family="Noto Sans, Lucida Grande, Lucida Sans Unicode, Helvetica, Arial, sans-serif" font-size="10.00">crashpad::StringFile</text>
</a>
</g>
</g>
<!-- Node1&#45;&gt;Node4 -->
<g id="edge3_Node000001_Node000004" class="edge">
<title>Node1&#45;&gt;Node4</title>
<g id="a_edge3_Node000001_Node000004"><a xlink:title=" ">
<path fill="none" stroke="#63b8ff" d="M180.5,-60.79C180.5,-50.19 180.5,-37.95 180.5,-29.52"/>
<polygon fill="#63b8ff" stroke="#63b8ff" points="177,-60.65 180.5,-70.65 184,-60.65 177,-60.65"/>
</a>
</g>
</g>
<!-- Node5 -->
<g id="Node000005" class="node">
<title>Node5</title>
<g id="a_Node000005"><a xlink:href="classcrashpad_1_1WeakFileHandleFileWriter.html" target="_top" xlink:title="A file writer backed by a FileHandle.">
<polygon fill="white" stroke="#666666" points="389.25,-36.5 251.75,-36.5 251.75,0 389.25,0 389.25,-36.5"/>
<text text-anchor="start" x="259.75" y="-23" font-family="Noto Sans, Lucida Grande, Lucida Sans Unicode, Helvetica, Arial, sans-serif" font-size="10.00">crashpad::WeakFileHandle</text>
<text text-anchor="middle" x="320.5" y="-8.75" font-family="Noto Sans, Lucida Grande, Lucida Sans Unicode, Helvetica, Arial, sans-serif" font-size="10.00">FileWriter</text>
</a>
</g>
</g>
<!-- Node1&#45;&gt;Node5 -->
<g id="edge4_Node000001_Node000005" class="edge">
<title>Node1&#45;&gt;Node5</title>
<g id="a_edge4_Node000001_Node000005"><a xlink:title=" ">
<path fill="none" stroke="#63b8ff" d="M214.23,-67.35C234.45,-58.2 260.24,-46.53 281.35,-36.97"/>
<polygon fill="#63b8ff" stroke="#63b8ff" points="212.98,-64.08 205.31,-71.39 215.87,-70.46 212.98,-64.08"/>
</a>
</g>
</g>
<!-- Node2 -->
<g id="Node000002" class="node">
<title>Node2</title>
<g id="a_Node000002"><a xlink:href="classcrashpad_1_1FileSeekerInterface.html" target="_top" xlink:title="An interface to seek in files and other file&#45;like objects with semantics matching the underlying plat...">
<polygon fill="white" stroke="#666666" points="258.25,-153 102.75,-153 102.75,-130.75 258.25,-130.75 258.25,-153"/>
<text text-anchor="middle" x="180.5" y="-139.5" font-family="Noto Sans, Lucida Grande, Lucida Sans Unicode, Helvetica, Arial, sans-serif" font-size="10.00">crashpad::FileSeekerInterface</text>
</a>
</g>
</g>
<!-- Node2&#45;&gt;Node1 -->
<g id="edge1_Node000001_Node000002" class="edge">
<title>Node2&#45;&gt;Node1</title>
<g id="a_edge1_Node000001_Node000002"><a xlink:title=" ">
<path fill="none" stroke="#63b8ff" d="M180.5,-118.85C180.5,-110.7 180.5,-101.83 180.5,-95.16"/>
<polygon fill="#63b8ff" stroke="#63b8ff" points="177,-118.78 180.5,-128.78 184,-118.78 177,-118.78"/>
</a>
</g>
</g>
</g>
</svg>
