<?xml version="1.0" encoding="UTF-8" standalone="no"?>
<!DOCTYPE svg PUBLIC "-//W3C//DTD SVG 1.1//EN"
 "http://www.w3.org/Graphics/SVG/1.1/DTD/svg11.dtd">
<!-- Generated by graphviz version 12.2.1 (20241206.2353)
 -->
<!-- Title: crashpad::StringFile Pages: 1 -->
<svg width="334pt" height="147pt"
 viewBox="0.00 0.00 334.38 146.75" xmlns="http://www.w3.org/2000/svg" xmlns:xlink="http://www.w3.org/1999/xlink">
<g id="graph0" class="graph" transform="scale(1 1) rotate(0) translate(4 142.75)">
<title>crashpad::StringFile</title>
<!-- Node1 -->
<g id="Node000001" class="node">
<title>Node1</title>
<g id="a_Node000001"><a xlink:title="A file reader and writer backed by a virtual file, as opposed to a file on disk or other operating sy...">
<polygon fill="#999999" stroke="#666666" points="217.5,-22.25 110.75,-22.25 110.75,0 217.5,0 217.5,-22.25"/>
<text text-anchor="middle" x="164.12" y="-8.75" font-family="Noto Sans, Lucida Grande, Lucida Sans Unicode, Helvetica, Arial, sans-serif" font-size="10.00">crashpad::StringFile</text>
</a>
</g>
</g>
<!-- Node2 -->
<g id="Node000002" class="node">
<title>Node2</title>
<g id="a_Node000002"><a xlink:href="classcrashpad_1_1FileReaderInterface.html" target="_top" xlink:title="An interface to read to files and other file&#45;like objects with semantics matching the underlying plat...">
<polygon fill="white" stroke="#666666" points="156.25,-80.5 0,-80.5 0,-58.25 156.25,-58.25 156.25,-80.5"/>
<text text-anchor="middle" x="78.12" y="-67" font-family="Noto Sans, Lucida Grande, Lucida Sans Unicode, Helvetica, Arial, sans-serif" font-size="10.00">crashpad::FileReaderInterface</text>
</a>
</g>
</g>
<!-- Node2&#45;&gt;Node1 -->
<g id="edge1_Node000001_Node000002" class="edge">
<title>Node2&#45;&gt;Node1</title>
<g id="a_edge1_Node000001_Node000002"><a xlink:title=" ">
<path fill="none" stroke="#63b8ff" d="M103.65,-51.68C118.03,-42.27 135.55,-30.82 148.02,-22.66"/>
<polygon fill="#63b8ff" stroke="#63b8ff" points="102.02,-48.56 95.57,-56.97 105.85,-54.42 102.02,-48.56"/>
</a>
</g>
</g>
<!-- Node3 -->
<g id="Node000003" class="node">
<title>Node3</title>
<g id="a_Node000003"><a xlink:href="classcrashpad_1_1FileSeekerInterface.html" target="_top" xlink:title="An interface to seek in files and other file&#45;like objects with semantics matching the underlying plat...">
<polygon fill="white" stroke="#666666" points="241.88,-138.75 86.38,-138.75 86.38,-116.5 241.88,-116.5 241.88,-138.75"/>
<text text-anchor="middle" x="164.12" y="-125.25" font-family="Noto Sans, Lucida Grande, Lucida Sans Unicode, Helvetica, Arial, sans-serif" font-size="10.00">crashpad::FileSeekerInterface</text>
</a>
</g>
</g>
<!-- Node3&#45;&gt;Node2 -->
<g id="edge2_Node000002_Node000003" class="edge">
<title>Node3&#45;&gt;Node2</title>
<g id="a_edge2_Node000002_Node000003"><a xlink:title=" ">
<path fill="none" stroke="#63b8ff" d="M138.6,-109.93C124.22,-100.52 106.7,-89.07 94.23,-80.91"/>
<polygon fill="#63b8ff" stroke="#63b8ff" points="136.4,-112.67 146.68,-115.22 140.23,-106.81 136.4,-112.67"/>
</a>
</g>
</g>
<!-- Node4 -->
<g id="Node000004" class="node">
<title>Node4</title>
<g id="a_Node000004"><a xlink:href="classcrashpad_1_1FileWriterInterface.html" target="_top" xlink:title="An interface to write to files and other file&#45;like objects with semantics matching the underlying pla...">
<polygon fill="white" stroke="#666666" points="326.38,-80.5 173.88,-80.5 173.88,-58.25 326.38,-58.25 326.38,-80.5"/>
<text text-anchor="middle" x="250.12" y="-67" font-family="Noto Sans, Lucida Grande, Lucida Sans Unicode, Helvetica, Arial, sans-serif" font-size="10.00">crashpad::FileWriterInterface</text>
</a>
</g>
</g>
<!-- Node3&#45;&gt;Node4 -->
<g id="edge4_Node000004_Node000003" class="edge">
<title>Node3&#45;&gt;Node4</title>
<g id="a_edge4_Node000004_Node000003"><a xlink:title=" ">
<path fill="none" stroke="#63b8ff" d="M189.65,-109.93C204.03,-100.52 221.55,-89.07 234.02,-80.91"/>
<polygon fill="#63b8ff" stroke="#63b8ff" points="188.02,-106.81 181.57,-115.22 191.85,-112.67 188.02,-106.81"/>
</a>
</g>
</g>
<!-- Node4&#45;&gt;Node1 -->
<g id="edge3_Node000001_Node000004" class="edge">
<title>Node4&#45;&gt;Node1</title>
<g id="a_edge3_Node000001_Node000004"><a xlink:title=" ">
<path fill="none" stroke="#63b8ff" d="M224.6,-51.68C210.22,-42.27 192.7,-30.82 180.23,-22.66"/>
<polygon fill="#63b8ff" stroke="#63b8ff" points="222.4,-54.42 232.68,-56.97 226.23,-48.56 222.4,-54.42"/>
</a>
</g>
</g>
</g>
</svg>
