<?xml version="1.0" encoding="UTF-8" standalone="no"?>
<!DOCTYPE svg PUBLIC "-//W3C//DTD SVG 1.1//EN"
 "http://www.w3.org/Graphics/SVG/1.1/DTD/svg11.dtd">
<!-- Generated by graphviz version 12.2.1 (20241206.2353)
 -->
<!-- Title: crashpad::ExceptionSnapshot Pages: 1 -->
<svg width="412pt" height="375pt"
 viewBox="0.00 0.00 412.00 374.50" xmlns="http://www.w3.org/2000/svg" xmlns:xlink="http://www.w3.org/1999/xlink">
<g id="graph0" class="graph" transform="scale(1 1) rotate(0) translate(4 370.5)">
<title>crashpad::ExceptionSnapshot</title>
<!-- Node1 -->
<g id="Node000001" class="node">
<title>Node1</title>
<g id="a_Node000001"><a xlink:title="An abstract interface to a snapshot representing an exception that a snapshot process sustained and t...">
<polygon fill="#999999" stroke="#666666" points="151,-194.38 0,-194.38 0,-172.12 151,-172.12 151,-194.38"/>
<text text-anchor="middle" x="75.5" y="-180.88" font-family="Noto Sans, Lucida Grande, Lucida Sans Unicode, Helvetica, Arial, sans-serif" font-size="10.00">crashpad::ExceptionSnapshot</text>
</a>
</g>
</g>
<!-- Node2 -->
<g id="Node000002" class="node">
<title>Node2</title>
<g id="a_Node000002"><a xlink:href="classcrashpad_1_1internal_1_1ExceptionSnapshotFuchsia.html" target="_top" xlink:title="An ExceptionSnapshot of an exception sustained by a process on a Fuchsia system.">
<polygon fill="white" stroke="#666666" points="367.25,-366.5 223.75,-366.5 223.75,-330 367.25,-330 367.25,-366.5"/>
<text text-anchor="start" x="231.75" y="-353" font-family="Noto Sans, Lucida Grande, Lucida Sans Unicode, Helvetica, Arial, sans-serif" font-size="10.00">crashpad::internal</text>
<text text-anchor="middle" x="295.5" y="-338.75" font-family="Noto Sans, Lucida Grande, Lucida Sans Unicode, Helvetica, Arial, sans-serif" font-size="10.00">::ExceptionSnapshotFuchsia</text>
</a>
</g>
</g>
<!-- Node1&#45;&gt;Node2 -->
<g id="edge1_Node000001_Node000002" class="edge">
<title>Node1&#45;&gt;Node2</title>
<g id="a_edge1_Node000001_Node000002"><a xlink:title=" ">
<path fill="none" stroke="#63b8ff" d="M87.74,-204.46C104.97,-234.86 140.82,-290.43 187,-320.25 197.94,-327.31 210.58,-332.6 223.27,-336.55"/>
<polygon fill="#63b8ff" stroke="#63b8ff" points="90.88,-202.89 82.98,-195.82 84.74,-206.27 90.88,-202.89"/>
</a>
</g>
</g>
<!-- Node3 -->
<g id="Node000003" class="node">
<title>Node3</title>
<g id="a_Node000003"><a xlink:href="classcrashpad_1_1internal_1_1ExceptionSnapshotIOSIntermediateDump.html" target="_top" xlink:title="An ExceptionSnapshot of an exception sustained by a running (or crashed) process on an iOS system.">
<polygon fill="white" stroke="#666666" points="404,-311.5 187,-311.5 187,-275 404,-275 404,-311.5"/>
<text text-anchor="start" x="195" y="-298" font-family="Noto Sans, Lucida Grande, Lucida Sans Unicode, Helvetica, Arial, sans-serif" font-size="10.00">crashpad::internal</text>
<text text-anchor="middle" x="295.5" y="-283.75" font-family="Noto Sans, Lucida Grande, Lucida Sans Unicode, Helvetica, Arial, sans-serif" font-size="10.00">::ExceptionSnapshotIOSIntermediateDump</text>
</a>
</g>
</g>
<!-- Node1&#45;&gt;Node3 -->
<g id="edge2_Node000001_Node000003" class="edge">
<title>Node1&#45;&gt;Node3</title>
<g id="a_edge2_Node000001_Node000003"><a xlink:title=" ">
<path fill="none" stroke="#63b8ff" d="M97.15,-202.44C118.24,-221.04 152.65,-248.8 187,-265.25 194.31,-268.75 202.11,-271.85 210.05,-274.6"/>
<polygon fill="#63b8ff" stroke="#63b8ff" points="99.61,-199.94 89.84,-195.86 94.93,-205.15 99.61,-199.94"/>
</a>
</g>
</g>
<!-- Node4 -->
<g id="Node000004" class="node">
<title>Node4</title>
<g id="a_Node000004"><a xlink:href="classcrashpad_1_1internal_1_1ExceptionSnapshotLinux.html" target="_top" xlink:title="An ExceptionSnapshot of an signal received by a running (or crashed) process on a Linux system.">
<polygon fill="white" stroke="#666666" points="362.75,-256.5 228.25,-256.5 228.25,-220 362.75,-220 362.75,-256.5"/>
<text text-anchor="start" x="236.25" y="-243" font-family="Noto Sans, Lucida Grande, Lucida Sans Unicode, Helvetica, Arial, sans-serif" font-size="10.00">crashpad::internal</text>
<text text-anchor="middle" x="295.5" y="-228.75" font-family="Noto Sans, Lucida Grande, Lucida Sans Unicode, Helvetica, Arial, sans-serif" font-size="10.00">::ExceptionSnapshotLinux</text>
</a>
</g>
</g>
<!-- Node1&#45;&gt;Node4 -->
<g id="edge3_Node000001_Node000004" class="edge">
<title>Node1&#45;&gt;Node4</title>
<g id="a_edge3_Node000001_Node000004"><a xlink:title=" ">
<path fill="none" stroke="#63b8ff" d="M133.61,-197.66C162.52,-204.95 197.78,-213.85 227.91,-221.45"/>
<polygon fill="#63b8ff" stroke="#63b8ff" points="134.49,-194.27 123.93,-195.22 132.77,-201.06 134.49,-194.27"/>
</a>
</g>
</g>
<!-- Node5 -->
<g id="Node000005" class="node">
<title>Node5</title>
<g id="a_Node000005"><a xlink:href="classcrashpad_1_1internal_1_1ExceptionSnapshotMac.html" target="_top" xlink:title="An ExceptionSnapshot of an exception sustained by a running (or crashed) process on a macOS system.">
<polygon fill="white" stroke="#666666" points="359.75,-201.5 231.25,-201.5 231.25,-165 359.75,-165 359.75,-201.5"/>
<text text-anchor="start" x="239.25" y="-188" font-family="Noto Sans, Lucida Grande, Lucida Sans Unicode, Helvetica, Arial, sans-serif" font-size="10.00">crashpad::internal</text>
<text text-anchor="middle" x="295.5" y="-173.75" font-family="Noto Sans, Lucida Grande, Lucida Sans Unicode, Helvetica, Arial, sans-serif" font-size="10.00">::ExceptionSnapshotMac</text>
</a>
</g>
</g>
<!-- Node1&#45;&gt;Node5 -->
<g id="edge4_Node000001_Node000005" class="edge">
<title>Node1&#45;&gt;Node5</title>
<g id="a_edge4_Node000001_Node000005"><a xlink:title=" ">
<path fill="none" stroke="#63b8ff" d="M162.6,-183.25C185.33,-183.25 209.46,-183.25 230.77,-183.25"/>
<polygon fill="#63b8ff" stroke="#63b8ff" points="162.73,-179.75 152.73,-183.25 162.73,-186.75 162.73,-179.75"/>
</a>
</g>
</g>
<!-- Node6 -->
<g id="Node000006" class="node">
<title>Node6</title>
<g id="a_Node000006"><a xlink:href="classcrashpad_1_1internal_1_1ExceptionSnapshotMinidump.html" target="_top" xlink:title="An ExceptionSnapshot based on a minidump file.">
<polygon fill="white" stroke="#666666" points="373.62,-146.5 217.38,-146.5 217.38,-110 373.62,-110 373.62,-146.5"/>
<text text-anchor="start" x="225.38" y="-133" font-family="Noto Sans, Lucida Grande, Lucida Sans Unicode, Helvetica, Arial, sans-serif" font-size="10.00">crashpad::internal</text>
<text text-anchor="middle" x="295.5" y="-118.75" font-family="Noto Sans, Lucida Grande, Lucida Sans Unicode, Helvetica, Arial, sans-serif" font-size="10.00">::ExceptionSnapshotMinidump</text>
</a>
</g>
</g>
<!-- Node1&#45;&gt;Node6 -->
<g id="edge5_Node000001_Node000006" class="edge">
<title>Node1&#45;&gt;Node6</title>
<g id="a_edge5_Node000001_Node000006"><a xlink:title=" ">
<path fill="none" stroke="#63b8ff" d="M133.48,-168.87C160.01,-162.18 191.91,-154.13 220.29,-146.97"/>
<polygon fill="#63b8ff" stroke="#63b8ff" points="132.77,-165.44 123.93,-171.28 134.49,-172.23 132.77,-165.44"/>
</a>
</g>
</g>
<!-- Node7 -->
<g id="Node000007" class="node">
<title>Node7</title>
<g id="a_Node000007"><a xlink:href="classcrashpad_1_1internal_1_1ExceptionSnapshotWin.html" target="_top" xlink:title=" ">
<polygon fill="white" stroke="#bfbfbf" points="359,-91.5 232,-91.5 232,-55 359,-55 359,-91.5"/>
<text text-anchor="start" x="240" y="-78" font-family="Noto Sans, Lucida Grande, Lucida Sans Unicode, Helvetica, Arial, sans-serif" font-size="10.00">crashpad::internal</text>
<text text-anchor="middle" x="295.5" y="-63.75" font-family="Noto Sans, Lucida Grande, Lucida Sans Unicode, Helvetica, Arial, sans-serif" font-size="10.00">::ExceptionSnapshotWin</text>
</a>
</g>
</g>
<!-- Node1&#45;&gt;Node7 -->
<g id="edge6_Node000001_Node000007" class="edge">
<title>Node1&#45;&gt;Node7</title>
<g id="a_edge6_Node000001_Node000007"><a xlink:title=" ">
<path fill="none" stroke="#63b8ff" d="M97.15,-164.06C118.24,-145.46 152.65,-117.7 187,-101.25 200.92,-94.59 216.63,-89.35 231.66,-85.31"/>
<polygon fill="#63b8ff" stroke="#63b8ff" points="94.93,-161.35 89.84,-170.64 99.61,-166.56 94.93,-161.35"/>
</a>
</g>
</g>
<!-- Node8 -->
<g id="Node000008" class="node">
<title>Node8</title>
<g id="a_Node000008"><a xlink:href="classcrashpad_1_1test_1_1TestExceptionSnapshot.html" target="_top" xlink:title="A test ExceptionSnapshot that can carry arbitrary data for testing purposes.">
<polygon fill="white" stroke="#666666" points="371,-36.5 220,-36.5 220,0 371,0 371,-36.5"/>
<text text-anchor="start" x="228" y="-23" font-family="Noto Sans, Lucida Grande, Lucida Sans Unicode, Helvetica, Arial, sans-serif" font-size="10.00">crashpad::test::TestException</text>
<text text-anchor="middle" x="295.5" y="-8.75" font-family="Noto Sans, Lucida Grande, Lucida Sans Unicode, Helvetica, Arial, sans-serif" font-size="10.00">Snapshot</text>
</a>
</g>
</g>
<!-- Node1&#45;&gt;Node8 -->
<g id="edge7_Node000001_Node000008" class="edge">
<title>Node1&#45;&gt;Node8</title>
<g id="a_edge7_Node000001_Node000008"><a xlink:title=" ">
<path fill="none" stroke="#63b8ff" d="M87.74,-162.04C104.97,-131.64 140.82,-76.07 187,-46.25 196.88,-39.87 208.16,-34.94 219.6,-31.13"/>
<polygon fill="#63b8ff" stroke="#63b8ff" points="84.74,-160.23 82.98,-170.68 90.88,-163.61 84.74,-160.23"/>
</a>
</g>
</g>
</g>
</svg>
