<?xml version="1.0" encoding="UTF-8" standalone="no"?>
<!DOCTYPE svg PUBLIC "-//W3C//DTD SVG 1.1//EN"
 "http://www.w3.org/Graphics/SVG/1.1/DTD/svg11.dtd">
<!-- Generated by graphviz version 12.2.1 (20241206.2353)
 -->
<!-- Title: crashpad::ProcessMemory Pages: 1 -->
<svg width="362pt" height="230pt"
 viewBox="0.00 0.00 361.75 230.25" xmlns="http://www.w3.org/2000/svg" xmlns:xlink="http://www.w3.org/1999/xlink">
<g id="graph0" class="graph" transform="scale(1 1) rotate(0) translate(4 226.25)">
<title>crashpad::ProcessMemory</title>
<!-- Node1 -->
<g id="Node000001" class="node">
<title>Node1</title>
<g id="a_Node000001"><a xlink:title="Abstract base class for accessing the memory of another process.">
<polygon fill="#999999" stroke="#666666" points="138.25,-122.25 0,-122.25 0,-100 138.25,-100 138.25,-122.25"/>
<text text-anchor="middle" x="69.12" y="-108.75" font-family="Noto Sans, Lucida Grande, Lucida Sans Unicode, Helvetica, Arial, sans-serif" font-size="10.00">crashpad::ProcessMemory</text>
</a>
</g>
</g>
<!-- Node2 -->
<g id="Node000002" class="node">
<title>Node2</title>
<g id="a_Node000002"><a xlink:href="classFakeProcessMemory.html" target="_top" xlink:title=" ">
<polygon fill="white" stroke="#bfbfbf" points="320.38,-222.25 207.62,-222.25 207.62,-200 320.38,-200 320.38,-222.25"/>
<text text-anchor="middle" x="264" y="-208.75" font-family="Noto Sans, Lucida Grande, Lucida Sans Unicode, Helvetica, Arial, sans-serif" font-size="10.00">FakeProcessMemory</text>
</a>
</g>
</g>
<!-- Node1&#45;&gt;Node2 -->
<g id="edge1_Node000001_Node000002" class="edge">
<title>Node1&#45;&gt;Node2</title>
<g id="a_edge1_Node000001_Node000002"><a xlink:title=" ">
<path fill="none" stroke="#63b8ff" d="M89.62,-130.36C109.34,-148.71 141.49,-175.77 174.25,-191.12 184.55,-195.95 196.07,-199.65 207.32,-202.46"/>
<polygon fill="#63b8ff" stroke="#63b8ff" points="92.24,-128.01 82.58,-123.65 87.41,-133.08 92.24,-128.01"/>
</a>
</g>
</g>
<!-- Node3 -->
<g id="Node000003" class="node">
<title>Node3</title>
<g id="a_Node000003"><a xlink:href="classcrashpad_1_1ProcessMemoryFuchsia.html" target="_top" xlink:title="Accesses the memory of another Fuchsia process.">
<polygon fill="white" stroke="#666666" points="350,-182.25 178,-182.25 178,-160 350,-160 350,-182.25"/>
<text text-anchor="middle" x="264" y="-168.75" font-family="Noto Sans, Lucida Grande, Lucida Sans Unicode, Helvetica, Arial, sans-serif" font-size="10.00">crashpad::ProcessMemoryFuchsia</text>
</a>
</g>
</g>
<!-- Node1&#45;&gt;Node3 -->
<g id="edge2_Node000001_Node000003" class="edge">
<title>Node1&#45;&gt;Node3</title>
<g id="a_edge2_Node000001_Node000003"><a xlink:title=" ">
<path fill="none" stroke="#63b8ff" d="M107.37,-126.94C127.02,-134.9 151.68,-144.29 174.25,-151.12 184.38,-154.19 195.28,-157.03 205.87,-159.54"/>
<polygon fill="#63b8ff" stroke="#63b8ff" points="108.7,-123.71 98.12,-123.15 106.04,-130.18 108.7,-123.71"/>
</a>
</g>
</g>
<!-- Node4 -->
<g id="Node000004" class="node">
<title>Node4</title>
<g id="a_Node000004"><a xlink:href="classcrashpad_1_1ProcessMemoryLinux.html" target="_top" xlink:title="Accesses the memory of another Linux process.">
<polygon fill="white" stroke="#666666" points="345.5,-142.25 182.5,-142.25 182.5,-120 345.5,-120 345.5,-142.25"/>
<text text-anchor="middle" x="264" y="-128.75" font-family="Noto Sans, Lucida Grande, Lucida Sans Unicode, Helvetica, Arial, sans-serif" font-size="10.00">crashpad::ProcessMemoryLinux</text>
</a>
</g>
</g>
<!-- Node1&#45;&gt;Node4 -->
<g id="edge3_Node000001_Node000004" class="edge">
<title>Node1&#45;&gt;Node4</title>
<g id="a_edge3_Node000001_Node000004"><a xlink:title=" ">
<path fill="none" stroke="#63b8ff" d="M150.04,-119.41C160.65,-120.51 171.53,-121.64 182.15,-122.74"/>
<polygon fill="#63b8ff" stroke="#63b8ff" points="150.48,-115.94 140.17,-118.39 149.76,-122.9 150.48,-115.94"/>
</a>
</g>
</g>
<!-- Node5 -->
<g id="Node000005" class="node">
<title>Node5</title>
<g id="a_Node000005"><a xlink:href="classcrashpad_1_1ProcessMemoryMac.html" target="_top" xlink:title="Accesses the memory of another Mach task.">
<polygon fill="white" stroke="#666666" points="342.5,-102.25 185.5,-102.25 185.5,-80 342.5,-80 342.5,-102.25"/>
<text text-anchor="middle" x="264" y="-88.75" font-family="Noto Sans, Lucida Grande, Lucida Sans Unicode, Helvetica, Arial, sans-serif" font-size="10.00">crashpad::ProcessMemoryMac</text>
</a>
</g>
</g>
<!-- Node1&#45;&gt;Node5 -->
<g id="edge4_Node000001_Node000005" class="edge">
<title>Node1&#45;&gt;Node5</title>
<g id="a_edge4_Node000001_Node000005"><a xlink:title=" ">
<path fill="none" stroke="#63b8ff" d="M150.12,-102.83C161.7,-101.63 173.61,-100.39 185.15,-99.2"/>
<polygon fill="#63b8ff" stroke="#63b8ff" points="149.76,-99.35 140.17,-103.86 150.48,-106.31 149.76,-99.35"/>
</a>
</g>
</g>
<!-- Node6 -->
<g id="Node000006" class="node">
<title>Node6</title>
<g id="a_Node000006"><a xlink:href="classcrashpad_1_1ProcessMemorySanitized.html" target="_top" xlink:title="Sanitized access to the memory of another process.">
<polygon fill="white" stroke="#666666" points="353.75,-62.25 174.25,-62.25 174.25,-40 353.75,-40 353.75,-62.25"/>
<text text-anchor="middle" x="264" y="-48.75" font-family="Noto Sans, Lucida Grande, Lucida Sans Unicode, Helvetica, Arial, sans-serif" font-size="10.00">crashpad::ProcessMemorySanitized</text>
</a>
</g>
</g>
<!-- Node1&#45;&gt;Node6 -->
<g id="edge5_Node000001_Node000006" class="edge">
<title>Node1&#45;&gt;Node6</title>
<g id="a_edge5_Node000001_Node000006"><a xlink:title=" ">
<path fill="none" stroke="#63b8ff" d="M107.37,-95.31C127.02,-87.35 151.68,-77.96 174.25,-71.12 184.38,-68.06 195.28,-65.22 205.87,-62.71"/>
<polygon fill="#63b8ff" stroke="#63b8ff" points="106.04,-92.07 98.12,-99.1 108.7,-98.54 106.04,-92.07"/>
</a>
</g>
</g>
<!-- Node7 -->
<g id="Node000007" class="node">
<title>Node7</title>
<g id="a_Node000007"><a xlink:href="classcrashpad_1_1ProcessMemoryWin.html" target="_top" xlink:title="Accesses the memory of another Windows process.">
<polygon fill="white" stroke="#666666" points="341.75,-22.25 186.25,-22.25 186.25,0 341.75,0 341.75,-22.25"/>
<text text-anchor="middle" x="264" y="-8.75" font-family="Noto Sans, Lucida Grande, Lucida Sans Unicode, Helvetica, Arial, sans-serif" font-size="10.00">crashpad::ProcessMemoryWin</text>
</a>
</g>
</g>
<!-- Node1&#45;&gt;Node7 -->
<g id="edge6_Node000001_Node000007" class="edge">
<title>Node1&#45;&gt;Node7</title>
<g id="a_edge6_Node000001_Node000007"><a xlink:title=" ">
<path fill="none" stroke="#63b8ff" d="M89.62,-91.89C109.34,-73.54 141.49,-46.48 174.25,-31.12 181.4,-27.77 189.14,-24.97 196.97,-22.62"/>
<polygon fill="#63b8ff" stroke="#63b8ff" points="87.41,-89.17 82.58,-98.6 92.24,-94.24 87.41,-89.17"/>
</a>
</g>
</g>
</g>
</svg>
