<?xml version="1.0" encoding="UTF-8" standalone="no"?>
<!DOCTYPE svg PUBLIC "-//W3C//DTD SVG 1.1//EN"
 "http://www.w3.org/Graphics/SVG/1.1/DTD/svg11.dtd">
<!-- Generated by graphviz version 12.2.1 (20241206.2353)
 -->
<!-- Title: crashpad::ThreadSnapshot Pages: 1 -->
<svg width="387pt" height="430pt"
 viewBox="0.00 0.00 386.50 429.50" xmlns="http://www.w3.org/2000/svg" xmlns:xlink="http://www.w3.org/1999/xlink">
<g id="graph0" class="graph" transform="scale(1 1) rotate(0) translate(4 425.5)">
<title>crashpad::ThreadSnapshot</title>
<!-- Node1 -->
<g id="Node000001" class="node">
<title>Node1</title>
<g id="a_Node000001"><a xlink:title="An abstract interface to a snapshot representing a thread (lightweight process) present in a snapshot...">
<polygon fill="#999999" stroke="#666666" points="138.25,-221.38 0,-221.38 0,-199.12 138.25,-199.12 138.25,-221.38"/>
<text text-anchor="middle" x="69.12" y="-207.88" font-family="Noto Sans, Lucida Grande, Lucida Sans Unicode, Helvetica, Arial, sans-serif" font-size="10.00">crashpad::ThreadSnapshot</text>
</a>
</g>
</g>
<!-- Node2 -->
<g id="Node000002" class="node">
<title>Node2</title>
<g id="a_Node000002"><a xlink:href="classcrashpad_1_1internal_1_1ThreadSnapshotFuchsia.html" target="_top" xlink:title="A ThreadSnapshot of a thread on a Fuchsia system.">
<polygon fill="white" stroke="#666666" points="341.75,-421.5 211,-421.5 211,-385 341.75,-385 341.75,-421.5"/>
<text text-anchor="start" x="219" y="-408" font-family="Noto Sans, Lucida Grande, Lucida Sans Unicode, Helvetica, Arial, sans-serif" font-size="10.00">crashpad::internal</text>
<text text-anchor="middle" x="276.38" y="-393.75" font-family="Noto Sans, Lucida Grande, Lucida Sans Unicode, Helvetica, Arial, sans-serif" font-size="10.00">::ThreadSnapshotFuchsia</text>
</a>
</g>
</g>
<!-- Node1&#45;&gt;Node2 -->
<g id="edge1_Node000001_Node000002" class="edge">
<title>Node1&#45;&gt;Node2</title>
<g id="a_edge1_Node000001_Node000002"><a xlink:title=" ">
<path fill="none" stroke="#63b8ff" d="M77.88,-232.1C91.63,-267.62 123.68,-337.68 174.25,-375.25 184.92,-383.18 197.73,-388.87 210.59,-392.94"/>
<polygon fill="#63b8ff" stroke="#63b8ff" points="81.23,-231.04 74.45,-222.89 74.67,-233.49 81.23,-231.04"/>
</a>
</g>
</g>
<!-- Node3 -->
<g id="Node000003" class="node">
<title>Node3</title>
<g id="a_Node000003"><a xlink:href="classcrashpad_1_1internal_1_1ThreadSnapshotIOSIntermediateDump.html" target="_top" xlink:title="A ThreadSnapshot of a thread on an iOS system.">
<polygon fill="white" stroke="#666666" points="378.5,-366.5 174.25,-366.5 174.25,-330 378.5,-330 378.5,-366.5"/>
<text text-anchor="start" x="182.25" y="-353" font-family="Noto Sans, Lucida Grande, Lucida Sans Unicode, Helvetica, Arial, sans-serif" font-size="10.00">crashpad::internal</text>
<text text-anchor="middle" x="276.38" y="-338.75" font-family="Noto Sans, Lucida Grande, Lucida Sans Unicode, Helvetica, Arial, sans-serif" font-size="10.00">::ThreadSnapshotIOSIntermediateDump</text>
</a>
</g>
</g>
<!-- Node1&#45;&gt;Node3 -->
<g id="edge2_Node000001_Node000003" class="edge">
<title>Node1&#45;&gt;Node3</title>
<g id="a_edge2_Node000001_Node000003"><a xlink:title=" ">
<path fill="none" stroke="#63b8ff" d="M84.35,-231.13C102.4,-256.02 135.83,-297.14 174.25,-320.25 180.1,-323.77 186.41,-326.86 192.92,-329.57"/>
<polygon fill="#63b8ff" stroke="#63b8ff" points="87.3,-229.24 78.67,-223.09 81.58,-233.28 87.3,-229.24"/>
</a>
</g>
</g>
<!-- Node4 -->
<g id="Node000004" class="node">
<title>Node4</title>
<g id="a_Node000004"><a xlink:href="classcrashpad_1_1internal_1_1ThreadSnapshotLinux.html" target="_top" xlink:title="A ThreadSnapshot of a thread on a Linux system.">
<polygon fill="white" stroke="#666666" points="337.25,-311.5 215.5,-311.5 215.5,-275 337.25,-275 337.25,-311.5"/>
<text text-anchor="start" x="223.5" y="-298" font-family="Noto Sans, Lucida Grande, Lucida Sans Unicode, Helvetica, Arial, sans-serif" font-size="10.00">crashpad::internal</text>
<text text-anchor="middle" x="276.38" y="-283.75" font-family="Noto Sans, Lucida Grande, Lucida Sans Unicode, Helvetica, Arial, sans-serif" font-size="10.00">::ThreadSnapshotLinux</text>
</a>
</g>
</g>
<!-- Node1&#45;&gt;Node4 -->
<g id="edge3_Node000001_Node000004" class="edge">
<title>Node1&#45;&gt;Node4</title>
<g id="a_edge3_Node000001_Node000004"><a xlink:title=" ">
<path fill="none" stroke="#63b8ff" d="M98.65,-227.47C119.14,-239.3 147.71,-254.71 174.25,-265.25 187.2,-270.39 201.44,-274.96 215.05,-278.84"/>
<polygon fill="#63b8ff" stroke="#63b8ff" points="100.43,-224.46 90.04,-222.42 96.89,-230.5 100.43,-224.46"/>
</a>
</g>
</g>
<!-- Node5 -->
<g id="Node000005" class="node">
<title>Node5</title>
<g id="a_Node000005"><a xlink:href="classcrashpad_1_1internal_1_1ThreadSnapshotMac.html" target="_top" xlink:title="A ThreadSnapshot of a thread in a running (or crashed) process on a macOS system.">
<polygon fill="white" stroke="#666666" points="334.25,-256.5 218.5,-256.5 218.5,-220 334.25,-220 334.25,-256.5"/>
<text text-anchor="start" x="226.5" y="-243" font-family="Noto Sans, Lucida Grande, Lucida Sans Unicode, Helvetica, Arial, sans-serif" font-size="10.00">crashpad::internal</text>
<text text-anchor="middle" x="276.38" y="-228.75" font-family="Noto Sans, Lucida Grande, Lucida Sans Unicode, Helvetica, Arial, sans-serif" font-size="10.00">::ThreadSnapshotMac</text>
</a>
</g>
</g>
<!-- Node1&#45;&gt;Node5 -->
<g id="edge4_Node000001_Node000005" class="edge">
<title>Node1&#45;&gt;Node5</title>
<g id="a_edge4_Node000001_Node000005"><a xlink:title=" ">
<path fill="none" stroke="#63b8ff" d="M149.57,-221.09C172.48,-224.21 197.02,-227.56 218.28,-230.46"/>
<polygon fill="#63b8ff" stroke="#63b8ff" points="150.35,-217.66 139.97,-219.78 149.41,-224.6 150.35,-217.66"/>
</a>
</g>
</g>
<!-- Node6 -->
<g id="Node000006" class="node">
<title>Node6</title>
<g id="a_Node000006"><a xlink:href="classcrashpad_1_1internal_1_1ThreadSnapshotMinidump.html" target="_top" xlink:title="A ThreadSnapshot based on a thread in a minidump file.">
<polygon fill="white" stroke="#666666" points="348.12,-201.5 204.62,-201.5 204.62,-165 348.12,-165 348.12,-201.5"/>
<text text-anchor="start" x="212.62" y="-188" font-family="Noto Sans, Lucida Grande, Lucida Sans Unicode, Helvetica, Arial, sans-serif" font-size="10.00">crashpad::internal</text>
<text text-anchor="middle" x="276.38" y="-173.75" font-family="Noto Sans, Lucida Grande, Lucida Sans Unicode, Helvetica, Arial, sans-serif" font-size="10.00">::ThreadSnapshotMinidump</text>
</a>
</g>
</g>
<!-- Node1&#45;&gt;Node6 -->
<g id="edge5_Node000001_Node000006" class="edge">
<title>Node1&#45;&gt;Node6</title>
<g id="a_edge5_Node000001_Node000006"><a xlink:title=" ">
<path fill="none" stroke="#63b8ff" d="M149.78,-199.77C167.71,-197.41 186.61,-194.93 204.17,-192.62"/>
<polygon fill="#63b8ff" stroke="#63b8ff" points="149.43,-196.29 139.97,-201.06 150.34,-203.23 149.43,-196.29"/>
</a>
</g>
</g>
<!-- Node7 -->
<g id="Node000007" class="node">
<title>Node7</title>
<g id="a_Node000007"><a xlink:href="classcrashpad_1_1internal_1_1ThreadSnapshotSanitized.html" target="_top" xlink:title="A ThreadSnapshot which wraps and filters sensitive information from another ThreadSnapshot.">
<polygon fill="white" stroke="#666666" points="345.5,-146.5 207.25,-146.5 207.25,-110 345.5,-110 345.5,-146.5"/>
<text text-anchor="start" x="215.25" y="-133" font-family="Noto Sans, Lucida Grande, Lucida Sans Unicode, Helvetica, Arial, sans-serif" font-size="10.00">crashpad::internal</text>
<text text-anchor="middle" x="276.38" y="-118.75" font-family="Noto Sans, Lucida Grande, Lucida Sans Unicode, Helvetica, Arial, sans-serif" font-size="10.00">::ThreadSnapshotSanitized</text>
</a>
</g>
</g>
<!-- Node1&#45;&gt;Node7 -->
<g id="edge6_Node000001_Node000007" class="edge">
<title>Node1&#45;&gt;Node7</title>
<g id="a_edge6_Node000001_Node000007"><a xlink:title=" ">
<path fill="none" stroke="#63b8ff" d="M99.45,-192.94C119.9,-181.4 148.1,-166.52 174.25,-156.25 184.68,-152.15 195.93,-148.41 207.01,-145.09"/>
<polygon fill="#63b8ff" stroke="#63b8ff" points="97.76,-189.87 90.83,-197.88 101.24,-195.95 97.76,-189.87"/>
</a>
</g>
</g>
<!-- Node8 -->
<g id="Node000008" class="node">
<title>Node8</title>
<g id="a_Node000008"><a xlink:href="classcrashpad_1_1internal_1_1ThreadSnapshotWin.html" target="_top" xlink:title="A ThreadSnapshot of a thread in a running (or crashed) process on a Windows system.">
<polygon fill="white" stroke="#666666" points="333.5,-91.5 219.25,-91.5 219.25,-55 333.5,-55 333.5,-91.5"/>
<text text-anchor="start" x="227.25" y="-78" font-family="Noto Sans, Lucida Grande, Lucida Sans Unicode, Helvetica, Arial, sans-serif" font-size="10.00">crashpad::internal</text>
<text text-anchor="middle" x="276.38" y="-63.75" font-family="Noto Sans, Lucida Grande, Lucida Sans Unicode, Helvetica, Arial, sans-serif" font-size="10.00">::ThreadSnapshotWin</text>
</a>
</g>
</g>
<!-- Node1&#45;&gt;Node8 -->
<g id="edge7_Node000001_Node000008" class="edge">
<title>Node1&#45;&gt;Node8</title>
<g id="a_edge7_Node000001_Node000008"><a xlink:title=" ">
<path fill="none" stroke="#63b8ff" d="M84.4,-189.57C102.48,-164.91 135.96,-124.16 174.25,-101.25 187.77,-93.16 203.7,-87.34 218.87,-83.18"/>
<polygon fill="#63b8ff" stroke="#63b8ff" points="81.67,-187.35 78.7,-197.52 87.37,-191.43 81.67,-187.35"/>
</a>
</g>
</g>
<!-- Node9 -->
<g id="Node000009" class="node">
<title>Node9</title>
<g id="a_Node000009"><a xlink:href="classcrashpad_1_1test_1_1TestThreadSnapshot.html" target="_top" xlink:title="A test ThreadSnapshot that can carry arbitrary data for testing purposes.">
<polygon fill="white" stroke="#666666" points="345.5,-36.5 207.25,-36.5 207.25,0 345.5,0 345.5,-36.5"/>
<text text-anchor="start" x="215.25" y="-23" font-family="Noto Sans, Lucida Grande, Lucida Sans Unicode, Helvetica, Arial, sans-serif" font-size="10.00">crashpad::test::TestThread</text>
<text text-anchor="middle" x="276.38" y="-8.75" font-family="Noto Sans, Lucida Grande, Lucida Sans Unicode, Helvetica, Arial, sans-serif" font-size="10.00">Snapshot</text>
</a>
</g>
</g>
<!-- Node1&#45;&gt;Node9 -->
<g id="edge8_Node000001_Node000009" class="edge">
<title>Node1&#45;&gt;Node9</title>
<g id="a_edge8_Node000001_Node000009"><a xlink:title=" ">
<path fill="none" stroke="#63b8ff" d="M78.12,-188.02C92.04,-152.56 124.09,-83.41 174.25,-46.25 183.91,-39.09 195.31,-33.77 206.91,-29.8"/>
<polygon fill="#63b8ff" stroke="#63b8ff" points="74.9,-186.65 74.64,-197.24 81.45,-189.13 74.9,-186.65"/>
</a>
</g>
</g>
</g>
</svg>
