<?xml version="1.0" encoding="UTF-8" standalone="no"?>
<!DOCTYPE svg PUBLIC "-//W3C//DTD SVG 1.1//EN"
 "http://www.w3.org/Graphics/SVG/1.1/DTD/svg11.dtd">
<!-- Generated by graphviz version 12.2.1 (20241206.2353)
 -->
<!-- Title: crashpad::CrashReportDatabase Pages: 1 -->
<svg width="392pt" height="124pt"
 viewBox="0.00 0.00 391.75 124.38" xmlns="http://www.w3.org/2000/svg" xmlns:xlink="http://www.w3.org/1999/xlink">
<g id="graph0" class="graph" transform="scale(1 1) rotate(0) translate(4 120.38)">
<title>crashpad::CrashReportDatabase</title>
<!-- Node1 -->
<g id="Node000001" class="node">
<title>Node1</title>
<g id="a_Node000001"><a xlink:title="An interface for managing a collection of crash report files and metadata associated with the crash r...">
<polygon fill="#999999" stroke="#666666" points="164.5,-62.25 0,-62.25 0,-40 164.5,-40 164.5,-62.25"/>
<text text-anchor="middle" x="82.25" y="-48.75" font-family="Noto Sans, Lucida Grande, Lucida Sans Unicode, Helvetica, Arial, sans-serif" font-size="10.00">crashpad::CrashReportDatabase</text>
</a>
</g>
</g>
<!-- Node2 -->
<g id="Node000002" class="node">
<title>Node2</title>
<g id="a_Node000002"><a xlink:href="classcrashpad_1_1CrashReportDatabaseGeneric.html" target="_top" xlink:title=" ">
<polygon fill="white" stroke="#bfbfbf" points="374.38,-116.38 209.88,-116.38 209.88,-79.88 374.38,-79.88 374.38,-116.38"/>
<text text-anchor="start" x="217.88" y="-102.88" font-family="Noto Sans, Lucida Grande, Lucida Sans Unicode, Helvetica, Arial, sans-serif" font-size="10.00">crashpad::CrashReportDatabase</text>
<text text-anchor="middle" x="292.12" y="-88.62" font-family="Noto Sans, Lucida Grande, Lucida Sans Unicode, Helvetica, Arial, sans-serif" font-size="10.00">Generic</text>
</a>
</g>
</g>
<!-- Node1&#45;&gt;Node2 -->
<g id="edge1_Node000001_Node000002" class="edge">
<title>Node1&#45;&gt;Node2</title>
<g id="a_edge1_Node000001_Node000002"><a xlink:title=" ">
<path fill="none" stroke="#63b8ff" d="M145.82,-65.27C165.87,-69.81 188.39,-74.9 209.59,-79.69"/>
<polygon fill="#63b8ff" stroke="#63b8ff" points="146.64,-61.87 136.11,-63.08 145.09,-68.7 146.64,-61.87"/>
</a>
</g>
</g>
<!-- Node3 -->
<g id="Node000003" class="node">
<title>Node3</title>
<g id="a_Node000003"><a xlink:href="classcrashpad_1_1CrashReportDatabaseMac.html" target="_top" xlink:title="A CrashReportDatabase that uses HFS+ extended attributes to store report metadata.">
<polygon fill="white" stroke="#666666" points="383.75,-62.25 200.5,-62.25 200.5,-40 383.75,-40 383.75,-62.25"/>
<text text-anchor="middle" x="292.12" y="-48.75" font-family="Noto Sans, Lucida Grande, Lucida Sans Unicode, Helvetica, Arial, sans-serif" font-size="10.00">crashpad::CrashReportDatabaseMac</text>
</a>
</g>
</g>
<!-- Node1&#45;&gt;Node3 -->
<g id="edge2_Node000001_Node000003" class="edge">
<title>Node1&#45;&gt;Node3</title>
<g id="a_edge2_Node000001_Node000003"><a xlink:title=" ">
<path fill="none" stroke="#63b8ff" d="M176.06,-51.12C184.07,-51.12 192.17,-51.12 200.17,-51.12"/>
<polygon fill="#63b8ff" stroke="#63b8ff" points="176.32,-47.63 166.32,-51.13 176.32,-54.63 176.32,-47.63"/>
</a>
</g>
</g>
<!-- Node4 -->
<g id="Node000004" class="node">
<title>Node4</title>
<g id="a_Node000004"><a xlink:href="classcrashpad_1_1CrashReportDatabaseWin.html" target="_top" xlink:title=" ">
<polygon fill="white" stroke="#bfbfbf" points="383,-22.25 201.25,-22.25 201.25,0 383,0 383,-22.25"/>
<text text-anchor="middle" x="292.12" y="-8.75" font-family="Noto Sans, Lucida Grande, Lucida Sans Unicode, Helvetica, Arial, sans-serif" font-size="10.00">crashpad::CrashReportDatabaseWin</text>
</a>
</g>
</g>
<!-- Node1&#45;&gt;Node4 -->
<g id="edge3_Node000001_Node000004" class="edge">
<title>Node1&#45;&gt;Node4</title>
<g id="a_edge3_Node000001_Node000004"><a xlink:title=" ">
<path fill="none" stroke="#63b8ff" d="M154.83,-37.35C179.62,-32.58 207.15,-27.28 230.93,-22.71"/>
<polygon fill="#63b8ff" stroke="#63b8ff" points="154.3,-33.89 145.14,-39.22 155.62,-40.76 154.3,-33.89"/>
</a>
</g>
</g>
</g>
</svg>
