<?xml version="1.0" encoding="UTF-8" standalone="no"?>
<!DOCTYPE svg PUBLIC "-//W3C//DTD SVG 1.1//EN"
 "http://www.w3.org/Graphics/SVG/1.1/DTD/svg11.dtd">
<!-- Generated by graphviz version 12.2.1 (20241206.2353)
 -->
<!-- Title: compat/non_win/dbghelp.h Pages: 1 -->
<svg width="308pt" height="147pt"
 viewBox="0.00 0.00 307.96 146.75" xmlns="http://www.w3.org/2000/svg" xmlns:xlink="http://www.w3.org/1999/xlink">
<g id="graph0" class="graph" transform="scale(1 1) rotate(0) translate(4 142.75)">
<title>compat/non_win/dbghelp.h</title>
<!-- Node1 -->
<g id="Node000001" class="node">
<title>Node1</title>
<g id="a_Node000001"><a xlink:title=" ">
<polygon fill="#999999" stroke="#666666" points="153.33,-138.75 9.83,-138.75 9.83,-116.5 153.33,-116.5 153.33,-138.75"/>
<text text-anchor="middle" x="81.58" y="-125.25" font-family="Noto Sans, Lucida Grande, Lucida Sans Unicode, Helvetica, Arial, sans-serif" font-size="10.00">compat/non_win/dbghelp.h</text>
</a>
</g>
</g>
<!-- Node2 -->
<g id="Node000002" class="node">
<title>Node2</title>
<g id="a_Node000002"><a xlink:title=" ">
<polygon fill="#e0e0e0" stroke="#999999" points="107.21,-22.25 55.96,-22.25 55.96,0 107.21,0 107.21,-22.25"/>
<text text-anchor="middle" x="81.58" y="-8.75" font-family="Noto Sans, Lucida Grande, Lucida Sans Unicode, Helvetica, Arial, sans-serif" font-size="10.00">stdint.h</text>
</a>
</g>
</g>
<!-- Node1&#45;&gt;Node2 -->
<g id="edge1_Node000001_Node000002" class="edge">
<title>Node1&#45;&gt;Node2</title>
<g id="a_edge1_Node000001_Node000002"><a xlink:title=" ">
<path fill="none" stroke="#63b8ff" d="M52.16,-116.1C24.42,-104.37 -10.92,-83.67 3.58,-58.25 12.57,-42.48 29.3,-31.56 44.97,-24.32"/>
<polygon fill="#63b8ff" stroke="#63b8ff" points="46.28,-27.56 54.14,-20.46 43.57,-21.11 46.28,-27.56"/>
</a>
</g>
</g>
<!-- Node3 -->
<g id="Node000003" class="node">
<title>Node3</title>
<g id="a_Node000003"><a xlink:href="verrsrc_8h.html" target="_top" xlink:title=" ">
<polygon fill="white" stroke="#666666" points="150.71,-80.5 12.46,-80.5 12.46,-58.25 150.71,-58.25 150.71,-80.5"/>
<text text-anchor="middle" x="81.58" y="-67" font-family="Noto Sans, Lucida Grande, Lucida Sans Unicode, Helvetica, Arial, sans-serif" font-size="10.00">compat/non_win/verrsrc.h</text>
</a>
</g>
</g>
<!-- Node1&#45;&gt;Node3 -->
<g id="edge2_Node000001_Node000003" class="edge">
<title>Node1&#45;&gt;Node3</title>
<g id="a_edge2_Node000001_Node000003"><a xlink:title=" ">
<path fill="none" stroke="#63b8ff" d="M81.58,-116.04C81.58,-109.37 81.58,-100.49 81.58,-92.34"/>
<polygon fill="#63b8ff" stroke="#63b8ff" points="85.08,-92.42 81.58,-82.42 78.08,-92.42 85.08,-92.42"/>
</a>
</g>
</g>
<!-- Node4 -->
<g id="Node000004" class="node">
<title>Node4</title>
<g id="a_Node000004"><a xlink:href="winnt_8h.html" target="_top" xlink:title=" ">
<polygon fill="white" stroke="#666666" points="299.96,-80.5 169.21,-80.5 169.21,-58.25 299.96,-58.25 299.96,-80.5"/>
<text text-anchor="middle" x="234.58" y="-67" font-family="Noto Sans, Lucida Grande, Lucida Sans Unicode, Helvetica, Arial, sans-serif" font-size="10.00">compat/non_win/winnt.h</text>
</a>
</g>
</g>
<!-- Node1&#45;&gt;Node4 -->
<g id="edge4_Node000001_Node000004" class="edge">
<title>Node1&#45;&gt;Node4</title>
<g id="a_edge4_Node000001_Node000004"><a xlink:title=" ">
<path fill="none" stroke="#63b8ff" d="M110.36,-116.04C134.4,-107.21 168.91,-94.52 195.46,-84.76"/>
<polygon fill="#63b8ff" stroke="#63b8ff" points="196.33,-88.17 204.51,-81.43 193.92,-81.6 196.33,-88.17"/>
</a>
</g>
</g>
<!-- Node3&#45;&gt;Node2 -->
<g id="edge3_Node000003_Node000002" class="edge">
<title>Node3&#45;&gt;Node2</title>
<g id="a_edge3_Node000003_Node000002"><a xlink:title=" ">
<path fill="none" stroke="#63b8ff" d="M81.58,-57.79C81.58,-51.12 81.58,-42.24 81.58,-34.09"/>
<polygon fill="#63b8ff" stroke="#63b8ff" points="85.08,-34.17 81.58,-24.17 78.08,-34.17 85.08,-34.17"/>
</a>
</g>
</g>
<!-- Node4&#45;&gt;Node2 -->
<g id="edge5_Node000004_Node000002" class="edge">
<title>Node4&#45;&gt;Node2</title>
<g id="a_edge5_Node000004_Node000002"><a xlink:title=" ">
<path fill="none" stroke="#63b8ff" d="M205.8,-57.79C181,-48.68 145.05,-35.46 118.21,-25.59"/>
<polygon fill="#63b8ff" stroke="#63b8ff" points="119.69,-22.41 109.1,-22.24 117.28,-28.98 119.69,-22.41"/>
</a>
</g>
</g>
</g>
</svg>
