<?xml version="1.0" encoding="UTF-8" standalone="no"?>
<!DOCTYPE svg PUBLIC "-//W3C//DTD SVG 1.1//EN"
 "http://www.w3.org/Graphics/SVG/1.1/DTD/svg11.dtd">
<!-- Generated by graphviz version 12.2.1 (20241206.2353)
 -->
<!-- Title: util Pages: 1 -->
<svg width="1229pt" height="163pt"
 viewBox="0.00 0.00 1229.05 162.75" xmlns="http://www.w3.org/2000/svg" xmlns:xlink="http://www.w3.org/1999/xlink">
<g id="graph0" class="graph" transform="scale(1 1) rotate(0) translate(4 158.75)">
<title>util</title>
<g id="clust1" class="cluster">
<title>clusterdir_23ec12649285f9fabf3a6b7380226c28</title>
<g id="a_clust1"><a xlink:href="dir_23ec12649285f9fabf3a6b7380226c28.html" target="_top">
<polygon fill="#edf0f7" stroke="#404040" stroke-width="2" points="8,-50.25 8,-146.75 1039,-146.75 1039,-50.25 8,-50.25"/>
</a>
</g>
</g>
<!-- dir_23ec12649285f9fabf3a6b7380226c28 -->
<g id="node1" class="node">
<title>dir_23ec12649285f9fabf3a6b7380226c28</title>
<text text-anchor="middle" x="31" y="-125.25" font-family="Noto Sans, Lucida Grande, Lucida Sans Unicode, Helvetica, Arial, sans-serif" font-size="10.00">util</text>
</g>
<!-- dir_097afb4ba56de3b3d0cbf29bf988ffd6 -->
<g id="node2" class="node">
<title>dir_097afb4ba56de3b3d0cbf29bf988ffd6</title>
<g id="a_node2"><a xlink:href="dir_097afb4ba56de3b3d0cbf29bf988ffd6.html" target="_top" xlink:title="file">
<polygon fill="#a2b4d6" stroke="#404040" points="94.12,-138.75 63.88,-138.75 63.88,-116.5 94.12,-116.5 94.12,-138.75"/>
<text text-anchor="middle" x="79" y="-125.25" font-family="Noto Sans, Lucida Grande, Lucida Sans Unicode, Helvetica, Arial, sans-serif" font-size="10.00">file</text>
</a>
</g>
</g>
<!-- dir_26091122dfbeb12469941a8dd2b251b3 -->
<g id="node3" class="node">
<title>dir_26091122dfbeb12469941a8dd2b251b3</title>
<g id="a_node3"><a xlink:href="dir_26091122dfbeb12469941a8dd2b251b3.html" target="_top" xlink:title="fuchsia">
<polygon fill="#a2b4d6" stroke="#404040" points="160.12,-138.75 111.88,-138.75 111.88,-116.5 160.12,-116.5 160.12,-138.75"/>
<text text-anchor="middle" x="136" y="-125.25" font-family="Noto Sans, Lucida Grande, Lucida Sans Unicode, Helvetica, Arial, sans-serif" font-size="10.00">fuchsia</text>
</a>
</g>
</g>
<!-- dir_57512b4ba53ef86864776a55867b8fd0 -->
<g id="node4" class="node">
<title>dir_57512b4ba53ef86864776a55867b8fd0</title>
<g id="a_node4"><a xlink:href="dir_57512b4ba53ef86864776a55867b8fd0.html" target="_top" xlink:title="ios">
<polygon fill="#a2b4d6" stroke="#404040" points="371.4,-138.75 342.6,-138.75 342.6,-116.5 371.4,-116.5 371.4,-138.75"/>
<text text-anchor="middle" x="357" y="-125.25" font-family="Noto Sans, Lucida Grande, Lucida Sans Unicode, Helvetica, Arial, sans-serif" font-size="10.00">ios</text>
</a>
</g>
</g>
<!-- dir_83573ff3a96d199825b0a6f960a8a5e3 -->
<g id="node8" class="node">
<title>dir_83573ff3a96d199825b0a6f960a8a5e3</title>
<g id="a_node8"><a xlink:href="dir_83573ff3a96d199825b0a6f960a8a5e3.html" target="_top" xlink:title="misc">
<polygon fill="#a2b4d6" stroke="#404040" points="375.12,-80.5 338.88,-80.5 338.88,-58.25 375.12,-58.25 375.12,-80.5"/>
<text text-anchor="middle" x="357" y="-67" font-family="Noto Sans, Lucida Grande, Lucida Sans Unicode, Helvetica, Arial, sans-serif" font-size="10.00">misc</text>
</a>
</g>
</g>
<!-- dir_57512b4ba53ef86864776a55867b8fd0&#45;&gt;dir_83573ff3a96d199825b0a6f960a8a5e3 -->
<g id="edge2" class="edge">
<title>dir_57512b4ba53ef86864776a55867b8fd0&#45;&gt;dir_83573ff3a96d199825b0a6f960a8a5e3</title>
<g id="a_edge2"><a xlink:href="dir_000012_000028.html" target="_top">
<path fill="none" stroke="#63b8ff" d="M357,-116.04C357,-109.37 357,-100.49 357,-92.34"/>
<polygon fill="#63b8ff" stroke="#63b8ff" points="360.5,-92.42 357,-82.42 353.5,-92.42 360.5,-92.42"/>
</a>
</g>
<g id="a_edge2&#45;headlabel"><a xlink:href="dir_000012_000028.html" target="_top" xlink:title="2">
<text text-anchor="middle" x="363.34" y="-92.13" font-family="Noto Sans, Lucida Grande, Lucida Sans Unicode, Helvetica, Arial, sans-serif" font-size="10.00" fill="#63b8ff">2</text>
</a>
</g>
</g>
<!-- dir_48629295dac6e528843af3b62964cd90 -->
<g id="node20" class="node">
<title>dir_48629295dac6e528843af3b62964cd90</title>
<g id="a_node20"><a xlink:href="dir_48629295dac6e528843af3b62964cd90.html" target="_top" xlink:title="compat">
<polygon fill="#edf0f7" stroke="red" points="1097.25,-80.5 1046.75,-80.5 1046.75,-58.25 1097.25,-58.25 1097.25,-80.5"/>
<text text-anchor="middle" x="1072" y="-67" font-family="Noto Sans, Lucida Grande, Lucida Sans Unicode, Helvetica, Arial, sans-serif" font-size="10.00">compat</text>
</a>
</g>
</g>
<!-- dir_57512b4ba53ef86864776a55867b8fd0&#45;&gt;dir_48629295dac6e528843af3b62964cd90 -->
<g id="edge1" class="edge">
<title>dir_57512b4ba53ef86864776a55867b8fd0&#45;&gt;dir_48629295dac6e528843af3b62964cd90</title>
<g id="a_edge1"><a xlink:href="dir_000012_000001.html" target="_top">
<path fill="none" stroke="#63b8ff" d="M371.82,-119.18C374.49,-118.11 377.28,-117.15 380,-116.5 663.38,-48.81 751.27,-135.45 1035.43,-81.86"/>
<polygon fill="#63b8ff" stroke="#63b8ff" points="1035.85,-85.34 1045,-80.01 1034.52,-78.47 1035.85,-85.34"/>
</a>
</g>
<g id="a_edge1&#45;headlabel"><a xlink:href="dir_000012_000001.html" target="_top" xlink:title="4">
<text text-anchor="middle" x="1034.35" y="-86.15" font-family="Noto Sans, Lucida Grande, Lucida Sans Unicode, Helvetica, Arial, sans-serif" font-size="10.00" fill="#63b8ff">4</text>
</a>
</g>
</g>
<!-- dir_72664cbcd6ed6dacab28196e1874c6eb -->
<g id="node5" class="node">
<title>dir_72664cbcd6ed6dacab28196e1874c6eb</title>
<g id="a_node5"><a xlink:href="dir_72664cbcd6ed6dacab28196e1874c6eb.html" target="_top" xlink:title="linux">
<polygon fill="#a2b4d6" stroke="#404040" points="215.88,-138.75 178.12,-138.75 178.12,-116.5 215.88,-116.5 215.88,-138.75"/>
<text text-anchor="middle" x="197" y="-125.25" font-family="Noto Sans, Lucida Grande, Lucida Sans Unicode, Helvetica, Arial, sans-serif" font-size="10.00">linux</text>
</a>
</g>
</g>
<!-- dir_72664cbcd6ed6dacab28196e1874c6eb&#45;&gt;dir_83573ff3a96d199825b0a6f960a8a5e3 -->
<g id="edge4" class="edge">
<title>dir_72664cbcd6ed6dacab28196e1874c6eb&#45;&gt;dir_83573ff3a96d199825b0a6f960a8a5e3</title>
<g id="a_edge4"><a xlink:href="dir_000017_000028.html" target="_top">
<path fill="none" stroke="#63b8ff" d="M216.27,-119.63C219.19,-118.57 222.18,-117.5 225,-116.5 260.42,-103.91 301.3,-89.67 328.06,-80.39"/>
<polygon fill="#63b8ff" stroke="#63b8ff" points="328.88,-83.81 337.18,-77.23 326.59,-77.19 328.88,-83.81"/>
</a>
</g>
<g id="a_edge4&#45;headlabel"><a xlink:href="dir_000017_000028.html" target="_top" xlink:title="5">
<text text-anchor="middle" x="327.84" y="-84.8" font-family="Noto Sans, Lucida Grande, Lucida Sans Unicode, Helvetica, Arial, sans-serif" font-size="10.00" fill="#63b8ff">5</text>
</a>
</g>
</g>
<!-- dir_13e138d54eb8818da29c3992edef070a -->
<g id="node19" class="node">
<title>dir_13e138d54eb8818da29c3992edef070a</title>
<g id="a_node19"><a xlink:href="dir_13e138d54eb8818da29c3992edef070a.html" target="_top" xlink:title="test">
<polygon fill="#edf0f7" stroke="red" points="1142,-22.25 1108,-22.25 1108,0 1142,0 1142,-22.25"/>
<text text-anchor="middle" x="1125" y="-8.75" font-family="Noto Sans, Lucida Grande, Lucida Sans Unicode, Helvetica, Arial, sans-serif" font-size="10.00">test</text>
</a>
</g>
</g>
<!-- dir_72664cbcd6ed6dacab28196e1874c6eb&#45;&gt;dir_13e138d54eb8818da29c3992edef070a -->
<g id="edge3" class="edge">
<title>dir_72664cbcd6ed6dacab28196e1874c6eb&#45;&gt;dir_13e138d54eb8818da29c3992edef070a</title>
<g id="a_edge3"><a xlink:href="dir_000017_000046.html" target="_top">
<path fill="none" stroke="#63b8ff" d="M216.15,-119.24C219.09,-118.24 222.11,-117.29 225,-116.5 302.65,-95.39 501.18,-60.44 581,-50.25 776.87,-25.24 1014.67,-15.68 1096.07,-12.99"/>
<polygon fill="#63b8ff" stroke="#63b8ff" points="1096.15,-16.49 1106.04,-12.67 1095.93,-9.49 1096.15,-16.49"/>
</a>
</g>
<g id="a_edge3&#45;headlabel"><a xlink:href="dir_000017_000046.html" target="_top" xlink:title="1">
<text text-anchor="middle" x="1094.16" y="-17.02" font-family="Noto Sans, Lucida Grande, Lucida Sans Unicode, Helvetica, Arial, sans-serif" font-size="10.00" fill="#63b8ff">1</text>
</a>
</g>
</g>
<!-- dir_a71cefa057172d349cfcbdd6616bab3e -->
<g id="node6" class="node">
<title>dir_a71cefa057172d349cfcbdd6616bab3e</title>
<g id="a_node6"><a xlink:href="dir_a71cefa057172d349cfcbdd6616bab3e.html" target="_top" xlink:title="mac">
<polygon fill="#a2b4d6" stroke="#404040" points="566.38,-138.75 531.62,-138.75 531.62,-116.5 566.38,-116.5 566.38,-138.75"/>
<text text-anchor="middle" x="549" y="-125.25" font-family="Noto Sans, Lucida Grande, Lucida Sans Unicode, Helvetica, Arial, sans-serif" font-size="10.00">mac</text>
</a>
</g>
</g>
<!-- dir_a71cefa057172d349cfcbdd6616bab3e&#45;&gt;dir_48629295dac6e528843af3b62964cd90 -->
<g id="edge5" class="edge">
<title>dir_a71cefa057172d349cfcbdd6616bab3e&#45;&gt;dir_48629295dac6e528843af3b62964cd90</title>
<g id="a_edge5"><a xlink:href="dir_000022_000001.html" target="_top">
<path fill="none" stroke="#63b8ff" d="M566.68,-118.94C569.43,-117.99 572.26,-117.12 575,-116.5 774.72,-70.98 836.58,-121.35 1035.37,-81.95"/>
<polygon fill="#63b8ff" stroke="#63b8ff" points="1035.9,-85.42 1045,-79.99 1034.5,-78.56 1035.9,-85.42"/>
</a>
</g>
<g id="a_edge5&#45;headlabel"><a xlink:href="dir_000022_000001.html" target="_top" xlink:title="2">
<text text-anchor="middle" x="1034.43" y="-86.24" font-family="Noto Sans, Lucida Grande, Lucida Sans Unicode, Helvetica, Arial, sans-serif" font-size="10.00" fill="#63b8ff">2</text>
</a>
</g>
</g>
<!-- dir_b02cf8ce642b025cedb9bf871ab28860 -->
<g id="node7" class="node">
<title>dir_b02cf8ce642b025cedb9bf871ab28860</title>
<g id="a_node7"><a xlink:href="dir_b02cf8ce642b025cedb9bf871ab28860.html" target="_top" xlink:title="mach">
<polygon fill="#a2b4d6" stroke="#404040" points="324.38,-138.75 283.62,-138.75 283.62,-116.5 324.38,-116.5 324.38,-138.75"/>
<text text-anchor="middle" x="304" y="-125.25" font-family="Noto Sans, Lucida Grande, Lucida Sans Unicode, Helvetica, Arial, sans-serif" font-size="10.00">mach</text>
</a>
</g>
</g>
<!-- dir_b02cf8ce642b025cedb9bf871ab28860&#45;&gt;dir_83573ff3a96d199825b0a6f960a8a5e3 -->
<g id="edge8" class="edge">
<title>dir_b02cf8ce642b025cedb9bf871ab28860&#45;&gt;dir_83573ff3a96d199825b0a6f960a8a5e3</title>
<g id="a_edge8"><a xlink:href="dir_000024_000028.html" target="_top">
<path fill="none" stroke="#63b8ff" d="M313.97,-116.04C321.08,-108.5 330.82,-98.16 339.24,-89.22"/>
<polygon fill="#63b8ff" stroke="#63b8ff" points="341.73,-91.69 346.04,-82.01 336.63,-86.89 341.73,-91.69"/>
</a>
</g>
<g id="a_edge8&#45;headlabel"><a xlink:href="dir_000024_000028.html" target="_top" xlink:title="1">
<text text-anchor="middle" x="342.37" y="-92.77" font-family="Noto Sans, Lucida Grande, Lucida Sans Unicode, Helvetica, Arial, sans-serif" font-size="10.00" fill="#63b8ff">1</text>
</a>
</g>
</g>
<!-- dir_b02cf8ce642b025cedb9bf871ab28860&#45;&gt;dir_13e138d54eb8818da29c3992edef070a -->
<g id="edge6" class="edge">
<title>dir_b02cf8ce642b025cedb9bf871ab28860&#45;&gt;dir_13e138d54eb8818da29c3992edef070a</title>
<g id="a_edge6"><a xlink:href="dir_000024_000046.html" target="_top">
<path fill="none" stroke="#63b8ff" d="M324.83,-119.02C327.88,-118.07 331,-117.2 334,-116.5 409.89,-98.86 963.29,-31.62 1096.31,-15.58"/>
<polygon fill="#63b8ff" stroke="#63b8ff" points="1096.5,-19.08 1106.01,-14.41 1095.66,-12.13 1096.5,-19.08"/>
</a>
</g>
<g id="a_edge6&#45;headlabel"><a xlink:href="dir_000024_000046.html" target="_top" xlink:title="1">
<text text-anchor="middle" x="1094.77" y="-19.77" font-family="Noto Sans, Lucida Grande, Lucida Sans Unicode, Helvetica, Arial, sans-serif" font-size="10.00" fill="#63b8ff">1</text>
</a>
</g>
</g>
<!-- dir_b02cf8ce642b025cedb9bf871ab28860&#45;&gt;dir_48629295dac6e528843af3b62964cd90 -->
<g id="edge7" class="edge">
<title>dir_b02cf8ce642b025cedb9bf871ab28860&#45;&gt;dir_48629295dac6e528843af3b62964cd90</title>
<g id="a_edge7"><a xlink:href="dir_000024_000001.html" target="_top">
<path fill="none" stroke="#63b8ff" d="M324.78,-118.8C327.84,-117.88 330.98,-117.08 334,-116.5 640.32,-58.19 731.23,-139.18 1035.57,-81.82"/>
<polygon fill="#63b8ff" stroke="#63b8ff" points="1035.85,-85.33 1045.01,-80.01 1034.52,-78.46 1035.85,-85.33"/>
</a>
</g>
<g id="a_edge7&#45;headlabel"><a xlink:href="dir_000024_000001.html" target="_top" xlink:title="23">
<text text-anchor="middle" x="1034.34" y="-86.14" font-family="Noto Sans, Lucida Grande, Lucida Sans Unicode, Helvetica, Arial, sans-serif" font-size="10.00" fill="#63b8ff">23</text>
</a>
</g>
</g>
<!-- dir_83573ff3a96d199825b0a6f960a8a5e3&#45;&gt;dir_13e138d54eb8818da29c3992edef070a -->
<g id="edge9" class="edge">
<title>dir_83573ff3a96d199825b0a6f960a8a5e3&#45;&gt;dir_13e138d54eb8818da29c3992edef070a</title>
<g id="a_edge9"><a xlink:href="dir_000028_000046.html" target="_top">
<path fill="none" stroke="#63b8ff" d="M375.58,-66.24C407.8,-62.59 476.13,-55.08 534,-50.25 749.83,-32.24 1010.6,-18.06 1096.24,-13.6"/>
<polygon fill="#63b8ff" stroke="#63b8ff" points="1096.26,-17.1 1106.07,-13.09 1095.9,-10.11 1096.26,-17.1"/>
</a>
</g>
<g id="a_edge9&#45;headlabel"><a xlink:href="dir_000028_000046.html" target="_top" xlink:title="3">
<text text-anchor="middle" x="1094.33" y="-17.67" font-family="Noto Sans, Lucida Grande, Lucida Sans Unicode, Helvetica, Arial, sans-serif" font-size="10.00" fill="#63b8ff">3</text>
</a>
</g>
</g>
<!-- dir_bb0d0ee5e260ff9c6910636432511d0f -->
<g id="node9" class="node">
<title>dir_bb0d0ee5e260ff9c6910636432511d0f</title>
<g id="a_node9"><a xlink:href="dir_bb0d0ee5e260ff9c6910636432511d0f.html" target="_top" xlink:title="net">
<polygon fill="#a2b4d6" stroke="#404040" points="673.88,-138.75 642.12,-138.75 642.12,-116.5 673.88,-116.5 673.88,-138.75"/>
<text text-anchor="middle" x="658" y="-125.25" font-family="Noto Sans, Lucida Grande, Lucida Sans Unicode, Helvetica, Arial, sans-serif" font-size="10.00">net</text>
</a>
</g>
</g>
<!-- dir_bb0d0ee5e260ff9c6910636432511d0f&#45;&gt;dir_13e138d54eb8818da29c3992edef070a -->
<g id="edge10" class="edge">
<title>dir_bb0d0ee5e260ff9c6910636432511d0f&#45;&gt;dir_13e138d54eb8818da29c3992edef070a</title>
<g id="a_edge10"><a xlink:href="dir_000029_000046.html" target="_top">
<path fill="none" stroke="#63b8ff" d="M674.17,-119.23C677.06,-118.15 680.08,-117.18 683,-116.5 736.6,-104.02 1139.53,-120.8 1177,-80.5 1186.15,-70.65 1183.08,-62.24 1177,-50.25 1171.67,-39.73 1161.91,-31.41 1152.28,-25.26"/>
<polygon fill="#63b8ff" stroke="#63b8ff" points="1154.21,-22.33 1143.79,-20.39 1150.72,-28.4 1154.21,-22.33"/>
</a>
</g>
<g id="a_edge10&#45;headlabel"><a xlink:href="dir_000029_000046.html" target="_top" xlink:title="2">
<text text-anchor="middle" x="1157.42" y="-18.53" font-family="Noto Sans, Lucida Grande, Lucida Sans Unicode, Helvetica, Arial, sans-serif" font-size="10.00" fill="#63b8ff">2</text>
</a>
</g>
</g>
<!-- dir_a3078da27c5e96f2451400daba0f2697 -->
<g id="node10" class="node">
<title>dir_a3078da27c5e96f2451400daba0f2697</title>
<g id="a_node10"><a xlink:href="dir_a3078da27c5e96f2451400daba0f2697.html" target="_top" xlink:title="numeric">
<polygon fill="#a2b4d6" stroke="#404040" points="513.12,-138.75 458.88,-138.75 458.88,-116.5 513.12,-116.5 513.12,-138.75"/>
<text text-anchor="middle" x="486" y="-125.25" font-family="Noto Sans, Lucida Grande, Lucida Sans Unicode, Helvetica, Arial, sans-serif" font-size="10.00">numeric</text>
</a>
</g>
</g>
<!-- dir_573dc64f934abf45a4a7c6b47b2bdeae -->
<g id="node11" class="node">
<title>dir_573dc64f934abf45a4a7c6b47b2bdeae</title>
<g id="a_node11"><a xlink:href="dir_573dc64f934abf45a4a7c6b47b2bdeae.html" target="_top" xlink:title="posix">
<polygon fill="#a2b4d6" stroke="#404040" points="624,-138.75 584,-138.75 584,-116.5 624,-116.5 624,-138.75"/>
<text text-anchor="middle" x="604" y="-125.25" font-family="Noto Sans, Lucida Grande, Lucida Sans Unicode, Helvetica, Arial, sans-serif" font-size="10.00">posix</text>
</a>
</g>
</g>
<!-- dir_573dc64f934abf45a4a7c6b47b2bdeae&#45;&gt;dir_83573ff3a96d199825b0a6f960a8a5e3 -->
<g id="edge12" class="edge">
<title>dir_573dc64f934abf45a4a7c6b47b2bdeae&#45;&gt;dir_83573ff3a96d199825b0a6f960a8a5e3</title>
<g id="a_edge12"><a xlink:href="dir_000034_000028.html" target="_top">
<path fill="none" stroke="#63b8ff" d="M583.51,-119.11C580.67,-118.17 577.77,-117.27 575,-116.5 508.56,-97.95 428.91,-82.87 386.68,-75.42"/>
<polygon fill="#63b8ff" stroke="#63b8ff" points="387.51,-72.01 377.06,-73.74 386.31,-78.9 387.51,-72.01"/>
</a>
</g>
<g id="a_edge12&#45;headlabel"><a xlink:href="dir_000034_000028.html" target="_top" xlink:title="2">
<text text-anchor="middle" x="390.05" y="-67.19" font-family="Noto Sans, Lucida Grande, Lucida Sans Unicode, Helvetica, Arial, sans-serif" font-size="10.00" fill="#63b8ff">2</text>
</a>
</g>
</g>
<!-- dir_573dc64f934abf45a4a7c6b47b2bdeae&#45;&gt;dir_13e138d54eb8818da29c3992edef070a -->
<g id="edge11" class="edge">
<title>dir_573dc64f934abf45a4a7c6b47b2bdeae&#45;&gt;dir_13e138d54eb8818da29c3992edef070a</title>
<g id="a_edge11"><a xlink:href="dir_000034_000046.html" target="_top">
<path fill="none" stroke="#63b8ff" d="M624.41,-118.75C627.26,-117.87 630.18,-117.08 633,-116.5 688.2,-105.11 1100.58,-121.75 1139,-80.5 1150.96,-67.66 1144.91,-47.46 1137.39,-32.34"/>
<polygon fill="#63b8ff" stroke="#63b8ff" points="1140.53,-30.79 1132.63,-23.73 1134.41,-34.18 1140.53,-30.79"/>
</a>
</g>
<g id="a_edge11&#45;headlabel"><a xlink:href="dir_000034_000046.html" target="_top" xlink:title="1">
<text text-anchor="middle" x="1144.03" y="-28.86" font-family="Noto Sans, Lucida Grande, Lucida Sans Unicode, Helvetica, Arial, sans-serif" font-size="10.00" fill="#63b8ff">1</text>
</a>
</g>
</g>
<!-- dir_3be4c39558f4ed5ea83c7d6bb9cf8f18 -->
<g id="node12" class="node">
<title>dir_3be4c39558f4ed5ea83c7d6bb9cf8f18</title>
<g id="a_node12"><a xlink:href="dir_3be4c39558f4ed5ea83c7d6bb9cf8f18.html" target="_top" xlink:title="process">
<polygon fill="#a2b4d6" stroke="#404040" points="440.62,-138.75 389.38,-138.75 389.38,-116.5 440.62,-116.5 440.62,-138.75"/>
<text text-anchor="middle" x="415" y="-125.25" font-family="Noto Sans, Lucida Grande, Lucida Sans Unicode, Helvetica, Arial, sans-serif" font-size="10.00">process</text>
</a>
</g>
</g>
<!-- dir_3be4c39558f4ed5ea83c7d6bb9cf8f18&#45;&gt;dir_83573ff3a96d199825b0a6f960a8a5e3 -->
<g id="edge15" class="edge">
<title>dir_3be4c39558f4ed5ea83c7d6bb9cf8f18&#45;&gt;dir_83573ff3a96d199825b0a6f960a8a5e3</title>
<g id="a_edge15"><a xlink:href="dir_000035_000028.html" target="_top">
<path fill="none" stroke="#63b8ff" d="M404.09,-116.04C396.15,-108.35 385.2,-97.72 375.86,-88.66"/>
<polygon fill="#63b8ff" stroke="#63b8ff" points="378.56,-86.41 368.95,-81.96 373.69,-91.44 378.56,-86.41"/>
</a>
</g>
<g id="a_edge15&#45;headlabel"><a xlink:href="dir_000035_000028.html" target="_top" xlink:title="5">
<text text-anchor="middle" x="382.03" y="-83.45" font-family="Noto Sans, Lucida Grande, Lucida Sans Unicode, Helvetica, Arial, sans-serif" font-size="10.00" fill="#63b8ff">5</text>
</a>
</g>
</g>
<!-- dir_3be4c39558f4ed5ea83c7d6bb9cf8f18&#45;&gt;dir_13e138d54eb8818da29c3992edef070a -->
<g id="edge13" class="edge">
<title>dir_3be4c39558f4ed5ea83c7d6bb9cf8f18&#45;&gt;dir_13e138d54eb8818da29c3992edef070a</title>
<g id="a_edge13"><a xlink:href="dir_000035_000046.html" target="_top">
<path fill="none" stroke="#63b8ff" d="M440.84,-118.44C443.91,-117.68 447.01,-117.01 450,-116.5 521.97,-104.28 1049.11,-126.25 1106,-80.5 1119.71,-69.47 1124.04,-49.47 1125.18,-33.94"/>
<polygon fill="#63b8ff" stroke="#63b8ff" points="1128.67,-34.31 1125.49,-24.21 1121.68,-34.09 1128.67,-34.31"/>
</a>
</g>
<g id="a_edge13&#45;headlabel"><a xlink:href="dir_000035_000046.html" target="_top" xlink:title="1">
<text text-anchor="middle" x="1131.45" y="-34.11" font-family="Noto Sans, Lucida Grande, Lucida Sans Unicode, Helvetica, Arial, sans-serif" font-size="10.00" fill="#63b8ff">1</text>
</a>
</g>
</g>
<!-- dir_3be4c39558f4ed5ea83c7d6bb9cf8f18&#45;&gt;dir_48629295dac6e528843af3b62964cd90 -->
<g id="edge14" class="edge">
<title>dir_3be4c39558f4ed5ea83c7d6bb9cf8f18&#45;&gt;dir_48629295dac6e528843af3b62964cd90</title>
<g id="a_edge14"><a xlink:href="dir_000035_000001.html" target="_top">
<path fill="none" stroke="#63b8ff" d="M440.84,-118.46C443.91,-117.7 447.01,-117.02 450,-116.5 706.5,-72.18 782,-130.8 1035.46,-81.88"/>
<polygon fill="#63b8ff" stroke="#63b8ff" points="1035.87,-85.37 1045,-80 1034.52,-78.5 1035.87,-85.37"/>
</a>
</g>
<g id="a_edge14&#45;headlabel"><a xlink:href="dir_000035_000001.html" target="_top" xlink:title="2">
<text text-anchor="middle" x="1034.38" y="-86.18" font-family="Noto Sans, Lucida Grande, Lucida Sans Unicode, Helvetica, Arial, sans-serif" font-size="10.00" fill="#63b8ff">2</text>
</a>
</g>
</g>
<!-- dir_b79236c2eb147814d5f95735e96f5aa5 -->
<g id="node13" class="node">
<title>dir_b79236c2eb147814d5f95735e96f5aa5</title>
<g id="a_node13"><a xlink:href="dir_b79236c2eb147814d5f95735e96f5aa5.html" target="_top" xlink:title="stdlib">
<polygon fill="#a2b4d6" stroke="#404040" points="1031.38,-138.75 990.62,-138.75 990.62,-116.5 1031.38,-116.5 1031.38,-138.75"/>
<text text-anchor="middle" x="1011" y="-125.25" font-family="Noto Sans, Lucida Grande, Lucida Sans Unicode, Helvetica, Arial, sans-serif" font-size="10.00">stdlib</text>
</a>
</g>
</g>
<!-- dir_b79236c2eb147814d5f95735e96f5aa5&#45;&gt;dir_13e138d54eb8818da29c3992edef070a -->
<g id="edge16" class="edge">
<title>dir_b79236c2eb147814d5f95735e96f5aa5&#45;&gt;dir_13e138d54eb8818da29c3992edef070a</title>
<g id="a_edge16"><a xlink:href="dir_000039_000046.html" target="_top">
<path fill="none" stroke="#63b8ff" d="M1031.7,-125.13C1078.89,-121.24 1192.16,-109.08 1215,-80.5 1223.39,-70 1222.42,-61.46 1215,-50.25 1201.38,-29.7 1174.23,-20.19 1153.3,-15.82"/>
<polygon fill="#63b8ff" stroke="#63b8ff" points="1154.08,-12.4 1143.62,-14.1 1152.86,-19.29 1154.08,-12.4"/>
</a>
</g>
<g id="a_edge16&#45;headlabel"><a xlink:href="dir_000039_000046.html" target="_top" xlink:title="1">
<text text-anchor="middle" x="1156.63" y="-7.59" font-family="Noto Sans, Lucida Grande, Lucida Sans Unicode, Helvetica, Arial, sans-serif" font-size="10.00" fill="#63b8ff">1</text>
</a>
</g>
</g>
<!-- dir_25ab1eab2ff74268454e66f3005434ea -->
<g id="node14" class="node">
<title>dir_25ab1eab2ff74268454e66f3005434ea</title>
<g id="a_node14"><a xlink:href="dir_25ab1eab2ff74268454e66f3005434ea.html" target="_top" xlink:title="stream">
<polygon fill="#a2b4d6" stroke="#404040" points="740.12,-138.75 691.88,-138.75 691.88,-116.5 740.12,-116.5 740.12,-138.75"/>
<text text-anchor="middle" x="716" y="-125.25" font-family="Noto Sans, Lucida Grande, Lucida Sans Unicode, Helvetica, Arial, sans-serif" font-size="10.00">stream</text>
</a>
</g>
</g>
<!-- dir_49c9149b50b5964f8c82ff5f72766762 -->
<g id="node15" class="node">
<title>dir_49c9149b50b5964f8c82ff5f72766762</title>
<g id="a_node15"><a xlink:href="dir_49c9149b50b5964f8c82ff5f72766762.html" target="_top" xlink:title="string">
<polygon fill="#a2b4d6" stroke="#404040" points="801.5,-138.75 758.5,-138.75 758.5,-116.5 801.5,-116.5 801.5,-138.75"/>
<text text-anchor="middle" x="780" y="-125.25" font-family="Noto Sans, Lucida Grande, Lucida Sans Unicode, Helvetica, Arial, sans-serif" font-size="10.00">string</text>
</a>
</g>
</g>
<!-- dir_573570eb20651737f9fa4f670661b7d6 -->
<g id="node16" class="node">
<title>dir_573570eb20651737f9fa4f670661b7d6</title>
<g id="a_node16"><a xlink:href="dir_573570eb20651737f9fa4f670661b7d6.html" target="_top" xlink:title="synchronization">
<polygon fill="#a2b4d6" stroke="#404040" points="908,-138.75 820,-138.75 820,-116.5 908,-116.5 908,-138.75"/>
<text text-anchor="middle" x="864" y="-125.25" font-family="Noto Sans, Lucida Grande, Lucida Sans Unicode, Helvetica, Arial, sans-serif" font-size="10.00">synchronization</text>
</a>
</g>
</g>
<!-- dir_6841f09acee5855f04a6b7004de63831 -->
<g id="node17" class="node">
<title>dir_6841f09acee5855f04a6b7004de63831</title>
<g id="a_node17"><a xlink:href="dir_6841f09acee5855f04a6b7004de63831.html" target="_top" xlink:title="thread">
<polygon fill="#a2b4d6" stroke="#404040" points="972.38,-138.75 925.62,-138.75 925.62,-116.5 972.38,-116.5 972.38,-138.75"/>
<text text-anchor="middle" x="949" y="-125.25" font-family="Noto Sans, Lucida Grande, Lucida Sans Unicode, Helvetica, Arial, sans-serif" font-size="10.00">thread</text>
</a>
</g>
</g>
<!-- dir_04861af0646e74845232399e73d584d9 -->
<g id="node18" class="node">
<title>dir_04861af0646e74845232399e73d584d9</title>
<g id="a_node18"><a xlink:href="dir_04861af0646e74845232399e73d584d9.html" target="_top" xlink:title="win">
<polygon fill="#a2b4d6" stroke="#404040" points="265.88,-138.75 234.12,-138.75 234.12,-116.5 265.88,-116.5 265.88,-138.75"/>
<text text-anchor="middle" x="250" y="-125.25" font-family="Noto Sans, Lucida Grande, Lucida Sans Unicode, Helvetica, Arial, sans-serif" font-size="10.00">win</text>
</a>
</g>
</g>
<!-- dir_04861af0646e74845232399e73d584d9&#45;&gt;dir_83573ff3a96d199825b0a6f960a8a5e3 -->
<g id="edge18" class="edge">
<title>dir_04861af0646e74845232399e73d584d9&#45;&gt;dir_83573ff3a96d199825b0a6f960a8a5e3</title>
<g id="a_edge18"><a xlink:href="dir_000054_000028.html" target="_top">
<path fill="none" stroke="#63b8ff" d="M266.25,-118.08C282.7,-109.43 308.49,-95.88 328.37,-85.42"/>
<polygon fill="#63b8ff" stroke="#63b8ff" points="329.87,-88.59 337.09,-80.84 326.61,-82.39 329.87,-88.59"/>
</a>
</g>
<g id="a_edge18&#45;headlabel"><a xlink:href="dir_000054_000028.html" target="_top" xlink:title="1">
<text text-anchor="middle" x="329.35" y="-89.7" font-family="Noto Sans, Lucida Grande, Lucida Sans Unicode, Helvetica, Arial, sans-serif" font-size="10.00" fill="#63b8ff">1</text>
</a>
</g>
</g>
<!-- dir_04861af0646e74845232399e73d584d9&#45;&gt;dir_48629295dac6e528843af3b62964cd90 -->
<g id="edge17" class="edge">
<title>dir_04861af0646e74845232399e73d584d9&#45;&gt;dir_48629295dac6e528843af3b62964cd90</title>
<g id="a_edge17"><a xlink:href="dir_000054_000001.html" target="_top">
<path fill="none" stroke="#63b8ff" d="M266.15,-119.17C269.05,-118.1 272.07,-117.14 275,-116.5 605.19,-44.11 705.38,-143.32 1035.65,-81.79"/>
<polygon fill="#63b8ff" stroke="#63b8ff" points="1035.84,-85.32 1045.01,-80.01 1034.53,-78.44 1035.84,-85.32"/>
</a>
</g>
<g id="a_edge17&#45;headlabel"><a xlink:href="dir_000054_000001.html" target="_top" xlink:title="1">
<text text-anchor="middle" x="1034.32" y="-86.12" font-family="Noto Sans, Lucida Grande, Lucida Sans Unicode, Helvetica, Arial, sans-serif" font-size="10.00" fill="#63b8ff">1</text>
</a>
</g>
</g>
</g>
</svg>
