<?xml version="1.0" encoding="UTF-8" standalone="no"?>
<!DOCTYPE svg PUBLIC "-//W3C//DTD SVG 1.1//EN"
 "http://www.w3.org/Graphics/SVG/1.1/DTD/svg11.dtd">
<!-- Generated by graphviz version 12.2.1 (20241206.2353)
 -->
<!-- Title: Graph Legend Pages: 1 -->
<svg width="521pt" height="175pt"
 viewBox="0.00 0.00 520.75 175.25" xmlns="http://www.w3.org/2000/svg" xmlns:xlink="http://www.w3.org/1999/xlink">
<g id="graph0" class="graph" transform="scale(1 1) rotate(0) translate(4 171.25)">
<title>Graph Legend</title>
<!-- Node9 -->
<g id="Node000009" class="node">
<title>Node9</title>
<g id="a_Node000009"><a xlink:title=" ">
<polygon fill="#999999" stroke="#666666" points="300.88,-22.25 240.62,-22.25 240.62,0 300.88,0 300.88,-22.25"/>
<text text-anchor="middle" x="270.75" y="-8.75" font-family="Noto Sans, Lucida Grande, Lucida Sans Unicode, Helvetica, Arial, sans-serif" font-size="10.00">Inherited</text>
</a>
</g>
</g>
<!-- Node10 -->
<g id="Node000010" class="node">
<title>Node10</title>
<g id="a_Node000010"><a xlink:title=" ">
<polygon fill="white" stroke="#666666" points="65.5,-94.75 0,-94.75 0,-72.5 65.5,-72.5 65.5,-94.75"/>
<text text-anchor="middle" x="32.75" y="-81.25" font-family="Noto Sans, Lucida Grande, Lucida Sans Unicode, Helvetica, Arial, sans-serif" font-size="10.00">PublicBase</text>
</a>
</g>
</g>
<!-- Node10&#45;&gt;Node9 -->
<g id="edge1" class="edge">
<title>Node10&#45;&gt;Node9</title>
<g id="a_edge1"><a xlink:title=" ">
<path fill="none" stroke="#63b8ff" d="M76.72,-69.6C124.23,-55.53 198.69,-33.47 240.2,-21.17"/>
<polygon fill="#63b8ff" stroke="#63b8ff" points="75.89,-66.2 67.29,-72.39 77.88,-72.91 75.89,-66.2"/>
</a>
</g>
</g>
<!-- Node11 -->
<g id="Node000011" class="node">
<title>Node11</title>
<g id="a_Node000011"><a xlink:title=" ">
<polygon fill="#fff0f0" stroke="red" points="64.38,-167.25 1.12,-167.25 1.12,-145 64.38,-145 64.38,-167.25"/>
<text text-anchor="middle" x="32.75" y="-153.75" font-family="Noto Sans, Lucida Grande, Lucida Sans Unicode, Helvetica, Arial, sans-serif" font-size="10.00">Truncated</text>
</a>
</g>
</g>
<!-- Node11&#45;&gt;Node10 -->
<g id="edge2" class="edge">
<title>Node11&#45;&gt;Node10</title>
<g id="a_edge2"><a xlink:title=" ">
<path fill="none" stroke="#63b8ff" d="M32.75,-133.22C32.75,-120.51 32.75,-105.08 32.75,-95.07"/>
<polygon fill="#63b8ff" stroke="#63b8ff" points="29.25,-133.21 32.75,-143.21 36.25,-133.21 29.25,-133.21"/>
</a>
</g>
</g>
<!-- Node13 -->
<g id="node4" class="node">
<title>Node13</title>
<g id="a_node4"><a xlink:title=" ">
<polygon fill="white" stroke="#666666" points="167.88,-94.75 83.62,-94.75 83.62,-72.5 167.88,-72.5 167.88,-94.75"/>
<text text-anchor="middle" x="125.75" y="-81.25" font-family="Noto Sans, Lucida Grande, Lucida Sans Unicode, Helvetica, Arial, sans-serif" font-size="10.00">ProtectedBase</text>
</a>
</g>
</g>
<!-- Node13&#45;&gt;Node9 -->
<g id="edge3" class="edge">
<title>Node13&#45;&gt;Node9</title>
<g id="a_edge3"><a xlink:title=" ">
<path fill="none" stroke="darkgreen" d="M157.5,-67.19C185.36,-53.64 225.13,-34.31 249.37,-22.52"/>
<polygon fill="darkgreen" stroke="darkgreen" points="156.28,-63.89 148.82,-71.41 159.34,-70.18 156.28,-63.89"/>
</a>
</g>
</g>
<!-- Node14 -->
<g id="node5" class="node">
<title>Node14</title>
<g id="a_node5"><a xlink:title=" ">
<polygon fill="white" stroke="#666666" points="257.5,-94.75 186,-94.75 186,-72.5 257.5,-72.5 257.5,-94.75"/>
<text text-anchor="middle" x="221.75" y="-81.25" font-family="Noto Sans, Lucida Grande, Lucida Sans Unicode, Helvetica, Arial, sans-serif" font-size="10.00">PrivateBase</text>
</a>
</g>
</g>
<!-- Node14&#45;&gt;Node9 -->
<g id="edge4" class="edge">
<title>Node14&#45;&gt;Node9</title>
<g id="a_edge4"><a xlink:title=" ">
<path fill="none" stroke="#8b1a1a" d="M235.34,-63.07C244.46,-49.96 256.1,-33.21 263.49,-22.57"/>
<polygon fill="#8b1a1a" stroke="#8b1a1a" points="232.68,-60.77 229.84,-70.98 238.43,-64.77 232.68,-60.77"/>
</a>
</g>
</g>
<!-- Node15 -->
<g id="Node000015" class="node">
<title>Node15</title>
<g id="a_Node000015"><a xlink:title=" ">
<polygon fill="#e0e0e0" stroke="#999999" points="364.12,-94.75 275.38,-94.75 275.38,-72.5 364.12,-72.5 364.12,-94.75"/>
<text text-anchor="middle" x="319.75" y="-81.25" font-family="Noto Sans, Lucida Grande, Lucida Sans Unicode, Helvetica, Arial, sans-serif" font-size="10.00">Undocumented</text>
</a>
</g>
</g>
<!-- Node15&#45;&gt;Node9 -->
<g id="edge5" class="edge">
<title>Node15&#45;&gt;Node9</title>
<g id="a_edge5"><a xlink:title=" ">
<path fill="none" stroke="#63b8ff" d="M306.16,-63.07C297.04,-49.96 285.4,-33.21 278.01,-22.57"/>
<polygon fill="#63b8ff" stroke="#63b8ff" points="303.07,-64.77 311.66,-70.98 308.82,-60.77 303.07,-64.77"/>
</a>
</g>
</g>
<!-- Node16 -->
<g id="node7" class="node">
<title>Node16</title>
<g id="a_node7"><a xlink:title=" ">
<polygon fill="white" stroke="#666666" points="454.88,-94.75 382.62,-94.75 382.62,-72.5 454.88,-72.5 454.88,-94.75"/>
<text text-anchor="middle" x="418.75" y="-81.25" font-family="Noto Sans, Lucida Grande, Lucida Sans Unicode, Helvetica, Arial, sans-serif" font-size="10.00">Templ&lt; int &gt;</text>
</a>
</g>
</g>
<!-- Node16&#45;&gt;Node9 -->
<g id="edge6" class="edge">
<title>Node16&#45;&gt;Node9</title>
<g id="a_edge6"><a xlink:title=" ">
<path fill="none" stroke="#63b8ff" d="M386.34,-67.19C357.9,-53.64 317.32,-34.31 292.58,-22.52"/>
<polygon fill="#63b8ff" stroke="#63b8ff" points="384.69,-70.28 395.23,-71.42 387.7,-63.96 384.69,-70.28"/>
</a>
</g>
</g>
<!-- Node17 -->
<g id="node8" class="node">
<title>Node17</title>
<g id="a_node8"><a xlink:title=" ">
<polygon fill="white" stroke="#666666" points="451.5,-167.25 386,-167.25 386,-145 451.5,-145 451.5,-167.25"/>
<text text-anchor="middle" x="418.75" y="-153.75" font-family="Noto Sans, Lucida Grande, Lucida Sans Unicode, Helvetica, Arial, sans-serif" font-size="10.00">Templ&lt; T &gt;</text>
</a>
</g>
</g>
<!-- Node17&#45;&gt;Node16 -->
<g id="edge7" class="edge">
<title>Node17&#45;&gt;Node16</title>
<g id="a_edge7"><a xlink:title=" ">
<path fill="none" stroke="orange" stroke-dasharray="5,2" d="M418.75,-133.22C418.75,-120.51 418.75,-105.08 418.75,-95.07"/>
<polygon fill="orange" stroke="orange" points="415.25,-133.21 418.75,-143.21 422.25,-133.21 415.25,-133.21"/>
</a>
</g>
<text text-anchor="middle" x="433" y="-117.5" font-family="Noto Sans, Lucida Grande, Lucida Sans Unicode, Helvetica, Arial, sans-serif" font-size="10.00" fill="grey">&lt; int &gt;</text>
</g>
<!-- Node18 -->
<g id="node9" class="node">
<title>Node18</title>
<g id="a_node9"><a xlink:title=" ">
<polygon fill="white" stroke="#666666" points="512.75,-94.75 472.75,-94.75 472.75,-72.5 512.75,-72.5 512.75,-94.75"/>
<text text-anchor="middle" x="492.75" y="-81.25" font-family="Noto Sans, Lucida Grande, Lucida Sans Unicode, Helvetica, Arial, sans-serif" font-size="10.00">Used</text>
</a>
</g>
</g>
<!-- Node18&#45;&gt;Node9 -->
<g id="edge8" class="edge">
<title>Node18&#45;&gt;Node9</title>
<g id="a_edge8"><a xlink:title=" ">
<path fill="none" stroke="#9a32cd" stroke-dasharray="5,2" d="M461.68,-71.88C399.33,-51.35 337.31,-32.28 301.27,-21.33"/>
<polygon fill="#9a32cd" stroke="#9a32cd" points="460.47,-75.17 471.06,-74.98 462.66,-68.52 460.47,-75.17"/>
</a>
</g>
<text text-anchor="middle" x="434.82" y="-45" font-family="Noto Sans, Lucida Grande, Lucida Sans Unicode, Helvetica, Arial, sans-serif" font-size="10.00" fill="grey">m_usedClass</text>
</g>
</g>
</svg>
