<?xml version="1.0" encoding="UTF-8" standalone="no"?>
<!DOCTYPE svg PUBLIC "-//W3C//DTD SVG 1.1//EN"
 "http://www.w3.org/Graphics/SVG/1.1/DTD/svg11.dtd">
<!-- Generated by graphviz version 12.2.1 (20241206.2353)
 -->
<!-- Title: test/gtest_death.h Pages: 1 -->
<svg width="313pt" height="89pt"
 viewBox="0.00 0.00 312.88 88.50" xmlns="http://www.w3.org/2000/svg" xmlns:xlink="http://www.w3.org/1999/xlink">
<g id="graph0" class="graph" transform="scale(1 1) rotate(0) translate(4 84.5)">
<title>test/gtest_death.h</title>
<!-- Node1 -->
<g id="Node000001" class="node">
<title>Node1</title>
<g id="a_Node000001"><a xlink:title=" ">
<polygon fill="#999999" stroke="#666666" points="207.62,-80.5 105.38,-80.5 105.38,-58.25 207.62,-58.25 207.62,-80.5"/>
<text text-anchor="middle" x="156.5" y="-67" font-family="Noto Sans, Lucida Grande, Lucida Sans Unicode, Helvetica, Arial, sans-serif" font-size="10.00">test/gtest_death.h</text>
</a>
</g>
</g>
<!-- Node2 -->
<g id="Node000002" class="node">
<title>Node2</title>
<g id="a_Node000002"><a xlink:title=" ">
<polygon fill="#e0e0e0" stroke="#999999" points="85,-22.25 0,-22.25 0,0 85,0 85,-22.25"/>
<text text-anchor="middle" x="42.5" y="-8.75" font-family="Noto Sans, Lucida Grande, Lucida Sans Unicode, Helvetica, Arial, sans-serif" font-size="10.00">base/logging.h</text>
</a>
</g>
</g>
<!-- Node1&#45;&gt;Node2 -->
<g id="edge1_Node000001_Node000002" class="edge">
<title>Node1&#45;&gt;Node2</title>
<g id="a_edge1_Node000001_Node000002"><a xlink:title=" ">
<path fill="none" stroke="#63b8ff" d="M135.06,-57.79C117.86,-49.31 93.47,-37.28 74.05,-27.69"/>
<polygon fill="#63b8ff" stroke="#63b8ff" points="75.72,-24.61 65.2,-23.33 72.62,-30.89 75.72,-24.61"/>
</a>
</g>
</g>
<!-- Node3 -->
<g id="Node000003" class="node">
<title>Node3</title>
<g id="a_Node000003"><a xlink:title=" ">
<polygon fill="#e0e0e0" stroke="#999999" points="209.88,-22.25 103.12,-22.25 103.12,0 209.88,0 209.88,-22.25"/>
<text text-anchor="middle" x="156.5" y="-8.75" font-family="Noto Sans, Lucida Grande, Lucida Sans Unicode, Helvetica, Arial, sans-serif" font-size="10.00">build/build_config.h</text>
</a>
</g>
</g>
<!-- Node1&#45;&gt;Node3 -->
<g id="edge2_Node000001_Node000003" class="edge">
<title>Node1&#45;&gt;Node3</title>
<g id="a_edge2_Node000001_Node000003"><a xlink:title=" ">
<path fill="none" stroke="#63b8ff" d="M156.5,-57.79C156.5,-51.12 156.5,-42.24 156.5,-34.09"/>
<polygon fill="#63b8ff" stroke="#63b8ff" points="160,-34.17 156.5,-24.17 153,-34.17 160,-34.17"/>
</a>
</g>
</g>
<!-- Node4 -->
<g id="Node000004" class="node">
<title>Node4</title>
<g id="a_Node000004"><a xlink:title=" ">
<polygon fill="#e0e0e0" stroke="#999999" points="304.88,-22.25 228.12,-22.25 228.12,0 304.88,0 304.88,-22.25"/>
<text text-anchor="middle" x="266.5" y="-8.75" font-family="Noto Sans, Lucida Grande, Lucida Sans Unicode, Helvetica, Arial, sans-serif" font-size="10.00">gtest/gtest.h</text>
</a>
</g>
</g>
<!-- Node1&#45;&gt;Node4 -->
<g id="edge3_Node000001_Node000004" class="edge">
<title>Node1&#45;&gt;Node4</title>
<g id="a_edge3_Node000001_Node000004"><a xlink:title=" ">
<path fill="none" stroke="#63b8ff" d="M177.19,-57.79C193.71,-49.35 217.1,-37.39 235.8,-27.83"/>
<polygon fill="#63b8ff" stroke="#63b8ff" points="237.25,-31.02 244.56,-23.35 234.06,-24.78 237.25,-31.02"/>
</a>
</g>
</g>
</g>
</svg>
