<?xml version="1.0" encoding="UTF-8" standalone="no"?>
<!DOCTYPE svg PUBLIC "-//W3C//DTD SVG 1.1//EN"
 "http://www.w3.org/Graphics/SVG/1.1/DTD/svg11.dtd">
<!-- Generated by graphviz version 12.2.1 (20241206.2353)
 -->
<!-- Title: Graphical Class Hierarchy Pages: 1 -->
<svg width="333pt" height="204pt"
 viewBox="0.00 0.00 333.25 204.38" xmlns="http://www.w3.org/2000/svg" xmlns:xlink="http://www.w3.org/1999/xlink">
<g id="graph0" class="graph" transform="scale(1 1) rotate(0) translate(4 200.38)">
<title>Graphical Class Hierarchy</title>
<!-- Node0 -->
<g id="Node000000" class="node">
<title>Node0</title>
<g id="a_Node000000"><a xlink:title=" ">
<polygon fill="#e0e0e0" stroke="#999999" points="125.5,-116.38 0,-116.38 0,-94.12 125.5,-94.12 125.5,-116.38"/>
<text text-anchor="middle" x="62.75" y="-102.88" font-family="Noto Sans, Lucida Grande, Lucida Sans Unicode, Helvetica, Arial, sans-serif" font-size="10.00">OutputStreamInterface</text>
</a>
</g>
</g>
<!-- Node1 -->
<g id="Node000001" class="node">
<title>Node1</title>
<g id="a_Node000001"><a xlink:href="classcrashpad_1_1Base94OutputStream.html" target="_top" xlink:title="This class implements Base94 encoding/decoding, it uses all printable characters except space for enc...">
<polygon fill="white" stroke="#666666" points="325.25,-196.38 161.5,-196.38 161.5,-174.12 325.25,-174.12 325.25,-196.38"/>
<text text-anchor="middle" x="243.38" y="-182.88" font-family="Noto Sans, Lucida Grande, Lucida Sans Unicode, Helvetica, Arial, sans-serif" font-size="10.00">crashpad::Base94OutputStream</text>
</a>
</g>
</g>
<!-- Node0&#45;&gt;Node1 -->
<g id="edge181_Node000000_Node000001" class="edge">
<title>Node0&#45;&gt;Node1</title>
<g id="a_edge181_Node000000_Node000001"><a xlink:title=" ">
<path fill="none" stroke="#63b8ff" d="M88.36,-123.32C107.46,-136.6 135.07,-154.18 161.5,-165.25 169.24,-168.49 177.62,-171.29 185.96,-173.68"/>
<polygon fill="#63b8ff" stroke="#63b8ff" points="90.61,-120.63 80.42,-117.7 86.56,-126.34 90.61,-120.63"/>
</a>
</g>
</g>
<!-- Node2 -->
<g id="Node000002" class="node">
<title>Node2</title>
<g id="a_Node000002"><a xlink:href="classcrashpad_1_1FileOutputStream.html" target="_top" xlink:title="The class is used to write data to a file.">
<polygon fill="white" stroke="#666666" points="315.88,-156.38 170.88,-156.38 170.88,-134.12 315.88,-134.12 315.88,-156.38"/>
<text text-anchor="middle" x="243.38" y="-142.88" font-family="Noto Sans, Lucida Grande, Lucida Sans Unicode, Helvetica, Arial, sans-serif" font-size="10.00">crashpad::FileOutputStream</text>
</a>
</g>
</g>
<!-- Node0&#45;&gt;Node2 -->
<g id="edge182_Node000000_Node000002" class="edge">
<title>Node0&#45;&gt;Node2</title>
<g id="a_edge182_Node000000_Node000002"><a xlink:title=" ">
<path fill="none" stroke="#63b8ff" d="M126.47,-119.29C147.41,-123.98 170.5,-129.15 190.52,-133.64"/>
<polygon fill="#63b8ff" stroke="#63b8ff" points="127.42,-115.92 116.89,-117.15 125.89,-122.75 127.42,-115.92"/>
</a>
</g>
</g>
<!-- Node3 -->
<g id="Node000003" class="node">
<title>Node3</title>
<g id="a_Node000003"><a xlink:href="classcrashpad_1_1LogOutputStream.html" target="_top" xlink:title="This class outputs a stream of data as a series of log messages.">
<polygon fill="white" stroke="#666666" points="316.62,-116.38 170.12,-116.38 170.12,-94.12 316.62,-94.12 316.62,-116.38"/>
<text text-anchor="middle" x="243.38" y="-102.88" font-family="Noto Sans, Lucida Grande, Lucida Sans Unicode, Helvetica, Arial, sans-serif" font-size="10.00">crashpad::LogOutputStream</text>
</a>
</g>
</g>
<!-- Node0&#45;&gt;Node3 -->
<g id="edge183_Node000000_Node000003" class="edge">
<title>Node0&#45;&gt;Node3</title>
<g id="a_edge183_Node000000_Node000003"><a xlink:title=" ">
<path fill="none" stroke="#63b8ff" d="M137.39,-105.25C148.04,-105.25 159.01,-105.25 169.65,-105.25"/>
<polygon fill="#63b8ff" stroke="#63b8ff" points="137.49,-101.75 127.49,-105.25 137.49,-108.75 137.49,-101.75"/>
</a>
</g>
</g>
<!-- Node4 -->
<g id="Node000004" class="node">
<title>Node4</title>
<g id="a_Node000004"><a xlink:href="classcrashpad_1_1ZlibOutputStream.html" target="_top" xlink:title="The class wraps zlib into OutputStreamInterface.">
<polygon fill="white" stroke="#666666" points="316.25,-76.38 170.5,-76.38 170.5,-54.12 316.25,-54.12 316.25,-76.38"/>
<text text-anchor="middle" x="243.38" y="-62.88" font-family="Noto Sans, Lucida Grande, Lucida Sans Unicode, Helvetica, Arial, sans-serif" font-size="10.00">crashpad::ZlibOutputStream</text>
</a>
</g>
</g>
<!-- Node0&#45;&gt;Node4 -->
<g id="edge184_Node000000_Node000004" class="edge">
<title>Node0&#45;&gt;Node4</title>
<g id="a_edge184_Node000000_Node000004"><a xlink:title=" ">
<path fill="none" stroke="#63b8ff" d="M126.47,-91.21C147.41,-86.52 170.5,-81.35 190.52,-76.86"/>
<polygon fill="#63b8ff" stroke="#63b8ff" points="125.89,-87.75 116.89,-93.35 127.42,-94.58 125.89,-87.75"/>
</a>
</g>
</g>
<!-- Node5 -->
<g id="Node000005" class="node">
<title>Node5</title>
<g id="a_Node000005"><a xlink:href="classcrashpad_1_1test_1_1TestOutputStream.html" target="_top" xlink:title="The help class for OutputStreamInterface related tests.">
<polygon fill="white" stroke="#666666" points="312.88,-36.5 173.88,-36.5 173.88,0 312.88,0 312.88,-36.5"/>
<text text-anchor="start" x="181.88" y="-23" font-family="Noto Sans, Lucida Grande, Lucida Sans Unicode, Helvetica, Arial, sans-serif" font-size="10.00">crashpad::test::TestOutput</text>
<text text-anchor="middle" x="243.38" y="-8.75" font-family="Noto Sans, Lucida Grande, Lucida Sans Unicode, Helvetica, Arial, sans-serif" font-size="10.00">Stream</text>
</a>
</g>
</g>
<!-- Node0&#45;&gt;Node5 -->
<g id="edge185_Node000000_Node000005" class="edge">
<title>Node0&#45;&gt;Node5</title>
<g id="a_edge185_Node000000_Node000005"><a xlink:title=" ">
<path fill="none" stroke="#63b8ff" d="M89.31,-87.32C108.52,-74.41 135.84,-57.22 161.5,-45.25 167.81,-42.31 174.52,-39.54 181.28,-36.97"/>
<polygon fill="#63b8ff" stroke="#63b8ff" points="87.59,-84.25 81.3,-92.78 91.54,-90.04 87.59,-84.25"/>
</a>
</g>
</g>
</g>
</svg>
