<?xml version="1.0" encoding="UTF-8" standalone="no"?>
<!DOCTYPE svg PUBLIC "-//W3C//DTD SVG 1.1//EN"
 "http://www.w3.org/Graphics/SVG/1.1/DTD/svg11.dtd">
<!-- Generated by graphviz version 12.2.1 (20241206.2353)
 -->
<!-- Title: Graphical Class Hierarchy Pages: 1 -->
<svg width="346pt" height="124pt"
 viewBox="0.00 0.00 346.00 124.38" xmlns="http://www.w3.org/2000/svg" xmlns:xlink="http://www.w3.org/1999/xlink">
<g id="graph0" class="graph" transform="scale(1 1) rotate(0) translate(4 120.38)">
<title>Graphical Class Hierarchy</title>
<!-- Node0 -->
<g id="Node000000" class="node">
<title>Node0</title>
<g id="a_Node000000"><a xlink:href="classcrashpad_1_1PruneCondition.html" target="_top" xlink:title="An abstract base class for evaluating crash reports for deletion.">
<polygon fill="white" stroke="#666666" points="136,-76.38 0,-76.38 0,-54.12 136,-54.12 136,-76.38"/>
<text text-anchor="middle" x="68" y="-62.88" font-family="Noto Sans, Lucida Grande, Lucida Sans Unicode, Helvetica, Arial, sans-serif" font-size="10.00">crashpad::PruneCondition</text>
</a>
</g>
</g>
<!-- Node1 -->
<g id="Node000001" class="node">
<title>Node1</title>
<g id="a_Node000001"><a xlink:href="classcrashpad_1_1AgePruneCondition.html" target="_top" xlink:title="A PruneCondition that deletes reports older than the specified number days.">
<polygon fill="white" stroke="#666666" points="332.38,-116.38 177.62,-116.38 177.62,-94.12 332.38,-94.12 332.38,-116.38"/>
<text text-anchor="middle" x="255" y="-102.88" font-family="Noto Sans, Lucida Grande, Lucida Sans Unicode, Helvetica, Arial, sans-serif" font-size="10.00">crashpad::AgePruneCondition</text>
</a>
</g>
</g>
<!-- Node0&#45;&gt;Node1 -->
<g id="edge142_Node000000_Node000001" class="edge">
<title>Node0&#45;&gt;Node1</title>
<g id="a_edge142_Node000000_Node000001"><a xlink:title=" ">
<path fill="none" stroke="#63b8ff" d="M133.66,-79.23C155.42,-83.94 179.46,-89.13 200.29,-93.64"/>
<polygon fill="#63b8ff" stroke="#63b8ff" points="134.5,-75.83 123.99,-77.14 133.02,-82.67 134.5,-75.83"/>
</a>
</g>
</g>
<!-- Node2 -->
<g id="Node000002" class="node">
<title>Node2</title>
<g id="a_Node000002"><a xlink:href="classcrashpad_1_1BinaryPruneCondition.html" target="_top" xlink:title="A PruneCondition that conjoins two other PruneConditions.">
<polygon fill="white" stroke="#666666" points="338,-76.38 172,-76.38 172,-54.12 338,-54.12 338,-76.38"/>
<text text-anchor="middle" x="255" y="-62.88" font-family="Noto Sans, Lucida Grande, Lucida Sans Unicode, Helvetica, Arial, sans-serif" font-size="10.00">crashpad::BinaryPruneCondition</text>
</a>
</g>
</g>
<!-- Node0&#45;&gt;Node2 -->
<g id="edge143_Node000000_Node000002" class="edge">
<title>Node0&#45;&gt;Node2</title>
<g id="a_edge143_Node000000_Node000002"><a xlink:title=" ">
<path fill="none" stroke="#63b8ff" d="M147.75,-65.25C155.65,-65.25 163.68,-65.25 171.61,-65.25"/>
<polygon fill="#63b8ff" stroke="#63b8ff" points="147.83,-61.75 137.83,-65.25 147.83,-68.75 147.83,-61.75"/>
</a>
</g>
</g>
<!-- Node3 -->
<g id="Node000003" class="node">
<title>Node3</title>
<g id="a_Node000003"><a xlink:href="classcrashpad_1_1DatabaseSizePruneCondition.html" target="_top" xlink:title="A PruneCondition that deletes older reports to keep the total Crashpad database size under the specif...">
<polygon fill="white" stroke="#666666" points="331.62,-36.5 178.38,-36.5 178.38,0 331.62,0 331.62,-36.5"/>
<text text-anchor="start" x="186.38" y="-23" font-family="Noto Sans, Lucida Grande, Lucida Sans Unicode, Helvetica, Arial, sans-serif" font-size="10.00">crashpad::DatabaseSizePrune</text>
<text text-anchor="middle" x="255" y="-8.75" font-family="Noto Sans, Lucida Grande, Lucida Sans Unicode, Helvetica, Arial, sans-serif" font-size="10.00">Condition</text>
</a>
</g>
</g>
<!-- Node0&#45;&gt;Node3 -->
<g id="edge144_Node000000_Node000003" class="edge">
<title>Node0&#45;&gt;Node3</title>
<g id="a_edge144_Node000000_Node000003"><a xlink:title=" ">
<path fill="none" stroke="#63b8ff" d="M125.75,-50.83C142.98,-46.45 162.18,-41.58 180.36,-36.96"/>
<polygon fill="#63b8ff" stroke="#63b8ff" points="125.03,-47.4 116.2,-53.26 126.75,-54.19 125.03,-47.4"/>
</a>
</g>
</g>
</g>
</svg>
