<?xml version="1.0" encoding="UTF-8" standalone="no"?>
<!DOCTYPE svg PUBLIC "-//W3C//DTD SVG 1.1//EN"
 "http://www.w3.org/Graphics/SVG/1.1/DTD/svg11.dtd">
<!-- Generated by graphviz version 12.2.1 (20241206.2353)
 -->
<!-- Title: Graphical Class Hierarchy Pages: 1 -->
<svg width="393pt" height="375pt"
 viewBox="0.00 0.00 392.50 374.50" xmlns="http://www.w3.org/2000/svg" xmlns:xlink="http://www.w3.org/1999/xlink">
<g id="graph0" class="graph" transform="scale(1 1) rotate(0) translate(4 370.5)">
<title>Graphical Class Hierarchy</title>
<!-- Node0 -->
<g id="Node000000" class="node">
<title>Node0</title>
<g id="a_Node000000"><a xlink:href="classcrashpad_1_1ModuleSnapshot.html" target="_top" xlink:title="An abstract interface to a snapshot representing a code module (binary image) loaded into a snapshot ...">
<polygon fill="white" stroke="#666666" points="141.25,-194.38 0,-194.38 0,-172.12 141.25,-172.12 141.25,-194.38"/>
<text text-anchor="middle" x="70.62" y="-180.88" font-family="Noto Sans, Lucida Grande, Lucida Sans Unicode, Helvetica, Arial, sans-serif" font-size="10.00">crashpad::ModuleSnapshot</text>
</a>
</g>
</g>
<!-- Node1 -->
<g id="Node000001" class="node">
<title>Node1</title>
<g id="a_Node000001"><a xlink:href="classcrashpad_1_1internal_1_1ModuleSnapshotElf.html" target="_top" xlink:title="A ModuleSnapshot of a code module (binary image) loaded into a running (or crashed) process on a syst...">
<polygon fill="white" stroke="#666666" points="336.5,-366.5 225.25,-366.5 225.25,-330 336.5,-330 336.5,-366.5"/>
<text text-anchor="start" x="233.25" y="-353" font-family="Noto Sans, Lucida Grande, Lucida Sans Unicode, Helvetica, Arial, sans-serif" font-size="10.00">crashpad::internal</text>
<text text-anchor="middle" x="280.88" y="-338.75" font-family="Noto Sans, Lucida Grande, Lucida Sans Unicode, Helvetica, Arial, sans-serif" font-size="10.00">::ModuleSnapshotElf</text>
</a>
</g>
</g>
<!-- Node0&#45;&gt;Node1 -->
<g id="edge120_Node000000_Node000001" class="edge">
<title>Node0&#45;&gt;Node1</title>
<g id="a_edge120_Node000000_Node000001"><a xlink:title=" ">
<path fill="none" stroke="#63b8ff" d="M82.42,-204.85C98.73,-235.26 132.58,-290.33 177.25,-320.25 191.37,-329.71 208.59,-335.98 224.87,-340.14"/>
<polygon fill="#63b8ff" stroke="#63b8ff" points="85.63,-203.45 77.91,-196.19 79.42,-206.68 85.63,-203.45"/>
</a>
</g>
</g>
<!-- Node2 -->
<g id="Node000002" class="node">
<title>Node2</title>
<g id="a_Node000002"><a xlink:href="classcrashpad_1_1internal_1_1ModuleSnapshotIOSIntermediateDump.html" target="_top" xlink:title="A ModuleSnapshot of a code module (binary image) loaded into a running (or crashed) process on an iOS...">
<polygon fill="white" stroke="#666666" points="384.5,-311.5 177.25,-311.5 177.25,-275 384.5,-275 384.5,-311.5"/>
<text text-anchor="start" x="185.25" y="-298" font-family="Noto Sans, Lucida Grande, Lucida Sans Unicode, Helvetica, Arial, sans-serif" font-size="10.00">crashpad::internal</text>
<text text-anchor="middle" x="280.88" y="-283.75" font-family="Noto Sans, Lucida Grande, Lucida Sans Unicode, Helvetica, Arial, sans-serif" font-size="10.00">::ModuleSnapshotIOSIntermediateDump</text>
</a>
</g>
</g>
<!-- Node0&#45;&gt;Node2 -->
<g id="edge121_Node000000_Node000002" class="edge">
<title>Node0&#45;&gt;Node2</title>
<g id="a_edge121_Node000000_Node000002"><a xlink:title=" ">
<path fill="none" stroke="#63b8ff" d="M91.52,-202.65C111.61,-221.22 144.29,-248.79 177.25,-265.25 184.19,-268.72 191.61,-271.8 199.18,-274.53"/>
<polygon fill="#63b8ff" stroke="#63b8ff" points="94,-200.18 84.32,-195.86 89.19,-205.27 94,-200.18"/>
</a>
</g>
</g>
<!-- Node3 -->
<g id="Node000003" class="node">
<title>Node3</title>
<g id="a_Node000003"><a xlink:href="classcrashpad_1_1internal_1_1ModuleSnapshotMac.html" target="_top" xlink:title="A ModuleSnapshot of a code module (binary image) loaded into a running (or crashed) process on a macO...">
<polygon fill="white" stroke="#666666" points="340.25,-256.5 221.5,-256.5 221.5,-220 340.25,-220 340.25,-256.5"/>
<text text-anchor="start" x="229.5" y="-243" font-family="Noto Sans, Lucida Grande, Lucida Sans Unicode, Helvetica, Arial, sans-serif" font-size="10.00">crashpad::internal</text>
<text text-anchor="middle" x="280.88" y="-228.75" font-family="Noto Sans, Lucida Grande, Lucida Sans Unicode, Helvetica, Arial, sans-serif" font-size="10.00">::ModuleSnapshotMac</text>
</a>
</g>
</g>
<!-- Node0&#45;&gt;Node3 -->
<g id="edge122_Node000000_Node000003" class="edge">
<title>Node0&#45;&gt;Node3</title>
<g id="a_edge122_Node000000_Node000003"><a xlink:title=" ">
<path fill="none" stroke="#63b8ff" d="M126.34,-197.7C155.46,-205.39 191.29,-214.85 221.01,-222.7"/>
<polygon fill="#63b8ff" stroke="#63b8ff" points="127.56,-194.4 117,-195.23 125.77,-201.17 127.56,-194.4"/>
</a>
</g>
</g>
<!-- Node4 -->
<g id="Node000004" class="node">
<title>Node4</title>
<g id="a_Node000004"><a xlink:href="classcrashpad_1_1internal_1_1ModuleSnapshotMinidump.html" target="_top" xlink:title="A ModuleSnapshot based on a module in a minidump file.">
<polygon fill="white" stroke="#666666" points="354.12,-201.5 207.62,-201.5 207.62,-165 354.12,-165 354.12,-201.5"/>
<text text-anchor="start" x="215.62" y="-188" font-family="Noto Sans, Lucida Grande, Lucida Sans Unicode, Helvetica, Arial, sans-serif" font-size="10.00">crashpad::internal</text>
<text text-anchor="middle" x="280.88" y="-173.75" font-family="Noto Sans, Lucida Grande, Lucida Sans Unicode, Helvetica, Arial, sans-serif" font-size="10.00">::ModuleSnapshotMinidump</text>
</a>
</g>
</g>
<!-- Node0&#45;&gt;Node4 -->
<g id="edge123_Node000000_Node000004" class="edge">
<title>Node0&#45;&gt;Node4</title>
<g id="a_edge123_Node000000_Node000004"><a xlink:title=" ">
<path fill="none" stroke="#63b8ff" d="M152.88,-183.25C170.82,-183.25 189.72,-183.25 207.29,-183.25"/>
<polygon fill="#63b8ff" stroke="#63b8ff" points="153.06,-179.75 143.06,-183.25 153.06,-186.75 153.06,-179.75"/>
</a>
</g>
</g>
<!-- Node5 -->
<g id="Node000005" class="node">
<title>Node5</title>
<g id="a_Node000005"><a xlink:href="classcrashpad_1_1internal_1_1ModuleSnapshotSanitized.html" target="_top" xlink:title="A ModuleSnapshot which wraps and filters sensitive information from another ModuleSnapshot.">
<polygon fill="white" stroke="#666666" points="351.5,-146.5 210.25,-146.5 210.25,-110 351.5,-110 351.5,-146.5"/>
<text text-anchor="start" x="218.25" y="-133" font-family="Noto Sans, Lucida Grande, Lucida Sans Unicode, Helvetica, Arial, sans-serif" font-size="10.00">crashpad::internal</text>
<text text-anchor="middle" x="280.88" y="-118.75" font-family="Noto Sans, Lucida Grande, Lucida Sans Unicode, Helvetica, Arial, sans-serif" font-size="10.00">::ModuleSnapshotSanitized</text>
</a>
</g>
</g>
<!-- Node0&#45;&gt;Node5 -->
<g id="edge124_Node000000_Node000005" class="edge">
<title>Node0&#45;&gt;Node5</title>
<g id="a_edge124_Node000000_Node000005"><a xlink:title=" ">
<path fill="none" stroke="#63b8ff" d="M126.5,-168.76C152,-162.02 182.64,-153.93 209.8,-146.76"/>
<polygon fill="#63b8ff" stroke="#63b8ff" points="125.77,-165.33 117,-171.27 127.56,-172.1 125.77,-165.33"/>
</a>
</g>
</g>
<!-- Node6 -->
<g id="Node000006" class="node">
<title>Node6</title>
<g id="a_Node000006"><a xlink:href="classcrashpad_1_1internal_1_1ModuleSnapshotWin.html" target="_top" xlink:title="A ModuleSnapshot of a code module (binary image) loaded into a running (or crashed) process on a Wind...">
<polygon fill="white" stroke="#666666" points="339.5,-91.5 222.25,-91.5 222.25,-55 339.5,-55 339.5,-91.5"/>
<text text-anchor="start" x="230.25" y="-78" font-family="Noto Sans, Lucida Grande, Lucida Sans Unicode, Helvetica, Arial, sans-serif" font-size="10.00">crashpad::internal</text>
<text text-anchor="middle" x="280.88" y="-63.75" font-family="Noto Sans, Lucida Grande, Lucida Sans Unicode, Helvetica, Arial, sans-serif" font-size="10.00">::ModuleSnapshotWin</text>
</a>
</g>
</g>
<!-- Node0&#45;&gt;Node6 -->
<g id="edge125_Node000000_Node000006" class="edge">
<title>Node0&#45;&gt;Node6</title>
<g id="a_edge125_Node000000_Node000006"><a xlink:title=" ">
<path fill="none" stroke="#63b8ff" d="M91.52,-163.85C111.61,-145.28 144.29,-117.71 177.25,-101.25 191.13,-94.32 206.95,-88.92 221.94,-84.8"/>
<polygon fill="#63b8ff" stroke="#63b8ff" points="89.19,-161.23 84.32,-170.64 94,-166.32 89.19,-161.23"/>
</a>
</g>
</g>
<!-- Node7 -->
<g id="Node000007" class="node">
<title>Node7</title>
<g id="a_Node000007"><a xlink:href="classcrashpad_1_1test_1_1TestModuleSnapshot.html" target="_top" xlink:title="A test ModuleSnapshot that can carry arbitrary data for testing purposes.">
<polygon fill="white" stroke="#666666" points="351.5,-36.5 210.25,-36.5 210.25,0 351.5,0 351.5,-36.5"/>
<text text-anchor="start" x="218.25" y="-23" font-family="Noto Sans, Lucida Grande, Lucida Sans Unicode, Helvetica, Arial, sans-serif" font-size="10.00">crashpad::test::TestModule</text>
<text text-anchor="middle" x="280.88" y="-8.75" font-family="Noto Sans, Lucida Grande, Lucida Sans Unicode, Helvetica, Arial, sans-serif" font-size="10.00">Snapshot</text>
</a>
</g>
</g>
<!-- Node0&#45;&gt;Node7 -->
<g id="edge126_Node000000_Node000007" class="edge">
<title>Node0&#45;&gt;Node7</title>
<g id="a_edge126_Node000000_Node000007"><a xlink:title=" ">
<path fill="none" stroke="#63b8ff" d="M82.42,-161.65C98.73,-131.24 132.58,-76.17 177.25,-46.25 187.07,-39.67 198.39,-34.63 209.86,-30.78"/>
<polygon fill="#63b8ff" stroke="#63b8ff" points="79.42,-159.82 77.91,-170.31 85.63,-163.05 79.42,-159.82"/>
</a>
</g>
</g>
</g>
</svg>
