<?xml version="1.0" encoding="UTF-8" standalone="no"?>
<!DOCTYPE svg PUBLIC "-//W3C//DTD SVG 1.1//EN"
 "http://www.w3.org/Graphics/SVG/1.1/DTD/svg11.dtd">
<!-- Generated by graphviz version 12.2.1 (20241206.2353)
 -->
<!-- Title: Graphical Class Hierarchy Pages: 1 -->
<svg width="360pt" height="70pt"
 viewBox="0.00 0.00 360.25 70.25" xmlns="http://www.w3.org/2000/svg" xmlns:xlink="http://www.w3.org/1999/xlink">
<g id="graph0" class="graph" transform="scale(1 1) rotate(0) translate(4 66.25)">
<title>Graphical Class Hierarchy</title>
<!-- Node0 -->
<g id="Node000000" class="node">
<title>Node0</title>
<g id="a_Node000000"><a xlink:href="classcrashpad_1_1test_1_1Multiprocess.html" target="_top" xlink:title="Manages a multiprocess test.">
<polygon fill="white" stroke="#666666" points="145.75,-42.25 0,-42.25 0,-20 145.75,-20 145.75,-42.25"/>
<text text-anchor="middle" x="72.88" y="-28.75" font-family="Noto Sans, Lucida Grande, Lucida Sans Unicode, Helvetica, Arial, sans-serif" font-size="10.00">crashpad::test::Multiprocess</text>
</a>
</g>
</g>
<!-- Node1 -->
<g id="Node000001" class="node">
<title>Node1</title>
<g id="a_Node000001"><a xlink:href="classcrashpad_1_1test_1_1MachMultiprocess.html" target="_top" xlink:title="Manages a Mach&#45;aware multiprocess test.">
<polygon fill="white" stroke="#666666" points="352.25,-62.25 181.75,-62.25 181.75,-40 352.25,-40 352.25,-62.25"/>
<text text-anchor="middle" x="267" y="-48.75" font-family="Noto Sans, Lucida Grande, Lucida Sans Unicode, Helvetica, Arial, sans-serif" font-size="10.00">crashpad::test::MachMultiprocess</text>
</a>
</g>
</g>
<!-- Node0&#45;&gt;Node1 -->
<g id="edge155_Node000000_Node000001" class="edge">
<title>Node0&#45;&gt;Node1</title>
<g id="a_edge155_Node000000_Node000001"><a xlink:title=" ">
<path fill="none" stroke="#63b8ff" d="M157.67,-39.85C165.55,-40.67 173.55,-41.5 181.43,-42.32"/>
<polygon fill="#63b8ff" stroke="#63b8ff" points="158.05,-36.37 147.74,-38.81 157.32,-43.33 158.05,-36.37"/>
</a>
</g>
</g>
<!-- Node2 -->
<g id="Node000002" class="node">
<title>Node2</title>
<g id="a_Node000002"><a xlink:href="classcrashpad_1_1test_1_1MultiprocessExec.html" target="_top" xlink:title="Manages an exec()&#45;based multiprocess test.">
<polygon fill="white" stroke="#666666" points="350.38,-22.25 183.62,-22.25 183.62,0 350.38,0 350.38,-22.25"/>
<text text-anchor="middle" x="267" y="-8.75" font-family="Noto Sans, Lucida Grande, Lucida Sans Unicode, Helvetica, Arial, sans-serif" font-size="10.00">crashpad::test::MultiprocessExec</text>
</a>
</g>
</g>
<!-- Node0&#45;&gt;Node2 -->
<g id="edge156_Node000000_Node000002" class="edge">
<title>Node0&#45;&gt;Node2</title>
<g id="a_edge156_Node000000_Node000002"><a xlink:title=" ">
<path fill="none" stroke="#63b8ff" d="M157.45,-22.43C166.05,-21.53 174.79,-20.62 183.39,-19.73"/>
<polygon fill="#63b8ff" stroke="#63b8ff" points="157.32,-18.92 147.74,-23.44 158.05,-25.88 157.32,-18.92"/>
</a>
</g>
</g>
</g>
</svg>
