<?xml version="1.0" encoding="UTF-8" standalone="no"?>
<!DOCTYPE svg PUBLIC "-//W3C//DTD SVG 1.1//EN"
 "http://www.w3.org/Graphics/SVG/1.1/DTD/svg11.dtd">
<!-- Generated by graphviz version 12.2.1 (20241206.2353)
 -->
<!-- Title: Graphical Class Hierarchy Pages: 1 -->
<svg width="503pt" height="45pt"
 viewBox="0.00 0.00 503.00 44.50" xmlns="http://www.w3.org/2000/svg" xmlns:xlink="http://www.w3.org/1999/xlink">
<g id="graph0" class="graph" transform="scale(1 1) rotate(0) translate(4 40.5)">
<title>Graphical Class Hierarchy</title>
<!-- Node0 -->
<g id="Node000000" class="node">
<title>Node0</title>
<g id="a_Node000000"><a xlink:title=" ">
<polygon fill="#e0e0e0" stroke="#999999" points="115,-29.38 0,-29.38 0,-7.12 115,-7.12 115,-29.38"/>
<text text-anchor="middle" x="57.5" y="-15.88" font-family="Noto Sans, Lucida Grande, Lucida Sans Unicode, Helvetica, Arial, sans-serif" font-size="10.00">logging::LogMessage</text>
</a>
</g>
</g>
<!-- Node1 -->
<g id="Node000001" class="node">
<title>Node1</title>
<g id="a_Node000001"><a xlink:href="classlogging_1_1NtstatusLogMessage.html" target="_top" xlink:title=" ">
<polygon fill="white" stroke="#666666" points="305,-29.38 151,-29.38 151,-7.12 305,-7.12 305,-29.38"/>
<text text-anchor="middle" x="228" y="-15.88" font-family="Noto Sans, Lucida Grande, Lucida Sans Unicode, Helvetica, Arial, sans-serif" font-size="10.00">logging::NtstatusLogMessage</text>
</a>
</g>
</g>
<!-- Node0&#45;&gt;Node1 -->
<g id="edge172_Node000000_Node000001" class="edge">
<title>Node0&#45;&gt;Node1</title>
<g id="a_edge172_Node000000_Node000001"><a xlink:title=" ">
<path fill="none" stroke="#63b8ff" d="M126.49,-18.25C134.39,-18.25 142.5,-18.25 150.51,-18.25"/>
<polygon fill="#63b8ff" stroke="#63b8ff" points="126.59,-14.75 116.59,-18.25 126.59,-21.75 126.59,-14.75"/>
</a>
</g>
</g>
<!-- Node2 -->
<g id="Node000002" class="node">
<title>Node2</title>
<g id="a_Node000002"><a xlink:href="classlogging_1_1NtstatusLogMessageFatal.html" target="_top" xlink:title=" ">
<polygon fill="white" stroke="#666666" points="495,-36.5 341,-36.5 341,0 495,0 495,-36.5"/>
<text text-anchor="start" x="349" y="-23" font-family="Noto Sans, Lucida Grande, Lucida Sans Unicode, Helvetica, Arial, sans-serif" font-size="10.00">logging::NtstatusLogMessage</text>
<text text-anchor="middle" x="418" y="-8.75" font-family="Noto Sans, Lucida Grande, Lucida Sans Unicode, Helvetica, Arial, sans-serif" font-size="10.00">Fatal</text>
</a>
</g>
</g>
<!-- Node1&#45;&gt;Node2 -->
<g id="edge173_Node000001_Node000002" class="edge">
<title>Node1&#45;&gt;Node2</title>
<g id="a_edge173_Node000001_Node000002"><a xlink:title=" ">
<path fill="none" stroke="#63b8ff" d="M316.97,-18.25C324.86,-18.25 332.82,-18.25 340.6,-18.25"/>
<polygon fill="#63b8ff" stroke="#63b8ff" points="316.98,-14.75 306.98,-18.25 316.98,-21.75 316.98,-14.75"/>
</a>
</g>
</g>
</g>
</svg>
