<?xml version="1.0" encoding="UTF-8" standalone="no"?>
<!DOCTYPE svg PUBLIC "-//W3C//DTD SVG 1.1//EN"
 "http://www.w3.org/Graphics/SVG/1.1/DTD/svg11.dtd">
<!-- Generated by graphviz version 12.2.1 (20241206.2353)
 -->
<!-- Title: Graphical Class Hierarchy Pages: 1 -->
<svg width="354pt" height="194pt"
 viewBox="0.00 0.00 354.25 193.50" xmlns="http://www.w3.org/2000/svg" xmlns:xlink="http://www.w3.org/1999/xlink">
<g id="graph0" class="graph" transform="scale(1 1) rotate(0) translate(4 189.5)">
<title>Graphical Class Hierarchy</title>
<!-- Node0 -->
<g id="Node000000" class="node">
<title>Node0</title>
<g id="a_Node000000"><a xlink:href="classcrashpad_1_1HTTPBodyStream.html" target="_top" xlink:title="An interface to a stream that can be used for an HTTP request body.">
<polygon fill="white" stroke="#666666" points="145,-99.38 0,-99.38 0,-77.12 145,-77.12 145,-99.38"/>
<text text-anchor="middle" x="72.5" y="-85.88" font-family="Noto Sans, Lucida Grande, Lucida Sans Unicode, Helvetica, Arial, sans-serif" font-size="10.00">crashpad::HTTPBodyStream</text>
</a>
</g>
</g>
<!-- Node1 -->
<g id="Node000001" class="node">
<title>Node1</title>
<g id="a_Node000001"><a xlink:href="classcrashpad_1_1CompositeHTTPBodyStream.html" target="_top" xlink:title="An implementation of HTTPBodyStream that combines an array of several other HTTPBodyStream objects in...">
<polygon fill="white" stroke="#666666" points="344.38,-185.5 182.88,-185.5 182.88,-149 344.38,-149 344.38,-185.5"/>
<text text-anchor="start" x="190.88" y="-172" font-family="Noto Sans, Lucida Grande, Lucida Sans Unicode, Helvetica, Arial, sans-serif" font-size="10.00">crashpad::CompositeHTTPBody</text>
<text text-anchor="middle" x="263.62" y="-157.75" font-family="Noto Sans, Lucida Grande, Lucida Sans Unicode, Helvetica, Arial, sans-serif" font-size="10.00">Stream</text>
</a>
</g>
</g>
<!-- Node0&#45;&gt;Node1 -->
<g id="edge34_Node000000_Node000001" class="edge">
<title>Node0&#45;&gt;Node1</title>
<g id="a_edge34_Node000000_Node000001"><a xlink:title=" ">
<path fill="none" stroke="#63b8ff" d="M105.86,-104.77C126.98,-115.26 155.3,-128.79 181,-139.25 188.91,-142.47 197.34,-145.65 205.68,-148.63"/>
<polygon fill="#63b8ff" stroke="#63b8ff" points="107.68,-101.77 97.17,-100.42 104.55,-108.03 107.68,-101.77"/>
</a>
</g>
</g>
<!-- Node2 -->
<g id="Node000002" class="node">
<title>Node2</title>
<g id="a_Node000002"><a xlink:href="classcrashpad_1_1FileReaderHTTPBodyStream.html" target="_top" xlink:title="An implementation of HTTPBodyStream that reads from a FileReaderInterface and provides its contents f...">
<polygon fill="white" stroke="#666666" points="344.38,-130.5 182.88,-130.5 182.88,-94 344.38,-94 344.38,-130.5"/>
<text text-anchor="start" x="190.88" y="-117" font-family="Noto Sans, Lucida Grande, Lucida Sans Unicode, Helvetica, Arial, sans-serif" font-size="10.00">crashpad::FileReaderHTTPBody</text>
<text text-anchor="middle" x="263.62" y="-102.75" font-family="Noto Sans, Lucida Grande, Lucida Sans Unicode, Helvetica, Arial, sans-serif" font-size="10.00">Stream</text>
</a>
</g>
</g>
<!-- Node0&#45;&gt;Node2 -->
<g id="edge35_Node000000_Node000002" class="edge">
<title>Node0&#45;&gt;Node2</title>
<g id="a_edge35_Node000000_Node000002"><a xlink:title=" ">
<path fill="none" stroke="#63b8ff" d="M156.57,-98.79C165.24,-99.89 174.05,-101.01 182.68,-102.11"/>
<polygon fill="#63b8ff" stroke="#63b8ff" points="157.13,-95.33 146.77,-97.55 156.25,-102.28 157.13,-95.33"/>
</a>
</g>
</g>
<!-- Node3 -->
<g id="Node000003" class="node">
<title>Node3</title>
<g id="a_Node000003"><a xlink:href="classcrashpad_1_1GzipHTTPBodyStream.html" target="_top" xlink:title="An implementation of HTTPBodyStream that gzip&#45;compresses another HTTPBodyStream.">
<polygon fill="white" stroke="#666666" points="346.25,-76.38 181,-76.38 181,-54.12 346.25,-54.12 346.25,-76.38"/>
<text text-anchor="middle" x="263.62" y="-62.88" font-family="Noto Sans, Lucida Grande, Lucida Sans Unicode, Helvetica, Arial, sans-serif" font-size="10.00">crashpad::GzipHTTPBodyStream</text>
</a>
</g>
</g>
<!-- Node0&#45;&gt;Node3 -->
<g id="edge36_Node000000_Node000003" class="edge">
<title>Node0&#45;&gt;Node3</title>
<g id="a_edge36_Node000000_Node000003"><a xlink:title=" ">
<path fill="none" stroke="#63b8ff" d="M156.54,-78.15C164.58,-77.17 172.74,-76.18 180.77,-75.2"/>
<polygon fill="#63b8ff" stroke="#63b8ff" points="156.28,-74.66 146.77,-79.34 157.12,-81.61 156.28,-74.66"/>
</a>
</g>
</g>
<!-- Node4 -->
<g id="Node000004" class="node">
<title>Node4</title>
<g id="a_Node000004"><a xlink:href="classcrashpad_1_1StringHTTPBodyStream.html" target="_top" xlink:title="An implementation of HTTPBodyStream that turns a fixed string into a stream.">
<polygon fill="white" stroke="#666666" points="333.5,-36.5 193.75,-36.5 193.75,0 333.5,0 333.5,-36.5"/>
<text text-anchor="start" x="201.75" y="-23" font-family="Noto Sans, Lucida Grande, Lucida Sans Unicode, Helvetica, Arial, sans-serif" font-size="10.00">crashpad::StringHTTPBody</text>
<text text-anchor="middle" x="263.62" y="-8.75" font-family="Noto Sans, Lucida Grande, Lucida Sans Unicode, Helvetica, Arial, sans-serif" font-size="10.00">Stream</text>
</a>
</g>
</g>
<!-- Node0&#45;&gt;Node4 -->
<g id="edge37_Node000000_Node000004" class="edge">
<title>Node0&#45;&gt;Node4</title>
<g id="a_edge37_Node000000_Node000004"><a xlink:title=" ">
<path fill="none" stroke="#63b8ff" d="M111.64,-72.34C132.09,-63.97 157.79,-53.72 181,-45.25 188.57,-42.49 196.58,-39.69 204.51,-36.99"/>
<polygon fill="#63b8ff" stroke="#63b8ff" points="110.48,-69.03 102.56,-76.07 113.14,-75.5 110.48,-69.03"/>
</a>
</g>
</g>
</g>
</svg>
