<?xml version="1.0" encoding="UTF-8" standalone="no"?>
<!DOCTYPE svg PUBLIC "-//W3C//DTD SVG 1.1//EN"
 "http://www.w3.org/Graphics/SVG/1.1/DTD/svg11.dtd">
<!-- Generated by graphviz version 12.2.1 (20241206.2353)
 -->
<!-- Title: Graphical Class Hierarchy Pages: 1 -->
<svg width="362pt" height="124pt"
 viewBox="0.00 0.00 361.75 124.38" xmlns="http://www.w3.org/2000/svg" xmlns:xlink="http://www.w3.org/1999/xlink">
<g id="graph0" class="graph" transform="scale(1 1) rotate(0) translate(4 120.38)">
<title>Graphical Class Hierarchy</title>
<!-- Node0 -->
<g id="Node000000" class="node">
<title>Node0</title>
<g id="a_Node000000"><a xlink:href="classcrashpad_1_1PtraceConnection.html" target="_top" xlink:title="Provides an interface for making ptrace requests against a process and its threads.">
<polygon fill="white" stroke="#666666" points="145,-76.38 0,-76.38 0,-54.12 145,-54.12 145,-76.38"/>
<text text-anchor="middle" x="72.5" y="-62.88" font-family="Noto Sans, Lucida Grande, Lucida Sans Unicode, Helvetica, Arial, sans-serif" font-size="10.00">crashpad::PtraceConnection</text>
</a>
</g>
</g>
<!-- Node1 -->
<g id="Node000001" class="node">
<title>Node1</title>
<g id="a_Node000001"><a xlink:href="classcrashpad_1_1DirectPtraceConnection.html" target="_top" xlink:title="Manages a direct ptrace connection to a process.">
<polygon fill="white" stroke="#666666" points="353.75,-116.38 181,-116.38 181,-94.12 353.75,-94.12 353.75,-116.38"/>
<text text-anchor="middle" x="267.38" y="-102.88" font-family="Noto Sans, Lucida Grande, Lucida Sans Unicode, Helvetica, Arial, sans-serif" font-size="10.00">crashpad::DirectPtraceConnection</text>
</a>
</g>
</g>
<!-- Node0&#45;&gt;Node1 -->
<g id="edge145_Node000000_Node000001" class="edge">
<title>Node0&#45;&gt;Node1</title>
<g id="a_edge145_Node000000_Node000001"><a xlink:title=" ">
<path fill="none" stroke="#63b8ff" d="M140.54,-79.15C163.38,-83.89 188.65,-89.13 210.52,-93.67"/>
<polygon fill="#63b8ff" stroke="#63b8ff" points="141.53,-75.78 131.03,-77.18 140.11,-82.64 141.53,-75.78"/>
</a>
</g>
</g>
<!-- Node2 -->
<g id="Node000002" class="node">
<title>Node2</title>
<g id="a_Node000002"><a xlink:href="classcrashpad_1_1PtraceClient.html" target="_top" xlink:title="Implements a PtraceConnection over a socket.">
<polygon fill="white" stroke="#666666" points="326.75,-76.38 208,-76.38 208,-54.12 326.75,-54.12 326.75,-76.38"/>
<text text-anchor="middle" x="267.38" y="-62.88" font-family="Noto Sans, Lucida Grande, Lucida Sans Unicode, Helvetica, Arial, sans-serif" font-size="10.00">crashpad::PtraceClient</text>
</a>
</g>
</g>
<!-- Node0&#45;&gt;Node2 -->
<g id="edge146_Node000000_Node000002" class="edge">
<title>Node0&#45;&gt;Node2</title>
<g id="a_edge146_Node000000_Node000002"><a xlink:title=" ">
<path fill="none" stroke="#63b8ff" d="M156.54,-65.25C173.77,-65.25 191.58,-65.25 207.72,-65.25"/>
<polygon fill="#63b8ff" stroke="#63b8ff" points="156.83,-61.75 146.83,-65.25 156.83,-68.75 156.83,-61.75"/>
</a>
</g>
</g>
<!-- Node3 -->
<g id="Node000003" class="node">
<title>Node3</title>
<g id="a_Node000003"><a xlink:href="classcrashpad_1_1test_1_1FakePtraceConnection.html" target="_top" xlink:title="Stands&#45;in where real PtraceConnections aren&#39;t available.">
<polygon fill="white" stroke="#666666" points="336.5,-36.5 198.25,-36.5 198.25,0 336.5,0 336.5,-36.5"/>
<text text-anchor="start" x="206.25" y="-23" font-family="Noto Sans, Lucida Grande, Lucida Sans Unicode, Helvetica, Arial, sans-serif" font-size="10.00">crashpad::test::FakePtrace</text>
<text text-anchor="middle" x="267.38" y="-8.75" font-family="Noto Sans, Lucida Grande, Lucida Sans Unicode, Helvetica, Arial, sans-serif" font-size="10.00">Connection</text>
</a>
</g>
</g>
<!-- Node0&#45;&gt;Node3 -->
<g id="edge147_Node000000_Node000003" class="edge">
<title>Node0&#45;&gt;Node3</title>
<g id="a_edge147_Node000000_Node000003"><a xlink:title=" ">
<path fill="none" stroke="#63b8ff" d="M132.34,-50.91C153,-45.88 176.38,-40.18 197.77,-34.97"/>
<polygon fill="#63b8ff" stroke="#63b8ff" points="131.53,-47.51 122.65,-53.27 133.19,-54.31 131.53,-47.51"/>
</a>
</g>
</g>
</g>
</svg>
