<?xml version="1.0" encoding="UTF-8" standalone="no"?>
<!DOCTYPE svg PUBLIC "-//W3C//DTD SVG 1.1//EN"
 "http://www.w3.org/Graphics/SVG/1.1/DTD/svg11.dtd">
<!-- Generated by graphviz version 12.2.1 (20241206.2353)
 -->
<!-- Title: Graphical Class Hierarchy Pages: 1 -->
<svg width="393pt" height="398pt"
 viewBox="0.00 0.00 392.50 397.50" xmlns="http://www.w3.org/2000/svg" xmlns:xlink="http://www.w3.org/1999/xlink">
<g id="graph0" class="graph" transform="scale(1 1) rotate(0) translate(4 393.5)">
<title>Graphical Class Hierarchy</title>
<!-- Node0 -->
<g id="Node000000" class="node">
<title>Node0</title>
<g id="a_Node000000"><a xlink:href="classcrashpad_1_1ProcessSnapshot.html" target="_top" xlink:title="An abstract interface to a snapshot representing the state of a process.">
<polygon fill="white" stroke="#666666" points="141.25,-205.38 0,-205.38 0,-183.12 141.25,-183.12 141.25,-205.38"/>
<text text-anchor="middle" x="70.62" y="-191.88" font-family="Noto Sans, Lucida Grande, Lucida Sans Unicode, Helvetica, Arial, sans-serif" font-size="10.00">crashpad::ProcessSnapshot</text>
</a>
</g>
</g>
<!-- Node1 -->
<g id="Node000001" class="node">
<title>Node1</title>
<g id="a_Node000001"><a xlink:href="classcrashpad_1_1ProcessSnapshotFuchsia.html" target="_top" xlink:title="A ProcessSnapshot of a running (or crashed) process running on a Fuchsia system. This class is not ye...">
<polygon fill="white" stroke="#666666" points="351.5,-389.5 210.25,-389.5 210.25,-353 351.5,-353 351.5,-389.5"/>
<text text-anchor="start" x="218.25" y="-376" font-family="Noto Sans, Lucida Grande, Lucida Sans Unicode, Helvetica, Arial, sans-serif" font-size="10.00">crashpad::ProcessSnapshot</text>
<text text-anchor="middle" x="280.88" y="-361.75" font-family="Noto Sans, Lucida Grande, Lucida Sans Unicode, Helvetica, Arial, sans-serif" font-size="10.00">Fuchsia</text>
</a>
</g>
</g>
<!-- Node0&#45;&gt;Node1 -->
<g id="edge134_Node000000_Node000001" class="edge">
<title>Node0&#45;&gt;Node1</title>
<g id="a_edge134_Node000000_Node000001"><a xlink:title=" ">
<path fill="none" stroke="#63b8ff" d="M81.02,-215.85C96.34,-248.49 129.83,-310.09 177.25,-343.25 187.01,-350.08 198.37,-355.24 209.9,-359.15"/>
<polygon fill="#63b8ff" stroke="#63b8ff" points="84.32,-214.64 76.99,-206.99 77.94,-217.54 84.32,-214.64"/>
</a>
</g>
</g>
<!-- Node2 -->
<g id="Node000002" class="node">
<title>Node2</title>
<g id="a_Node000002"><a xlink:href="classcrashpad_1_1ProcessSnapshotLinux.html" target="_top" xlink:title="A ProcessSnapshot of a running (or crashed) process running on a Linux system.">
<polygon fill="white" stroke="#666666" points="351.5,-334.5 210.25,-334.5 210.25,-298 351.5,-298 351.5,-334.5"/>
<text text-anchor="start" x="218.25" y="-321" font-family="Noto Sans, Lucida Grande, Lucida Sans Unicode, Helvetica, Arial, sans-serif" font-size="10.00">crashpad::ProcessSnapshot</text>
<text text-anchor="middle" x="280.88" y="-306.75" font-family="Noto Sans, Lucida Grande, Lucida Sans Unicode, Helvetica, Arial, sans-serif" font-size="10.00">Linux</text>
</a>
</g>
</g>
<!-- Node0&#45;&gt;Node2 -->
<g id="edge135_Node000000_Node000002" class="edge">
<title>Node0&#45;&gt;Node2</title>
<g id="a_edge135_Node000000_Node000002"><a xlink:title=" ">
<path fill="none" stroke="#63b8ff" d="M88.47,-214.25C107.76,-235.89 141.36,-269.88 177.25,-289.25 187.38,-294.72 198.69,-299.13 209.98,-302.66"/>
<polygon fill="#63b8ff" stroke="#63b8ff" points="91.32,-212.2 82.11,-206.96 86.04,-216.8 91.32,-212.2"/>
</a>
</g>
</g>
<!-- Node3 -->
<g id="Node000003" class="node">
<title>Node3</title>
<g id="a_Node000003"><a xlink:href="classcrashpad_1_1ProcessSnapshotMac.html" target="_top" xlink:title="A ProcessSnapshot of a running (or crashed) process running on a macOS system.">
<polygon fill="white" stroke="#666666" points="360.88,-280.38 200.88,-280.38 200.88,-258.12 360.88,-258.12 360.88,-280.38"/>
<text text-anchor="middle" x="280.88" y="-266.88" font-family="Noto Sans, Lucida Grande, Lucida Sans Unicode, Helvetica, Arial, sans-serif" font-size="10.00">crashpad::ProcessSnapshotMac</text>
</a>
</g>
</g>
<!-- Node0&#45;&gt;Node3 -->
<g id="edge136_Node000000_Node000003" class="edge">
<title>Node0&#45;&gt;Node3</title>
<g id="a_edge136_Node000000_Node000003"><a xlink:title=" ">
<path fill="none" stroke="#63b8ff" d="M99.32,-211.49C120.07,-223.7 149.53,-239.56 177.25,-249.25 186.59,-252.51 196.6,-255.3 206.58,-257.65"/>
<polygon fill="#63b8ff" stroke="#63b8ff" points="101.27,-208.58 90.9,-206.44 97.67,-214.59 101.27,-208.58"/>
</a>
</g>
</g>
<!-- Node4 -->
<g id="Node000004" class="node">
<title>Node4</title>
<g id="a_Node000004"><a xlink:href="classcrashpad_1_1ProcessSnapshotMinidump.html" target="_top" xlink:title="A ProcessSnapshot based on a minidump file.">
<polygon fill="white" stroke="#666666" points="351.5,-240.5 210.25,-240.5 210.25,-204 351.5,-204 351.5,-240.5"/>
<text text-anchor="start" x="218.25" y="-227" font-family="Noto Sans, Lucida Grande, Lucida Sans Unicode, Helvetica, Arial, sans-serif" font-size="10.00">crashpad::ProcessSnapshot</text>
<text text-anchor="middle" x="280.88" y="-212.75" font-family="Noto Sans, Lucida Grande, Lucida Sans Unicode, Helvetica, Arial, sans-serif" font-size="10.00">Minidump</text>
</a>
</g>
</g>
<!-- Node0&#45;&gt;Node4 -->
<g id="edge137_Node000000_Node000004" class="edge">
<title>Node0&#45;&gt;Node4</title>
<g id="a_edge137_Node000000_Node000004"><a xlink:title=" ">
<path fill="none" stroke="#63b8ff" d="M152.8,-205.16C171.61,-207.69 191.49,-210.37 209.78,-212.83"/>
<polygon fill="#63b8ff" stroke="#63b8ff" points="153.43,-201.72 143.05,-203.85 152.49,-208.65 153.43,-201.72"/>
</a>
</g>
</g>
<!-- Node5 -->
<g id="Node000005" class="node">
<title>Node5</title>
<g id="a_Node000005"><a xlink:href="classcrashpad_1_1ProcessSnapshotSanitized.html" target="_top" xlink:title="A ProcessSnapshot which wraps and filters sensitive information from another ProcessSnapshot.">
<polygon fill="white" stroke="#666666" points="351.5,-185.5 210.25,-185.5 210.25,-149 351.5,-149 351.5,-185.5"/>
<text text-anchor="start" x="218.25" y="-172" font-family="Noto Sans, Lucida Grande, Lucida Sans Unicode, Helvetica, Arial, sans-serif" font-size="10.00">crashpad::ProcessSnapshot</text>
<text text-anchor="middle" x="280.88" y="-157.75" font-family="Noto Sans, Lucida Grande, Lucida Sans Unicode, Helvetica, Arial, sans-serif" font-size="10.00">Sanitized</text>
</a>
</g>
</g>
<!-- Node0&#45;&gt;Node5 -->
<g id="edge138_Node000000_Node000005" class="edge">
<title>Node0&#45;&gt;Node5</title>
<g id="a_edge138_Node000000_Node000005"><a xlink:title=" ">
<path fill="none" stroke="#63b8ff" d="M152.8,-183.73C171.61,-181.29 191.49,-178.71 209.78,-176.34"/>
<polygon fill="#63b8ff" stroke="#63b8ff" points="152.52,-180.23 143.05,-184.99 153.42,-187.17 152.52,-180.23"/>
</a>
</g>
</g>
<!-- Node6 -->
<g id="Node000006" class="node">
<title>Node6</title>
<g id="a_Node000006"><a xlink:href="classcrashpad_1_1ProcessSnapshotWin.html" target="_top" xlink:title="A ProcessSnapshot of a running (or crashed) process running on a Windows system.">
<polygon fill="white" stroke="#666666" points="360.12,-131.38 201.62,-131.38 201.62,-109.12 360.12,-109.12 360.12,-131.38"/>
<text text-anchor="middle" x="280.88" y="-117.88" font-family="Noto Sans, Lucida Grande, Lucida Sans Unicode, Helvetica, Arial, sans-serif" font-size="10.00">crashpad::ProcessSnapshotWin</text>
</a>
</g>
</g>
<!-- Node0&#45;&gt;Node6 -->
<g id="edge139_Node000000_Node000006" class="edge">
<title>Node0&#45;&gt;Node6</title>
<g id="a_edge139_Node000000_Node000006"><a xlink:title=" ">
<path fill="none" stroke="#63b8ff" d="M99.74,-177.13C120.48,-165.18 149.77,-149.74 177.25,-140.25 186.69,-136.99 196.81,-134.21 206.88,-131.85"/>
<polygon fill="#63b8ff" stroke="#63b8ff" points="98.16,-173.99 91.31,-182.07 101.7,-180.03 98.16,-173.99"/>
</a>
</g>
</g>
<!-- Node7 -->
<g id="Node000007" class="node">
<title>Node7</title>
<g id="a_Node000007"><a xlink:href="classcrashpad_1_1internal_1_1ProcessSnapshotIOSIntermediateDump.html" target="_top" xlink:title="A ProcessSnapshot of a running (or crashed) process running on a iphoneOS system.">
<polygon fill="white" stroke="#666666" points="384.5,-91.5 177.25,-91.5 177.25,-55 384.5,-55 384.5,-91.5"/>
<text text-anchor="start" x="185.25" y="-78" font-family="Noto Sans, Lucida Grande, Lucida Sans Unicode, Helvetica, Arial, sans-serif" font-size="10.00">crashpad::internal</text>
<text text-anchor="middle" x="280.88" y="-63.75" font-family="Noto Sans, Lucida Grande, Lucida Sans Unicode, Helvetica, Arial, sans-serif" font-size="10.00">::ProcessSnapshotIOSIntermediateDump</text>
</a>
</g>
</g>
<!-- Node0&#45;&gt;Node7 -->
<g id="edge140_Node000000_Node000007" class="edge">
<title>Node0&#45;&gt;Node7</title>
<g id="a_edge140_Node000000_Node000007"><a xlink:title=" ">
<path fill="none" stroke="#63b8ff" d="M88.51,-174.46C107.84,-153.06 141.47,-119.44 177.25,-100.25 183.01,-97.16 189.15,-94.41 195.45,-91.96"/>
<polygon fill="#63b8ff" stroke="#63b8ff" points="86.14,-171.86 82.14,-181.68 91.39,-176.5 86.14,-171.86"/>
</a>
</g>
</g>
<!-- Node8 -->
<g id="Node000008" class="node">
<title>Node8</title>
<g id="a_Node000008"><a xlink:href="classcrashpad_1_1test_1_1TestProcessSnapshot.html" target="_top" xlink:title="A test ProcessSnapshot that can carry arbitrary data for testing purposes.">
<polygon fill="white" stroke="#666666" points="351.5,-36.5 210.25,-36.5 210.25,0 351.5,0 351.5,-36.5"/>
<text text-anchor="start" x="218.25" y="-23" font-family="Noto Sans, Lucida Grande, Lucida Sans Unicode, Helvetica, Arial, sans-serif" font-size="10.00">crashpad::test::TestProcess</text>
<text text-anchor="middle" x="280.88" y="-8.75" font-family="Noto Sans, Lucida Grande, Lucida Sans Unicode, Helvetica, Arial, sans-serif" font-size="10.00">Snapshot</text>
</a>
</g>
</g>
<!-- Node0&#45;&gt;Node8 -->
<g id="edge141_Node000000_Node000008" class="edge">
<title>Node0&#45;&gt;Node8</title>
<g id="a_edge141_Node000000_Node000008"><a xlink:title=" ">
<path fill="none" stroke="#63b8ff" d="M81.06,-172.79C96.44,-140.37 129.99,-79.19 177.25,-46.25 187.02,-39.44 198.39,-34.28 209.92,-30.38"/>
<polygon fill="#63b8ff" stroke="#63b8ff" points="78.01,-171.05 77.02,-181.59 84.37,-173.97 78.01,-171.05"/>
</a>
</g>
</g>
</g>
</svg>
