<?xml version="1.0" encoding="UTF-8" standalone="no"?>
<!DOCTYPE svg PUBLIC "-//W3C//DTD SVG 1.1//EN"
 "http://www.w3.org/Graphics/SVG/1.1/DTD/svg11.dtd">
<!-- Generated by graphviz version 12.2.1 (20241206.2353)
 -->
<!-- Title: Graphical Class Hierarchy Pages: 1 -->
<svg width="383pt" height="249pt"
 viewBox="0.00 0.00 382.75 248.50" xmlns="http://www.w3.org/2000/svg" xmlns:xlink="http://www.w3.org/1999/xlink">
<g id="graph0" class="graph" transform="scale(1 1) rotate(0) translate(4 244.5)">
<title>Graphical Class Hierarchy</title>
<!-- Node0 -->
<g id="Node000000" class="node">
<title>Node0</title>
<g id="a_Node000000"><a xlink:href="classcrashpad_1_1ExceptionHandlerServer_1_1Delegate.html" target="_top" xlink:title=" ">
<polygon fill="white" stroke="#666666" points="146.12,-226.5 0.38,-226.5 0.38,-190 146.12,-190 146.12,-226.5"/>
<text text-anchor="start" x="8.38" y="-213" font-family="Noto Sans, Lucida Grande, Lucida Sans Unicode, Helvetica, Arial, sans-serif" font-size="10.00">crashpad::ExceptionHandler</text>
<text text-anchor="middle" x="73.25" y="-198.75" font-family="Noto Sans, Lucida Grande, Lucida Sans Unicode, Helvetica, Arial, sans-serif" font-size="10.00">Server::Delegate</text>
</a>
</g>
</g>
<!-- Node1 -->
<g id="Node000001" class="node">
<title>Node1</title>
<g id="a_Node000001"><a xlink:href="classcrashpad_1_1CrashReportExceptionHandler.html" target="_top" xlink:title="An exception handler that writes crash reports for exceptions to a CrashReportDatabase.">
<polygon fill="white" stroke="#666666" points="361.62,-185.5 195.62,-185.5 195.62,-149 361.62,-149 361.62,-185.5"/>
<text text-anchor="start" x="203.62" y="-172" font-family="Noto Sans, Lucida Grande, Lucida Sans Unicode, Helvetica, Arial, sans-serif" font-size="10.00">crashpad::CrashReportException</text>
<text text-anchor="middle" x="278.62" y="-157.75" font-family="Noto Sans, Lucida Grande, Lucida Sans Unicode, Helvetica, Arial, sans-serif" font-size="10.00">Handler</text>
</a>
</g>
</g>
<!-- Node0&#45;&gt;Node1 -->
<g id="edge12_Node000000_Node000001" class="edge">
<title>Node0&#45;&gt;Node1</title>
<g id="a_edge12_Node000000_Node000001"><a xlink:title=" ">
<path fill="none" stroke="#63b8ff" d="M157.75,-191.42C170.11,-188.92 182.84,-186.36 195.18,-183.87"/>
<polygon fill="#63b8ff" stroke="#63b8ff" points="157.12,-187.97 148.01,-193.38 158.5,-194.84 157.12,-187.97"/>
</a>
</g>
</g>
<!-- Node7 -->
<g id="Node000007" class="node">
<title>Node7</title>
<g id="a_Node000007"><a xlink:href="classcrashpad_1_1CrosCrashReportExceptionHandler.html" target="_top" xlink:title="An exception handler that writes crash reports to the ChromeOS crash_reporter.">
<polygon fill="white" stroke="#666666" points="349.25,-240.5 208,-240.5 208,-204 349.25,-204 349.25,-240.5"/>
<text text-anchor="start" x="216" y="-227" font-family="Noto Sans, Lucida Grande, Lucida Sans Unicode, Helvetica, Arial, sans-serif" font-size="10.00">crashpad::CrosCrashReport</text>
<text text-anchor="middle" x="278.62" y="-212.75" font-family="Noto Sans, Lucida Grande, Lucida Sans Unicode, Helvetica, Arial, sans-serif" font-size="10.00">ExceptionHandler</text>
</a>
</g>
</g>
<!-- Node0&#45;&gt;Node7 -->
<g id="edge13_Node000000_Node000007" class="edge">
<title>Node0&#45;&gt;Node7</title>
<g id="a_edge13_Node000000_Node000007"><a xlink:title=" ">
<path fill="none" stroke="#63b8ff" d="M157.85,-214C174.39,-215.14 191.6,-216.33 207.63,-217.43"/>
<polygon fill="#63b8ff" stroke="#63b8ff" points="158.25,-210.52 148.04,-213.33 157.77,-217.51 158.25,-210.52"/>
</a>
</g>
</g>
<!-- Node2 -->
<g id="Node000002" class="node">
<title>Node2</title>
<g id="a_Node000002"><a xlink:href="classcrashpad_1_1UniversalMachExcServer_1_1Interface.html" target="_top" xlink:title="An interface that the different request messages that are a part of the exc and mach_exc Mach subsyst...">
<polygon fill="white" stroke="#666666" points="146.5,-144.5 0,-144.5 0,-108 146.5,-108 146.5,-144.5"/>
<text text-anchor="start" x="8" y="-131" font-family="Noto Sans, Lucida Grande, Lucida Sans Unicode, Helvetica, Arial, sans-serif" font-size="10.00">crashpad::UniversalMachExc</text>
<text text-anchor="middle" x="73.25" y="-116.75" font-family="Noto Sans, Lucida Grande, Lucida Sans Unicode, Helvetica, Arial, sans-serif" font-size="10.00">Server::Interface</text>
</a>
</g>
</g>
<!-- Node2&#45;&gt;Node1 -->
<g id="edge14_Node000002_Node000001" class="edge">
<title>Node2&#45;&gt;Node1</title>
<g id="a_edge14_Node000002_Node000001"><a xlink:title=" ">
<path fill="none" stroke="#63b8ff" d="M158.03,-143.14C170.37,-145.63 183.08,-148.19 195.4,-150.67"/>
<polygon fill="#63b8ff" stroke="#63b8ff" points="158.79,-139.72 148.3,-141.18 157.41,-146.58 158.79,-139.72"/>
</a>
</g>
</g>
<!-- Node3 -->
<g id="Node000003" class="node">
<title>Node3</title>
<g id="a_Node000003"><a xlink:href="classcrashpad_1_1test_1_1ExceptionSwallower_1_1ExceptionSwallowerThread.html" target="_top" xlink:title=" ">
<polygon fill="white" stroke="#666666" points="374.75,-130.5 182.5,-130.5 182.5,-94 374.75,-94 374.75,-130.5"/>
<text text-anchor="start" x="190.5" y="-117" font-family="Noto Sans, Lucida Grande, Lucida Sans Unicode, Helvetica, Arial, sans-serif" font-size="10.00">crashpad::test::Exception</text>
<text text-anchor="middle" x="278.62" y="-102.75" font-family="Noto Sans, Lucida Grande, Lucida Sans Unicode, Helvetica, Arial, sans-serif" font-size="10.00">Swallower::ExceptionSwallowerThread</text>
</a>
</g>
</g>
<!-- Node2&#45;&gt;Node3 -->
<g id="edge15_Node000002_Node000003" class="edge">
<title>Node2&#45;&gt;Node3</title>
<g id="a_edge15_Node000002_Node000003"><a xlink:title=" ">
<path fill="none" stroke="#63b8ff" d="M158.03,-120.48C166.05,-119.93 174.23,-119.37 182.35,-118.81"/>
<polygon fill="#63b8ff" stroke="#63b8ff" points="158.06,-116.97 148.32,-121.15 158.54,-123.96 158.06,-116.97"/>
</a>
</g>
</g>
<!-- Node4 -->
<g id="Node000004" class="node">
<title>Node4</title>
<g id="a_Node000004"><a xlink:href="classcrashpad_1_1Thread.html" target="_top" xlink:title="Basic thread abstraction. Users should derive from this class and implement ThreadMain().">
<polygon fill="white" stroke="#666666" points="121,-76.38 25.5,-76.38 25.5,-54.12 121,-54.12 121,-76.38"/>
<text text-anchor="middle" x="73.25" y="-62.88" font-family="Noto Sans, Lucida Grande, Lucida Sans Unicode, Helvetica, Arial, sans-serif" font-size="10.00">crashpad::Thread</text>
</a>
</g>
</g>
<!-- Node4&#45;&gt;Node3 -->
<g id="edge18_Node000004_Node000003" class="edge">
<title>Node4&#45;&gt;Node3</title>
<g id="a_edge18_Node000004_Node000003"><a xlink:title=" ">
<path fill="none" stroke="#63b8ff" d="M132.55,-78.72C152.57,-83.35 175.36,-88.62 196.84,-93.58"/>
<polygon fill="#63b8ff" stroke="#63b8ff" points="133.43,-75.33 122.89,-76.49 131.85,-82.15 133.43,-75.33"/>
</a>
</g>
</g>
<!-- Node5 -->
<g id="Node000005" class="node">
<title>Node5</title>
<g id="a_Node000005"><a xlink:href="classcrashpad_1_1SessionEndWatcher.html" target="_top" xlink:title="Creates a hidden window and waits for a WM_ENDSESSION message, indicating that the session is ending ...">
<polygon fill="white" stroke="#666666" points="355.62,-76.38 201.62,-76.38 201.62,-54.12 355.62,-54.12 355.62,-76.38"/>
<text text-anchor="middle" x="278.62" y="-62.88" font-family="Noto Sans, Lucida Grande, Lucida Sans Unicode, Helvetica, Arial, sans-serif" font-size="10.00">crashpad::SessionEndWatcher</text>
</a>
</g>
</g>
<!-- Node4&#45;&gt;Node5 -->
<g id="edge16_Node000004_Node000005" class="edge">
<title>Node4&#45;&gt;Node5</title>
<g id="a_edge16_Node000004_Node000005"><a xlink:title=" ">
<path fill="none" stroke="#63b8ff" d="M132.91,-65.25C154.22,-65.25 178.63,-65.25 201.24,-65.25"/>
<polygon fill="#63b8ff" stroke="#63b8ff" points="132.93,-61.75 122.93,-65.25 132.93,-68.75 132.93,-61.75"/>
</a>
</g>
</g>
<!-- Node6 -->
<g id="Node000006" class="node">
<title>Node6</title>
<g id="a_Node000006"><a xlink:href="classcrashpad_1_1internal_1_1WorkerThreadImpl.html" target="_top" xlink:title=" ">
<polygon fill="white" stroke="#666666" points="333.88,-36.5 223.38,-36.5 223.38,0 333.88,0 333.88,-36.5"/>
<text text-anchor="start" x="231.38" y="-23" font-family="Noto Sans, Lucida Grande, Lucida Sans Unicode, Helvetica, Arial, sans-serif" font-size="10.00">crashpad::internal</text>
<text text-anchor="middle" x="278.62" y="-8.75" font-family="Noto Sans, Lucida Grande, Lucida Sans Unicode, Helvetica, Arial, sans-serif" font-size="10.00">::WorkerThreadImpl</text>
</a>
</g>
</g>
<!-- Node4&#45;&gt;Node6 -->
<g id="edge17_Node000004_Node000006" class="edge">
<title>Node4&#45;&gt;Node6</title>
<g id="a_edge17_Node000004_Node000006"><a xlink:title=" ">
<path fill="none" stroke="#63b8ff" d="M132.46,-51.8C160.99,-45.2 195.15,-37.31 223.16,-30.84"/>
<polygon fill="#63b8ff" stroke="#63b8ff" points="131.85,-48.35 122.89,-54.01 133.43,-55.17 131.85,-48.35"/>
</a>
</g>
</g>
</g>
</svg>
