<?xml version="1.0" encoding="UTF-8" standalone="no"?>
<!DOCTYPE svg PUBLIC "-//W3C//DTD SVG 1.1//EN"
 "http://www.w3.org/Graphics/SVG/1.1/DTD/svg11.dtd">
<!-- Generated by graphviz version 12.2.1 (20241206.2353)
 -->
<!-- Title: Graphical Class Hierarchy Pages: 1 -->
<svg width="402pt" height="265pt"
 viewBox="0.00 0.00 401.50 264.50" xmlns="http://www.w3.org/2000/svg" xmlns:xlink="http://www.w3.org/1999/xlink">
<g id="graph0" class="graph" transform="scale(1 1) rotate(0) translate(4 260.5)">
<title>Graphical Class Hierarchy</title>
<!-- Node0 -->
<g id="Node000000" class="node">
<title>Node0</title>
<g id="a_Node000000"><a xlink:href="classcrashpad_1_1MemorySnapshot.html" target="_top" xlink:title="An abstract interface to a snapshot representing a region of memory present in a snapshot process.">
<polygon fill="white" stroke="#666666" points="145.75,-139.38 0,-139.38 0,-117.12 145.75,-117.12 145.75,-139.38"/>
<text text-anchor="middle" x="72.88" y="-125.88" font-family="Noto Sans, Lucida Grande, Lucida Sans Unicode, Helvetica, Arial, sans-serif" font-size="10.00">crashpad::MemorySnapshot</text>
</a>
</g>
</g>
<!-- Node1 -->
<g id="Node000001" class="node">
<title>Node1</title>
<g id="a_Node000001"><a xlink:href="classcrashpad_1_1internal_1_1MemorySnapshotGeneric.html" target="_top" xlink:title="A MemorySnapshot of a memory region in a process on the running system. Works on multiple platforms b...">
<polygon fill="white" stroke="#666666" points="358.25,-256.5 217,-256.5 217,-220 358.25,-220 358.25,-256.5"/>
<text text-anchor="start" x="225" y="-243" font-family="Noto Sans, Lucida Grande, Lucida Sans Unicode, Helvetica, Arial, sans-serif" font-size="10.00">crashpad::internal</text>
<text text-anchor="middle" x="287.62" y="-228.75" font-family="Noto Sans, Lucida Grande, Lucida Sans Unicode, Helvetica, Arial, sans-serif" font-size="10.00">::MemorySnapshotGeneric</text>
</a>
</g>
</g>
<!-- Node0&#45;&gt;Node1 -->
<g id="edge55_Node000000_Node000001" class="edge">
<title>Node0&#45;&gt;Node1</title>
<g id="a_edge55_Node000000_Node000001"><a xlink:title=" ">
<path fill="none" stroke="#63b8ff" d="M93.97,-147.42C114.51,-166.01 148.07,-193.76 181.75,-210.25 192.67,-215.6 204.74,-220.03 216.69,-223.66"/>
<polygon fill="#63b8ff" stroke="#63b8ff" points="96.59,-145.07 86.87,-140.86 91.84,-150.21 96.59,-145.07"/>
</a>
</g>
</g>
<!-- Node2 -->
<g id="Node000002" class="node">
<title>Node2</title>
<g id="a_Node000002"><a xlink:href="classcrashpad_1_1internal_1_1MemorySnapshotIOSIntermediateDump.html" target="_top" xlink:title="A MemorySnapshot of a memory region.">
<polygon fill="white" stroke="#666666" points="393.5,-201.5 181.75,-201.5 181.75,-165 393.5,-165 393.5,-201.5"/>
<text text-anchor="start" x="189.75" y="-188" font-family="Noto Sans, Lucida Grande, Lucida Sans Unicode, Helvetica, Arial, sans-serif" font-size="10.00">crashpad::internal</text>
<text text-anchor="middle" x="287.62" y="-173.75" font-family="Noto Sans, Lucida Grande, Lucida Sans Unicode, Helvetica, Arial, sans-serif" font-size="10.00">::MemorySnapshotIOSIntermediateDump</text>
</a>
</g>
</g>
<!-- Node0&#45;&gt;Node2 -->
<g id="edge56_Node000000_Node000002" class="edge">
<title>Node0&#45;&gt;Node2</title>
<g id="a_edge56_Node000000_Node000002"><a xlink:title=" ">
<path fill="none" stroke="#63b8ff" d="M129.83,-142.72C155.65,-149.39 186.63,-157.4 214.2,-164.53"/>
<polygon fill="#63b8ff" stroke="#63b8ff" points="130.76,-139.34 120.2,-140.23 129,-146.12 130.76,-139.34"/>
</a>
</g>
</g>
<!-- Node3 -->
<g id="Node000003" class="node">
<title>Node3</title>
<g id="a_Node000003"><a xlink:href="classcrashpad_1_1internal_1_1MemorySnapshotMinidump.html" target="_top" xlink:title=" ">
<polygon fill="white" stroke="#666666" points="363.12,-146.5 212.12,-146.5 212.12,-110 363.12,-110 363.12,-146.5"/>
<text text-anchor="start" x="220.12" y="-133" font-family="Noto Sans, Lucida Grande, Lucida Sans Unicode, Helvetica, Arial, sans-serif" font-size="10.00">crashpad::internal</text>
<text text-anchor="middle" x="287.62" y="-118.75" font-family="Noto Sans, Lucida Grande, Lucida Sans Unicode, Helvetica, Arial, sans-serif" font-size="10.00">::MemorySnapshotMinidump</text>
</a>
</g>
</g>
<!-- Node0&#45;&gt;Node3 -->
<g id="edge57_Node000000_Node000003" class="edge">
<title>Node0&#45;&gt;Node3</title>
<g id="a_edge57_Node000000_Node000003"><a xlink:title=" ">
<path fill="none" stroke="#63b8ff" d="M157.55,-128.25C175.51,-128.25 194.37,-128.25 211.96,-128.25"/>
<polygon fill="#63b8ff" stroke="#63b8ff" points="157.71,-124.75 147.71,-128.25 157.71,-131.75 157.71,-124.75"/>
</a>
</g>
</g>
<!-- Node4 -->
<g id="Node000004" class="node">
<title>Node4</title>
<g id="a_Node000004"><a xlink:href="classcrashpad_1_1internal_1_1MemorySnapshotSanitized.html" target="_top" xlink:title="A MemorySnapshot which wraps and filters sensitive information from another MemorySnapshot.">
<polygon fill="white" stroke="#666666" points="360.5,-91.5 214.75,-91.5 214.75,-55 360.5,-55 360.5,-91.5"/>
<text text-anchor="start" x="222.75" y="-78" font-family="Noto Sans, Lucida Grande, Lucida Sans Unicode, Helvetica, Arial, sans-serif" font-size="10.00">crashpad::internal</text>
<text text-anchor="middle" x="287.62" y="-63.75" font-family="Noto Sans, Lucida Grande, Lucida Sans Unicode, Helvetica, Arial, sans-serif" font-size="10.00">::MemorySnapshotSanitized</text>
</a>
</g>
</g>
<!-- Node0&#45;&gt;Node4 -->
<g id="edge58_Node000000_Node000004" class="edge">
<title>Node0&#45;&gt;Node4</title>
<g id="a_edge58_Node000000_Node000004"><a xlink:title=" ">
<path fill="none" stroke="#63b8ff" d="M129.88,-113.77C155.82,-107.07 186.96,-99.02 214.62,-91.87"/>
<polygon fill="#63b8ff" stroke="#63b8ff" points="129,-110.38 120.2,-116.27 130.76,-117.16 129,-110.38"/>
</a>
</g>
</g>
<!-- Node5 -->
<g id="Node000005" class="node">
<title>Node5</title>
<g id="a_Node000005"><a xlink:href="classcrashpad_1_1test_1_1TestMemorySnapshot.html" target="_top" xlink:title="A test MemorySnapshot that can carry arbitrary data for testing purposes.">
<polygon fill="white" stroke="#666666" points="360.5,-36.5 214.75,-36.5 214.75,0 360.5,0 360.5,-36.5"/>
<text text-anchor="start" x="222.75" y="-23" font-family="Noto Sans, Lucida Grande, Lucida Sans Unicode, Helvetica, Arial, sans-serif" font-size="10.00">crashpad::test::TestMemory</text>
<text text-anchor="middle" x="287.62" y="-8.75" font-family="Noto Sans, Lucida Grande, Lucida Sans Unicode, Helvetica, Arial, sans-serif" font-size="10.00">Snapshot</text>
</a>
</g>
</g>
<!-- Node0&#45;&gt;Node5 -->
<g id="edge59_Node000000_Node000005" class="edge">
<title>Node0&#45;&gt;Node5</title>
<g id="a_edge59_Node000000_Node000005"><a xlink:title=" ">
<path fill="none" stroke="#63b8ff" d="M93.97,-109.08C114.51,-90.49 148.07,-62.74 181.75,-46.25 191.99,-41.24 203.25,-37.03 214.47,-33.52"/>
<polygon fill="#63b8ff" stroke="#63b8ff" points="91.84,-106.29 86.87,-115.64 96.59,-111.43 91.84,-106.29"/>
</a>
</g>
</g>
</g>
</svg>
