<?xml version="1.0" encoding="UTF-8" standalone="no"?>
<!DOCTYPE svg PUBLIC "-//W3C//DTD SVG 1.1//EN"
 "http://www.w3.org/Graphics/SVG/1.1/DTD/svg11.dtd">
<!-- Generated by graphviz version 12.2.1 (20241206.2353)
 -->
<!-- Title: Graphical Class Hierarchy Pages: 1 -->
<svg width="337pt" height="155pt"
 viewBox="0.00 0.00 337.00 154.50" xmlns="http://www.w3.org/2000/svg" xmlns:xlink="http://www.w3.org/1999/xlink">
<g id="graph0" class="graph" transform="scale(1 1) rotate(0) translate(4 150.5)">
<title>Graphical Class Hierarchy</title>
<!-- Node0 -->
<g id="Node000000" class="node">
<title>Node0</title>
<g id="a_Node000000"><a xlink:href="classcrashpad_1_1WorkerThread_1_1Delegate.html" target="_top" xlink:title="An interface for doing work on a WorkerThread.">
<polygon fill="white" stroke="#666666" points="130.75,-114.5 0,-114.5 0,-78 130.75,-78 130.75,-114.5"/>
<text text-anchor="start" x="8" y="-101" font-family="Noto Sans, Lucida Grande, Lucida Sans Unicode, Helvetica, Arial, sans-serif" font-size="10.00">crashpad::WorkerThread</text>
<text text-anchor="middle" x="65.38" y="-86.75" font-family="Noto Sans, Lucida Grande, Lucida Sans Unicode, Helvetica, Arial, sans-serif" font-size="10.00">::Delegate</text>
</a>
</g>
</g>
<!-- Node1 -->
<g id="Node000001" class="node">
<title>Node1</title>
<g id="a_Node000001"><a xlink:href="classcrashpad_1_1CrashReportUploadThread.html" target="_top" xlink:title="A thread that processes pending crash reports in a CrashReportDatabase by uploading them or marking t...">
<polygon fill="white" stroke="#666666" points="324.88,-146.5 170.88,-146.5 170.88,-110 324.88,-110 324.88,-146.5"/>
<text text-anchor="start" x="178.88" y="-133" font-family="Noto Sans, Lucida Grande, Lucida Sans Unicode, Helvetica, Arial, sans-serif" font-size="10.00">crashpad::CrashReportUpload</text>
<text text-anchor="middle" x="247.88" y="-118.75" font-family="Noto Sans, Lucida Grande, Lucida Sans Unicode, Helvetica, Arial, sans-serif" font-size="10.00">Thread</text>
</a>
</g>
</g>
<!-- Node0&#45;&gt;Node1 -->
<g id="edge166_Node000000_Node000001" class="edge">
<title>Node0&#45;&gt;Node1</title>
<g id="a_edge166_Node000000_Node000001"><a xlink:title=" ">
<path fill="none" stroke="#63b8ff" d="M142.33,-109.72C151.71,-111.38 161.29,-113.08 170.67,-114.74"/>
<polygon fill="#63b8ff" stroke="#63b8ff" points="142.98,-106.28 132.52,-107.98 141.76,-113.17 142.98,-106.28"/>
</a>
</g>
</g>
<!-- Node3 -->
<g id="Node000003" class="node">
<title>Node3</title>
<g id="a_Node000003"><a xlink:href="classcrashpad_1_1PruneCrashReportThread.html" target="_top" xlink:title="A thread that periodically prunes crash reports from the database using the specified condition.">
<polygon fill="white" stroke="#666666" points="322.62,-91.5 173.12,-91.5 173.12,-55 322.62,-55 322.62,-91.5"/>
<text text-anchor="start" x="181.12" y="-78" font-family="Noto Sans, Lucida Grande, Lucida Sans Unicode, Helvetica, Arial, sans-serif" font-size="10.00">crashpad::PruneCrashReport</text>
<text text-anchor="middle" x="247.88" y="-63.75" font-family="Noto Sans, Lucida Grande, Lucida Sans Unicode, Helvetica, Arial, sans-serif" font-size="10.00">Thread</text>
</a>
</g>
</g>
<!-- Node0&#45;&gt;Node3 -->
<g id="edge167_Node000000_Node000003" class="edge">
<title>Node0&#45;&gt;Node3</title>
<g id="a_edge167_Node000000_Node000003"><a xlink:title=" ">
<path fill="none" stroke="#63b8ff" d="M142.31,-86.57C152.42,-85.29 162.77,-83.97 172.85,-82.68"/>
<polygon fill="#63b8ff" stroke="#63b8ff" points="142.01,-83.08 132.53,-87.82 142.89,-90.03 142.01,-83.08"/>
</a>
</g>
</g>
<!-- Node4 -->
<g id="Node000004" class="node">
<title>Node4</title>
<g id="a_Node000004"><a xlink:href="classcrashpad_1_1PruneIntermediateDumpsAndCrashReportsThread.html" target="_top" xlink:title="A thread that periodically prunes crash reports from the database using the specified condition,...">
<polygon fill="white" stroke="#666666" points="329,-36.5 166.75,-36.5 166.75,0 329,0 329,-36.5"/>
<text text-anchor="start" x="174.75" y="-23" font-family="Noto Sans, Lucida Grande, Lucida Sans Unicode, Helvetica, Arial, sans-serif" font-size="10.00">crashpad::PruneIntermediate</text>
<text text-anchor="middle" x="247.88" y="-8.75" font-family="Noto Sans, Lucida Grande, Lucida Sans Unicode, Helvetica, Arial, sans-serif" font-size="10.00">DumpsAndCrashReportsThread</text>
</a>
</g>
</g>
<!-- Node0&#45;&gt;Node4 -->
<g id="edge168_Node000000_Node000004" class="edge">
<title>Node0&#45;&gt;Node4</title>
<g id="a_edge168_Node000000_Node000004"><a xlink:title=" ">
<path fill="none" stroke="#63b8ff" d="M123.92,-72.71C126.24,-71.57 128.53,-70.42 130.75,-69.25 147.57,-60.43 149.67,-54.55 166.75,-46.25 173.64,-42.9 181.04,-39.76 188.45,-36.87"/>
<polygon fill="#63b8ff" stroke="#63b8ff" points="122.51,-69.5 114.94,-76.92 125.48,-75.84 122.51,-69.5"/>
</a>
</g>
</g>
<!-- Node2 -->
<g id="Node000002" class="node">
<title>Node2</title>
<g id="a_Node000002"><a xlink:href="classcrashpad_1_1Stoppable.html" target="_top" xlink:title="An interface for operations that may be Started and Stopped.">
<polygon fill="white" stroke="#666666" points="120.25,-60.38 10.5,-60.38 10.5,-38.12 120.25,-38.12 120.25,-60.38"/>
<text text-anchor="middle" x="65.38" y="-46.88" font-family="Noto Sans, Lucida Grande, Lucida Sans Unicode, Helvetica, Arial, sans-serif" font-size="10.00">crashpad::Stoppable</text>
</a>
</g>
</g>
<!-- Node2&#45;&gt;Node1 -->
<g id="edge169_Node000002_Node000001" class="edge">
<title>Node2&#45;&gt;Node1</title>
<g id="a_edge169_Node000002_Node000001"><a xlink:title=" ">
<path fill="none" stroke="#63b8ff" d="M122.5,-65.13C125.34,-66.41 128.11,-67.78 130.75,-69.25 149.22,-79.49 148.46,-89.69 166.75,-100.25 172.75,-103.71 179.24,-106.85 185.85,-109.66"/>
<polygon fill="#63b8ff" stroke="#63b8ff" points="124,-61.96 113.42,-61.43 121.36,-68.44 124,-61.96"/>
</a>
</g>
</g>
<!-- Node2&#45;&gt;Node3 -->
<g id="edge170_Node000002_Node000003" class="edge">
<title>Node2&#45;&gt;Node3</title>
<g id="a_edge170_Node000002_Node000003"><a xlink:title=" ">
<path fill="none" stroke="#63b8ff" d="M131.54,-57.91C144.91,-59.69 159.07,-61.58 172.73,-63.39"/>
<polygon fill="#63b8ff" stroke="#63b8ff" points="132.41,-54.5 122.03,-56.65 131.48,-61.44 132.41,-54.5"/>
</a>
</g>
</g>
<!-- Node2&#45;&gt;Node4 -->
<g id="edge171_Node000002_Node000004" class="edge">
<title>Node2&#45;&gt;Node4</title>
<g id="a_edge171_Node000002_Node000004"><a xlink:title=" ">
<path fill="none" stroke="#63b8ff" d="M131.6,-38.05C142.9,-36.11 154.75,-34.07 166.39,-32.07"/>
<polygon fill="#63b8ff" stroke="#63b8ff" points="131.29,-34.55 122.02,-39.69 132.47,-41.45 131.29,-34.55"/>
</a>
</g>
</g>
</g>
</svg>
