<?xml version="1.0" encoding="UTF-8" standalone="no"?>
<!DOCTYPE svg PUBLIC "-//W3C//DTD SVG 1.1//EN"
 "http://www.w3.org/Graphics/SVG/1.1/DTD/svg11.dtd">
<!-- Generated by graphviz version 12.2.1 (20241206.2353)
 -->
<!-- Title: Graphical Class Hierarchy Pages: 1 -->
<svg width="318pt" height="70pt"
 viewBox="0.00 0.00 317.50 70.25" xmlns="http://www.w3.org/2000/svg" xmlns:xlink="http://www.w3.org/1999/xlink">
<g id="graph0" class="graph" transform="scale(1 1) rotate(0) translate(4 66.25)">
<title>Graphical Class Hierarchy</title>
<!-- Node0 -->
<g id="Node000000" class="node">
<title>Node0</title>
<g id="a_Node000000"><a xlink:title=" ">
<polygon fill="#e0e0e0" stroke="#999999" points="133,-62.25 0,-62.25 0,-40 133,-40 133,-62.25"/>
<text text-anchor="middle" x="66.5" y="-48.75" font-family="Noto Sans, Lucida Grande, Lucida Sans Unicode, Helvetica, Arial, sans-serif" font-size="10.00">&lt;UIApplicationDelegate&gt;</text>
</a>
</g>
</g>
<!-- Node1 -->
<g id="Node000001" class="node">
<title>Node1</title>
<g id="a_Node000001"><a xlink:href="interfaceCPTestApplicationDelegate.html" target="_top" xlink:title=" ">
<polygon fill="white" stroke="#666666" points="309.5,-42.25 169,-42.25 169,-20 309.5,-20 309.5,-42.25"/>
<text text-anchor="middle" x="239.25" y="-28.75" font-family="Noto Sans, Lucida Grande, Lucida Sans Unicode, Helvetica, Arial, sans-serif" font-size="10.00">CPTestApplicationDelegate</text>
</a>
</g>
</g>
<!-- Node0&#45;&gt;Node1 -->
<g id="edge1_Node000000_Node000001" class="edge">
<title>Node0&#45;&gt;Node1</title>
<g id="a_edge1_Node000000_Node000001"><a xlink:title=" ">
<path fill="none" stroke="#63b8ff" d="M144.36,-42.12C152.45,-41.17 160.65,-40.21 168.65,-39.28"/>
<polygon fill="#63b8ff" stroke="#63b8ff" points="144.06,-38.63 134.53,-43.27 144.87,-45.59 144.06,-38.63"/>
</a>
</g>
</g>
<!-- Node2 -->
<g id="Node000002" class="node">
<title>Node2</title>
<g id="a_Node000002"><a xlink:title=" ">
<polygon fill="#e0e0e0" stroke="#999999" points="105.62,-22.25 27.38,-22.25 27.38,0 105.62,0 105.62,-22.25"/>
<text text-anchor="middle" x="66.5" y="-8.75" font-family="Noto Sans, Lucida Grande, Lucida Sans Unicode, Helvetica, Arial, sans-serif" font-size="10.00">UIResponder</text>
</a>
</g>
</g>
<!-- Node2&#45;&gt;Node1 -->
<g id="edge2_Node000002_Node000001" class="edge">
<title>Node2&#45;&gt;Node1</title>
<g id="a_edge2_Node000002_Node000001"><a xlink:title=" ">
<path fill="none" stroke="#63b8ff" d="M117.16,-16.94C133.3,-18.83 151.51,-20.97 168.82,-22.99"/>
<polygon fill="#63b8ff" stroke="#63b8ff" points="117.66,-13.48 107.32,-15.79 116.85,-20.43 117.66,-13.48"/>
</a>
</g>
</g>
</g>
</svg>
