<?xml version="1.0" encoding="UTF-8" standalone="no"?>
<!DOCTYPE svg PUBLIC "-//W3C//DTD SVG 1.1//EN"
 "http://www.w3.org/Graphics/SVG/1.1/DTD/svg11.dtd">
<!-- Generated by graphviz version 12.2.1 (20241206.2353)
 -->
<!-- Title: Graphical Class Hierarchy Pages: 1 -->
<svg width="829pt" height="30pt"
 viewBox="0.00 0.00 829.00 30.25" xmlns="http://www.w3.org/2000/svg" xmlns:xlink="http://www.w3.org/1999/xlink">
<g id="graph0" class="graph" transform="scale(1 1) rotate(0) translate(4 26.25)">
<title>Graphical Class Hierarchy</title>
<!-- Node0 -->
<g id="Node000000" class="node">
<title>Node0</title>
<g id="a_Node000000"><a xlink:href="structMINIDUMP__MISC__INFO.html" target="_top" xlink:title="Information about the process that the minidump file contains a snapshot of, as well as the system th...">
<polygon fill="white" stroke="#666666" points="127,-22.25 0,-22.25 0,0 127,0 127,-22.25"/>
<text text-anchor="middle" x="63.5" y="-8.75" font-family="Noto Sans, Lucida Grande, Lucida Sans Unicode, Helvetica, Arial, sans-serif" font-size="10.00">MINIDUMP_MISC_INFO</text>
</a>
</g>
</g>
<!-- Node1 -->
<g id="Node000001" class="node">
<title>Node1</title>
<g id="a_Node000001"><a xlink:href="structMINIDUMP__MISC__INFO__2.html" target="_top" xlink:title="Information about the process that the minidump file contains a snapshot of, as well as the system th...">
<polygon fill="white" stroke="#666666" points="300.5,-22.25 163,-22.25 163,0 300.5,0 300.5,-22.25"/>
<text text-anchor="middle" x="231.75" y="-8.75" font-family="Noto Sans, Lucida Grande, Lucida Sans Unicode, Helvetica, Arial, sans-serif" font-size="10.00">MINIDUMP_MISC_INFO_2</text>
</a>
</g>
</g>
<!-- Node0&#45;&gt;Node1 -->
<g id="edge175_Node000000_Node000001" class="edge">
<title>Node0&#45;&gt;Node1</title>
<g id="a_edge175_Node000000_Node000001"><a xlink:title=" ">
<path fill="none" stroke="#63b8ff" d="M138.81,-11.12C146.71,-11.12 154.71,-11.12 162.53,-11.12"/>
<polygon fill="#63b8ff" stroke="#63b8ff" points="138.87,-7.63 128.87,-11.13 138.87,-14.63 138.87,-7.63"/>
</a>
</g>
</g>
<!-- Node2 -->
<g id="Node000002" class="node">
<title>Node2</title>
<g id="a_Node000002"><a xlink:href="structMINIDUMP__MISC__INFO__3.html" target="_top" xlink:title="Information about the process that the minidump file contains a snapshot of, as well as the system th...">
<polygon fill="white" stroke="#666666" points="474,-22.25 336.5,-22.25 336.5,0 474,0 474,-22.25"/>
<text text-anchor="middle" x="405.25" y="-8.75" font-family="Noto Sans, Lucida Grande, Lucida Sans Unicode, Helvetica, Arial, sans-serif" font-size="10.00">MINIDUMP_MISC_INFO_3</text>
</a>
</g>
</g>
<!-- Node1&#45;&gt;Node2 -->
<g id="edge176_Node000001_Node000002" class="edge">
<title>Node1&#45;&gt;Node2</title>
<g id="a_edge176_Node000001_Node000002"><a xlink:title=" ">
<path fill="none" stroke="#63b8ff" d="M311.89,-11.12C319.98,-11.12 328.16,-11.12 336.12,-11.12"/>
<polygon fill="#63b8ff" stroke="#63b8ff" points="312.04,-7.63 302.04,-11.13 312.04,-14.63 312.04,-7.63"/>
</a>
</g>
</g>
<!-- Node3 -->
<g id="Node000003" class="node">
<title>Node3</title>
<g id="a_Node000003"><a xlink:href="structMINIDUMP__MISC__INFO__4.html" target="_top" xlink:title="Information about the process that the minidump file contains a snapshot of, as well as the system th...">
<polygon fill="white" stroke="#666666" points="647.5,-22.25 510,-22.25 510,0 647.5,0 647.5,-22.25"/>
<text text-anchor="middle" x="578.75" y="-8.75" font-family="Noto Sans, Lucida Grande, Lucida Sans Unicode, Helvetica, Arial, sans-serif" font-size="10.00">MINIDUMP_MISC_INFO_4</text>
</a>
</g>
</g>
<!-- Node2&#45;&gt;Node3 -->
<g id="edge177_Node000002_Node000003" class="edge">
<title>Node2&#45;&gt;Node3</title>
<g id="a_edge177_Node000002_Node000003"><a xlink:title=" ">
<path fill="none" stroke="#63b8ff" d="M485.39,-11.12C493.48,-11.12 501.66,-11.12 509.62,-11.12"/>
<polygon fill="#63b8ff" stroke="#63b8ff" points="485.54,-7.63 475.54,-11.13 485.54,-14.63 485.54,-7.63"/>
</a>
</g>
</g>
<!-- Node4 -->
<g id="Node000004" class="node">
<title>Node4</title>
<g id="a_Node000004"><a xlink:href="structMINIDUMP__MISC__INFO__5.html" target="_top" xlink:title="Information about the process that the minidump file contains a snapshot of, as well as the system th...">
<polygon fill="white" stroke="#666666" points="821,-22.25 683.5,-22.25 683.5,0 821,0 821,-22.25"/>
<text text-anchor="middle" x="752.25" y="-8.75" font-family="Noto Sans, Lucida Grande, Lucida Sans Unicode, Helvetica, Arial, sans-serif" font-size="10.00">MINIDUMP_MISC_INFO_5</text>
</a>
</g>
</g>
<!-- Node3&#45;&gt;Node4 -->
<g id="edge178_Node000003_Node000004" class="edge">
<title>Node3&#45;&gt;Node4</title>
<g id="a_edge178_Node000003_Node000004"><a xlink:title=" ">
<path fill="none" stroke="#63b8ff" d="M658.89,-11.12C666.98,-11.12 675.16,-11.12 683.12,-11.12"/>
<polygon fill="#63b8ff" stroke="#63b8ff" points="659.04,-7.63 649.04,-11.13 659.04,-14.63 659.04,-7.63"/>
</a>
</g>
</g>
</g>
</svg>
