<?xml version="1.0" encoding="UTF-8" standalone="no"?>
<!DOCTYPE svg PUBLIC "-//W3C//DTD SVG 1.1//EN"
 "http://www.w3.org/Graphics/SVG/1.1/DTD/svg11.dtd">
<!-- Generated by graphviz version 12.2.1 (20241206.2353)
 -->
<!-- Title: Graphical Class Hierarchy Pages: 1 -->
<svg width="246pt" height="70pt"
 viewBox="0.00 0.00 246.25 70.25" xmlns="http://www.w3.org/2000/svg" xmlns:xlink="http://www.w3.org/1999/xlink">
<g id="graph0" class="graph" transform="scale(1 1) rotate(0) translate(4 66.25)">
<title>Graphical Class Hierarchy</title>
<!-- Node0 -->
<g id="Node000000" class="node">
<title>Node0</title>
<g id="a_Node000000"><a xlink:title=" ">
<polygon fill="#e0e0e0" stroke="#999999" points="68.5,-42.25 0,-42.25 0,-20 68.5,-20 68.5,-42.25"/>
<text text-anchor="middle" x="34.25" y="-28.75" font-family="Noto Sans, Lucida Grande, Lucida Sans Unicode, Helvetica, Arial, sans-serif" font-size="10.00">XCTestCase</text>
</a>
</g>
</g>
<!-- Node1 -->
<g id="Node000001" class="node">
<title>Node1</title>
<g id="a_Node000001"><a xlink:href="interfaceCPTestGoogleTestRunner.html" target="_top" xlink:title=" ">
<polygon fill="white" stroke="#666666" points="238.25,-62.25 104.5,-62.25 104.5,-40 238.25,-40 238.25,-62.25"/>
<text text-anchor="middle" x="171.38" y="-48.75" font-family="Noto Sans, Lucida Grande, Lucida Sans Unicode, Helvetica, Arial, sans-serif" font-size="10.00">CPTestGoogleTestRunner</text>
</a>
</g>
</g>
<!-- Node0&#45;&gt;Node1 -->
<g id="edge187_Node000000_Node000001" class="edge">
<title>Node0&#45;&gt;Node1</title>
<g id="a_edge187_Node000000_Node000001"><a xlink:title=" ">
<path fill="none" stroke="#63b8ff" d="M80.25,-37.79C87.92,-38.92 96.04,-40.12 104.12,-41.32"/>
<polygon fill="#63b8ff" stroke="#63b8ff" points="80.9,-34.34 70.5,-36.34 79.88,-41.27 80.9,-34.34"/>
</a>
</g>
</g>
<!-- Node2 -->
<g id="Node000002" class="node">
<title>Node2</title>
<g id="a_Node000002"><a xlink:href="interfaceCPTestTestCase.html" target="_top" xlink:title=" ">
<polygon fill="white" stroke="#666666" points="215,-22.25 127.75,-22.25 127.75,0 215,0 215,-22.25"/>
<text text-anchor="middle" x="171.38" y="-8.75" font-family="Noto Sans, Lucida Grande, Lucida Sans Unicode, Helvetica, Arial, sans-serif" font-size="10.00">CPTestTestCase</text>
</a>
</g>
</g>
<!-- Node0&#45;&gt;Node2 -->
<g id="edge188_Node000000_Node000002" class="edge">
<title>Node0&#45;&gt;Node2</title>
<g id="a_edge188_Node000000_Node000002"><a xlink:title=" ">
<path fill="none" stroke="#63b8ff" d="M80.22,-24.47C95.41,-22.22 112.32,-19.72 127.36,-17.49"/>
<polygon fill="#63b8ff" stroke="#63b8ff" points="79.88,-20.98 70.5,-25.91 80.9,-27.91 79.88,-20.98"/>
</a>
</g>
</g>
</g>
</svg>
