<?xml version="1.0" encoding="UTF-8" standalone="no"?>
<!DOCTYPE svg PUBLIC "-//W3C//DTD SVG 1.1//EN"
 "http://www.w3.org/Graphics/SVG/1.1/DTD/svg11.dtd">
<!-- Generated by graphviz version 12.2.1 (20241206.2353)
 -->
<!-- Title: Graphical Class Hierarchy Pages: 1 -->
<svg width="577pt" height="178pt"
 viewBox="0.00 0.00 577.25 178.38" xmlns="http://www.w3.org/2000/svg" xmlns:xlink="http://www.w3.org/1999/xlink">
<g id="graph0" class="graph" transform="scale(1 1) rotate(0) translate(4 174.38)">
<title>Graphical Class Hierarchy</title>
<!-- Node0 -->
<g id="Node000000" class="node">
<title>Node0</title>
<g id="a_Node000000"><a xlink:href="classcrashpad_1_1MachMessageServer_1_1Interface.html" target="_top" xlink:title="A Mach RPC callback interface, called by Run().">
<polygon fill="white" stroke="#666666" points="160.75,-106.5 0,-106.5 0,-70 160.75,-70 160.75,-106.5"/>
<text text-anchor="start" x="8" y="-93" font-family="Noto Sans, Lucida Grande, Lucida Sans Unicode, Helvetica, Arial, sans-serif" font-size="10.00">crashpad::MachMessageServer</text>
<text text-anchor="middle" x="80.38" y="-78.75" font-family="Noto Sans, Lucida Grande, Lucida Sans Unicode, Helvetica, Arial, sans-serif" font-size="10.00">::Interface</text>
</a>
</g>
</g>
<!-- Node1 -->
<g id="Node000001" class="node">
<title>Node1</title>
<g id="a_Node000001"><a xlink:href="classcrashpad_1_1ChildPortServer.html" target="_top" xlink:title="A server interface for the child_port Mach subsystem.">
<polygon fill="white" stroke="#666666" points="354.88,-170.38 217.38,-170.38 217.38,-148.12 354.88,-148.12 354.88,-170.38"/>
<text text-anchor="middle" x="286.12" y="-156.88" font-family="Noto Sans, Lucida Grande, Lucida Sans Unicode, Helvetica, Arial, sans-serif" font-size="10.00">crashpad::ChildPortServer</text>
</a>
</g>
</g>
<!-- Node0&#45;&gt;Node1 -->
<g id="edge46_Node000000_Node000001" class="edge">
<title>Node0&#45;&gt;Node1</title>
<g id="a_edge46_Node000000_Node000001"><a xlink:title=" ">
<path fill="none" stroke="#63b8ff" d="M128.92,-111.75C149.43,-121.23 173.91,-131.7 196.75,-139.25 206.31,-142.41 216.61,-145.24 226.69,-147.71"/>
<polygon fill="#63b8ff" stroke="#63b8ff" points="130.49,-108.62 119.95,-107.54 127.52,-114.96 130.49,-108.62"/>
</a>
</g>
</g>
<!-- Node2 -->
<g id="Node000002" class="node">
<title>Node2</title>
<g id="a_Node000002"><a xlink:href="classcrashpad_1_1CompositeMachMessageServer.html" target="_top" xlink:title="Adapts multiple MachMessageServer::Interface implementations for simultaneous use in a single MachMes...">
<polygon fill="white" stroke="#666666" points="375.5,-130.5 196.75,-130.5 196.75,-94 375.5,-94 375.5,-130.5"/>
<text text-anchor="start" x="204.75" y="-117" font-family="Noto Sans, Lucida Grande, Lucida Sans Unicode, Helvetica, Arial, sans-serif" font-size="10.00">crashpad::CompositeMachMessage</text>
<text text-anchor="middle" x="286.12" y="-102.75" font-family="Noto Sans, Lucida Grande, Lucida Sans Unicode, Helvetica, Arial, sans-serif" font-size="10.00">Server</text>
</a>
</g>
</g>
<!-- Node0&#45;&gt;Node2 -->
<g id="edge47_Node000000_Node000002" class="edge">
<title>Node0&#45;&gt;Node2</title>
<g id="a_edge47_Node000000_Node000002"><a xlink:title=" ">
<path fill="none" stroke="#63b8ff" d="M172.28,-98.96C180.3,-99.9 188.42,-100.86 196.42,-101.8"/>
<polygon fill="#63b8ff" stroke="#63b8ff" points="172.87,-95.5 162.53,-97.81 172.05,-102.46 172.87,-95.5"/>
</a>
</g>
</g>
<!-- Node4 -->
<g id="Node000004" class="node">
<title>Node4</title>
<g id="a_Node000004"><a xlink:href="classcrashpad_1_1NotifyServer.html" target="_top" xlink:title="A server interface for the notify Mach subsystem.">
<polygon fill="white" stroke="#666666" points="347.75,-76.38 224.5,-76.38 224.5,-54.12 347.75,-54.12 347.75,-76.38"/>
<text text-anchor="middle" x="286.12" y="-62.88" font-family="Noto Sans, Lucida Grande, Lucida Sans Unicode, Helvetica, Arial, sans-serif" font-size="10.00">crashpad::NotifyServer</text>
</a>
</g>
</g>
<!-- Node0&#45;&gt;Node4 -->
<g id="edge49_Node000000_Node000004" class="edge">
<title>Node0&#45;&gt;Node4</title>
<g id="a_edge49_Node000000_Node000004"><a xlink:title=" ">
<path fill="none" stroke="#63b8ff" d="M172.44,-77.97C189.94,-75.99 207.88,-73.97 224.14,-72.13"/>
<polygon fill="#63b8ff" stroke="#63b8ff" points="172.07,-74.49 162.53,-79.09 172.86,-81.45 172.07,-74.49"/>
</a>
</g>
</g>
<!-- Node5 -->
<g id="Node000005" class="node">
<title>Node5</title>
<g id="a_Node000005"><a xlink:href="classcrashpad_1_1UniversalMachExcServer.html" target="_top" xlink:title="A server interface for the exc and mach_exc Mach subsystems, unified to handle exceptions delivered t...">
<polygon fill="white" stroke="#666666" points="359.38,-36.5 212.88,-36.5 212.88,0 359.38,0 359.38,-36.5"/>
<text text-anchor="start" x="220.88" y="-23" font-family="Noto Sans, Lucida Grande, Lucida Sans Unicode, Helvetica, Arial, sans-serif" font-size="10.00">crashpad::UniversalMachExc</text>
<text text-anchor="middle" x="286.12" y="-8.75" font-family="Noto Sans, Lucida Grande, Lucida Sans Unicode, Helvetica, Arial, sans-serif" font-size="10.00">Server</text>
</a>
</g>
</g>
<!-- Node0&#45;&gt;Node5 -->
<g id="edge50_Node000000_Node000005" class="edge">
<title>Node0&#45;&gt;Node5</title>
<g id="a_edge50_Node000000_Node000005"><a xlink:title=" ">
<path fill="none" stroke="#63b8ff" d="M140.11,-65.58C158.19,-58.81 178.22,-51.53 196.75,-45.25 204.96,-42.47 213.63,-39.66 222.21,-36.96"/>
<polygon fill="#63b8ff" stroke="#63b8ff" points="138.96,-62.27 130.84,-69.07 141.43,-68.82 138.96,-62.27"/>
</a>
</g>
</g>
<!-- Node3 -->
<g id="Node000003" class="node">
<title>Node3</title>
<g id="a_Node000003"><a xlink:href="classcrashpad_1_1internal_1_1UniversalMachExcServerImpl.html" target="_top" xlink:title=" ">
<polygon fill="white" stroke="#666666" points="569.25,-130.5 411.5,-130.5 411.5,-94 569.25,-94 569.25,-130.5"/>
<text text-anchor="start" x="419.5" y="-117" font-family="Noto Sans, Lucida Grande, Lucida Sans Unicode, Helvetica, Arial, sans-serif" font-size="10.00">crashpad::internal</text>
<text text-anchor="middle" x="490.38" y="-102.75" font-family="Noto Sans, Lucida Grande, Lucida Sans Unicode, Helvetica, Arial, sans-serif" font-size="10.00">::UniversalMachExcServerImpl</text>
</a>
</g>
</g>
<!-- Node2&#45;&gt;Node3 -->
<g id="edge48_Node000002_Node000003" class="edge">
<title>Node2&#45;&gt;Node3</title>
<g id="a_edge48_Node000002_Node000003"><a xlink:title=" ">
<path fill="none" stroke="#63b8ff" d="M387.2,-112.25C395.27,-112.25 403.34,-112.25 411.21,-112.25"/>
<polygon fill="#63b8ff" stroke="#63b8ff" points="387.35,-108.75 377.35,-112.25 387.35,-115.75 387.35,-108.75"/>
</a>
</g>
</g>
</g>
</svg>
