<?xml version="1.0" encoding="UTF-8" standalone="no"?>
<!DOCTYPE svg PUBLIC "-//W3C//DTD SVG 1.1//EN"
 "http://www.w3.org/Graphics/SVG/1.1/DTD/svg11.dtd">
<!-- Generated by graphviz version 12.2.1 (20241206.2353)
 -->
<!-- Title: util/misc/initialization_state_dcheck.h Pages: 1 -->
<svg width="284pt" height="103pt"
 viewBox="0.00 0.00 284.38 102.75" xmlns="http://www.w3.org/2000/svg" xmlns:xlink="http://www.w3.org/1999/xlink">
<g id="graph0" class="graph" transform="scale(1 1) rotate(0) translate(4 98.75)">
<title>util/misc/initialization_state_dcheck.h</title>
<!-- Node1 -->
<g id="Node000001" class="node">
<title>Node1</title>
<g id="a_Node000001"><a xlink:title=" ">
<polygon fill="#999999" stroke="#666666" points="161,-94.75 49,-94.75 49,-58.25 161,-58.25 161,-94.75"/>
<text text-anchor="start" x="57" y="-81.25" font-family="Noto Sans, Lucida Grande, Lucida Sans Unicode, Helvetica, Arial, sans-serif" font-size="10.00">util/misc/initialization</text>
<text text-anchor="middle" x="105" y="-67" font-family="Noto Sans, Lucida Grande, Lucida Sans Unicode, Helvetica, Arial, sans-serif" font-size="10.00">_state_dcheck.h</text>
</a>
</g>
</g>
<!-- Node2 -->
<g id="Node000002" class="node">
<title>Node2</title>
<g id="a_Node000002"><a xlink:title=" ">
<polygon fill="#e0e0e0" stroke="#999999" points="40,-22.25 0,-22.25 0,0 40,0 40,-22.25"/>
<text text-anchor="middle" x="20" y="-8.75" font-family="Noto Sans, Lucida Grande, Lucida Sans Unicode, Helvetica, Arial, sans-serif" font-size="10.00">tuple</text>
</a>
</g>
</g>
<!-- Node1&#45;&gt;Node2 -->
<g id="edge1_Node000001_Node000002" class="edge">
<title>Node1&#45;&gt;Node2</title>
<g id="a_edge1_Node000001_Node000002"><a xlink:title=" ">
<path fill="none" stroke="#63b8ff" d="M81.32,-57.85C69.5,-49.03 55.25,-38.41 43.46,-29.62"/>
<polygon fill="#63b8ff" stroke="#63b8ff" points="45.56,-26.82 35.46,-23.65 41.38,-32.43 45.56,-26.82"/>
</a>
</g>
</g>
<!-- Node3 -->
<g id="Node000003" class="node">
<title>Node3</title>
<g id="a_Node000003"><a xlink:title=" ">
<polygon fill="#e0e0e0" stroke="#999999" points="151.62,-22.25 58.38,-22.25 58.38,0 151.62,0 151.62,-22.25"/>
<text text-anchor="middle" x="105" y="-8.75" font-family="Noto Sans, Lucida Grande, Lucida Sans Unicode, Helvetica, Arial, sans-serif" font-size="10.00">base/check_op.h</text>
</a>
</g>
</g>
<!-- Node1&#45;&gt;Node3 -->
<g id="edge2_Node000001_Node000003" class="edge">
<title>Node1&#45;&gt;Node3</title>
<g id="a_edge2_Node000001_Node000003"><a xlink:title=" ">
<path fill="none" stroke="#63b8ff" d="M105,-57.85C105,-50.53 105,-41.97 105,-34.24"/>
<polygon fill="#63b8ff" stroke="#63b8ff" points="108.5,-34.26 105,-24.26 101.5,-34.26 108.5,-34.26"/>
</a>
</g>
</g>
<!-- Node4 -->
<g id="Node000004" class="node">
<title>Node4</title>
<g id="a_Node000004"><a xlink:title=" ">
<polygon fill="#e0e0e0" stroke="#999999" points="276.38,-22.25 169.62,-22.25 169.62,0 276.38,0 276.38,-22.25"/>
<text text-anchor="middle" x="223" y="-8.75" font-family="Noto Sans, Lucida Grande, Lucida Sans Unicode, Helvetica, Arial, sans-serif" font-size="10.00">build/build_config.h</text>
</a>
</g>
</g>
<!-- Node1&#45;&gt;Node4 -->
<g id="edge3_Node000001_Node000004" class="edge">
<title>Node1&#45;&gt;Node4</title>
<g id="a_edge3_Node000001_Node000004"><a xlink:title=" ">
<path fill="none" stroke="#63b8ff" d="M137.87,-57.85C155.26,-48.5 176.45,-37.12 193.34,-28.05"/>
<polygon fill="#63b8ff" stroke="#63b8ff" points="194.74,-31.27 201.9,-23.46 191.43,-25.11 194.74,-31.27"/>
</a>
</g>
</g>
</g>
</svg>
