<?xml version="1.0" encoding="UTF-8" standalone="no"?>
<!DOCTYPE svg PUBLIC "-//W3C//DTD SVG 1.1//EN"
 "http://www.w3.org/Graphics/SVG/1.1/DTD/svg11.dtd">
<!-- Generated by graphviz version 12.2.1 (20241206.2353)
 -->
<!-- Title: CPTestApplicationDelegate Pages: 1 -->
<svg width="238pt" height="89pt"
 viewBox="0.00 0.00 237.62 88.50" xmlns="http://www.w3.org/2000/svg" xmlns:xlink="http://www.w3.org/1999/xlink">
<g id="graph0" class="graph" transform="scale(1 1) rotate(0) translate(4 84.5)">
<title>CPTestApplicationDelegate</title>
<!-- Node1 -->
<g id="Node000001" class="node">
<title>Node1</title>
<g id="a_Node000001"><a xlink:title=" ">
<polygon fill="#999999" stroke="#666666" points="171.38,-22.25 30.88,-22.25 30.88,0 171.38,0 171.38,-22.25"/>
<text text-anchor="middle" x="101.12" y="-8.75" font-family="Noto Sans, Lucida Grande, Lucida Sans Unicode, Helvetica, Arial, sans-serif" font-size="10.00">CPTestApplicationDelegate</text>
</a>
</g>
</g>
<!-- Node2 -->
<g id="Node000002" class="node">
<title>Node2</title>
<g id="a_Node000002"><a xlink:title=" ">
<polygon fill="white" stroke="#bfbfbf" points="78.25,-80.5 0,-80.5 0,-58.25 78.25,-58.25 78.25,-80.5"/>
<text text-anchor="middle" x="39.12" y="-67" font-family="Noto Sans, Lucida Grande, Lucida Sans Unicode, Helvetica, Arial, sans-serif" font-size="10.00">UIResponder</text>
</a>
</g>
</g>
<!-- Node2&#45;&gt;Node1 -->
<g id="edge1_Node000001_Node000002" class="edge">
<title>Node2&#45;&gt;Node1</title>
<g id="a_edge1_Node000001_Node000002"><a xlink:title=" ">
<path fill="none" stroke="#63b8ff" d="M59.04,-50.31C69.1,-41.18 80.96,-30.42 89.52,-22.66"/>
<polygon fill="#63b8ff" stroke="#63b8ff" points="56.96,-47.47 51.91,-56.78 61.67,-52.65 56.96,-47.47"/>
</a>
</g>
</g>
<!-- Node3 -->
<g id="Node000003" class="node">
<title>Node3</title>
<g id="a_Node000003"><a xlink:title=" ">
<polygon fill="white" stroke="#bfbfbf" points="229.62,-80.5 96.62,-80.5 96.62,-58.25 229.62,-58.25 229.62,-80.5"/>
<text text-anchor="middle" x="163.12" y="-67" font-family="Noto Sans, Lucida Grande, Lucida Sans Unicode, Helvetica, Arial, sans-serif" font-size="10.00">&lt;UIApplicationDelegate&gt;</text>
</a>
</g>
</g>
<!-- Node3&#45;&gt;Node1 -->
<g id="edge2_Node000001_Node000003" class="edge">
<title>Node3&#45;&gt;Node1</title>
<g id="a_edge2_Node000001_Node000003"><a xlink:title=" ">
<path fill="none" stroke="#63b8ff" d="M143.21,-50.31C133.15,-41.18 121.29,-30.42 112.73,-22.66"/>
<polygon fill="#63b8ff" stroke="#63b8ff" points="140.58,-52.65 150.34,-56.78 145.29,-47.47 140.58,-52.65"/>
</a>
</g>
</g>
</g>
</svg>
