<?xml version="1.0" encoding="UTF-8" standalone="no"?>
<!DOCTYPE svg PUBLIC "-//W3C//DTD SVG 1.1//EN"
 "http://www.w3.org/Graphics/SVG/1.1/DTD/svg11.dtd">
<!-- Generated by graphviz version 12.2.1 (20241206.2353)
 -->
<!-- Title: CPTestTestCase Pages: 1 -->
<svg width="204pt" height="162pt"
 viewBox="0.00 0.00 203.75 162.00" xmlns="http://www.w3.org/2000/svg" xmlns:xlink="http://www.w3.org/1999/xlink">
<g id="graph0" class="graph" transform="scale(1 1) rotate(0) translate(4 158)">
<title>CPTestTestCase</title>
<!-- Node1 -->
<g id="Node000001" class="node">
<title>Node1</title>
<g id="a_Node000001"><a xlink:title=" ">
<polygon fill="#999999" stroke="#666666" points="93.88,-22.25 6.62,-22.25 6.62,0 93.88,0 93.88,-22.25"/>
<text text-anchor="middle" x="50.25" y="-8.75" font-family="Noto Sans, Lucida Grande, Lucida Sans Unicode, Helvetica, Arial, sans-serif" font-size="10.00">CPTestTestCase</text>
</a>
</g>
</g>
<!-- Node2 -->
<g id="Node000002" class="node">
<title>Node2</title>
<g id="a_Node000002"><a xlink:title=" ">
<polygon fill="white" stroke="#bfbfbf" points="68.5,-94.75 0,-94.75 0,-72.5 68.5,-72.5 68.5,-94.75"/>
<text text-anchor="middle" x="34.25" y="-81.25" font-family="Noto Sans, Lucida Grande, Lucida Sans Unicode, Helvetica, Arial, sans-serif" font-size="10.00">XCTestCase</text>
</a>
</g>
</g>
<!-- Node2&#45;&gt;Node1 -->
<g id="edge1_Node000001_Node000002" class="edge">
<title>Node2&#45;&gt;Node1</title>
<g id="a_edge1_Node000001_Node000002"><a xlink:title=" ">
<path fill="none" stroke="#63b8ff" d="M39.13,-61.11C42.03,-48.33 45.58,-32.69 47.88,-22.57"/>
<polygon fill="#63b8ff" stroke="#63b8ff" points="35.75,-60.22 36.95,-70.75 42.57,-61.77 35.75,-60.22"/>
</a>
</g>
</g>
<!-- Node3 -->
<g id="Node000003" class="node">
<title>Node3</title>
<g id="a_Node000003"><a xlink:href="classCPTestSharedObject.html" target="_top" xlink:title=" ">
<polygon fill="white" stroke="#bfbfbf" points="195.75,-94.75 86.75,-94.75 86.75,-72.5 195.75,-72.5 195.75,-94.75"/>
<text text-anchor="middle" x="141.25" y="-81.25" font-family="Noto Sans, Lucida Grande, Lucida Sans Unicode, Helvetica, Arial, sans-serif" font-size="10.00">CPTestSharedObject</text>
</a>
</g>
</g>
<!-- Node3&#45;&gt;Node1 -->
<g id="edge2_Node000001_Node000003" class="edge">
<title>Node3&#45;&gt;Node1</title>
<g id="a_edge2_Node000001_Node000003"><a xlink:title=" ">
<path fill="none" stroke="#9a32cd" stroke-dasharray="5,2" d="M118.94,-65.34C101.65,-51.95 78.27,-33.83 63.73,-22.57"/>
<polygon fill="#9a32cd" stroke="#9a32cd" points="116.58,-67.94 126.63,-71.3 120.86,-62.4 116.58,-67.94"/>
</a>
</g>
<text text-anchor="middle" x="132.03" y="-45" font-family="Noto Sans, Lucida Grande, Lucida Sans Unicode, Helvetica, Arial, sans-serif" font-size="10.00" fill="grey"> rootObject_</text>
</g>
<!-- Node4 -->
<g id="Node000004" class="node">
<title>Node4</title>
<g id="a_Node000004"><a xlink:title=" ">
<polygon fill="white" stroke="#bfbfbf" points="170.62,-154 111.88,-154 111.88,-131.75 170.62,-131.75 170.62,-154"/>
<text text-anchor="middle" x="141.25" y="-140.5" font-family="Noto Sans, Lucida Grande, Lucida Sans Unicode, Helvetica, Arial, sans-serif" font-size="10.00">NSObject</text>
</a>
</g>
</g>
<!-- Node4&#45;&gt;Node3 -->
<g id="edge3_Node000003_Node000004" class="edge">
<title>Node4&#45;&gt;Node3</title>
<g id="a_edge3_Node000003_Node000004"><a xlink:title=" ">
<path fill="none" stroke="#63b8ff" d="M141.25,-120.15C141.25,-111.55 141.25,-102.06 141.25,-95.06"/>
<polygon fill="#63b8ff" stroke="#63b8ff" points="137.75,-119.86 141.25,-129.86 144.75,-119.86 137.75,-119.86"/>
</a>
</g>
</g>
</g>
</svg>
