<?xml version="1.0" encoding="UTF-8" standalone="no"?>
<!DOCTYPE svg PUBLIC "-//W3C//DTD SVG 1.1//EN"
 "http://www.w3.org/Graphics/SVG/1.1/DTD/svg11.dtd">
<!-- Generated by graphviz version 12.2.1 (20241206.2353)
 -->
<!-- Title: test/multiprocess_exec.h Pages: 1 -->
<svg width="371pt" height="89pt"
 viewBox="0.00 0.00 370.88 88.50" xmlns="http://www.w3.org/2000/svg" xmlns:xlink="http://www.w3.org/1999/xlink">
<g id="graph0" class="graph" transform="scale(1 1) rotate(0) translate(4 84.5)">
<title>test/multiprocess_exec.h</title>
<!-- Node1 -->
<g id="Node000001" class="node">
<title>Node1</title>
<g id="a_Node000001"><a xlink:title=" ">
<polygon fill="#999999" stroke="#666666" points="197.88,-80.5 67.12,-80.5 67.12,-58.25 197.88,-58.25 197.88,-80.5"/>
<text text-anchor="middle" x="132.5" y="-67" font-family="Noto Sans, Lucida Grande, Lucida Sans Unicode, Helvetica, Arial, sans-serif" font-size="10.00">test/multiprocess_exec.h</text>
</a>
</g>
</g>
<!-- Node2 -->
<g id="Node000002" class="node">
<title>Node2</title>
<g id="a_Node000002"><a xlink:title=" ">
<polygon fill="#e0e0e0" stroke="#999999" points="43,-22.25 0,-22.25 0,0 43,0 43,-22.25"/>
<text text-anchor="middle" x="21.5" y="-8.75" font-family="Noto Sans, Lucida Grande, Lucida Sans Unicode, Helvetica, Arial, sans-serif" font-size="10.00">string</text>
</a>
</g>
</g>
<!-- Node1&#45;&gt;Node2 -->
<g id="edge1_Node000001_Node000002" class="edge">
<title>Node1&#45;&gt;Node2</title>
<g id="a_edge1_Node000001_Node000002"><a xlink:title=" ">
<path fill="none" stroke="#63b8ff" d="M111.62,-57.79C94.96,-49.35 71.35,-37.39 52.48,-27.83"/>
<polygon fill="#63b8ff" stroke="#63b8ff" points="54.14,-24.74 43.63,-23.34 50.97,-30.98 54.14,-24.74"/>
</a>
</g>
</g>
<!-- Node3 -->
<g id="Node000003" class="node">
<title>Node3</title>
<g id="a_Node000003"><a xlink:title=" ">
<polygon fill="#e0e0e0" stroke="#999999" points="107.5,-22.25 61.5,-22.25 61.5,0 107.5,0 107.5,-22.25"/>
<text text-anchor="middle" x="84.5" y="-8.75" font-family="Noto Sans, Lucida Grande, Lucida Sans Unicode, Helvetica, Arial, sans-serif" font-size="10.00">vector</text>
</a>
</g>
</g>
<!-- Node1&#45;&gt;Node3 -->
<g id="edge2_Node000001_Node000003" class="edge">
<title>Node1&#45;&gt;Node3</title>
<g id="a_edge2_Node000001_Node000003"><a xlink:title=" ">
<path fill="none" stroke="#63b8ff" d="M123.47,-57.79C117.1,-50.33 108.39,-40.12 100.82,-31.25"/>
<polygon fill="#63b8ff" stroke="#63b8ff" points="103.62,-29.14 94.47,-23.81 98.3,-33.69 103.62,-29.14"/>
</a>
</g>
</g>
<!-- Node4 -->
<g id="Node000004" class="node">
<title>Node4</title>
<g id="a_Node000004"><a xlink:title=" ">
<polygon fill="#e0e0e0" stroke="#999999" points="237.88,-22.25 125.12,-22.25 125.12,0 237.88,0 237.88,-22.25"/>
<text text-anchor="middle" x="181.5" y="-8.75" font-family="Noto Sans, Lucida Grande, Lucida Sans Unicode, Helvetica, Arial, sans-serif" font-size="10.00">base/files/file_path.h</text>
</a>
</g>
</g>
<!-- Node1&#45;&gt;Node4 -->
<g id="edge3_Node000001_Node000004" class="edge">
<title>Node1&#45;&gt;Node4</title>
<g id="a_edge3_Node000001_Node000004"><a xlink:title=" ">
<path fill="none" stroke="#63b8ff" d="M141.72,-57.79C148.22,-50.33 157.11,-40.12 164.84,-31.25"/>
<polygon fill="#63b8ff" stroke="#63b8ff" points="167.4,-33.64 171.33,-23.8 162.12,-29.04 167.4,-33.64"/>
</a>
</g>
</g>
<!-- Node5 -->
<g id="Node000005" class="node">
<title>Node5</title>
<g id="a_Node000005"><a xlink:title=" ">
<polygon fill="#e0e0e0" stroke="#999999" points="362.88,-22.25 256.12,-22.25 256.12,0 362.88,0 362.88,-22.25"/>
<text text-anchor="middle" x="309.5" y="-8.75" font-family="Noto Sans, Lucida Grande, Lucida Sans Unicode, Helvetica, Arial, sans-serif" font-size="10.00">build/build_config.h</text>
</a>
</g>
</g>
<!-- Node1&#45;&gt;Node5 -->
<g id="edge4_Node000001_Node000005" class="edge">
<title>Node1&#45;&gt;Node5</title>
<g id="a_edge4_Node000001_Node000005"><a xlink:title=" ">
<path fill="none" stroke="#63b8ff" d="M165.79,-57.79C193.98,-48.84 234.6,-35.93 265.47,-26.12"/>
<polygon fill="#63b8ff" stroke="#63b8ff" points="266.44,-29.48 274.91,-23.12 264.32,-22.81 266.44,-29.48"/>
</a>
</g>
</g>
</g>
</svg>
