<?xml version="1.0" encoding="UTF-8" standalone="no"?>
<!DOCTYPE svg PUBLIC "-//W3C//DTD SVG 1.1//EN"
 "http://www.w3.org/Graphics/SVG/1.1/DTD/svg11.dtd">
<!-- Generated by graphviz version 12.2.1 (20241206.2353)
 -->
<!-- Title: crashpad::CPUContext Pages: 1 -->
<svg width="769pt" height="287pt"
 viewBox="0.00 0.00 768.75 287.38" xmlns="http://www.w3.org/2000/svg" xmlns:xlink="http://www.w3.org/1999/xlink">
<g id="graph0" class="graph" transform="scale(1 1) rotate(0) translate(4 283.38)">
<title>crashpad::CPUContext</title>
<!-- Node1 -->
<g id="Node000001" class="node">
<title>Node1</title>
<g id="a_Node000001"><a xlink:title="A context structure capable of carrying the context of any supported CPU architecture.">
<polygon fill="#999999" stroke="#666666" points="760.75,-142.25 642,-142.25 642,-120 760.75,-120 760.75,-142.25"/>
<text text-anchor="middle" x="701.38" y="-128.75" font-family="Noto Sans, Lucida Grande, Lucida Sans Unicode, Helvetica, Arial, sans-serif" font-size="10.00">crashpad::CPUContext</text>
</a>
</g>
</g>
<!-- Node2 -->
<g id="Node000002" class="node">
<title>Node2</title>
<g id="a_Node000002"><a xlink:href="structcrashpad_1_1CPUContextX86.html" target="_top" xlink:title="A context structure carrying 32&#45;bit x86 CPU state.">
<polygon fill="white" stroke="#666666" points="559.5,-269.25 422.75,-269.25 422.75,-247 559.5,-247 559.5,-269.25"/>
<text text-anchor="middle" x="491.12" y="-255.75" font-family="Noto Sans, Lucida Grande, Lucida Sans Unicode, Helvetica, Arial, sans-serif" font-size="10.00">crashpad::CPUContextX86</text>
</a>
</g>
</g>
<!-- Node2&#45;&gt;Node1 -->
<g id="edge1_Node000001_Node000002" class="edge">
<title>Node2&#45;&gt;Node1</title>
<g id="a_edge1_Node000001_Node000002"><a xlink:title=" ">
<path fill="none" stroke="#9a32cd" stroke-dasharray="5,2" d="M539.37,-242.85C549.57,-239.24 560.22,-235.25 570,-231.12 594.73,-220.71 602.06,-219.57 624,-204.12 650.4,-185.55 676.6,-158.01 690.4,-142.61"/>
<polygon fill="#9a32cd" stroke="#9a32cd" points="538.29,-239.52 529.98,-246.09 540.58,-246.13 538.29,-239.52"/>
</a>
</g>
<text text-anchor="middle" x="606" y="-228.37" font-family="Noto Sans, Lucida Grande, Lucida Sans Unicode, Helvetica, Arial, sans-serif" font-size="10.00" fill="grey"> x86</text>
</g>
<!-- Node3 -->
<g id="Node000003" class="node">
<title>Node3</title>
<g id="a_Node000003"><a xlink:href="structcrashpad_1_1CPUContextX86_1_1Fxsave.html" target="_top" xlink:title=" ">
<polygon fill="white" stroke="#bfbfbf" points="342.5,-279.38 205.75,-279.38 205.75,-242.88 342.5,-242.88 342.5,-279.38"/>
<text text-anchor="start" x="213.75" y="-265.88" font-family="Noto Sans, Lucida Grande, Lucida Sans Unicode, Helvetica, Arial, sans-serif" font-size="10.00">crashpad::CPUContextX86</text>
<text text-anchor="middle" x="274.12" y="-251.62" font-family="Noto Sans, Lucida Grande, Lucida Sans Unicode, Helvetica, Arial, sans-serif" font-size="10.00">::Fxsave</text>
</a>
</g>
</g>
<!-- Node3&#45;&gt;Node2 -->
<g id="edge2_Node000002_Node000003" class="edge">
<title>Node3&#45;&gt;Node2</title>
<g id="a_edge2_Node000002_Node000003"><a xlink:title=" ">
<path fill="none" stroke="#9a32cd" stroke-dasharray="5,2" d="M354.35,-260.02C376.69,-259.71 400.77,-259.37 422.36,-259.07"/>
<polygon fill="#9a32cd" stroke="#9a32cd" points="354.32,-256.52 344.37,-260.16 354.42,-263.52 354.32,-256.52"/>
</a>
</g>
<text text-anchor="middle" x="377.38" y="-264.64" font-family="Noto Sans, Lucida Grande, Lucida Sans Unicode, Helvetica, Arial, sans-serif" font-size="10.00" fill="grey"> fxsave</text>
</g>
<!-- Node4 -->
<g id="Node000004" class="node">
<title>Node4</title>
<g id="a_Node000004"><a xlink:href="unioncrashpad_1_1CPUContextX86_1_1X87OrMMXRegister.html" target="_top" xlink:title=" ">
<polygon fill="white" stroke="#bfbfbf" points="136.75,-251.38 0,-251.38 0,-214.88 136.75,-214.88 136.75,-251.38"/>
<text text-anchor="start" x="8" y="-237.88" font-family="Noto Sans, Lucida Grande, Lucida Sans Unicode, Helvetica, Arial, sans-serif" font-size="10.00">crashpad::CPUContextX86</text>
<text text-anchor="middle" x="68.38" y="-223.62" font-family="Noto Sans, Lucida Grande, Lucida Sans Unicode, Helvetica, Arial, sans-serif" font-size="10.00">::X87OrMMXRegister</text>
</a>
</g>
</g>
<!-- Node4&#45;&gt;Node3 -->
<g id="edge3_Node000003_Node000004" class="edge">
<title>Node4&#45;&gt;Node3</title>
<g id="a_edge3_Node000003_Node000004"><a xlink:title=" ">
<path fill="none" stroke="#9a32cd" stroke-dasharray="5,2" d="M148.48,-244C167.34,-246.59 187.29,-249.33 205.58,-251.84"/>
<polygon fill="#9a32cd" stroke="#9a32cd" points="149.1,-240.55 138.72,-242.65 148.15,-247.48 149.1,-240.55"/>
</a>
</g>
<text text-anchor="middle" x="171.25" y="-253.55" font-family="Noto Sans, Lucida Grande, Lucida Sans Unicode, Helvetica, Arial, sans-serif" font-size="10.00" fill="grey"> st_mm</text>
</g>
<!-- Node6 -->
<g id="Node000006" class="node">
<title>Node6</title>
<g id="a_Node000006"><a xlink:href="structcrashpad_1_1CPUContextX86__64_1_1Fxsave.html" target="_top" xlink:title=" ">
<polygon fill="white" stroke="#bfbfbf" points="342.5,-224.38 205.75,-224.38 205.75,-187.88 342.5,-187.88 342.5,-224.38"/>
<text text-anchor="start" x="213.75" y="-210.88" font-family="Noto Sans, Lucida Grande, Lucida Sans Unicode, Helvetica, Arial, sans-serif" font-size="10.00">crashpad::CPUContextX86</text>
<text text-anchor="middle" x="274.12" y="-196.62" font-family="Noto Sans, Lucida Grande, Lucida Sans Unicode, Helvetica, Arial, sans-serif" font-size="10.00">_64::Fxsave</text>
</a>
</g>
</g>
<!-- Node4&#45;&gt;Node6 -->
<g id="edge6_Node000006_Node000004" class="edge">
<title>Node4&#45;&gt;Node6</title>
<g id="a_edge6_Node000006_Node000004"><a xlink:title=" ">
<path fill="none" stroke="#9a32cd" stroke-dasharray="5,2" d="M148.15,-220.79C150.37,-220.47 152.58,-220.17 154.75,-219.88 171.15,-217.65 188.86,-215.47 205.46,-213.53"/>
<polygon fill="#9a32cd" stroke="#9a32cd" points="147.81,-217.3 138.41,-222.18 148.81,-224.23 147.81,-217.3"/>
</a>
</g>
<text text-anchor="middle" x="171.25" y="-224.62" font-family="Noto Sans, Lucida Grande, Lucida Sans Unicode, Helvetica, Arial, sans-serif" font-size="10.00" fill="grey"> st_mm</text>
</g>
<!-- Node5 -->
<g id="Node000005" class="node">
<title>Node5</title>
<g id="a_Node000005"><a xlink:href="structcrashpad_1_1CPUContextX86__64.html" target="_top" xlink:title="A context structure carrying x86_64 CPU state.">
<polygon fill="white" stroke="#666666" points="567.75,-222.25 414.5,-222.25 414.5,-200 567.75,-200 567.75,-222.25"/>
<text text-anchor="middle" x="491.12" y="-208.75" font-family="Noto Sans, Lucida Grande, Lucida Sans Unicode, Helvetica, Arial, sans-serif" font-size="10.00">crashpad::CPUContextX86_64</text>
</a>
</g>
</g>
<!-- Node5&#45;&gt;Node1 -->
<g id="edge4_Node000001_Node000005" class="edge">
<title>Node5&#45;&gt;Node1</title>
<g id="a_edge4_Node000001_Node000005"><a xlink:title=" ">
<path fill="none" stroke="#9a32cd" stroke-dasharray="5,2" d="M550.33,-196.65C556.99,-194.86 563.65,-193 570,-191.12 594.27,-183.97 600.82,-183.26 624,-173.12 644.38,-164.21 666.54,-151.69 681.71,-142.64"/>
<polygon fill="#9a32cd" stroke="#9a32cd" points="549.45,-193.27 540.68,-199.21 551.24,-200.03 549.45,-193.27"/>
</a>
</g>
<text text-anchor="middle" x="606" y="-190.47" font-family="Noto Sans, Lucida Grande, Lucida Sans Unicode, Helvetica, Arial, sans-serif" font-size="10.00" fill="grey"> x86_64</text>
</g>
<!-- Node6&#45;&gt;Node5 -->
<g id="edge5_Node000005_Node000006" class="edge">
<title>Node6&#45;&gt;Node5</title>
<g id="a_edge5_Node000005_Node000006"><a xlink:title=" ">
<path fill="none" stroke="#9a32cd" stroke-dasharray="5,2" d="M354.2,-207.96C373.78,-208.42 394.71,-208.91 414.13,-209.36"/>
<polygon fill="#9a32cd" stroke="#9a32cd" points="354.45,-204.47 344.37,-207.74 354.29,-211.47 354.45,-204.47"/>
</a>
</g>
<text text-anchor="middle" x="377.38" y="-213.52" font-family="Noto Sans, Lucida Grande, Lucida Sans Unicode, Helvetica, Arial, sans-serif" font-size="10.00" fill="grey"> fxsave</text>
</g>
<!-- Node7 -->
<g id="Node000007" class="node">
<title>Node7</title>
<g id="a_Node000007"><a xlink:href="structcrashpad_1_1CPUContextARM.html" target="_top" xlink:title="A context structure carrying ARM CPU state.">
<polygon fill="white" stroke="#666666" points="561.38,-182.25 420.88,-182.25 420.88,-160 561.38,-160 561.38,-182.25"/>
<text text-anchor="middle" x="491.12" y="-168.75" font-family="Noto Sans, Lucida Grande, Lucida Sans Unicode, Helvetica, Arial, sans-serif" font-size="10.00">crashpad::CPUContextARM</text>
</a>
</g>
</g>
<!-- Node7&#45;&gt;Node1 -->
<g id="edge7_Node000001_Node000007" class="edge">
<title>Node7&#45;&gt;Node1</title>
<g id="a_edge7_Node000001_Node000007"><a xlink:title=" ">
<path fill="none" stroke="#9a32cd" stroke-dasharray="5,2" d="M572.76,-158.54C589.72,-155.65 607.48,-152.45 624,-149.12 633.62,-147.19 643.86,-144.92 653.63,-142.66"/>
<polygon fill="#9a32cd" stroke="#9a32cd" points="572.52,-155.03 563.24,-160.14 573.69,-161.94 572.52,-155.03"/>
</a>
</g>
<text text-anchor="middle" x="606" y="-160.01" font-family="Noto Sans, Lucida Grande, Lucida Sans Unicode, Helvetica, Arial, sans-serif" font-size="10.00" fill="grey"> arm</text>
</g>
<!-- Node8 -->
<g id="Node000008" class="node">
<title>Node8</title>
<g id="a_Node000008"><a xlink:href="structcrashpad_1_1CPUContextARM64.html" target="_top" xlink:title="A context structure carrying ARM64 CPU state.">
<polygon fill="white" stroke="#666666" points="567.38,-142.25 414.88,-142.25 414.88,-120 567.38,-120 567.38,-142.25"/>
<text text-anchor="middle" x="491.12" y="-128.75" font-family="Noto Sans, Lucida Grande, Lucida Sans Unicode, Helvetica, Arial, sans-serif" font-size="10.00">crashpad::CPUContextARM64</text>
</a>
</g>
</g>
<!-- Node8&#45;&gt;Node1 -->
<g id="edge8_Node000001_Node000008" class="edge">
<title>Node8&#45;&gt;Node1</title>
<g id="a_edge8_Node000001_Node000008"><a xlink:title=" ">
<path fill="none" stroke="#9a32cd" stroke-dasharray="5,2" d="M578.91,-131.12C600.1,-131.12 622.28,-131.12 641.8,-131.12"/>
<polygon fill="#9a32cd" stroke="#9a32cd" points="579.12,-127.63 569.12,-131.13 579.12,-134.63 579.12,-127.63"/>
</a>
</g>
<text text-anchor="middle" x="606" y="-135.88" font-family="Noto Sans, Lucida Grande, Lucida Sans Unicode, Helvetica, Arial, sans-serif" font-size="10.00" fill="grey"> arm64</text>
</g>
<!-- Node9 -->
<g id="Node000009" class="node">
<title>Node9</title>
<g id="a_Node000009"><a xlink:href="structcrashpad_1_1uint128__struct.html" target="_top" xlink:title="Stores a 128&#45;bit quantity.">
<polygon fill="white" stroke="#666666" points="339.5,-142.25 208.75,-142.25 208.75,-120 339.5,-120 339.5,-142.25"/>
<text text-anchor="middle" x="274.12" y="-128.75" font-family="Noto Sans, Lucida Grande, Lucida Sans Unicode, Helvetica, Arial, sans-serif" font-size="10.00">crashpad::uint128_struct</text>
</a>
</g>
</g>
<!-- Node9&#45;&gt;Node8 -->
<g id="edge9_Node000008_Node000009" class="edge">
<title>Node9&#45;&gt;Node8</title>
<g id="a_edge9_Node000008_Node000009"><a xlink:title=" ">
<path fill="none" stroke="#9a32cd" stroke-dasharray="5,2" d="M351.15,-131.12C371.71,-131.12 393.96,-131.12 414.5,-131.12"/>
<polygon fill="#9a32cd" stroke="#9a32cd" points="351.44,-127.63 341.44,-131.13 351.44,-134.63 351.44,-127.63"/>
</a>
</g>
<text text-anchor="middle" x="377.38" y="-135.88" font-family="Noto Sans, Lucida Grande, Lucida Sans Unicode, Helvetica, Arial, sans-serif" font-size="10.00" fill="grey"> fpsimd</text>
</g>
<!-- Node10 -->
<g id="Node000010" class="node">
<title>Node10</title>
<g id="a_Node000010"><a xlink:href="structcrashpad_1_1CPUContextMIPS.html" target="_top" xlink:title="A context structure carrying MIPS CPU state.">
<polygon fill="white" stroke="#666666" points="562.5,-102.25 419.75,-102.25 419.75,-80 562.5,-80 562.5,-102.25"/>
<text text-anchor="middle" x="491.12" y="-88.75" font-family="Noto Sans, Lucida Grande, Lucida Sans Unicode, Helvetica, Arial, sans-serif" font-size="10.00">crashpad::CPUContextMIPS</text>
</a>
</g>
</g>
<!-- Node10&#45;&gt;Node1 -->
<g id="edge10_Node000001_Node000010" class="edge">
<title>Node10&#45;&gt;Node1</title>
<g id="a_edge10_Node000001_Node000010"><a xlink:title=" ">
<path fill="none" stroke="#9a32cd" stroke-dasharray="5,2" d="M574.11,-103.72C590.67,-106.52 607.92,-109.63 624,-112.88 633.89,-114.87 644.44,-117.24 654.45,-119.59"/>
<polygon fill="#9a32cd" stroke="#9a32cd" points="574.72,-100.27 564.28,-102.08 573.57,-107.18 574.72,-100.27"/>
</a>
</g>
<text text-anchor="middle" x="606" y="-117.62" font-family="Noto Sans, Lucida Grande, Lucida Sans Unicode, Helvetica, Arial, sans-serif" font-size="10.00" fill="grey"> mipsel</text>
</g>
<!-- Node11 -->
<g id="Node000011" class="node">
<title>Node11</title>
<g id="a_Node000011"><a xlink:href="structcrashpad_1_1CPUContextMIPS64.html" target="_top" xlink:title="A context structure carrying MIPS64 CPU state.">
<polygon fill="white" stroke="#666666" points="568.5,-62.25 413.75,-62.25 413.75,-40 568.5,-40 568.5,-62.25"/>
<text text-anchor="middle" x="491.12" y="-48.75" font-family="Noto Sans, Lucida Grande, Lucida Sans Unicode, Helvetica, Arial, sans-serif" font-size="10.00">crashpad::CPUContextMIPS64</text>
</a>
</g>
</g>
<!-- Node11&#45;&gt;Node1 -->
<g id="edge11_Node000001_Node000011" class="edge">
<title>Node11&#45;&gt;Node1</title>
<g id="a_edge11_Node000001_Node000011"><a xlink:title=" ">
<path fill="none" stroke="#9a32cd" stroke-dasharray="5,2" d="M550.33,-65.62C556.98,-67.41 563.65,-69.27 570,-71.12 594.25,-78.22 600.84,-78.77 624,-88.88 644.42,-97.78 666.57,-110.39 681.73,-119.51"/>
<polygon fill="#9a32cd" stroke="#9a32cd" points="551.23,-62.24 540.67,-63.07 549.44,-69.01 551.23,-62.24"/>
</a>
</g>
<text text-anchor="middle" x="606" y="-93.62" font-family="Noto Sans, Lucida Grande, Lucida Sans Unicode, Helvetica, Arial, sans-serif" font-size="10.00" fill="grey"> mips64</text>
</g>
<!-- Node12 -->
<g id="Node000012" class="node">
<title>Node12</title>
<g id="a_Node000012"><a xlink:href="structcrashpad_1_1CPUContextRISCV64.html" target="_top" xlink:title="A context structure carrying RISCV64 CPU state.">
<polygon fill="white" stroke="#666666" points="570,-22.25 412.25,-22.25 412.25,0 570,0 570,-22.25"/>
<text text-anchor="middle" x="491.12" y="-8.75" font-family="Noto Sans, Lucida Grande, Lucida Sans Unicode, Helvetica, Arial, sans-serif" font-size="10.00">crashpad::CPUContextRISCV64</text>
</a>
</g>
</g>
<!-- Node12&#45;&gt;Node1 -->
<g id="edge12_Node000001_Node000012" class="edge">
<title>Node12&#45;&gt;Node1</title>
<g id="a_edge12_Node000001_Node000012"><a xlink:title=" ">
<path fill="none" stroke="#9a32cd" stroke-dasharray="5,2" d="M554.3,-25.84C559.65,-27.48 564.95,-29.25 570,-31.12 595.11,-40.45 602.08,-42.48 624,-57.88 650.46,-76.46 676.64,-104.11 690.41,-119.58"/>
<polygon fill="#9a32cd" stroke="#9a32cd" points="555.32,-22.49 544.74,-23.06 553.36,-29.21 555.32,-22.49"/>
</a>
</g>
<text text-anchor="middle" x="606" y="-62.62" font-family="Noto Sans, Lucida Grande, Lucida Sans Unicode, Helvetica, Arial, sans-serif" font-size="10.00" fill="grey"> riscv64</text>
</g>
</g>
</svg>
