<?xml version="1.0" encoding="UTF-8" standalone="no"?>
<!DOCTYPE svg PUBLIC "-//W3C//DTD SVG 1.1//EN"
 "http://www.w3.org/Graphics/SVG/1.1/DTD/svg11.dtd">
<!-- Generated by graphviz version 12.2.1 (20241206.2353)
 -->
<!-- Title: MINIDUMP_MISC_INFO_5 Pages: 1 -->
<svg width="376pt" height="349pt"
 viewBox="0.00 0.00 376.38 348.75" xmlns="http://www.w3.org/2000/svg" xmlns:xlink="http://www.w3.org/1999/xlink">
<g id="graph0" class="graph" transform="scale(1 1) rotate(0) translate(4 344.75)">
<title>MINIDUMP_MISC_INFO_5</title>
<!-- Node1 -->
<g id="Node000001" class="node">
<title>Node1</title>
<g id="a_Node000001"><a xlink:title="Information about the process that the minidump file contains a snapshot of, as well as the system th...">
<polygon fill="#999999" stroke="#666666" points="291.5,-22.25 154,-22.25 154,0 291.5,0 291.5,-22.25"/>
<text text-anchor="middle" x="222.75" y="-8.75" font-family="Noto Sans, Lucida Grande, Lucida Sans Unicode, Helvetica, Arial, sans-serif" font-size="10.00">MINIDUMP_MISC_INFO_5</text>
</a>
</g>
</g>
<!-- Node2 -->
<g id="Node000002" class="node">
<title>Node2</title>
<g id="a_Node000002"><a xlink:href="structMINIDUMP__MISC__INFO__4.html" target="_top" xlink:title="Information about the process that the minidump file contains a snapshot of, as well as the system th...">
<polygon fill="white" stroke="#666666" points="215.5,-101.88 78,-101.88 78,-79.62 215.5,-79.62 215.5,-101.88"/>
<text text-anchor="middle" x="146.75" y="-88.38" font-family="Noto Sans, Lucida Grande, Lucida Sans Unicode, Helvetica, Arial, sans-serif" font-size="10.00">MINIDUMP_MISC_INFO_4</text>
</a>
</g>
</g>
<!-- Node2&#45;&gt;Node1 -->
<g id="edge1_Node000001_Node000002" class="edge">
<title>Node2&#45;&gt;Node1</title>
<g id="a_edge1_Node000001_Node000002"><a xlink:title=" ">
<path fill="none" stroke="#63b8ff" d="M165.04,-71.07C179.98,-55.81 200.54,-34.81 212.66,-22.43"/>
<polygon fill="#63b8ff" stroke="#63b8ff" points="162.55,-68.61 158.06,-78.2 167.56,-73.5 162.55,-68.61"/>
</a>
</g>
</g>
<!-- Node3 -->
<g id="Node000003" class="node">
<title>Node3</title>
<g id="a_Node000003"><a xlink:href="structMINIDUMP__MISC__INFO__3.html" target="_top" xlink:title="Information about the process that the minidump file contains a snapshot of, as well as the system th...">
<polygon fill="white" stroke="#666666" points="215.5,-181.5 78,-181.5 78,-159.25 215.5,-159.25 215.5,-181.5"/>
<text text-anchor="middle" x="146.75" y="-168" font-family="Noto Sans, Lucida Grande, Lucida Sans Unicode, Helvetica, Arial, sans-serif" font-size="10.00">MINIDUMP_MISC_INFO_3</text>
</a>
</g>
</g>
<!-- Node3&#45;&gt;Node2 -->
<g id="edge2_Node000002_Node000003" class="edge">
<title>Node3&#45;&gt;Node2</title>
<g id="a_edge2_Node000002_Node000003"><a xlink:title=" ">
<path fill="none" stroke="#63b8ff" d="M146.75,-147.63C146.75,-132.72 146.75,-113.62 146.75,-102.05"/>
<polygon fill="#63b8ff" stroke="#63b8ff" points="143.25,-147.39 146.75,-157.39 150.25,-147.39 143.25,-147.39"/>
</a>
</g>
</g>
<!-- Node4 -->
<g id="Node000004" class="node">
<title>Node4</title>
<g id="a_Node000004"><a xlink:href="structMINIDUMP__MISC__INFO__2.html" target="_top" xlink:title="Information about the process that the minidump file contains a snapshot of, as well as the system th...">
<polygon fill="white" stroke="#666666" points="137.5,-254 0,-254 0,-231.75 137.5,-231.75 137.5,-254"/>
<text text-anchor="middle" x="68.75" y="-240.5" font-family="Noto Sans, Lucida Grande, Lucida Sans Unicode, Helvetica, Arial, sans-serif" font-size="10.00">MINIDUMP_MISC_INFO_2</text>
</a>
</g>
</g>
<!-- Node4&#45;&gt;Node3 -->
<g id="edge3_Node000003_Node000004" class="edge">
<title>Node4&#45;&gt;Node3</title>
<g id="a_edge3_Node000003_Node000004"><a xlink:title=" ">
<path fill="none" stroke="#63b8ff" d="M88.7,-223.84C103.43,-210.53 122.96,-192.88 135.19,-181.82"/>
<polygon fill="#63b8ff" stroke="#63b8ff" points="86.45,-221.16 81.38,-230.46 91.15,-226.35 86.45,-221.16"/>
</a>
</g>
</g>
<!-- Node5 -->
<g id="Node000005" class="node">
<title>Node5</title>
<g id="a_Node000005"><a xlink:href="structMINIDUMP__MISC__INFO.html" target="_top" xlink:title="Information about the process that the minidump file contains a snapshot of, as well as the system th...">
<polygon fill="white" stroke="#666666" points="132.25,-340.75 5.25,-340.75 5.25,-318.5 132.25,-318.5 132.25,-340.75"/>
<text text-anchor="middle" x="68.75" y="-327.25" font-family="Noto Sans, Lucida Grande, Lucida Sans Unicode, Helvetica, Arial, sans-serif" font-size="10.00">MINIDUMP_MISC_INFO</text>
</a>
</g>
</g>
<!-- Node5&#45;&gt;Node4 -->
<g id="edge4_Node000004_Node000005" class="edge">
<title>Node5&#45;&gt;Node4</title>
<g id="a_edge4_Node000004_Node000005"><a xlink:title=" ">
<path fill="none" stroke="#63b8ff" d="M68.75,-307.21C68.75,-290.31 68.75,-267.48 68.75,-254.35"/>
<polygon fill="#63b8ff" stroke="#63b8ff" points="65.25,-306.72 68.75,-316.72 72.25,-306.72 65.25,-306.72"/>
</a>
</g>
</g>
<!-- Node6 -->
<g id="Node000006" class="node">
<title>Node6</title>
<g id="a_Node000006"><a xlink:href="structTIME__ZONE__INFORMATION.html" target="_top" xlink:title="Information about a time zone and its daylight saving rules.">
<polygon fill="white" stroke="#666666" points="298.12,-254 155.38,-254 155.38,-231.75 298.12,-231.75 298.12,-254"/>
<text text-anchor="middle" x="226.75" y="-240.5" font-family="Noto Sans, Lucida Grande, Lucida Sans Unicode, Helvetica, Arial, sans-serif" font-size="10.00">TIME_ZONE_INFORMATION</text>
</a>
</g>
</g>
<!-- Node6&#45;&gt;Node3 -->
<g id="edge5_Node000003_Node000006" class="edge">
<title>Node6&#45;&gt;Node3</title>
<g id="a_edge5_Node000003_Node000006"><a xlink:title=" ">
<path fill="none" stroke="#9a32cd" stroke-dasharray="5,2" d="M206.71,-224.22C191.56,-210.86 171.27,-192.98 158.6,-181.82"/>
<polygon fill="#9a32cd" stroke="#9a32cd" points="203.99,-226.49 213.81,-230.47 208.62,-221.23 203.99,-226.49"/>
</a>
</g>
<text text-anchor="middle" x="218.29" y="-204.25" font-family="Noto Sans, Lucida Grande, Lucida Sans Unicode, Helvetica, Arial, sans-serif" font-size="10.00" fill="grey"> TimeZone</text>
</g>
<!-- Node7 -->
<g id="Node000007" class="node">
<title>Node7</title>
<g id="a_Node000007"><a xlink:href="structSYSTEMTIME.html" target="_top" xlink:title="Represents a date and time.">
<polygon fill="white" stroke="#666666" points="264.38,-340.75 189.12,-340.75 189.12,-318.5 264.38,-318.5 264.38,-340.75"/>
<text text-anchor="middle" x="226.75" y="-327.25" font-family="Noto Sans, Lucida Grande, Lucida Sans Unicode, Helvetica, Arial, sans-serif" font-size="10.00">SYSTEMTIME</text>
</a>
</g>
</g>
<!-- Node7&#45;&gt;Node6 -->
<g id="edge6_Node000006_Node000007" class="edge">
<title>Node7&#45;&gt;Node6</title>
<g id="a_edge6_Node000006_Node000007"><a xlink:title=" ">
<path fill="none" stroke="#9a32cd" stroke-dasharray="5,2" d="M226.75,-307.21C226.75,-290.31 226.75,-267.48 226.75,-254.35"/>
<polygon fill="#9a32cd" stroke="#9a32cd" points="223.25,-306.72 226.75,-316.72 230.25,-306.72 223.25,-306.72"/>
</a>
</g>
<text text-anchor="middle" x="258.62" y="-291" font-family="Noto Sans, Lucida Grande, Lucida Sans Unicode, Helvetica, Arial, sans-serif" font-size="10.00" fill="grey"> DaylightDate</text>
<text text-anchor="middle" x="258.62" y="-276.75" font-family="Noto Sans, Lucida Grande, Lucida Sans Unicode, Helvetica, Arial, sans-serif" font-size="10.00" fill="grey">StandardDate</text>
</g>
<!-- Node8 -->
<g id="Node000008" class="node">
<title>Node8</title>
<g id="a_Node000008"><a xlink:href="structXSTATE__CONFIG__FEATURE__MSC__INFO.html" target="_top" xlink:title="Information about XSAVE&#45;managed state stored within CPU&#45;specific context structures.">
<polygon fill="white" stroke="#666666" points="368.38,-109 233.12,-109 233.12,-72.5 368.38,-72.5 368.38,-109"/>
<text text-anchor="start" x="241.12" y="-95.5" font-family="Noto Sans, Lucida Grande, Lucida Sans Unicode, Helvetica, Arial, sans-serif" font-size="10.00">XSTATE_CONFIG_FEATURE</text>
<text text-anchor="middle" x="300.75" y="-81.25" font-family="Noto Sans, Lucida Grande, Lucida Sans Unicode, Helvetica, Arial, sans-serif" font-size="10.00">_MSC_INFO</text>
</a>
</g>
</g>
<!-- Node8&#45;&gt;Node1 -->
<g id="edge7_Node000001_Node000008" class="edge">
<title>Node8&#45;&gt;Node1</title>
<g id="a_edge7_Node000001_Node000008"><a xlink:title=" ">
<path fill="none" stroke="#9a32cd" stroke-dasharray="5,2" d="M275.09,-64.21C260.93,-50.12 244.1,-33.37 233.42,-22.74"/>
<polygon fill="#9a32cd" stroke="#9a32cd" points="272.42,-66.49 281.98,-71.07 277.36,-61.53 272.42,-66.49"/>
</a>
</g>
<text text-anchor="middle" x="291.09" y="-45" font-family="Noto Sans, Lucida Grande, Lucida Sans Unicode, Helvetica, Arial, sans-serif" font-size="10.00" fill="grey"> XStateData</text>
</g>
<!-- Node9 -->
<g id="Node000009" class="node">
<title>Node9</title>
<g id="a_Node000009"><a xlink:href="structXSTATE__FEATURE.html" target="_top" xlink:title="The location of a single state component within an XSAVE area.">
<polygon fill="white" stroke="#666666" points="347.38,-181.5 254.12,-181.5 254.12,-159.25 347.38,-159.25 347.38,-181.5"/>
<text text-anchor="middle" x="300.75" y="-168" font-family="Noto Sans, Lucida Grande, Lucida Sans Unicode, Helvetica, Arial, sans-serif" font-size="10.00">XSTATE_FEATURE</text>
</a>
</g>
</g>
<!-- Node9&#45;&gt;Node8 -->
<g id="edge8_Node000008_Node000009" class="edge">
<title>Node9&#45;&gt;Node8</title>
<g id="a_edge8_Node000008_Node000009"><a xlink:title=" ">
<path fill="none" stroke="#9a32cd" stroke-dasharray="5,2" d="M300.75,-147.61C300.75,-135.57 300.75,-120.79 300.75,-109.47"/>
<polygon fill="#9a32cd" stroke="#9a32cd" points="297.25,-147.39 300.75,-157.39 304.25,-147.39 297.25,-147.39"/>
</a>
</g>
<text text-anchor="middle" x="322.12" y="-131.75" font-family="Noto Sans, Lucida Grande, Lucida Sans Unicode, Helvetica, Arial, sans-serif" font-size="10.00" fill="grey"> Features</text>
</g>
</g>
</svg>
