<?xml version="1.0" encoding="UTF-8" standalone="no"?>
<!DOCTYPE svg PUBLIC "-//W3C//DTD SVG 1.1//EN"
 "http://www.w3.org/Graphics/SVG/1.1/DTD/svg11.dtd">
<!-- Generated by graphviz version 12.2.1 (20241206.2353)
 -->
<!-- Title: MINIDUMP_MISC_INFO_3 Pages: 1 -->
<svg width="306pt" height="190pt"
 viewBox="0.00 0.00 306.12 189.50" xmlns="http://www.w3.org/2000/svg" xmlns:xlink="http://www.w3.org/1999/xlink">
<g id="graph0" class="graph" transform="scale(1 1) rotate(0) translate(4 185.5)">
<title>MINIDUMP_MISC_INFO_3</title>
<!-- Node1 -->
<g id="Node000001" class="node">
<title>Node1</title>
<g id="a_Node000001"><a xlink:title="Information about the process that the minidump file contains a snapshot of, as well as the system th...">
<polygon fill="#999999" stroke="#666666" points="215.5,-22.25 78,-22.25 78,0 215.5,0 215.5,-22.25"/>
<text text-anchor="middle" x="146.75" y="-8.75" font-family="Noto Sans, Lucida Grande, Lucida Sans Unicode, Helvetica, Arial, sans-serif" font-size="10.00">MINIDUMP_MISC_INFO_3</text>
</a>
</g>
</g>
<!-- Node2 -->
<g id="Node000002" class="node">
<title>Node2</title>
<g id="a_Node000002"><a xlink:href="structMINIDUMP__MISC__INFO__2.html" target="_top" xlink:title="Information about the process that the minidump file contains a snapshot of, as well as the system th...">
<polygon fill="white" stroke="#666666" points="137.5,-94.75 0,-94.75 0,-72.5 137.5,-72.5 137.5,-94.75"/>
<text text-anchor="middle" x="68.75" y="-81.25" font-family="Noto Sans, Lucida Grande, Lucida Sans Unicode, Helvetica, Arial, sans-serif" font-size="10.00">MINIDUMP_MISC_INFO_2</text>
</a>
</g>
</g>
<!-- Node2&#45;&gt;Node1 -->
<g id="edge1_Node000001_Node000002" class="edge">
<title>Node2&#45;&gt;Node1</title>
<g id="a_edge1_Node000001_Node000002"><a xlink:title=" ">
<path fill="none" stroke="#63b8ff" d="M88.7,-64.59C103.43,-51.28 122.96,-33.63 135.19,-22.57"/>
<polygon fill="#63b8ff" stroke="#63b8ff" points="86.45,-61.91 81.38,-71.21 91.15,-67.1 86.45,-61.91"/>
</a>
</g>
</g>
<!-- Node3 -->
<g id="Node000003" class="node">
<title>Node3</title>
<g id="a_Node000003"><a xlink:href="structMINIDUMP__MISC__INFO.html" target="_top" xlink:title="Information about the process that the minidump file contains a snapshot of, as well as the system th...">
<polygon fill="white" stroke="#666666" points="132.25,-181.5 5.25,-181.5 5.25,-159.25 132.25,-159.25 132.25,-181.5"/>
<text text-anchor="middle" x="68.75" y="-168" font-family="Noto Sans, Lucida Grande, Lucida Sans Unicode, Helvetica, Arial, sans-serif" font-size="10.00">MINIDUMP_MISC_INFO</text>
</a>
</g>
</g>
<!-- Node3&#45;&gt;Node2 -->
<g id="edge2_Node000002_Node000003" class="edge">
<title>Node3&#45;&gt;Node2</title>
<g id="a_edge2_Node000002_Node000003"><a xlink:title=" ">
<path fill="none" stroke="#63b8ff" d="M68.75,-147.96C68.75,-131.06 68.75,-108.23 68.75,-95.1"/>
<polygon fill="#63b8ff" stroke="#63b8ff" points="65.25,-147.47 68.75,-157.47 72.25,-147.47 65.25,-147.47"/>
</a>
</g>
</g>
<!-- Node4 -->
<g id="Node000004" class="node">
<title>Node4</title>
<g id="a_Node000004"><a xlink:href="structTIME__ZONE__INFORMATION.html" target="_top" xlink:title="Information about a time zone and its daylight saving rules.">
<polygon fill="white" stroke="#666666" points="298.12,-94.75 155.38,-94.75 155.38,-72.5 298.12,-72.5 298.12,-94.75"/>
<text text-anchor="middle" x="226.75" y="-81.25" font-family="Noto Sans, Lucida Grande, Lucida Sans Unicode, Helvetica, Arial, sans-serif" font-size="10.00">TIME_ZONE_INFORMATION</text>
</a>
</g>
</g>
<!-- Node4&#45;&gt;Node1 -->
<g id="edge3_Node000001_Node000004" class="edge">
<title>Node4&#45;&gt;Node1</title>
<g id="a_edge3_Node000001_Node000004"><a xlink:title=" ">
<path fill="none" stroke="#9a32cd" stroke-dasharray="5,2" d="M206.71,-64.97C191.56,-51.61 171.27,-33.73 158.6,-22.57"/>
<polygon fill="#9a32cd" stroke="#9a32cd" points="203.99,-67.24 213.81,-71.22 208.62,-61.98 203.99,-67.24"/>
</a>
</g>
<text text-anchor="middle" x="218.29" y="-45" font-family="Noto Sans, Lucida Grande, Lucida Sans Unicode, Helvetica, Arial, sans-serif" font-size="10.00" fill="grey"> TimeZone</text>
</g>
<!-- Node5 -->
<g id="Node000005" class="node">
<title>Node5</title>
<g id="a_Node000005"><a xlink:href="structSYSTEMTIME.html" target="_top" xlink:title="Represents a date and time.">
<polygon fill="white" stroke="#666666" points="264.38,-181.5 189.12,-181.5 189.12,-159.25 264.38,-159.25 264.38,-181.5"/>
<text text-anchor="middle" x="226.75" y="-168" font-family="Noto Sans, Lucida Grande, Lucida Sans Unicode, Helvetica, Arial, sans-serif" font-size="10.00">SYSTEMTIME</text>
</a>
</g>
</g>
<!-- Node5&#45;&gt;Node4 -->
<g id="edge4_Node000004_Node000005" class="edge">
<title>Node5&#45;&gt;Node4</title>
<g id="a_edge4_Node000004_Node000005"><a xlink:title=" ">
<path fill="none" stroke="#9a32cd" stroke-dasharray="5,2" d="M226.75,-147.96C226.75,-131.06 226.75,-108.23 226.75,-95.1"/>
<polygon fill="#9a32cd" stroke="#9a32cd" points="223.25,-147.47 226.75,-157.47 230.25,-147.47 223.25,-147.47"/>
</a>
</g>
<text text-anchor="middle" x="258.62" y="-131.75" font-family="Noto Sans, Lucida Grande, Lucida Sans Unicode, Helvetica, Arial, sans-serif" font-size="10.00" fill="grey"> DaylightDate</text>
<text text-anchor="middle" x="258.62" y="-117.5" font-family="Noto Sans, Lucida Grande, Lucida Sans Unicode, Helvetica, Arial, sans-serif" font-size="10.00" fill="grey">StandardDate</text>
</g>
</g>
</svg>
