<?xml version="1.0" encoding="UTF-8" standalone="no"?>
<!DOCTYPE svg PUBLIC "-//W3C//DTD SVG 1.1//EN"
 "http://www.w3.org/Graphics/SVG/1.1/DTD/svg11.dtd">
<!-- Generated by graphviz version 12.2.1 (20241206.2353)
 -->
<!-- Title: MINIDUMP_MISC_INFO Pages: 1 -->
<svg width="146pt" height="263pt"
 viewBox="0.00 0.00 145.50 263.25" xmlns="http://www.w3.org/2000/svg" xmlns:xlink="http://www.w3.org/1999/xlink">
<g id="graph0" class="graph" transform="scale(1 1) rotate(0) translate(4 259.25)">
<title>MINIDUMP_MISC_INFO</title>
<!-- Node1 -->
<g id="Node000001" class="node">
<title>Node1</title>
<g id="a_Node000001"><a xlink:title="Information about the process that the minidump file contains a snapshot of, as well as the system th...">
<polygon fill="#999999" stroke="#666666" points="132.25,-255.25 5.25,-255.25 5.25,-233 132.25,-233 132.25,-255.25"/>
<text text-anchor="middle" x="68.75" y="-241.75" font-family="Noto Sans, Lucida Grande, Lucida Sans Unicode, Helvetica, Arial, sans-serif" font-size="10.00">MINIDUMP_MISC_INFO</text>
</a>
</g>
</g>
<!-- Node2 -->
<g id="Node000002" class="node">
<title>Node2</title>
<g id="a_Node000002"><a xlink:href="structMINIDUMP__MISC__INFO__2.html" target="_top" xlink:title="Information about the process that the minidump file contains a snapshot of, as well as the system th...">
<polygon fill="white" stroke="#666666" points="137.5,-197 0,-197 0,-174.75 137.5,-174.75 137.5,-197"/>
<text text-anchor="middle" x="68.75" y="-183.5" font-family="Noto Sans, Lucida Grande, Lucida Sans Unicode, Helvetica, Arial, sans-serif" font-size="10.00">MINIDUMP_MISC_INFO_2</text>
</a>
</g>
</g>
<!-- Node1&#45;&gt;Node2 -->
<g id="edge1_Node000001_Node000002" class="edge">
<title>Node1&#45;&gt;Node2</title>
<g id="a_edge1_Node000001_Node000002"><a xlink:title=" ">
<path fill="none" stroke="#63b8ff" d="M68.75,-221.1C68.75,-212.95 68.75,-204.08 68.75,-197.41"/>
<polygon fill="#63b8ff" stroke="#63b8ff" points="65.25,-221.03 68.75,-231.03 72.25,-221.03 65.25,-221.03"/>
</a>
</g>
</g>
<!-- Node3 -->
<g id="Node000003" class="node">
<title>Node3</title>
<g id="a_Node000003"><a xlink:href="structMINIDUMP__MISC__INFO__3.html" target="_top" xlink:title="Information about the process that the minidump file contains a snapshot of, as well as the system th...">
<polygon fill="white" stroke="#666666" points="137.5,-138.75 0,-138.75 0,-116.5 137.5,-116.5 137.5,-138.75"/>
<text text-anchor="middle" x="68.75" y="-125.25" font-family="Noto Sans, Lucida Grande, Lucida Sans Unicode, Helvetica, Arial, sans-serif" font-size="10.00">MINIDUMP_MISC_INFO_3</text>
</a>
</g>
</g>
<!-- Node2&#45;&gt;Node3 -->
<g id="edge2_Node000002_Node000003" class="edge">
<title>Node2&#45;&gt;Node3</title>
<g id="a_edge2_Node000002_Node000003"><a xlink:title=" ">
<path fill="none" stroke="#63b8ff" d="M68.75,-162.85C68.75,-154.7 68.75,-145.83 68.75,-139.16"/>
<polygon fill="#63b8ff" stroke="#63b8ff" points="65.25,-162.78 68.75,-172.78 72.25,-162.78 65.25,-162.78"/>
</a>
</g>
</g>
<!-- Node4 -->
<g id="Node000004" class="node">
<title>Node4</title>
<g id="a_Node000004"><a xlink:href="structMINIDUMP__MISC__INFO__4.html" target="_top" xlink:title="Information about the process that the minidump file contains a snapshot of, as well as the system th...">
<polygon fill="white" stroke="#666666" points="137.5,-80.5 0,-80.5 0,-58.25 137.5,-58.25 137.5,-80.5"/>
<text text-anchor="middle" x="68.75" y="-67" font-family="Noto Sans, Lucida Grande, Lucida Sans Unicode, Helvetica, Arial, sans-serif" font-size="10.00">MINIDUMP_MISC_INFO_4</text>
</a>
</g>
</g>
<!-- Node3&#45;&gt;Node4 -->
<g id="edge3_Node000003_Node000004" class="edge">
<title>Node3&#45;&gt;Node4</title>
<g id="a_edge3_Node000003_Node000004"><a xlink:title=" ">
<path fill="none" stroke="#63b8ff" d="M68.75,-104.6C68.75,-96.45 68.75,-87.58 68.75,-80.91"/>
<polygon fill="#63b8ff" stroke="#63b8ff" points="65.25,-104.53 68.75,-114.53 72.25,-104.53 65.25,-104.53"/>
</a>
</g>
</g>
<!-- Node5 -->
<g id="Node000005" class="node">
<title>Node5</title>
<g id="a_Node000005"><a xlink:href="structMINIDUMP__MISC__INFO__5.html" target="_top" xlink:title="Information about the process that the minidump file contains a snapshot of, as well as the system th...">
<polygon fill="white" stroke="#666666" points="137.5,-22.25 0,-22.25 0,0 137.5,0 137.5,-22.25"/>
<text text-anchor="middle" x="68.75" y="-8.75" font-family="Noto Sans, Lucida Grande, Lucida Sans Unicode, Helvetica, Arial, sans-serif" font-size="10.00">MINIDUMP_MISC_INFO_5</text>
</a>
</g>
</g>
<!-- Node4&#45;&gt;Node5 -->
<g id="edge4_Node000004_Node000005" class="edge">
<title>Node4&#45;&gt;Node5</title>
<g id="a_edge4_Node000004_Node000005"><a xlink:title=" ">
<path fill="none" stroke="#63b8ff" d="M68.75,-46.35C68.75,-38.2 68.75,-29.33 68.75,-22.66"/>
<polygon fill="#63b8ff" stroke="#63b8ff" points="65.25,-46.28 68.75,-56.28 72.25,-46.28 65.25,-46.28"/>
</a>
</g>
</g>
</g>
</svg>
