<?xml version="1.0" encoding="UTF-8" standalone="no"?>
<!DOCTYPE svg PUBLIC "-//W3C//DTD SVG 1.1//EN"
 "http://www.w3.org/Graphics/SVG/1.1/DTD/svg11.dtd">
<!-- Generated by graphviz version 12.2.1 (20241206.2353)
 -->
<!-- Title: MINIDUMP_THREAD Pages: 1 -->
<svg width="354pt" height="175pt"
 viewBox="0.00 0.00 354.25 175.25" xmlns="http://www.w3.org/2000/svg" xmlns:xlink="http://www.w3.org/1999/xlink">
<g id="graph0" class="graph" transform="scale(1 1) rotate(0) translate(4 171.25)">
<title>MINIDUMP_THREAD</title>
<!-- Node1 -->
<g id="Node000001" class="node">
<title>Node1</title>
<g id="a_Node000001"><a xlink:title="Information about a specific thread within the process.">
<polygon fill="#999999" stroke="#666666" points="186.5,-22.25 73.75,-22.25 73.75,0 186.5,0 186.5,-22.25"/>
<text text-anchor="middle" x="130.12" y="-8.75" font-family="Noto Sans, Lucida Grande, Lucida Sans Unicode, Helvetica, Arial, sans-serif" font-size="10.00">MINIDUMP_THREAD</text>
</a>
</g>
</g>
<!-- Node2 -->
<g id="Node000002" class="node">
<title>Node2</title>
<g id="a_Node000002"><a xlink:href="structMINIDUMP__MEMORY__DESCRIPTOR.html" target="_top" xlink:title="A pointer to a snapshot of a region of memory contained within a minidump file.">
<polygon fill="white" stroke="#666666" points="346.25,-94.75 166,-94.75 166,-72.5 346.25,-72.5 346.25,-94.75"/>
<text text-anchor="middle" x="256.12" y="-81.25" font-family="Noto Sans, Lucida Grande, Lucida Sans Unicode, Helvetica, Arial, sans-serif" font-size="10.00">MINIDUMP_MEMORY_DESCRIPTOR</text>
</a>
</g>
</g>
<!-- Node2&#45;&gt;Node1 -->
<g id="edge1_Node000001_Node000002" class="edge">
<title>Node2&#45;&gt;Node1</title>
<g id="a_edge1_Node000001_Node000002"><a xlink:title=" ">
<path fill="none" stroke="#9a32cd" stroke-dasharray="5,2" d="M227.25,-66.47C203.11,-52.96 169.4,-34.1 148.71,-22.52"/>
<polygon fill="#9a32cd" stroke="#9a32cd" points="225.5,-69.5 235.94,-71.33 228.92,-63.39 225.5,-69.5"/>
</a>
</g>
<text text-anchor="middle" x="217.54" y="-45" font-family="Noto Sans, Lucida Grande, Lucida Sans Unicode, Helvetica, Arial, sans-serif" font-size="10.00" fill="grey"> Stack</text>
</g>
<!-- Node3 -->
<g id="Node000003" class="node">
<title>Node3</title>
<g id="a_Node000003"><a xlink:href="structMINIDUMP__LOCATION__DESCRIPTOR.html" target="_top" xlink:title="A pointer to a structure or union within a minidump file.">
<polygon fill="white" stroke="#666666" points="186.25,-167.25 0,-167.25 0,-145 186.25,-145 186.25,-167.25"/>
<text text-anchor="middle" x="93.12" y="-153.75" font-family="Noto Sans, Lucida Grande, Lucida Sans Unicode, Helvetica, Arial, sans-serif" font-size="10.00">MINIDUMP_LOCATION_DESCRIPTOR</text>
</a>
</g>
</g>
<!-- Node3&#45;&gt;Node1 -->
<g id="edge3_Node000001_Node000003" class="edge">
<title>Node3&#45;&gt;Node1</title>
<g id="a_edge3_Node000001_Node000003"><a xlink:title=" ">
<path fill="none" stroke="#9a32cd" stroke-dasharray="5,2" d="M87.02,-133.7C83.21,-116.7 80.15,-92.55 86.62,-72.5 93.05,-52.58 108.77,-33.7 119.44,-22.51"/>
<polygon fill="#9a32cd" stroke="#9a32cd" points="83.57,-134.35 89.42,-143.18 90.36,-132.63 83.57,-134.35"/>
</a>
</g>
<text text-anchor="middle" x="121.88" y="-81.25" font-family="Noto Sans, Lucida Grande, Lucida Sans Unicode, Helvetica, Arial, sans-serif" font-size="10.00" fill="grey"> ThreadContext</text>
</g>
<!-- Node3&#45;&gt;Node2 -->
<g id="edge2_Node000002_Node000003" class="edge">
<title>Node3&#45;&gt;Node2</title>
<g id="a_edge2_Node000002_Node000003"><a xlink:title=" ">
<path fill="none" stroke="#9a32cd" stroke-dasharray="5,2" d="M127.96,-140.06C159.22,-126.54 204.3,-107.04 231.82,-95.14"/>
<polygon fill="#9a32cd" stroke="#9a32cd" points="126.71,-136.79 118.92,-143.97 129.48,-143.21 126.71,-136.79"/>
</a>
</g>
<text text-anchor="middle" x="210.22" y="-117.5" font-family="Noto Sans, Lucida Grande, Lucida Sans Unicode, Helvetica, Arial, sans-serif" font-size="10.00" fill="grey"> Memory</text>
</g>
</g>
</svg>
