<?xml version="1.0" encoding="UTF-8" standalone="no"?>
<!DOCTYPE svg PUBLIC "-//W3C//DTD SVG 1.1//EN"
 "http://www.w3.org/Graphics/SVG/1.1/DTD/svg11.dtd">
<!-- Generated by graphviz version 12.2.1 (20241206.2353)
 -->
<!-- Title: MINIDUMP_MISC_INFO_4 Pages: 1 -->
<svg width="306pt" height="249pt"
 viewBox="0.00 0.00 306.12 248.75" xmlns="http://www.w3.org/2000/svg" xmlns:xlink="http://www.w3.org/1999/xlink">
<g id="graph0" class="graph" transform="scale(1 1) rotate(0) translate(4 244.75)">
<title>MINIDUMP_MISC_INFO_4</title>
<!-- Node1 -->
<g id="Node000001" class="node">
<title>Node1</title>
<g id="a_Node000001"><a xlink:title="Information about the process that the minidump file contains a snapshot of, as well as the system th...">
<polygon fill="#999999" stroke="#666666" points="215.5,-22.25 78,-22.25 78,0 215.5,0 215.5,-22.25"/>
<text text-anchor="middle" x="146.75" y="-8.75" font-family="Noto Sans, Lucida Grande, Lucida Sans Unicode, Helvetica, Arial, sans-serif" font-size="10.00">MINIDUMP_MISC_INFO_4</text>
</a>
</g>
</g>
<!-- Node2 -->
<g id="Node000002" class="node">
<title>Node2</title>
<g id="a_Node000002"><a xlink:href="structMINIDUMP__MISC__INFO__3.html" target="_top" xlink:title="Information about the process that the minidump file contains a snapshot of, as well as the system th...">
<polygon fill="white" stroke="#666666" points="215.5,-81.5 78,-81.5 78,-59.25 215.5,-59.25 215.5,-81.5"/>
<text text-anchor="middle" x="146.75" y="-68" font-family="Noto Sans, Lucida Grande, Lucida Sans Unicode, Helvetica, Arial, sans-serif" font-size="10.00">MINIDUMP_MISC_INFO_3</text>
</a>
</g>
</g>
<!-- Node2&#45;&gt;Node1 -->
<g id="edge1_Node000001_Node000002" class="edge">
<title>Node2&#45;&gt;Node1</title>
<g id="a_edge1_Node000001_Node000002"><a xlink:title=" ">
<path fill="none" stroke="#63b8ff" d="M146.75,-47.65C146.75,-39.05 146.75,-29.56 146.75,-22.56"/>
<polygon fill="#63b8ff" stroke="#63b8ff" points="143.25,-47.36 146.75,-57.36 150.25,-47.36 143.25,-47.36"/>
</a>
</g>
</g>
<!-- Node3 -->
<g id="Node000003" class="node">
<title>Node3</title>
<g id="a_Node000003"><a xlink:href="structMINIDUMP__MISC__INFO__2.html" target="_top" xlink:title="Information about the process that the minidump file contains a snapshot of, as well as the system th...">
<polygon fill="white" stroke="#666666" points="137.5,-154 0,-154 0,-131.75 137.5,-131.75 137.5,-154"/>
<text text-anchor="middle" x="68.75" y="-140.5" font-family="Noto Sans, Lucida Grande, Lucida Sans Unicode, Helvetica, Arial, sans-serif" font-size="10.00">MINIDUMP_MISC_INFO_2</text>
</a>
</g>
</g>
<!-- Node3&#45;&gt;Node2 -->
<g id="edge2_Node000002_Node000003" class="edge">
<title>Node3&#45;&gt;Node2</title>
<g id="a_edge2_Node000002_Node000003"><a xlink:title=" ">
<path fill="none" stroke="#63b8ff" d="M88.7,-123.84C103.43,-110.53 122.96,-92.88 135.19,-81.82"/>
<polygon fill="#63b8ff" stroke="#63b8ff" points="86.45,-121.16 81.38,-130.46 91.15,-126.35 86.45,-121.16"/>
</a>
</g>
</g>
<!-- Node4 -->
<g id="Node000004" class="node">
<title>Node4</title>
<g id="a_Node000004"><a xlink:href="structMINIDUMP__MISC__INFO.html" target="_top" xlink:title="Information about the process that the minidump file contains a snapshot of, as well as the system th...">
<polygon fill="white" stroke="#666666" points="132.25,-240.75 5.25,-240.75 5.25,-218.5 132.25,-218.5 132.25,-240.75"/>
<text text-anchor="middle" x="68.75" y="-227.25" font-family="Noto Sans, Lucida Grande, Lucida Sans Unicode, Helvetica, Arial, sans-serif" font-size="10.00">MINIDUMP_MISC_INFO</text>
</a>
</g>
</g>
<!-- Node4&#45;&gt;Node3 -->
<g id="edge3_Node000003_Node000004" class="edge">
<title>Node4&#45;&gt;Node3</title>
<g id="a_edge3_Node000003_Node000004"><a xlink:title=" ">
<path fill="none" stroke="#63b8ff" d="M68.75,-207.21C68.75,-190.31 68.75,-167.48 68.75,-154.35"/>
<polygon fill="#63b8ff" stroke="#63b8ff" points="65.25,-206.72 68.75,-216.72 72.25,-206.72 65.25,-206.72"/>
</a>
</g>
</g>
<!-- Node5 -->
<g id="Node000005" class="node">
<title>Node5</title>
<g id="a_Node000005"><a xlink:href="structTIME__ZONE__INFORMATION.html" target="_top" xlink:title="Information about a time zone and its daylight saving rules.">
<polygon fill="white" stroke="#666666" points="298.12,-154 155.38,-154 155.38,-131.75 298.12,-131.75 298.12,-154"/>
<text text-anchor="middle" x="226.75" y="-140.5" font-family="Noto Sans, Lucida Grande, Lucida Sans Unicode, Helvetica, Arial, sans-serif" font-size="10.00">TIME_ZONE_INFORMATION</text>
</a>
</g>
</g>
<!-- Node5&#45;&gt;Node2 -->
<g id="edge4_Node000002_Node000005" class="edge">
<title>Node5&#45;&gt;Node2</title>
<g id="a_edge4_Node000002_Node000005"><a xlink:title=" ">
<path fill="none" stroke="#9a32cd" stroke-dasharray="5,2" d="M206.71,-124.22C191.56,-110.86 171.27,-92.98 158.6,-81.82"/>
<polygon fill="#9a32cd" stroke="#9a32cd" points="203.99,-126.49 213.81,-130.47 208.62,-121.23 203.99,-126.49"/>
</a>
</g>
<text text-anchor="middle" x="218.29" y="-104.25" font-family="Noto Sans, Lucida Grande, Lucida Sans Unicode, Helvetica, Arial, sans-serif" font-size="10.00" fill="grey"> TimeZone</text>
</g>
<!-- Node6 -->
<g id="Node000006" class="node">
<title>Node6</title>
<g id="a_Node000006"><a xlink:href="structSYSTEMTIME.html" target="_top" xlink:title="Represents a date and time.">
<polygon fill="white" stroke="#666666" points="264.38,-240.75 189.12,-240.75 189.12,-218.5 264.38,-218.5 264.38,-240.75"/>
<text text-anchor="middle" x="226.75" y="-227.25" font-family="Noto Sans, Lucida Grande, Lucida Sans Unicode, Helvetica, Arial, sans-serif" font-size="10.00">SYSTEMTIME</text>
</a>
</g>
</g>
<!-- Node6&#45;&gt;Node5 -->
<g id="edge5_Node000005_Node000006" class="edge">
<title>Node6&#45;&gt;Node5</title>
<g id="a_edge5_Node000005_Node000006"><a xlink:title=" ">
<path fill="none" stroke="#9a32cd" stroke-dasharray="5,2" d="M226.75,-207.21C226.75,-190.31 226.75,-167.48 226.75,-154.35"/>
<polygon fill="#9a32cd" stroke="#9a32cd" points="223.25,-206.72 226.75,-216.72 230.25,-206.72 223.25,-206.72"/>
</a>
</g>
<text text-anchor="middle" x="258.62" y="-191" font-family="Noto Sans, Lucida Grande, Lucida Sans Unicode, Helvetica, Arial, sans-serif" font-size="10.00" fill="grey"> DaylightDate</text>
<text text-anchor="middle" x="258.62" y="-176.75" font-family="Noto Sans, Lucida Grande, Lucida Sans Unicode, Helvetica, Arial, sans-serif" font-size="10.00" fill="grey">StandardDate</text>
</g>
</g>
</svg>
