<?xml version="1.0" encoding="UTF-8" standalone="no"?>
<!DOCTYPE svg PUBLIC "-//W3C//DTD SVG 1.1//EN"
 "http://www.w3.org/Graphics/SVG/1.1/DTD/svg11.dtd">
<!-- Generated by graphviz version 12.2.1 (20241206.2353)
 -->
<!-- Title: MINIDUMP_THREAD_LIST Pages: 1 -->
<svg width="354pt" height="248pt"
 viewBox="0.00 0.00 354.25 247.75" xmlns="http://www.w3.org/2000/svg" xmlns:xlink="http://www.w3.org/1999/xlink">
<g id="graph0" class="graph" transform="scale(1 1) rotate(0) translate(4 243.75)">
<title>MINIDUMP_THREAD_LIST</title>
<!-- Node1 -->
<g id="Node000001" class="node">
<title>Node1</title>
<g id="a_Node000001"><a xlink:title="Information about all threads within the process.">
<polygon fill="#999999" stroke="#666666" points="198.5,-22.25 61.75,-22.25 61.75,0 198.5,0 198.5,-22.25"/>
<text text-anchor="middle" x="130.12" y="-8.75" font-family="Noto Sans, Lucida Grande, Lucida Sans Unicode, Helvetica, Arial, sans-serif" font-size="10.00">MINIDUMP_THREAD_LIST</text>
</a>
</g>
</g>
<!-- Node2 -->
<g id="Node000002" class="node">
<title>Node2</title>
<g id="a_Node000002"><a xlink:href="structMINIDUMP__THREAD.html" target="_top" xlink:title="Information about a specific thread within the process.">
<polygon fill="white" stroke="#666666" points="186.5,-94.75 73.75,-94.75 73.75,-72.5 186.5,-72.5 186.5,-94.75"/>
<text text-anchor="middle" x="130.12" y="-81.25" font-family="Noto Sans, Lucida Grande, Lucida Sans Unicode, Helvetica, Arial, sans-serif" font-size="10.00">MINIDUMP_THREAD</text>
</a>
</g>
</g>
<!-- Node2&#45;&gt;Node1 -->
<g id="edge1_Node000001_Node000002" class="edge">
<title>Node2&#45;&gt;Node1</title>
<g id="a_edge1_Node000001_Node000002"><a xlink:title=" ">
<path fill="none" stroke="#9a32cd" stroke-dasharray="5,2" d="M130.12,-60.72C130.12,-48.01 130.12,-32.58 130.12,-22.57"/>
<polygon fill="#9a32cd" stroke="#9a32cd" points="126.63,-60.71 130.13,-70.71 133.63,-60.71 126.63,-60.71"/>
</a>
</g>
<text text-anchor="middle" x="149.62" y="-45" font-family="Noto Sans, Lucida Grande, Lucida Sans Unicode, Helvetica, Arial, sans-serif" font-size="10.00" fill="grey"> Threads</text>
</g>
<!-- Node3 -->
<g id="Node000003" class="node">
<title>Node3</title>
<g id="a_Node000003"><a xlink:href="structMINIDUMP__MEMORY__DESCRIPTOR.html" target="_top" xlink:title="A pointer to a snapshot of a region of memory contained within a minidump file.">
<polygon fill="white" stroke="#666666" points="346.25,-167.25 166,-167.25 166,-145 346.25,-145 346.25,-167.25"/>
<text text-anchor="middle" x="256.12" y="-153.75" font-family="Noto Sans, Lucida Grande, Lucida Sans Unicode, Helvetica, Arial, sans-serif" font-size="10.00">MINIDUMP_MEMORY_DESCRIPTOR</text>
</a>
</g>
</g>
<!-- Node3&#45;&gt;Node2 -->
<g id="edge2_Node000002_Node000003" class="edge">
<title>Node3&#45;&gt;Node2</title>
<g id="a_edge2_Node000002_Node000003"><a xlink:title=" ">
<path fill="none" stroke="#9a32cd" stroke-dasharray="5,2" d="M227.25,-138.97C203.11,-125.46 169.4,-106.6 148.71,-95.02"/>
<polygon fill="#9a32cd" stroke="#9a32cd" points="225.5,-142 235.94,-143.83 228.92,-135.89 225.5,-142"/>
</a>
</g>
<text text-anchor="middle" x="217.54" y="-117.5" font-family="Noto Sans, Lucida Grande, Lucida Sans Unicode, Helvetica, Arial, sans-serif" font-size="10.00" fill="grey"> Stack</text>
</g>
<!-- Node4 -->
<g id="Node000004" class="node">
<title>Node4</title>
<g id="a_Node000004"><a xlink:href="structMINIDUMP__LOCATION__DESCRIPTOR.html" target="_top" xlink:title="A pointer to a structure or union within a minidump file.">
<polygon fill="white" stroke="#666666" points="186.25,-239.75 0,-239.75 0,-217.5 186.25,-217.5 186.25,-239.75"/>
<text text-anchor="middle" x="93.12" y="-226.25" font-family="Noto Sans, Lucida Grande, Lucida Sans Unicode, Helvetica, Arial, sans-serif" font-size="10.00">MINIDUMP_LOCATION_DESCRIPTOR</text>
</a>
</g>
</g>
<!-- Node4&#45;&gt;Node2 -->
<g id="edge4_Node000002_Node000004" class="edge">
<title>Node4&#45;&gt;Node2</title>
<g id="a_edge4_Node000002_Node000004"><a xlink:title=" ">
<path fill="none" stroke="#9a32cd" stroke-dasharray="5,2" d="M87.02,-206.2C83.21,-189.2 80.15,-165.05 86.62,-145 93.05,-125.08 108.77,-106.2 119.44,-95.01"/>
<polygon fill="#9a32cd" stroke="#9a32cd" points="83.57,-206.85 89.42,-215.68 90.36,-205.13 83.57,-206.85"/>
</a>
</g>
<text text-anchor="middle" x="121.88" y="-153.75" font-family="Noto Sans, Lucida Grande, Lucida Sans Unicode, Helvetica, Arial, sans-serif" font-size="10.00" fill="grey"> ThreadContext</text>
</g>
<!-- Node4&#45;&gt;Node3 -->
<g id="edge3_Node000003_Node000004" class="edge">
<title>Node4&#45;&gt;Node3</title>
<g id="a_edge3_Node000003_Node000004"><a xlink:title=" ">
<path fill="none" stroke="#9a32cd" stroke-dasharray="5,2" d="M127.96,-212.56C159.22,-199.04 204.3,-179.54 231.82,-167.64"/>
<polygon fill="#9a32cd" stroke="#9a32cd" points="126.71,-209.29 118.92,-216.47 129.48,-215.71 126.71,-209.29"/>
</a>
</g>
<text text-anchor="middle" x="210.22" y="-190" font-family="Noto Sans, Lucida Grande, Lucida Sans Unicode, Helvetica, Arial, sans-serif" font-size="10.00" fill="grey"> Memory</text>
</g>
</g>
</svg>
